<svg xmlns="http://www.w3.org/2000/svg" viewBox="0 0 537.06 93.85"><title>Asset 2</title><g id="Layer_2" data-name="Layer 2"><g id="Layer_1-2" data-name="Layer 1"><path d="M48.34,46.48l14,4.44Q59.13,62.65,51.64,68.33T32.62,74Q18.36,74,9.18,64.28T0,37.65Q0,19.78,9.23,9.89T33.5,0Q46.63,0,54.83,7.76q4.88,4.59,7.32,13.18L47.85,24.37a14.79,14.79,0,0,0-15.09-12,16.29,16.29,0,0,0-12.92,5.71q-5,5.71-5,18.51,0,13.57,4.88,19.34a15.85,15.85,0,0,0,12.7,5.76A14.48,14.48,0,0,0,42.38,58Q46.53,54.35,48.34,46.48Z"/><path d="M88.33,1.22V27.54Q95,19.78,104.2,19.78a20.16,20.16,0,0,1,8.54,1.76A14,14,0,0,1,118.48,26a16.31,16.31,0,0,1,2.64,6.05,54.16,54.16,0,0,1,.71,10.3V72.8H108.11V45.41q0-8.15-.78-10.35a6.8,6.8,0,0,0-2.76-3.49,8.88,8.88,0,0,0-5-1.29,11.37,11.37,0,0,0-6.1,1.66,9.58,9.58,0,0,0-3.93,5q-1.25,3.34-1.25,9.89v26H74.61V1.22Z"/><path d="M165.77,56.3l13.67,2.29A22.43,22.43,0,0,1,171.12,70Q165.43,74,156.88,74q-13.53,0-20-8.84-5.13-7.08-5.13-17.87,0-12.89,6.74-20.19a22.19,22.19,0,0,1,17-7.3q11.57,0,18.26,7.64t6.4,23.41H145.8q.15,6.1,3.32,9.5A10.38,10.38,0,0,0,157,63.72,8.4,8.4,0,0,0,162.45,62,10.86,10.86,0,0,0,165.77,56.3Zm.78-13.87q-.15-6-3.08-9.06a9.9,9.9,0,0,0-14.55.17Q146,36.82,146,42.43Z"/><path d="M201,72.8,184.62,20.95h13.33l9.72,34,8.94-34h13.23l8.64,34,9.91-34h13.53L245.26,72.8H232.08l-8.94-33.35L214.36,72.8Z"/><path d="M262.65,20.95h14.6l12.4,36.82,12.11-36.82H316l-18.31,49.9-3.27,9a36.91,36.91,0,0,1-3.44,6.93,15,15,0,0,1-3.76,3.88A16.45,16.45,0,0,1,282,93a27.14,27.14,0,0,1-7,.83,36.36,36.36,0,0,1-7.76-.83L266,82.28a30.38,30.38,0,0,0,5.81.63q4.78,0,7.08-2.81a19.51,19.51,0,0,0,3.52-7.15Z"/><path d="M317.33,72.8V59.08h13.72V72.8Z"/><path d="M390.33,36.28l-13.53,2.44a9.82,9.82,0,0,0-3.1-6.1,9.36,9.36,0,0,0-6.27-2.05,10.25,10.25,0,0,0-8.18,3.54q-3.05,3.54-3.05,11.84,0,9.23,3.1,13a10.18,10.18,0,0,0,8.33,3.81,9.25,9.25,0,0,0,6.4-2.22q2.49-2.22,3.52-7.64L391,55.22q-2.1,9.28-8.06,14T367,74q-11.38,0-18.14-7.18t-6.76-19.87q0-12.84,6.79-20t18.36-7.15q9.47,0,15.06,4.08T390.33,36.28Z"/><path d="M397.56,46.14a28.05,28.05,0,0,1,3.37-13.23,23.12,23.12,0,0,1,9.55-9.77,28.33,28.33,0,0,1,13.79-3.37q11.77,0,19.29,7.64t7.52,19.31q0,11.77-7.59,19.51A25.66,25.66,0,0,1,424.37,74a30.11,30.11,0,0,1-13.6-3.22,22.11,22.11,0,0,1-9.84-9.45A31.48,31.48,0,0,1,397.56,46.14Zm14.06.73q0,7.72,3.66,11.82a12,12,0,0,0,18,0Q437,54.59,437,46.78q0-7.62-3.64-11.72a12,12,0,0,0-18,0Q411.62,39.16,411.62,46.88Z"/><path d="M460.79,20.95h12.65V28q6.79-8.25,16.16-8.25a17.41,17.41,0,0,1,8.64,2.05,15.76,15.76,0,0,1,6,6.2,24,24,0,0,1,7.37-6.2,18.09,18.09,0,0,1,8.45-2.05,18.82,18.82,0,0,1,9.67,2.32,14.21,14.21,0,0,1,5.91,6.81q1.42,3.32,1.42,10.74V72.8H523.34V43.16q0-7.71-1.42-10a6.5,6.5,0,0,0-5.86-2.93A9.35,9.35,0,0,0,510.64,32,9.74,9.74,0,0,0,507,37.18q-1.12,3.39-1.12,10.72V72.8H492.14V44.38q0-7.57-.73-9.77a6.23,6.23,0,0,0-2.27-3.27A7.18,7.18,0,0,0,485,30.27,10,10,0,0,0,479.25,32a9.37,9.37,0,0,0-3.64,4.93q-1.1,3.22-1.1,10.69V72.8H460.79Z"/></g></g></svg>