<?xml version="1.0" encoding="UTF-8"?>
<svg width="928px" height="331px" viewBox="0 0 928 331" version="1.1" xmlns="http://www.w3.org/2000/svg" xmlns:xlink="http://www.w3.org/1999/xlink">
    <!-- Generator: Sketch 55 (78076) - https://sketchapp.com -->
    <title>Group 2</title>
    <desc>Created with Sketch.</desc>
    <g id="Symbols" stroke="none" stroke-width="1" fill="none" fill-rule="evenodd">
        <g id="miro" transform="translate(-232.000000, -183.000000)" fill="#050038" fill-rule="nonzero">
            <g id="Group" transform="translate(232.000000, 183.000000)">
                <g id="Group-2" transform="translate(0.400000, 0.100000)">
                    <polygon id="Path" points="398.4 315.7 449.4 326.1 449.4 99.5 398.4 109.4"></polygon>
                    <path d="M531.8,191.7 L531.8,315.7 L582.8,326.1 L582.8,199.4 C582.8,170.6 599,157.6 624.3,152.8 L653.7,147.4 L653.7,94.2 L624.3,99 C568.3,111.8 531.8,130.1 531.8,191.7 Z" id="Path"></path>
                    <path d="M316,184.2 C316,117.2 271.4,94.8 235.5,95.3 C207,95.7 183.8,107.5 169.9,125.6 C156.1,105.7 131.5,94.7 111.5,94.7 C86.9,94.7 65.2,105.5 51,122.8 L51,99.5 L0,109.4 L0,315.7 L51,326.1 L51,184.2 C51,161.7 67.4,145.7 92.1,145.7 C116.3,145.7 132.7,161.7 132.7,184.2 L132.7,315.7 L183.7,326.1 L183.7,184.2 C183.7,161.7 200.1,145.7 224.3,145.7 C248.5,145.7 264.9,161.7 264.9,184.2 L264.9,315.7 L315.9,326.1 L315.9,184.2 L316,184.2 Z" id="Path"></path>
                    <path d="M813.8,283 C774.2,283 747.7,254.7 747.7,212.6 C747.7,170.5 774.2,142.6 813.8,142.6 C850.8,142.6 875.1,170.4 875.1,212.6 C875.1,254.8 850.7,283 813.8,283 Z M813.8,330.8 C882.1,330.8 927.3,283.4 927.3,212.5 C927.3,141.6 882.1,94.7 813.8,94.7 C742.9,94.7 695.5,141.7 695.5,212.5 C695.5,283.3 742.9,330.8 813.8,330.8 Z" id="Shape"></path>
                    <path d="M425,64.2 C443.6,64.2 455.9,51.3 455.9,32 C455.9,12.7 443.6,-3.55271368e-14 425,-3.55271368e-14 C405.7,-3.55271368e-14 392.8,12.8 392.8,32 C392.8,51.2 405.7,64.2 425,64.2 Z" id="Path"></path>
                </g>
            </g>
        </g>
    </g>
</svg>