<svg width="150" height="35" viewBox="0 0 150 35" fill="none" xmlns="http://www.w3.org/2000/svg">
<g opacity="0.8">
<path d="M12.2739 26.1049C13.0038 26.1049 13.5968 25.9042 14.053 25.5028C14.5091 25.1014 14.7463 24.5677 14.7646 23.9017H18.4731C18.464 24.9052 18.1903 25.8267 17.6521 26.666C17.1138 27.4962 16.3748 28.1439 15.4351 28.6092C14.5046 29.0654 13.4736 29.2935 12.3424 29.2935C10.2258 29.2935 8.55626 28.6229 7.33376 27.2818C6.11125 25.9316 5.5 24.0705 5.5 21.6984V21.4384C5.5 19.1576 6.10669 17.3376 7.32007 15.9782C8.53345 14.6189 10.1984 13.9392 12.315 13.9392C14.167 13.9392 15.6495 14.4683 16.7625 15.5266C17.8847 16.5758 18.4549 17.9762 18.4731 19.7278H14.7646C14.7463 18.9615 14.5091 18.3411 14.053 17.8667C13.5968 17.3832 12.9947 17.1414 12.2466 17.1414C11.3251 17.1414 10.6272 17.479 10.1528 18.1541C9.68753 18.8201 9.45489 19.9057 9.45489 21.411V21.8216C9.45489 23.3452 9.68753 24.4399 10.1528 25.1059C10.6181 25.7719 11.3251 26.1049 12.2739 26.1049Z" fill="#9E9E9E"/>
<path d="M24.5902 15.8277C25.6394 14.5687 26.9577 13.9392 28.5451 13.9392C31.7565 13.9392 33.3849 15.8049 33.4306 19.5362V29.0198H29.4757V19.6457C29.4757 18.7973 29.2932 18.1723 28.9283 17.7709C28.5634 17.3604 27.9567 17.1551 27.1082 17.1551C25.9496 17.1551 25.1102 17.6021 24.5902 18.4962V29.0198H20.6353V8H24.5902V15.8277Z" fill="#9E9E9E"/>
<path d="M43.2288 29.2935C41.0575 29.2935 39.2876 28.6275 37.9192 27.2955C36.5598 25.9635 35.8801 24.1891 35.8801 21.9721V21.589C35.8801 20.1019 36.1675 18.7745 36.7423 17.6067C37.317 16.4298 38.129 15.5266 39.1782 14.8971C40.2364 14.2585 41.4407 13.9392 42.7909 13.9392C44.8163 13.9392 46.4083 14.5778 47.5669 15.855C48.7347 17.1323 49.3186 18.9432 49.3186 21.2879V22.9027H39.8898C40.0175 23.8697 40.4007 24.6452 41.0393 25.2291C41.687 25.813 42.5036 26.1049 43.4889 26.1049C45.0124 26.1049 46.203 25.553 47.0606 24.4491L49.0038 26.6249C48.4108 27.4643 47.608 28.1211 46.5953 28.5955C45.5826 29.0608 44.4605 29.2935 43.2288 29.2935ZM42.7772 17.1414C41.9927 17.1414 41.354 17.406 40.8614 17.9351C40.3779 18.4643 40.0677 19.2215 39.9308 20.2068H45.4321V19.892C45.4138 19.0162 45.1766 18.3411 44.7205 17.8667C44.2643 17.3832 43.6166 17.1414 42.7772 17.1414Z" fill="#9E9E9E"/>
<path d="M64.4539 23.6417L66.3971 14.2129H70.2152L66.4382 29.0198H63.1265L60.3211 19.7005L57.5157 29.0198H54.2177L50.4407 14.2129H54.2587L56.1883 23.628L58.8979 14.2129H61.758L64.4539 23.6417Z" fill="#9E9E9E"/>
<path d="M77.7144 23.4227L80.4513 14.2129H84.6936L78.7408 31.3188L78.4123 32.0988C77.5274 34.0329 76.0677 35 74.0332 35C73.4584 35 72.8746 34.9133 72.2816 34.74V31.743L72.8837 31.7567C73.6318 31.7567 74.1883 31.6427 74.5532 31.4146C74.9273 31.1865 75.2192 30.8079 75.429 30.2788L75.8943 29.0608L70.7078 14.2129H74.9638L77.7144 23.4227Z" fill="#9E9E9E"/>
<path d="M84.1599 27.0765C84.1599 26.447 84.3697 25.9361 84.7894 25.5438C85.2182 25.1515 85.7519 24.9554 86.3905 24.9554C87.0383 24.9554 87.572 25.1515 87.9916 25.5438C88.4204 25.9361 88.6348 26.447 88.6348 27.0765C88.6348 27.6969 88.425 28.2032 88.0053 28.5955C87.5857 28.9787 87.0474 29.1703 86.3905 29.1703C85.7428 29.1703 85.2091 28.9787 84.7894 28.5955C84.3697 28.2032 84.1599 27.6969 84.1599 27.0765Z" fill="#9E9E9E"/>
<path d="M98.2689 26.1049C98.9987 26.1049 99.5917 25.9042 100.048 25.5028C100.504 25.1014 100.741 24.5677 100.76 23.9017H104.468C104.459 24.9052 104.185 25.8267 103.647 26.666C103.109 27.4962 102.37 28.1439 101.43 28.6092C100.5 29.0654 99.4686 29.2935 98.3373 29.2935C96.2207 29.2935 94.5512 28.6229 93.3287 27.2818C92.1062 25.9316 91.4949 24.0705 91.4949 21.6984V21.4384C91.4949 19.1576 92.1016 17.3376 93.315 15.9782C94.5284 14.6189 96.1934 13.9392 98.3099 13.9392C100.162 13.9392 101.644 14.4683 102.757 15.5266C103.88 16.5758 104.45 17.9762 104.468 19.7278H100.76C100.741 18.9615 100.504 18.3411 100.048 17.8667C99.5917 17.3832 98.9896 17.1414 98.2415 17.1414C97.3201 17.1414 96.6222 17.479 96.1478 18.1541C95.6825 18.8201 95.4498 19.9057 95.4498 21.411V21.8216C95.4498 23.3452 95.6825 24.4399 96.1478 25.1059C96.613 25.7719 97.3201 26.1049 98.2689 26.1049Z" fill="#9E9E9E"/>
<path d="M106.11 21.4795C106.11 20.0106 106.393 18.7015 106.959 17.552C107.524 16.4024 108.336 15.5129 109.395 14.8834C110.462 14.2539 111.698 13.9392 113.103 13.9392C115.101 13.9392 116.73 14.5504 117.989 15.7729C119.257 16.9954 119.964 18.6559 120.11 20.7542L120.137 21.7669C120.137 24.0385 119.503 25.8632 118.235 27.2408C116.967 28.6092 115.265 29.2935 113.131 29.2935C110.996 29.2935 109.29 28.6092 108.012 27.2408C106.744 25.8723 106.11 24.0112 106.11 21.6574V21.4795ZM110.065 21.7669C110.065 23.1718 110.33 24.2484 110.859 24.9965C111.388 25.7354 112.145 26.1049 113.131 26.1049C114.088 26.1049 114.837 25.74 115.375 25.0101C115.913 24.2712 116.182 23.0943 116.182 21.4795C116.182 20.1019 115.913 19.0345 115.375 18.2772C114.837 17.52 114.079 17.1414 113.103 17.1414C112.136 17.1414 111.388 17.52 110.859 18.2772C110.33 19.0253 110.065 20.1885 110.065 21.7669Z" fill="#9E9E9E"/>
<path d="M126.282 14.2129L126.405 15.8687C127.454 14.5824 128.873 13.9392 130.661 13.9392C132.567 13.9392 133.877 14.6918 134.588 16.1972C135.628 14.6918 137.111 13.9392 139.036 13.9392C140.641 13.9392 141.837 14.409 142.621 15.3487C143.406 16.2793 143.798 17.6842 143.798 19.5636V29.0198H139.829V19.5773C139.829 18.738 139.665 18.1267 139.337 17.7435C139.008 17.3512 138.429 17.1551 137.599 17.1551C136.413 17.1551 135.592 17.7207 135.136 18.852L135.149 29.0198H131.194V19.591C131.194 18.7334 131.026 18.113 130.688 17.7299C130.35 17.3467 129.776 17.1551 128.964 17.1551C127.842 17.1551 127.03 17.6204 126.528 18.5509V29.0198H122.573V14.2129H126.282Z" fill="#9E9E9E"/>
</g>
</svg>
