<svg width="40" height="26" viewBox="0 0 40 26" fill="none" xmlns="http://www.w3.org/2000/svg">
<path fill-rule="evenodd" clip-rule="evenodd" d="M22.5404 15.9183C22.5645 15.8582 22.5837 15.7992 22.5974 15.7396C22.5987 15.7342 22.6 15.7287 22.6013 15.7232C22.6188 15.649 22.6363 15.5748 22.6363 15.501C22.6363 15.4454 22.6304 15.3898 22.6211 15.3346C22.6088 15.2603 22.6156 15.186 22.6363 15.1157L22.6358 11.4629C22.5098 11.5765 22.376 11.6882 22.2274 11.7965C20.3658 13.1901 16.6682 14.2707 11.3182 14.2707C5.94552 14.2707 2.23859 13.1812 0.384877 11.7793C0.261854 11.6887 0.15261 11.5947 0.0453334 11.5003C0.0386578 11.4943 0.0313361 11.4884 0.0240232 11.4825C0.015703 11.4759 0.00739419 11.4692 6.10352e-05 11.4624V15.1157C0.0207289 15.186 0.0276183 15.2603 0.015316 15.3346C0.0064583 15.3898 6.10352e-05 15.4454 6.10352e-05 15.501C6.10352e-05 15.5743 0.01733 15.648 0.0343326 15.7206C0.035708 15.7264 0.0370816 15.7323 0.0384442 15.7382C0.0522228 15.7977 0.0714142 15.8572 0.0955268 15.9168C0.115703 15.9655 0.139323 16.0142 0.165896 16.0629C0.199358 16.1235 0.236265 16.184 0.279569 16.2445C0.312048 16.2903 0.348955 16.3356 0.387338 16.3808C0.44196 16.4458 0.500027 16.5098 0.565968 16.5737C0.602584 16.6099 0.642937 16.6452 0.683214 16.6805L0.693911 16.6899C0.774614 16.7602 0.858762 16.8301 0.952752 16.8995C0.980583 16.9202 1.01005 16.9404 1.03955 16.9607C1.05281 16.9698 1.06609 16.9789 1.07922 16.9881C1.19043 17.0648 1.30657 17.1411 1.43402 17.2159C1.45488 17.2285 1.47688 17.2407 1.49884 17.2529C1.51211 17.2602 1.52537 17.2676 1.53834 17.275C1.68499 17.3581 1.83803 17.4398 2.00337 17.5195C2.01111 17.5231 2.01905 17.5267 2.02705 17.5304C2.0409 17.5366 2.05491 17.543 2.06833 17.5496C2.25237 17.6367 2.44576 17.7223 2.65195 17.805C2.65785 17.8074 2.66376 17.8099 2.66966 17.8118C3.7872 18.2582 5.21673 18.6336 6.88247 18.8797C6.89083 18.8812 6.8992 18.8821 6.90756 18.8831C7.23136 18.9304 7.56352 18.9732 7.90454 19.0106C7.93261 19.0136 7.96144 19.016 7.99031 19.0185C8.01864 19.021 8.04703 19.0234 8.07481 19.0263C8.37252 19.0573 8.67368 19.0859 8.9837 19.1085C9.07212 19.115 9.16323 19.1195 9.25426 19.124C9.30914 19.1267 9.36399 19.1295 9.41822 19.1326C9.4762 19.1359 9.53404 19.1394 9.59188 19.1428C9.76673 19.1533 9.94171 19.1637 10.1214 19.17C10.5126 19.1838 10.9112 19.1917 11.3182 19.1917C11.7251 19.1917 12.1237 19.1838 12.5145 19.1715C12.7106 19.1646 12.9011 19.1531 13.0919 19.1416C13.1338 19.1391 13.1757 19.1366 13.2177 19.1341C13.2781 19.1304 13.3394 19.1274 13.4006 19.1243C13.4853 19.1202 13.5699 19.116 13.6522 19.11C13.9622 19.0873 14.2634 19.0588 14.5611 19.0278C14.5889 19.0249 14.6172 19.0224 14.6456 19.02C14.6744 19.0175 14.7033 19.015 14.7313 19.0121C15.0724 18.9747 15.4045 18.9323 15.7283 18.8846C15.7367 18.8831 15.7451 18.8821 15.7534 18.8812C17.4191 18.6351 18.8487 18.2596 19.9662 17.8133C19.9692 17.8121 19.9721 17.811 19.9751 17.8099C19.978 17.8088 19.981 17.8077 19.9839 17.8064C20.1901 17.7238 20.383 17.6381 20.5676 17.551C20.5717 17.5491 20.5759 17.5472 20.5801 17.5453C20.5977 17.5374 20.6154 17.5294 20.6325 17.521C20.7979 17.4413 20.9509 17.3591 21.0975 17.2764C21.1082 17.2704 21.119 17.2644 21.1298 17.2584C21.1543 17.2449 21.1787 17.2314 21.2019 17.2174C21.3293 17.1426 21.4454 17.0663 21.5567 16.9896C21.5659 16.9832 21.5752 16.9768 21.5845 16.9704C21.6181 16.9474 21.6515 16.9245 21.6831 16.901C21.7771 16.8316 21.8613 16.7617 21.942 16.6913L21.9438 16.6897C21.9875 16.6514 22.0306 16.6135 22.0699 16.5752C22.1359 16.5112 22.1939 16.4468 22.2485 16.3823C22.2869 16.337 22.3238 16.2918 22.3563 16.246C22.4001 16.1855 22.437 16.1249 22.47 16.0644C22.4966 16.0157 22.5207 15.967 22.5404 15.9183ZM22.6363 9.21056V5.55726C22.5948 5.59495 22.5492 5.63216 22.5035 5.6694C22.4842 5.68515 22.4649 5.7009 22.4459 5.7167C22.4305 5.72935 22.4156 5.742 22.4008 5.75466C22.381 5.77153 22.3612 5.7884 22.3401 5.80528C22.1924 5.9219 22.033 6.03607 21.8603 6.14777C21.8394 6.16122 21.817 6.17451 21.7946 6.18782C21.7784 6.1974 21.7623 6.20699 21.7466 6.21667C21.6019 6.30721 21.4489 6.3953 21.288 6.48141C21.2289 6.5134 21.1689 6.54489 21.1074 6.57639C20.9278 6.66791 20.7393 6.75649 20.541 6.8431C20.5274 6.84908 20.5143 6.85514 20.5012 6.86118C20.4832 6.86957 20.4652 6.8779 20.446 6.88591C20.2157 6.98384 19.9702 7.07734 19.7153 7.16788C19.6702 7.18394 19.6238 7.1994 19.5772 7.2149C19.551 7.22361 19.5248 7.23234 19.4987 7.2412C19.296 7.3096 19.0864 7.37505 18.8693 7.43853C18.8445 7.44571 18.8199 7.45294 18.7952 7.46017C18.7421 7.47574 18.6889 7.49132 18.6341 7.50644C18.3463 7.58567 18.049 7.66194 17.737 7.73182C17.715 7.73663 17.692 7.74119 17.669 7.74575C17.6474 7.75005 17.6257 7.75435 17.6047 7.75888C17.3296 7.81892 17.0442 7.87453 16.7509 7.92669C16.6515 7.9444 16.5506 7.96113 16.4492 7.97786C16.1697 8.02363 15.8828 8.06546 15.5881 8.10384C15.5554 8.10808 15.5234 8.11259 15.4914 8.11711C15.4491 8.12307 15.4069 8.12903 15.3632 8.13435C14.9971 8.17864 14.6182 8.21702 14.2289 8.24901C14.175 8.25341 14.1202 8.25704 14.0654 8.26067C14.022 8.26354 13.9786 8.26642 13.9356 8.26967C13.6241 8.29231 13.3057 8.31101 12.98 8.32577L12.966 8.32641C12.8516 8.33161 12.7381 8.33677 12.6222 8.34103C12.198 8.3553 11.766 8.36563 11.3182 8.36563C10.8704 8.36563 10.4383 8.3553 10.0141 8.34103C9.89546 8.33669 9.77962 8.3314 9.66337 8.32609L9.65639 8.32577C9.33062 8.31101 9.01224 8.29231 8.70075 8.26967C8.66763 8.26733 8.63423 8.26511 8.6008 8.26288C8.53586 8.25854 8.4708 8.2542 8.40746 8.24901C8.01822 8.21653 7.6393 8.17864 7.27319 8.13435C7.2295 8.12903 7.18725 8.12307 7.14497 8.11711C7.11297 8.11259 7.08096 8.10808 7.0483 8.10384C6.75354 8.06546 6.46616 8.02363 6.18714 7.97786C6.08577 7.96113 5.98489 7.9444 5.88549 7.92669C5.5922 7.87453 5.30679 7.81892 5.03171 7.75888C5.01277 7.7548 4.99327 7.75099 4.97373 7.74718C4.9486 7.74227 4.92342 7.73736 4.89933 7.73182C4.58735 7.66194 4.29012 7.58616 4.00225 7.50644C3.9479 7.49177 3.89514 7.4762 3.84242 7.46064C3.81733 7.45323 3.79226 7.44583 3.76703 7.43853C3.55002 7.37505 3.34038 7.3096 3.13764 7.2412C3.1116 7.23234 3.08536 7.22361 3.05916 7.21489C3.01259 7.1994 2.96615 7.18394 2.92112 7.16788C2.66622 7.07734 2.42116 6.98384 2.19036 6.88591C2.17121 6.8779 2.15321 6.86957 2.13512 6.86118C2.12208 6.85514 2.109 6.84908 2.09539 6.8431C1.89708 6.75698 1.70861 6.66791 1.52899 6.57639C1.46748 6.54489 1.40794 6.5134 1.34839 6.48141C1.18748 6.3948 1.03444 6.30672 0.889764 6.21667C0.874117 6.20699 0.857953 6.1974 0.841813 6.18782C0.819376 6.17451 0.796984 6.16122 0.776091 6.14777C0.603366 6.03607 0.443929 5.92141 0.296301 5.80528C0.272257 5.78629 0.250044 5.76731 0.227831 5.74833C0.215492 5.73779 0.203153 5.72724 0.190501 5.7167C0.171488 5.7009 0.15217 5.68515 0.132859 5.6694C0.0871941 5.63217 0.0415616 5.59496 6.10352e-05 5.55726V9.21056C0.0207289 9.28092 0.0276183 9.35523 0.015316 9.42954C0.0064583 9.48465 6.10352e-05 9.54026 6.10352e-05 9.59586C6.10352e-05 9.66916 0.0173306 9.74288 0.0343335 9.81547C0.0357086 9.82134 0.0370819 9.8272 0.0384442 9.83305C0.0522228 9.8926 0.0714142 9.95214 0.0955268 10.0117C0.115703 10.0604 0.139323 10.1091 0.165896 10.1578C0.199358 10.2184 0.236265 10.2789 0.279569 10.3394C0.312048 10.3852 0.348955 10.4305 0.387338 10.4757C0.44196 10.5407 0.500027 10.6047 0.565968 10.6686C0.602577 10.7048 0.642923 10.7401 0.683192 10.7754C0.686767 10.7785 0.690341 10.7816 0.693911 10.7848C0.774614 10.8551 0.858762 10.925 0.952752 10.9944C0.980589 11.0151 1.01007 11.0353 1.03957 11.0556C1.05283 11.0647 1.06609 11.0738 1.07922 11.083C1.19043 11.1597 1.30657 11.236 1.43402 11.3108C1.45488 11.3234 1.47689 11.3356 1.49885 11.3478C1.51212 11.3551 1.52537 11.3624 1.53834 11.3699C1.68499 11.453 1.83803 11.5347 2.00337 11.6144C2.01111 11.618 2.01904 11.6216 2.02703 11.6252C2.04089 11.6315 2.0549 11.6379 2.06833 11.6444C2.25237 11.7315 2.44576 11.8172 2.65195 11.8998C2.65785 11.9023 2.66376 11.9048 2.66966 11.9067C3.7872 12.3531 5.21673 12.7285 6.88247 12.9746C6.89083 12.976 6.8992 12.977 6.90756 12.978C7.23136 13.0253 7.56352 13.0681 7.90454 13.1055C7.93262 13.1084 7.96145 13.1109 7.99033 13.1134C8.01866 13.1158 8.04703 13.1183 8.07481 13.1212C8.37252 13.1522 8.67368 13.1808 8.9837 13.2034C9.07213 13.2098 9.16325 13.2144 9.2543 13.2189C9.30916 13.2216 9.364 13.2244 9.41822 13.2275C9.47619 13.2308 9.53402 13.2343 9.59185 13.2377C9.76671 13.2482 9.9417 13.2586 10.1214 13.2649C10.5126 13.2787 10.9112 13.2866 11.3182 13.2866C11.7251 13.2866 12.1237 13.2787 12.5145 13.2664C12.7106 13.2595 12.901 13.248 13.0918 13.2365C13.1337 13.234 13.1757 13.2315 13.2177 13.229C13.2781 13.2253 13.3394 13.2222 13.4006 13.2192C13.4853 13.215 13.5699 13.2109 13.6522 13.2049C13.9622 13.1822 14.2634 13.1537 14.5611 13.1227C14.5889 13.1198 14.6172 13.1173 14.6456 13.1149C14.6744 13.1124 14.7033 13.1099 14.7313 13.1069C15.0724 13.0695 15.4045 13.0272 15.7283 12.9795C15.7367 12.978 15.7451 12.977 15.7534 12.976C17.4191 12.73 18.8487 12.3545 19.9662 11.9082C19.9674 11.9077 19.9685 11.9073 19.9697 11.9068C19.9744 11.905 19.9792 11.9033 19.9839 11.9013C20.1901 11.8186 20.383 11.733 20.5676 11.6459C20.5892 11.6361 20.6114 11.6262 20.6325 11.6159C20.7979 11.5362 20.9509 11.454 21.0975 11.3713C21.1082 11.3653 21.119 11.3593 21.1298 11.3533C21.1543 11.3398 21.1787 11.3263 21.2019 11.3123C21.3293 11.2375 21.4454 11.1612 21.5567 11.0844C21.5659 11.0781 21.5752 11.0717 21.5845 11.0653C21.6181 11.0423 21.6515 11.0194 21.6831 10.9959C21.7771 10.9265 21.8613 10.8566 21.942 10.7862L21.9439 10.7846C21.9875 10.7463 22.0306 10.7084 22.0699 10.6701C22.1359 10.6061 22.1939 10.5417 22.2485 10.4772C22.2869 10.4319 22.3238 10.3867 22.3563 10.3409C22.4001 10.2804 22.437 10.2198 22.47 10.1593C22.4966 10.1106 22.5207 10.0619 22.5404 10.0132C22.5645 9.95312 22.5837 9.89407 22.5974 9.83453C22.5987 9.82907 22.6 9.8236 22.6013 9.81814C22.6188 9.74389 22.6363 9.66966 22.6363 9.59586C22.6363 9.54026 22.6304 9.48465 22.6211 9.42954C22.6088 9.35523 22.6156 9.28092 22.6363 9.21056ZM22.6363 3.69075C22.6363 1.94481 17.9885 6.10352e-05 11.3182 6.10352e-05C4.64787 6.10352e-05 6.10352e-05 1.94481 6.10352e-05 3.69075C6.10352e-05 5.4367 4.64787 7.38145 11.3182 7.38145C17.9885 7.38145 22.6363 5.4367 22.6363 3.69075ZM22.6206 21.5724C22.6245 21.5498 22.6294 21.5276 22.6363 21.506L22.6358 17.368C22.5098 17.4816 22.376 17.5934 22.2274 17.7016C20.3658 19.0952 16.6682 20.1759 11.3182 20.1759C5.94552 20.1759 2.23859 19.0864 0.384877 17.6844C0.261854 17.5938 0.15261 17.4999 0.0453334 17.4054C0.0386584 17.3994 0.0313374 17.3935 0.0240252 17.3876C0.0157043 17.381 0.00739477 17.3743 6.10352e-05 17.3675V21.5079C0.00645823 21.5286 0.0118712 21.5503 0.0158079 21.5724C0.294824 23.2746 4.90327 25.0968 11.3182 25.0968C17.7331 25.0968 22.3416 23.2746 22.6206 21.5724Z" fill="#FF6112"/>
<path fill-rule="evenodd" clip-rule="evenodd" d="M36.2863 1.30157V7.35486C38.5674 6.74538 39.9999 5.4891 39.9999 4.32822C39.9999 3.16733 38.5674 1.91106 36.2863 1.30157ZM36.2863 8.29139V12.794C37.119 12.5702 37.8401 12.2601 38.4196 11.8998C38.423 11.8976 38.4265 11.8957 38.43 11.8935C38.5521 11.8173 38.6662 11.7384 38.7755 11.6582L38.7828 11.653L38.7828 11.6529C38.7933 11.6456 38.8038 11.6382 38.8139 11.6305C38.9118 11.557 39.0023 11.4813 39.0891 11.4051L39.1082 11.3886C39.1227 11.3761 39.1371 11.3636 39.1509 11.3507C39.2263 11.2818 39.295 11.2115 39.3609 11.1408L39.3773 11.1232C39.3972 11.102 39.417 11.0809 39.4357 11.0592C39.4914 10.9953 39.5412 10.9309 39.5889 10.866L39.59 10.8645L39.5901 10.8645C39.6159 10.8292 39.6414 10.7943 39.6646 10.759C39.7037 10.7001 39.738 10.6407 39.7704 10.5813C39.7931 10.5396 39.8149 10.4979 39.8342 10.4557C39.8601 10.3999 39.8819 10.3442 39.9014 10.2884C39.9172 10.2435 39.9314 10.1986 39.9431 10.1537C39.9574 10.0984 39.9687 10.044 39.9769 9.98913L39.9792 9.97403C39.9895 9.90561 39.9999 9.83722 39.9999 9.76922C39.9999 9.71798 39.9964 9.66675 39.9908 9.61596C39.9836 9.5475 39.9876 9.47903 39.9999 9.41419V6.04803C39.9753 6.08276 39.9483 6.11704 39.9213 6.15135L39.9213 6.15139C39.9098 6.16589 39.8984 6.18039 39.8872 6.19493C39.8781 6.20659 39.8693 6.21825 39.8605 6.22991C39.8487 6.24545 39.837 6.261 39.8245 6.27655C39.7372 6.38401 39.6428 6.4892 39.5406 6.59213C39.5282 6.60452 39.515 6.61676 39.5017 6.62903L39.5017 6.62904C39.4921 6.63786 39.4826 6.64669 39.4733 6.65561C39.3877 6.73903 39.2971 6.8202 39.2018 6.89954C39.1669 6.92902 39.1314 6.95803 39.095 6.98705C38.9887 7.07139 38.8771 7.153 38.7597 7.2328C38.7517 7.2383 38.744 7.24388 38.7363 7.24943L38.7362 7.24947C38.7255 7.25719 38.7149 7.26487 38.7035 7.27225C38.5672 7.36248 38.4219 7.44863 38.271 7.53206C38.2444 7.54686 38.2169 7.5611 38.1893 7.57538C38.1738 7.58341 38.1583 7.59146 38.1429 7.59962C38.0229 7.66264 37.8988 7.72295 37.7704 7.78144L37.7265 7.80136C37.695 7.81571 37.6636 7.83007 37.6311 7.84401C37.4608 7.91701 37.2848 7.98729 37.1002 8.05168C37.0871 8.05611 37.0735 8.06031 37.0599 8.06451C37.0471 8.06847 37.0343 8.07244 37.0218 8.07661C36.859 8.13193 36.6901 8.18317 36.5165 8.23123C36.4577 8.24755 36.398 8.26297 36.338 8.27838L36.2863 8.29139ZM36.2863 13.735V18.235C37.119 18.0112 37.8401 17.7011 38.4196 17.3408L38.4248 17.3377L38.43 17.3345C38.5521 17.2583 38.6662 17.1794 38.7755 17.0992L38.7829 17.0939L38.783 17.0939C38.7934 17.0865 38.8038 17.0792 38.8139 17.0715C38.9118 16.998 39.0023 16.9223 39.0891 16.8461L39.1083 16.8296C39.1227 16.8171 39.1371 16.8046 39.1509 16.7917C39.2263 16.7228 39.295 16.6525 39.3609 16.5818L39.3773 16.5642L39.3774 16.5642C39.3972 16.543 39.417 16.5219 39.4357 16.5002C39.4914 16.4363 39.5412 16.3719 39.5889 16.307L39.59 16.3055L39.5901 16.3055C39.6159 16.2702 39.6414 16.2353 39.6646 16.2C39.7037 16.1411 39.738 16.0817 39.7704 16.0223C39.7931 15.9806 39.8149 15.9389 39.8342 15.8967C39.8601 15.8409 39.8819 15.7852 39.9014 15.7294C39.9172 15.6845 39.9314 15.6396 39.9431 15.5947C39.9574 15.5394 39.9687 15.485 39.9769 15.4301L39.9792 15.415C39.9895 15.3466 39.9999 15.2782 39.9999 15.2102C39.9999 15.159 39.9964 15.1077 39.9908 15.057C39.9836 14.9885 39.9876 14.92 39.9999 14.8552L39.9996 11.4895C39.925 11.5942 39.8458 11.6971 39.7578 11.7969C39.0453 12.6273 37.8784 13.3371 36.2863 13.735ZM36.2863 19.176V23.6751C38.4592 23.0916 39.8731 21.92 39.9906 20.8045C39.9929 20.7836 39.9958 20.7632 39.9999 20.7433L39.9996 16.9305C39.925 17.0352 39.8458 17.1381 39.7578 17.2379C39.0453 18.0683 37.8784 18.7781 36.2863 19.176Z" fill="#FF6112"/>
<path fill-rule="evenodd" clip-rule="evenodd" d="M30.6374 1.29852V7.35155C32.9182 6.74202 34.3505 5.48584 34.3505 4.32504C34.3505 3.16423 32.9182 1.90805 30.6374 1.29852ZM30.6374 8.28809V12.7907C31.4699 12.5669 32.1908 12.2568 32.7701 11.8966L32.7754 11.8935L32.7806 11.8903C32.9027 11.8141 33.0168 11.7352 33.126 11.655L33.1334 11.6498L33.1334 11.6498C33.1439 11.6424 33.1544 11.635 33.1645 11.6273C33.2624 11.5539 33.3529 11.4781 33.4397 11.402L33.4588 11.3854C33.4733 11.3729 33.4877 11.3605 33.5015 11.3476C33.5769 11.2786 33.6456 11.2084 33.7115 11.1376L33.7279 11.12C33.7478 11.0988 33.7676 11.0777 33.7863 11.056C33.8419 10.9921 33.8917 10.9277 33.9395 10.8629L33.9406 10.8613L33.9406 10.8613C33.9665 10.826 33.992 10.7911 34.0152 10.7558C34.0543 10.6969 34.0886 10.6375 34.121 10.5781C34.1437 10.5364 34.1655 10.4947 34.1847 10.4525C34.2107 10.3967 34.2325 10.341 34.252 10.2852C34.2677 10.2403 34.282 10.1954 34.2937 10.1505C34.3079 10.0952 34.3193 10.0408 34.3275 9.98594L34.3297 9.97085C34.3401 9.90243 34.3505 9.83404 34.3505 9.76604C34.3505 9.7148 34.347 9.66357 34.3414 9.61278C34.3342 9.54432 34.3382 9.47585 34.3505 9.41101V6.04485C34.3259 6.07958 34.2989 6.11386 34.2719 6.14817L34.2718 6.14821C34.2604 6.16271 34.249 6.17721 34.2377 6.19175C34.2286 6.20341 34.2198 6.21507 34.2111 6.22673C34.1993 6.24227 34.1876 6.25782 34.1751 6.27337C34.0878 6.38083 33.9934 6.48602 33.8912 6.58895C33.8788 6.60134 33.8655 6.61358 33.8523 6.62585C33.8427 6.63467 33.8331 6.64351 33.8239 6.65242C33.7383 6.73585 33.6477 6.81701 33.5524 6.89636C33.5175 6.92583 33.482 6.95485 33.4455 6.98387C33.3392 7.06821 33.2277 7.14982 33.1103 7.22962C33.1023 7.23512 33.0946 7.24069 33.0869 7.24625L33.0868 7.24629C33.0761 7.25401 33.0654 7.26169 33.0541 7.26907C32.9178 7.3593 32.7725 7.44545 32.6216 7.52888C32.5949 7.54368 32.5675 7.55792 32.5399 7.5722C32.5244 7.58023 32.5089 7.58828 32.4934 7.59644C32.3735 7.65946 32.2494 7.71977 32.1209 7.77826L32.0771 7.79818C32.0456 7.81253 32.0142 7.82689 31.9817 7.84083C31.8113 7.91383 31.6354 7.98411 31.4508 8.04849C31.4377 8.05293 31.4241 8.05713 31.4105 8.06133C31.3977 8.06529 31.3849 8.06926 31.3724 8.07343C31.2096 8.12875 31.0407 8.17999 30.8671 8.22805C30.8083 8.24437 30.7486 8.25979 30.6886 8.2752L30.6374 8.28809ZM30.6374 13.7317V18.2317C31.4699 18.0079 32.1908 17.6978 32.7701 17.3376L32.7754 17.3345L32.7806 17.3313C32.9027 17.2551 33.0168 17.1762 33.126 17.096L33.1335 17.0907L33.1336 17.0907C33.1439 17.0834 33.1544 17.076 33.1645 17.0683C33.2624 16.9949 33.3529 16.9191 33.4397 16.843L33.4588 16.8264C33.4733 16.8139 33.4877 16.8015 33.5015 16.7886C33.5769 16.7196 33.6456 16.6494 33.7115 16.5786L33.7279 16.561L33.728 16.561C33.7478 16.5398 33.7676 16.5187 33.7863 16.497C33.8419 16.4331 33.8917 16.3687 33.9395 16.3039L33.9406 16.3023L33.9406 16.3023C33.9665 16.267 33.992 16.2321 34.0152 16.1968C34.0543 16.1379 34.0886 16.0785 34.121 16.0191C34.1437 15.9774 34.1655 15.9357 34.1847 15.8935C34.2107 15.8377 34.2325 15.782 34.252 15.7262C34.2677 15.6813 34.282 15.6364 34.2937 15.5915C34.3079 15.5362 34.3193 15.4818 34.3275 15.4269L34.3297 15.4118C34.3401 15.3434 34.3505 15.275 34.3505 15.207C34.3505 15.1558 34.347 15.1046 34.3414 15.0538C34.3342 14.9853 34.3382 14.9169 34.3505 14.852L34.3502 11.4863C34.2756 11.591 34.1964 11.694 34.1084 11.7937C33.396 12.624 32.2292 13.3338 30.6374 13.7317ZM30.6374 19.1727V23.6717C32.81 23.0882 34.2237 21.9168 34.3411 20.8013C34.3435 20.7804 34.3464 20.76 34.3505 20.7401L34.3502 16.9273C34.2756 17.032 34.1964 17.135 34.1084 17.2347C33.396 18.065 32.2292 18.7748 30.6374 19.1727Z" fill="#FF6112"/>
<path fill-rule="evenodd" clip-rule="evenodd" d="M24.9829 1.29852C27.2631 1.90815 28.695 3.16414 28.695 4.32477C28.695 5.48541 27.2631 6.7414 24.9829 7.35102V1.29852ZM24.9829 8.28758L25.0331 8.27494C25.0931 8.25952 25.1528 8.24411 25.2116 8.22779C25.3852 8.17972 25.5542 8.12849 25.717 8.07317C25.7294 8.06899 25.7422 8.06503 25.7551 8.06107C25.7687 8.05687 25.7823 8.05267 25.7953 8.04823C25.98 7.98385 26.1559 7.91357 26.3263 7.84057C26.3587 7.82663 26.3902 7.81227 26.4216 7.79791L26.4655 7.778C26.5939 7.7195 26.718 7.6592 26.838 7.59618C26.8534 7.58801 26.8689 7.57997 26.8844 7.57193C26.912 7.55766 26.9395 7.54341 26.9661 7.52862C27.117 7.44519 27.2623 7.35904 27.3986 7.26881C27.41 7.26143 27.4206 7.25375 27.4313 7.24603L27.4314 7.24599C27.4391 7.24043 27.4468 7.23486 27.4549 7.22936C27.5722 7.14956 27.6838 7.06795 27.7901 6.98361C27.8265 6.95459 27.862 6.92557 27.897 6.8961C27.9922 6.81675 28.0828 6.73559 28.1684 6.65216C28.1777 6.64325 28.1873 6.63441 28.1968 6.62559C28.2101 6.61332 28.2233 6.60108 28.2357 6.58868C28.3379 6.48576 28.4323 6.38057 28.5197 6.27311C28.5322 6.25756 28.5439 6.24201 28.5556 6.22646C28.5644 6.21481 28.5732 6.20315 28.5823 6.19149C28.5935 6.17695 28.605 6.16245 28.6164 6.14795L28.6164 6.14791C28.6434 6.1136 28.6704 6.07932 28.695 6.04458V9.41075C28.6828 9.47559 28.6787 9.54405 28.686 9.61252C28.6915 9.6633 28.695 9.71454 28.695 9.76577C28.695 9.83378 28.6846 9.90217 28.6743 9.97059L28.672 9.98568C28.6638 10.0405 28.6525 10.095 28.6382 10.1503C28.6266 10.1952 28.6123 10.24 28.5966 10.2849C28.577 10.3407 28.5552 10.3965 28.5293 10.4522C28.5101 10.4944 28.4882 10.5361 28.4655 10.5778C28.4332 10.6372 28.3988 10.6966 28.3598 10.7556C28.3365 10.7909 28.311 10.8257 28.2852 10.861L28.2852 10.8611L28.2841 10.8626C28.2363 10.9274 28.1865 10.9918 28.1309 11.0557C28.1121 11.0774 28.0923 11.0986 28.0724 11.1198L28.056 11.1374C27.9902 11.2081 27.9214 11.2784 27.846 11.3473C27.8323 11.3602 27.8178 11.3727 27.8034 11.3851L27.7843 11.4017C27.6975 11.4779 27.6069 11.5536 27.509 11.6271C27.4989 11.6347 27.4884 11.6422 27.478 11.6495L27.478 11.6495L27.4706 11.6547C27.3614 11.735 27.2472 11.8139 27.1252 11.89L27.1199 11.8932L27.1147 11.8964C26.5356 12.2564 25.815 12.5664 24.9829 12.7902V8.28758ZM24.9829 13.7312C26.5742 13.3332 27.7407 12.6236 28.453 11.7935C28.5409 11.6937 28.6202 11.5908 28.6947 11.486L28.695 14.8518C28.6828 14.9166 28.6787 14.9851 28.686 15.0535C28.6915 15.1043 28.695 15.1555 28.695 15.2068C28.695 15.2748 28.6846 15.3432 28.6743 15.4116L28.672 15.4267C28.6638 15.4815 28.6525 15.536 28.6382 15.5913C28.6266 15.6362 28.6123 15.6811 28.5966 15.7259C28.577 15.7817 28.5552 15.8375 28.5293 15.8933C28.5101 15.9354 28.4882 15.9771 28.4655 16.0188C28.4332 16.0782 28.3988 16.1376 28.3598 16.1966C28.3365 16.2319 28.311 16.2667 28.2852 16.302L28.2852 16.3021L28.2841 16.3036C28.2363 16.3684 28.1865 16.4328 28.1309 16.4967C28.1121 16.5184 28.0924 16.5395 28.0725 16.5607L28.0724 16.5608L28.056 16.5784C27.9902 16.6491 27.9214 16.7194 27.846 16.7883C27.8323 16.8012 27.8178 16.8136 27.8034 16.8261L27.7843 16.8427C27.6975 16.9189 27.6069 16.9946 27.509 17.0681C27.4989 17.0757 27.4885 17.0831 27.4781 17.0904L27.4706 17.0957C27.3614 17.176 27.2472 17.2549 27.1252 17.331L27.1199 17.3342L27.1147 17.3374C26.5356 17.6974 25.815 18.0074 24.9829 18.2312V13.7312ZM24.9829 19.1722C26.5742 18.7742 27.7407 18.0646 28.453 17.2345C28.5409 17.1347 28.6202 17.0318 28.6947 16.927L28.695 20.7398C28.6909 20.7598 28.688 20.7802 28.6857 20.801C28.5683 21.9163 27.155 23.0876 24.9829 23.6712V19.1722Z" fill="#FF6112"/>
</svg>
