<svg width="146" height="34" viewBox="0 0 146 34" fill="none" xmlns="http://www.w3.org/2000/svg">
<g opacity="0.8">
<path fill-rule="evenodd" clip-rule="evenodd" d="M57.1583 16.3382C57.1583 11.4473 55.4976 7.82588 51.4566 7.82588L49.3527 8.03715V25.2743L51.6227 25.4856C54.9995 25.4856 57.1583 21.7579 57.1583 16.3382ZM43.2083 25.4856L45.0632 25.2743V8.03715L43.2083 7.82588V7.4029H52.3426C58.404 7.4029 61.7254 10.7604 61.7254 16.2328C61.7254 21.6792 58.7914 25.4856 52.2596 25.9086H43.2079L43.2083 25.4856ZM71.8502 20.0326C71.8502 15.4588 70.5861 13.2526 69.0852 13.2526C67.7161 13.2526 66.9259 14.8479 66.9259 18.4636C66.9259 22.8248 68.1373 25.1909 69.6645 25.1909C71.0595 25.1909 71.8502 23.542 71.8502 20.0326ZM63.0027 19.5274C63.0027 15.1404 66.0835 13.4384 69.8754 12.5081C73.2719 12.5081 75.7734 15.0868 75.7734 18.8624C75.7734 23.2504 72.7185 25.0047 68.8744 25.9086C65.5305 25.9086 63.0027 23.3294 63.0027 19.5274ZM77.6889 19.7932C77.6889 15.5392 81.1061 13.1463 84.8338 12.5081C86.1612 12.5081 87.8268 13.1463 88.9569 13.9439V16.8683H85.7654L84.8053 13.3053C84.551 13.199 84.3252 13.1731 84.099 13.1731C82.7154 13.1731 81.219 14.3164 81.219 17.507C81.219 20.7771 83.1393 23.17 85.9631 23.17C87.1776 23.17 87.9682 22.9038 89.0412 22.266L89.1822 22.505C87.4881 24.0739 86.2455 24.9515 84.2409 25.9086C80.5131 25.9086 77.6889 23.542 77.6889 19.7932ZM89.8209 24.3177V19.4668H90.2337L91.6279 22.8313C92.6601 24.0572 93.925 25.1268 95.6029 25.1268C97.4876 25.1268 98.7522 23.979 98.7522 22.2054C98.7522 20.7705 98.0811 19.78 96.2486 18.6323L92.841 16.3369C91.0858 15.1632 89.8986 14.0937 89.8986 11.9551C89.8986 9.5033 91.5765 7.57376 96.1449 6.76514C98.2875 6.76514 99.3715 6.99969 101.23 7.70377V12.4505H100.817L99.1655 8.66876C98.3652 7.83423 97.4099 7.33877 96.2227 7.33877C94.5189 7.33877 93.2798 8.33012 93.2798 10.0251C93.2798 11.4596 94.1833 12.2942 95.6288 13.2073L98.9586 15.4505C101.049 16.7805 101.953 18.0587 101.953 20.1191C101.953 22.7532 100.146 24.7872 95.2414 25.909C93.1248 25.909 91.576 25.4127 89.8209 24.3177ZM107.222 17.4802V17.879H111.386V16.7625C111.386 14.5553 110.954 13.3057 109.439 13.3057C107.979 13.3057 107.222 14.6353 107.222 17.4802ZM115.362 22.3996C113.631 24.1007 112.333 24.9779 110.278 25.9086C106.789 25.9086 103.869 23.6487 103.869 19.7932C103.869 15.6723 106.87 13.1994 110.413 12.5081C113.171 12.5081 115.334 14.1034 115.334 17.2939V18.3042H107.248C107.547 21.1759 109.304 23.0373 111.954 23.0373C113.171 23.0373 114.091 22.6649 115.118 22.0798L115.362 22.3996ZM115.446 25.4702L116.923 25.2511V13.9057L115.418 14.1521L115.362 13.6865L120.35 12.6451H120.795V15.4953L125.728 12.5081C128.513 12.5081 129.071 13.7414 129.071 16.5095V25.2511L130.687 25.4702V25.9086H123.972V25.4702L125.031 25.2511V16.3724C125.031 15.194 124.585 14.7003 123.749 14.7003C122.913 14.7003 122.384 15.0569 121.576 15.5225L120.795 15.9881V25.2515L121.854 25.4707V25.909H115.446L115.446 25.4702Z" fill="#5F5F5F"/>
<mask id="mask0" mask-type="alpha" maskUnits="userSpaceOnUse" x="130" y="6" width="16" height="21">
<path d="M130.934 6.84058H145.329V26.2313H130.934V6.84058Z" fill="white"/>
</mask>
<g mask="url(#mask0)">
<path fill-rule="evenodd" clip-rule="evenodd" d="M139.297 23.2973L139.681 23.0306V14.2552C139.379 13.9082 138.858 13.5885 138.173 13.5885C136.088 13.6148 135.129 15.6691 135.129 18.7894C135.129 21.7771 136.034 23.9109 137.679 23.9109C138.282 23.9109 138.557 23.7773 139.297 23.2973ZM130.934 20.1502C130.934 16.5757 132.607 13.6416 136.912 12.7886C137.953 12.7886 138.858 13.0017 139.681 13.5085V7.90747L138.255 8.09414L138.2 7.61362L143.053 6.84058H143.492V22.4706C143.492 23.5103 143.547 23.9904 143.875 24.7906L145.274 24.6843L145.329 25.1108L140.53 26.071L139.763 23.4839L136.226 26.2313C133.237 26.2313 130.934 23.6438 130.934 20.1502Z" fill="#5F5F5F"/>
</g>
<mask id="mask1" mask-type="alpha" maskUnits="userSpaceOnUse" x="0" y="15" width="19" height="19">
<path d="M0.426758 15.1753H18.8174V33.5659H0.426758V15.1753Z" fill="white"/>
</mask>
<g mask="url(#mask1)">
<path fill-rule="evenodd" clip-rule="evenodd" d="M15.6466 28.1528L5.8394 18.3457H15.6466V28.1528ZM18.8174 15.1753H0.426758V17.4171L16.5755 33.5655H17.2317C17.7667 33.5655 18.2951 33.5378 18.8174 33.4886V15.1753Z" fill="#D8D9DA"/>
</g>
<mask id="mask2" mask-type="alpha" maskUnits="userSpaceOnUse" x="0" y="0" width="34" height="16">
<path d="M0.427246 0H33.9608V15.2194H0.427246V0Z" fill="white"/>
</mask>
<g mask="url(#mask2)">
<path fill-rule="evenodd" clip-rule="evenodd" d="M17.2322 0H0.427246V15.2194H3.59806V3.17037H17.2322C24.2138 3.17037 29.9831 8.44598 30.7715 15.2194H33.9604C33.1592 6.69388 25.9641 0 17.2327 0" fill="#9C9C9D"/>
</g>
<path fill-rule="evenodd" clip-rule="evenodd" d="M18.8107 30.3035V33.4932C27.3348 32.6898 34.0278 25.4957 34.0278 16.7651C34.0278 16.2292 34.0002 15.6991 33.951 15.175H30.7617C30.8223 15.6973 30.8575 16.227 30.8575 16.7651C30.8575 23.7453 25.5832 29.5138 18.8111 30.3035H18.8107Z" fill="#5F5F5F"/>
</g>
</svg>
