<svg width="120" height="80" viewBox="0 0 120 80" fill="none" xmlns="http://www.w3.org/2000/svg">
<path d="M69.0399 20H33.0398C27.5238 20 23.0398 15.512 23.0398 10C23.0398 4.488 27.5238 0 33.0398 0H69.0399C74.5559 0 79.0399 4.488 79.0399 10C79.0399 15.512 74.5559 20 69.0399 20ZM33.0398 4C29.7318 4 27.0398 6.692 27.0398 10C27.0398 13.308 29.7318 16 33.0398 16H69.0399C72.3479 16 75.0399 13.308 75.0399 10C75.0399 6.692 72.3479 4 69.0399 4H33.0398Z" fill="#414141"/>
<path d="M37.04 12H33.04C31.936 12 31.04 11.104 31.04 10C31.04 8.896 31.936 8 33.04 8H37.04C38.144 8 39.04 8.896 39.04 10C39.04 11.104 38.144 12 37.04 12Z" fill="#414141"/>
<path d="M49.04 12H45.04C43.936 12 43.04 11.104 43.04 10C43.04 8.896 43.936 8 45.04 8H49.04C50.144 8 51.04 8.896 51.04 10C51.04 11.104 50.144 12 49.04 12Z" fill="#414141"/>
<path d="M109.04 52H73.0396C67.5236 52 63.0396 47.512 63.0396 42C63.0396 36.488 67.5236 32 73.0396 32H109.04C114.556 32 119.04 36.488 119.04 42C119.04 47.512 114.556 52 109.04 52ZM73.0396 36C69.7316 36 67.0396 38.692 67.0396 42C67.0396 45.308 69.7316 48 73.0396 48H109.04C112.348 48 115.04 45.308 115.04 42C115.04 38.692 112.348 36 109.04 36H73.0396Z" fill="#414141"/>
<path d="M77.0396 44H73.0396C71.9356 44 71.0396 43.104 71.0396 42C71.0396 40.896 71.9356 40 73.0396 40H77.0396C78.1437 40 79.0397 40.896 79.0397 42C79.0397 43.104 78.1437 44 77.0396 44Z" fill="#414141"/>
<path d="M89.0396 44H85.0396C83.9356 44 83.0396 43.104 83.0396 42C83.0396 40.896 83.9356 40 85.0396 40H89.0396C90.1437 40 91.0397 40.896 91.0397 42C91.0397 43.104 90.1437 44 89.0396 44Z" fill="#414141"/>
<path d="M109.04 80H73.0396C67.5236 80 63.0396 75.512 63.0396 70C63.0396 64.488 67.5236 60 73.0396 60H109.04C114.556 60 119.04 64.488 119.04 70C119.04 75.512 114.556 80 109.04 80ZM73.0396 64C69.7316 64 67.0396 66.692 67.0396 70C67.0396 73.308 69.7316 76 73.0396 76H109.04C112.348 76 115.04 73.308 115.04 70C115.04 66.692 112.348 64 109.04 64H73.0396Z" fill="#414141"/>
<path d="M77.0396 72H73.0396C71.9356 72 71.0396 71.104 71.0396 70C71.0396 68.896 71.9356 68 73.0396 68H77.0396C78.1437 68 79.0397 68.896 79.0397 70C79.0397 71.104 78.1437 72 77.0396 72Z" fill="#414141"/>
<path d="M89.0396 72H85.0396C83.9356 72 83.0396 71.104 83.0396 70C83.0396 68.896 83.9356 68 85.0396 68H89.0396C90.1437 68 91.0397 68.896 91.0397 70C91.0397 71.104 90.1437 72 89.0396 72Z" fill="#414141"/>
<path d="M65.04 72H60.468C59.364 72 58.468 71.104 58.468 70C58.468 68.896 59.364 68 60.468 68H65.04C66.144 68 67.04 68.896 67.04 70C67.04 71.104 66.144 72 65.04 72ZM52.472 71.98C52.42 71.98 52.376 71.98 52.328 71.976C48.92 71.736 45.908 69.8 44.26 66.796C43.728 65.828 44.084 64.612 45.052 64.08C46.016 63.552 47.232 63.904 47.768 64.872C48.756 66.676 50.564 67.84 52.608 67.984C53.708 68.064 54.54 69.016 54.464 70.12C54.392 71.176 53.512 71.98 52.472 71.98ZM45.04 60C43.936 60 43.04 59.104 43.04 58V50C43.04 48.896 43.936 48 45.04 48C46.144 48 47.04 48.896 47.04 50V58C47.04 59.104 46.144 60 45.04 60ZM45.04 44C43.936 44 43.04 43.104 43.04 42V34C43.04 32.896 43.936 32 45.04 32C46.144 32 47.04 32.896 47.04 34V42C47.04 43.104 46.144 44 45.04 44ZM45.04 28C43.936 28 43.04 27.104 43.04 26V18C43.04 16.896 43.936 16 45.04 16C46.144 16 47.04 16.896 47.04 18V26C47.04 27.104 46.144 28 45.04 28Z" fill="#414141"/>
<path d="M65.04 44H61.04C59.936 44 59.04 43.104 59.04 42C59.04 40.896 59.936 40 61.04 40H65.04C66.144 40 67.04 40.896 67.04 42C67.04 43.104 66.144 44 65.04 44ZM53.04 44H45.04C43.936 44 43.04 43.104 43.04 42C43.04 40.896 43.936 40 45.04 40H53.04C54.144 40 55.04 40.896 55.04 42C55.04 43.104 54.144 44 53.04 44Z" fill="#414141"/>
<path d="M20.1602 78.7201C9.57286 78.7201 0.960159 70.1074 0.960159 59.5201C0.960159 48.9328 9.57286 40.3201 20.1602 40.3201C30.7475 40.3201 39.3602 48.9328 39.3602 59.5201C39.3602 70.1074 30.7475 78.7201 20.1602 78.7201ZM20.1602 42.7201C10.8962 42.7201 3.36016 50.2561 3.36016 59.5201C3.36016 68.784 10.8962 76.3201 20.1602 76.3201C29.4241 76.3201 36.9602 68.784 36.9602 59.5201C36.9602 50.2561 29.4241 42.7201 20.1602 42.7201Z" fill="#FF6112"/>
<path fill-rule="evenodd" clip-rule="evenodd" d="M20.16 79.6801C9.0425 79.6801 0 70.6376 0 59.5201C0 48.4026 9.0425 39.3601 20.16 39.3601C31.2775 39.3601 40.32 48.4026 40.32 59.5201C40.32 70.6376 31.2775 79.6801 20.16 79.6801ZM20.16 43.6801C11.4262 43.6801 4.32 50.7863 4.32 59.5201C4.32 68.2539 11.4262 75.3601 20.16 75.3601C28.8938 75.3601 36 68.2539 36 59.5201C36 50.7863 28.8938 43.6801 20.16 43.6801ZM0.96 59.5201C0.96 70.1074 9.5727 78.7201 20.16 78.7201C30.7473 78.7201 39.36 70.1074 39.36 59.5201C39.36 48.9328 30.7473 40.3201 20.16 40.3201C9.5727 40.3201 0.96 48.9328 0.96 59.5201ZM3.36 59.5201C3.36 50.2561 10.896 42.7201 20.16 42.7201C29.424 42.7201 36.96 50.2561 36.96 59.5201C36.96 68.7841 29.424 76.3201 20.16 76.3201C10.896 76.3201 3.36 68.7841 3.36 59.5201Z" fill="#FF6112"/>
<path d="M26.6404 67.4407C26.3945 67.4407 26.1489 67.3472 25.9618 67.159L19.2417 60.4388C19.0612 60.2583 18.9602 60.0139 18.9602 59.7605V50.8001C18.9602 50.2702 19.3902 49.8401 19.9202 49.8401C20.4501 49.8401 20.8802 50.2702 20.8802 50.8001V59.3623L27.3189 65.801C27.6939 66.176 27.6939 66.784 27.3189 67.159C27.1319 67.3472 26.8862 67.4407 26.6404 67.4407Z" fill="#FF6112"/>
<path fill-rule="evenodd" clip-rule="evenodd" d="M25.0105 68.1085C25.0098 68.1078 25.0091 68.1071 25.0084 68.1064L18.2912 61.3892C17.859 60.957 17.616 60.3709 17.616 59.7605V50.8001C17.616 49.5279 18.6478 48.4961 19.92 48.4961C21.1922 48.4961 22.2241 49.5279 22.2241 50.8001V58.8056L28.2691 64.8506C29.1685 65.75 29.169 67.2079 28.2706 68.1079C27.8199 68.5606 27.2266 68.7847 26.6402 68.7847C26.0542 68.7847 25.4611 68.5608 25.0105 68.1085ZM27.3188 67.159C27.6938 66.784 27.6938 66.176 27.3188 65.801L20.8801 59.3623V50.8001C20.8801 50.2702 20.45 49.8401 19.92 49.8401C19.3901 49.8401 18.96 50.2702 18.96 50.8001V59.7605C18.96 60.0139 19.061 60.2583 19.2415 60.4388L25.9617 67.159C26.1487 67.3472 26.3944 67.4407 26.6402 67.4407C26.8861 67.4407 27.1317 67.3472 27.3188 67.159Z" fill="#FF6112"/>
</svg>
