<svg width="84" height="80" viewBox="0 0 84 80" fill="none" xmlns="http://www.w3.org/2000/svg">
<path d="M57.3912 80H26.0868C25.1268 80 24.3477 79.2209 24.3477 78.2609V36.5217C24.3477 35.5617 25.1268 34.7826 26.0868 34.7826H57.3912C58.3512 34.7826 59.1303 35.5617 59.1303 36.5217V78.2609C59.1303 79.2209 58.3512 80 57.3912 80ZM27.8259 76.5217H55.652V38.2609H27.8259V76.5217Z" fill="#414141"/>
<path d="M81.739 79.9999H57.3912C56.4312 79.9999 55.652 79.2208 55.652 78.2608V64.3478C55.652 63.3878 56.4312 62.6086 57.3912 62.6086H81.739C82.699 62.6086 83.4781 63.3878 83.4781 64.3478V78.2608C83.4781 79.2208 82.699 79.9999 81.739 79.9999ZM59.1303 76.5217H79.9998V66.0869H59.1303V76.5217Z" fill="#414141"/>
<path d="M26.087 80H1.73913C0.77913 80 0 79.2209 0 78.2609V57.3914C0 56.4314 0.77913 55.6522 1.73913 55.6522H26.087C27.047 55.6522 27.8261 56.4314 27.8261 57.3914V78.2609C27.8261 79.2209 27.047 80 26.087 80ZM3.47826 76.5218H24.3478V59.1305H3.47826V76.5218Z" fill="#414141"/>
<path d="M41.7393 66.087C40.7793 66.087 40.0001 65.3078 40.0001 64.3478V52.1739C39.0401 52.1739 38.261 51.3948 38.261 50.4348C38.261 49.4748 39.0401 48.6957 40.0001 48.6957H41.7393C42.6993 48.6957 43.4784 49.4748 43.4784 50.4348V64.3478C43.4784 65.3078 42.6993 66.087 41.7393 66.087Z" fill="#FF6112"/>
<path d="M41.739 27.826C40.779 27.826 39.9999 27.0469 39.9999 26.0869V22.6086C39.9999 21.6486 40.779 20.8695 41.739 20.8695C42.699 20.8695 43.4781 21.6486 43.4781 22.6086V26.0869C43.4781 27.0469 42.699 27.826 41.739 27.826Z" fill="#414141"/>
<path d="M42.6086 24.3478H36.5216C35.5616 24.3478 34.7825 23.5687 34.7825 22.6087C34.7825 21.6487 35.5616 20.8696 36.5216 20.8696H42.6086C44.0486 20.8696 45.2172 19.6974 45.2172 18.2609C45.2172 16.8244 44.0486 15.6522 42.6086 15.6522H40.8694C37.5129 15.6522 34.7825 12.9217 34.7825 9.56523C34.7825 6.20871 37.5129 3.47827 40.8694 3.47827H46.9564C47.9164 3.47827 48.6955 4.2574 48.6955 5.2174C48.6955 6.1774 47.9164 6.95653 46.9564 6.95653H40.8694C39.4294 6.95653 38.2607 8.12871 38.2607 9.56523C38.2607 11.0017 39.4294 12.1739 40.8694 12.1739H42.6086C45.9651 12.1739 48.6955 14.9044 48.6955 18.2609C48.6955 21.6174 45.9651 24.3478 42.6086 24.3478Z" fill="#414141"/>
<path d="M41.739 6.95652C40.779 6.95652 39.9999 6.17739 39.9999 5.21739V1.73913C39.9999 0.77913 40.779 0 41.739 0C42.699 0 43.4781 0.77913 43.4781 1.73913V5.21739C43.4781 6.17739 42.699 6.95652 41.739 6.95652Z" fill="#414141"/>
</svg>
