<svg width="80" height="80" viewBox="0 0 80 80" fill="none" xmlns="http://www.w3.org/2000/svg">
<path d="M40.0003 36.6666C31.9736 36.6666 23.3336 34.5799 23.3336 29.9999C23.3336 25.4199 31.9736 23.3333 40.0003 23.3333C48.027 23.3333 56.667 25.4199 56.667 29.9999C56.667 34.5799 48.027 36.6666 40.0003 36.6666ZM40.0003 26.6666C31.2503 26.6666 26.667 29.1432 26.667 29.9999C26.667 30.8566 31.2503 33.3332 40.0003 33.3332C48.7503 33.3332 53.3336 30.8566 53.3336 29.9999C53.3336 29.1432 48.7503 26.6666 40.0003 26.6666Z" fill="#FF6112"/>
<path d="M40.0003 56.6666C31.9736 56.6666 23.3336 54.5799 23.3336 49.9999V29.9999C23.3336 29.0799 24.0803 28.3333 25.0003 28.3333C25.9203 28.3333 26.667 29.0799 26.667 29.9999V49.9999C26.667 50.8566 31.2503 53.3332 40.0003 53.3332C48.7503 53.3332 53.3336 50.8566 53.3336 49.9999V29.9999C53.3336 29.0799 54.0803 28.3333 55.0003 28.3333C55.9203 28.3333 56.667 29.0799 56.667 29.9999V49.9999C56.667 54.5799 48.027 56.6666 40.0003 56.6666Z" fill="#FF6112"/>
<path d="M40.0003 46.6666C31.9736 46.6666 23.3336 44.5799 23.3336 39.9999C23.3336 39.0799 24.0803 38.3333 25.0003 38.3333C25.9203 38.3333 26.667 39.0799 26.667 39.9999C26.667 40.8566 31.2503 43.3332 40.0003 43.3332C48.7503 43.3332 53.3336 40.8566 53.3336 39.9999C53.3336 39.0799 54.0803 38.3333 55.0003 38.3333C55.9203 38.3333 56.667 39.0799 56.667 39.9999C56.667 44.5799 48.027 46.6666 40.0003 46.6666Z" fill="#FF6112"/>
<path d="M2.56667 50C1.80333 50 1.11667 49.4733 0.943333 48.7C0.316667 45.9267 0 43 0 40C0 17.9433 17.9433 0 40 0C52.6667 0 64.6967 6.1 72.1767 16.3167C72.72 17.06 72.56 18.1033 71.8167 18.6467C71.0733 19.1933 70.03 19.0267 69.4867 18.2867C62.6333 8.92333 51.6067 3.33333 40 3.33333C19.7833 3.33333 3.33333 19.7833 3.33333 40C3.33333 42.7567 3.62333 45.4367 4.19333 47.9667C4.39667 48.8667 3.83333 49.7567 2.93333 49.96C2.81 49.9867 2.68667 50 2.56667 50Z" fill="#414141"/>
<path d="M40.0002 79.9999C27.2369 79.9999 15.1535 73.8232 7.68354 63.4765C7.14354 62.7299 7.31354 61.6865 8.05688 61.1499C8.80688 60.6065 9.84354 60.7766 10.3835 61.5232C17.2335 71.0065 28.3035 76.6665 40.0002 76.6665C60.2169 76.6665 76.6669 60.2165 76.6669 39.9999C76.6669 37.2066 76.3702 34.5299 75.7802 32.0532C75.5669 31.1566 76.1202 30.2566 77.0169 30.0466C77.9202 29.8299 78.8135 30.3866 79.0235 31.2832C79.6702 34.0132 80.0002 36.9466 80.0002 39.9999C80.0002 62.0565 62.0569 79.9999 40.0002 79.9999Z" fill="#414141"/>
<path d="M8.50019 80C7.58686 80 6.84352 79.2633 6.83352 78.35L6.66686 61.6833C6.66352 61.24 6.83686 60.81 7.15019 60.4967C7.46352 60.1767 7.89019 60 8.33352 60H25.0002C25.9202 60 26.6669 60.7467 26.6669 61.6667C26.6669 62.5867 25.9202 63.3333 25.0002 63.3333H10.0169L10.1669 78.3167C10.1769 79.2367 9.44019 79.99 8.51686 80C8.51352 80 8.50686 80 8.50019 80Z" fill="#414141"/>
<path d="M71.6669 20H55.0002C54.0802 20 53.3336 19.2533 53.3336 18.3333C53.3336 17.4133 54.0802 16.6667 55.0002 16.6667H70.0002V1.66667C70.0002 0.746667 70.7469 0 71.6669 0C72.5869 0 73.3336 0.746667 73.3336 1.66667V18.3333C73.3336 19.2533 72.5869 20 71.6669 20Z" fill="#414141"/>
</svg>
