<svg width="81" height="80" viewBox="0 0 81 80" fill="none" xmlns="http://www.w3.org/2000/svg">
<path d="M58.3405 16.6619C55.5836 16.6619 53.3401 18.9053 53.3401 21.6622C53.3401 24.4192 55.5836 26.6626 58.3405 26.6626C61.0974 26.6626 63.3409 24.4192 63.3409 21.6622C63.3409 18.9055 61.0974 16.6619 58.3405 16.6619ZM58.3405 23.3291C57.4237 23.3291 56.6737 22.5823 56.6737 21.6622C56.6737 20.7422 57.4237 19.9954 58.3405 19.9954C59.2573 19.9954 60.0074 20.7422 60.0074 21.6622C60.0074 22.5823 59.2573 23.3291 58.3405 23.3291Z" fill="#FF6112"/>
<path d="M80.0023 1.76072C80.0256 1.2874 79.8523 0.827364 79.5156 0.490621C79.1823 0.153877 78.7023 -0.0294183 78.2455 0.00386541C77.5022 0.0438684 59.8341 1.14395 47.1599 13.8182C43.6829 17.2952 40.3194 21.192 37.2592 25.0123C37.2159 25.0123 37.1759 24.9956 37.1291 24.999L18.191 26.6659C17.7977 26.7026 17.4342 26.8726 17.1577 27.1492L7.15691 37.1499C6.68359 37.6267 6.54014 38.3433 6.79688 38.9668C7.05362 39.5901 7.66367 39.9969 8.337 39.9969H26.2816C25.0682 41.8037 24.2247 43.1104 23.8414 43.7138L10.9238 50.1743C10.7305 50.2711 10.5837 50.4211 10.4437 50.5776C8.63358 51.271 6.96674 52.3411 5.49007 53.8179C-0.0501915 59.3585 -0.0201885 76.423 0.00309452 78.3499C0.0130953 79.2532 0.746431 79.9867 1.64994 79.9967C1.77323 80 1.96324 80 2.2067 80C5.74024 80 21.0014 79.6933 26.1818 74.5096C27.6552 73.0328 28.7252 71.3661 29.4187 69.5625C29.5787 69.4225 29.7288 69.2725 29.8288 69.0792L36.286 56.1615C36.8893 55.7782 38.1994 54.9347 40.0062 53.7213V71.6627C40.0062 72.336 40.413 72.946 41.0363 73.2028C41.2396 73.2895 41.4596 73.3295 41.6731 73.3295C42.1064 73.3295 42.5331 73.1595 42.8499 72.8427L52.8506 62.842C53.1274 62.5653 53.2974 62.1987 53.334 61.8086L55.0008 42.9005C55.0041 42.8472 54.9841 42.8005 54.9841 42.7505C58.8044 39.6903 62.7079 36.3233 66.1849 32.8465C78.859 20.1721 79.9623 2.50749 80.0023 1.76072ZM12.3607 36.6633L19.088 29.9328L34.4591 28.5794C32.1989 31.5364 30.1988 34.3131 28.5354 36.7033C28.4654 36.6933 28.4054 36.6633 28.3354 36.6633H12.3607ZM23.8249 72.1527C20.3446 75.6329 9.07705 76.5497 3.34334 76.6563C3.45007 70.9226 4.3667 59.655 7.84696 56.1748C8.93704 55.0847 10.1639 54.3446 11.4605 53.8146L13.5274 55.8815C11.874 58.0516 10.6039 63.5721 10.1839 68.1824C10.1406 68.6757 10.3206 69.1625 10.6672 69.5125C10.9805 69.8258 11.4072 69.9993 11.8473 69.9993C11.894 69.9993 11.9473 69.996 11.9973 69.996C17.0544 69.5359 22.098 68.0525 24.1282 66.479L26.1851 68.5359C25.6583 69.8325 24.915 71.0626 23.8249 72.1527ZM13.7374 66.4323C14.2874 62.442 15.2608 59.4585 15.9143 58.2684L21.7447 64.0988C20.5413 64.8089 17.5811 65.8622 13.7374 66.4323ZM27.8852 65.5189L14.4842 52.1212L24.6749 47.0275L32.9756 55.3282L27.8852 65.5189ZM50.0668 60.9151L43.3396 67.6424V51.6644C43.3396 51.5944 43.3096 51.5344 43.2996 51.4677C45.6865 49.8043 48.4667 47.8042 51.4202 45.5473L50.0668 60.9151ZM35.239 52.8745L27.1317 44.7639C29.7419 40.7169 39.1959 26.4958 49.5201 16.1751C58.9008 6.79437 71.6284 4.2109 76.4621 3.54741C75.7953 8.38105 73.2118 21.1054 63.8311 30.4861C53.5138 40.8036 39.2893 50.2611 35.239 52.8745Z" fill="#414141"/>
</svg>
