<svg width="70" height="80" viewBox="0 0 70 80" fill="none" xmlns="http://www.w3.org/2000/svg">
<path d="M56.1766 27.1567C55.5266 26.5067 54.4699 26.5067 53.8199 27.1567L31.6666 49.31L19.5099 37.1567C18.8599 36.5067 17.8031 36.5067 17.1531 37.1567C16.5031 37.8067 16.5031 38.8634 17.1531 39.5134L30.4864 52.8467C30.8132 53.17 31.2397 53.3334 31.6664 53.3334C32.0932 53.3334 32.5197 53.1701 32.8432 52.8467L56.1764 29.5134C56.8266 28.8633 56.8266 27.8067 56.1766 27.1567Z" fill="#FF6112"/>
<path d="M68.81 10.07L35.4767 0.069961C35.1635 -0.0233203 34.8335 -0.0233203 34.52 0.069961L1.18672 10.07C0.483282 10.28 0 10.93 0 11.6667V48.3334C0 63.0734 22.4733 76.1834 34.5067 79.9267C34.6667 79.9767 34.8335 80 35 80C35.1666 80 35.3333 79.9767 35.4933 79.9267C47.5267 76.18 70 63.0733 70 48.3333V11.6667C70 10.93 69.5168 10.2832 68.81 10.07ZM66.6667 48.3333C66.6667 60.0366 48.1235 72.3433 35 76.5866C21.8767 72.3433 3.33328 60.0366 3.33328 48.3333V12.9067L35 3.40668L66.6667 12.9067V48.3333Z" fill="#414141"/>
</svg>
