<svg width="84" height="80" viewBox="0 0 84 80" fill="none" xmlns="http://www.w3.org/2000/svg">
<path d="M50.4348 79.9999H46.9565C44.08 79.9999 41.7391 77.659 41.7391 74.7825V57.3912C41.7391 54.5147 44.08 52.1738 46.9565 52.1738H50.4348C53.3113 52.1738 55.6522 54.5147 55.6522 57.3912V74.7825C55.6522 77.659 53.3113 79.9999 50.4348 79.9999ZM46.9565 55.6521C46 55.6521 45.2174 56.4347 45.2174 57.3912V74.7825C45.2174 75.739 46 76.5216 46.9565 76.5216H50.4348C51.3913 76.5216 52.1739 75.739 52.1739 74.7825V57.3912C52.1739 56.4347 51.3913 55.6521 50.4348 55.6521H46.9565Z" fill="#FF6112"/>
<path d="M73.0432 80H70.3997C61.0084 80 55.4989 77.6556 53.0502 76.2608C52.2189 75.7843 51.9267 74.7234 52.3997 73.8852C52.8797 73.0469 53.9441 72.7721 54.7754 73.2347C56.5041 74.226 61.4919 76.5217 70.3997 76.5217H73.0432C75.4884 76.5217 77.7006 74.7165 78.0763 72.4139C78.0832 72.3617 78.0936 72.313 78.1076 72.2608C78.3232 71.2139 79.951 61.5234 79.9997 60.5252C79.9997 57.8539 77.798 55.6521 75.0954 55.6521H65.5302C64.8867 55.6521 64.2989 55.2973 63.9963 54.7304C63.6937 54.1634 63.7284 53.4782 64.0867 52.9426C64.0937 52.9321 65.4258 50.8382 65.4258 47.4052C65.4258 43.9339 64.0345 42.6747 63.0954 42.6747C62.7719 42.72 62.4032 43.2139 62.4032 45.8052C62.4032 51.2 57.0363 55.1304 54.7302 56.5669C53.9267 57.0747 52.8484 56.8347 52.3371 56.0139C51.8293 55.2 52.0763 54.1252 52.8902 53.6208C54.3058 52.7373 58.925 49.5617 58.925 45.8086C58.925 43.6626 58.925 39.2 63.0954 39.2C65.8954 39.2 68.9041 41.7669 68.9041 47.4086C68.9041 49.3321 68.5737 50.946 68.1841 52.1739H75.0954C79.718 52.1739 83.478 55.9339 83.478 60.5565C83.478 60.6678 83.0467 69.3947 81.3563 72.9495L81.5093 72.9774C80.8554 76.9808 77.2136 80 73.0432 80Z" fill="#FF6112"/>
<path d="M64.3478 24.3478H12.1739C5.46087 24.3478 0 18.887 0 12.1739C0 5.46087 5.46087 0 12.1739 0H64.3478C71.0609 0 76.5218 5.46087 76.5218 12.1739C76.5218 18.887 71.0609 24.3478 64.3478 24.3478ZM12.1739 3.47826C7.37739 3.47826 3.47826 7.37739 3.47826 12.1739C3.47826 16.9704 7.37739 20.8696 12.1739 20.8696H64.3478C69.1444 20.8696 73.0435 16.9704 73.0435 12.1739C73.0435 7.37739 69.1444 3.47826 64.3478 3.47826H12.1739Z" fill="#414141"/>
<path d="M15.6522 17.3913C12.7757 17.3913 10.4348 15.0505 10.4348 12.1739C10.4348 9.29741 12.7757 6.95654 15.6522 6.95654C18.5287 6.95654 20.8696 9.29741 20.8696 12.1739C20.8696 15.0505 18.5287 17.3913 15.6522 17.3913ZM15.6522 10.4348C14.6957 10.4348 13.9131 11.2174 13.9131 12.1739C13.9131 13.1305 14.6957 13.9131 15.6522 13.9131C16.6087 13.9131 17.3913 13.1305 17.3913 12.1739C17.3913 11.2174 16.6087 10.4348 15.6522 10.4348Z" fill="#414141"/>
<path d="M33.0436 17.3913C30.1671 17.3913 27.8262 15.0505 27.8262 12.1739C27.8262 9.29741 30.1671 6.95654 33.0436 6.95654C35.9201 6.95654 38.261 9.29741 38.261 12.1739C38.261 15.0505 35.9201 17.3913 33.0436 17.3913ZM33.0436 10.4348C32.0871 10.4348 31.3045 11.2174 31.3045 12.1739C31.3045 13.1305 32.0871 13.9131 33.0436 13.9131C34.0001 13.9131 34.7828 13.1305 34.7828 12.1739C34.7828 11.2174 34.0001 10.4348 33.0436 10.4348Z" fill="#414141"/>
<path d="M50.4348 45.2175H12.1739C5.46087 45.2175 0 39.7566 0 33.0435C0 29.7948 1.26609 26.7409 3.5687 24.4383C5.87131 22.1357 8.92522 20.8696 12.1739 20.8696H64.3478C71.0609 20.8696 76.5218 26.3305 76.5218 33.0435C76.5218 34.4383 76.2991 35.7496 75.8574 36.9496C75.5235 37.854 74.5148 38.3201 73.6244 37.9792C72.7235 37.6488 72.2609 36.6505 72.5948 35.7462C72.8905 34.9357 73.0435 34.0244 73.0435 33.0435C73.0435 28.247 69.1444 24.3479 64.3478 24.3479H12.1739C9.85739 24.3479 7.67305 25.2557 6.02783 26.8975C4.38261 28.5392 3.47826 30.727 3.47826 33.0435C3.47826 37.8401 7.37739 41.7392 12.1739 41.7392H50.4348C51.3948 41.7392 52.1739 42.5183 52.1739 43.4783C52.1739 44.4383 51.3948 45.2175 50.4348 45.2175Z" fill="#414141"/>
<path d="M15.6522 38.2608C12.7757 38.2608 10.4348 35.92 10.4348 33.0434C10.4348 30.1669 12.7757 27.826 15.6522 27.826C18.5287 27.826 20.8696 30.1669 20.8696 33.0434C20.8696 35.92 18.5287 38.2608 15.6522 38.2608ZM15.6522 31.3043C14.6957 31.3043 13.9131 32.0869 13.9131 33.0434C13.9131 34 14.6957 34.7826 15.6522 34.7826C16.6087 34.7826 17.3913 34 17.3913 33.0434C17.3913 32.0869 16.6087 31.3043 15.6522 31.3043Z" fill="#414141"/>
<path d="M33.0436 38.2608C30.1671 38.2608 27.8262 35.92 27.8262 33.0434C27.8262 30.1669 30.1671 27.826 33.0436 27.826C35.9201 27.826 38.261 30.1669 38.261 33.0434C38.261 35.92 35.9201 38.2608 33.0436 38.2608ZM33.0436 31.3043C32.0871 31.3043 31.3045 32.0869 31.3045 33.0434C31.3045 34 32.0871 34.7826 33.0436 34.7826C34.0001 34.7826 34.7828 34 34.7828 33.0434C34.7828 32.0869 34.0001 31.3043 33.0436 31.3043Z" fill="#414141"/>
<path d="M33.0435 66.087H12.1739C5.46087 66.087 0 60.6261 0 53.9131C0 50.6644 1.26609 47.6104 3.5687 45.3078C5.87131 43.0052 8.92522 41.7391 12.1739 41.7391H50.4348C51.3948 41.7391 52.1739 42.5183 52.1739 43.4783C52.1739 44.4383 51.3948 45.2174 50.4348 45.2174H12.1739C9.85739 45.2174 7.67304 46.1252 6.02783 47.767C4.38261 49.4087 3.47826 51.5965 3.47826 53.9131C3.47826 58.7096 7.37739 62.6087 12.1739 62.6087H33.0435C34.0035 62.6087 34.7826 63.3878 34.7826 64.3478C34.7826 65.3078 34.0035 66.087 33.0435 66.087Z" fill="#414141"/>
<path d="M15.6522 59.1305C12.7757 59.1305 10.4348 56.7896 10.4348 53.9131C10.4348 51.0365 12.7757 48.6957 15.6522 48.6957C18.5287 48.6957 20.8696 51.0365 20.8696 53.9131C20.8696 56.7896 18.5287 59.1305 15.6522 59.1305ZM15.6522 52.1739C14.6957 52.1739 13.9131 52.9565 13.9131 53.9131C13.9131 54.8696 14.6957 55.6522 15.6522 55.6522C16.6087 55.6522 17.3913 54.8696 17.3913 53.9131C17.3913 52.9565 16.6087 52.1739 15.6522 52.1739Z" fill="#414141"/>
<path d="M33.0436 59.1305C30.1671 59.1305 27.8262 56.7896 27.8262 53.9131C27.8262 51.0365 30.1671 48.6957 33.0436 48.6957C35.9201 48.6957 38.261 51.0365 38.261 53.9131C38.261 56.7896 35.9201 59.1305 33.0436 59.1305ZM33.0436 52.1739C32.0871 52.1739 31.3045 52.9565 31.3045 53.9131C31.3045 54.8696 32.0871 55.6522 33.0436 55.6522C34.0001 55.6522 34.7828 54.8696 34.7828 53.9131C34.7828 52.9565 34.0001 52.1739 33.0436 52.1739Z" fill="#414141"/>
</svg>
