<svg width="110" height="34" viewBox="0 0 110 34" fill="none" xmlns="http://www.w3.org/2000/svg">
<g opacity="0.8">
<path d="M36.6181 18.8022L34.6853 12.8495C34.6862 12.8522 34.6865 12.855 34.6874 12.8576C34.6864 12.8545 34.6859 12.8514 34.685 12.8483C34.6849 12.8481 34.6849 12.848 34.6849 12.8478C34.6849 12.8477 34.6849 12.8476 34.6849 12.8476L30.8479 1.0348C30.6381 0.412472 30.0604 -0.00519876 29.3984 4.88876e-05C28.7344 0.00347592 28.1727 0.413006 27.9673 1.0439L24.3252 12.2565H12.8334L9.18452 1.04326C8.97933 0.413007 8.41762 0.00347592 7.75363 4.88876e-05C7.75095 4.88876e-05 7.74838 4.88876e-05 7.7456 4.88876e-05C7.09178 4.88876e-05 6.51315 0.415149 6.301 1.04444L2.4746 12.8466L2.47407 12.8481C2.47407 12.8482 2.47407 12.8483 2.47407 12.8484C2.4731 12.8514 2.47267 12.8544 2.47171 12.8574C2.47257 12.8548 2.47289 12.852 2.47375 12.8493L0.533828 18.8024C0.241995 19.701 0.558674 20.6777 1.32205 21.2329L18.0721 33.4031C18.0746 33.4049 18.0774 33.4059 18.0798 33.4078C18.087 33.4129 18.094 33.4182 18.1012 33.423C18.0944 33.4184 18.088 33.4133 18.0812 33.4086C18.0812 33.4086 18.0812 33.4085 18.0811 33.4085C18.0822 33.4094 18.0835 33.4099 18.0846 33.4107C18.0856 33.4113 18.0866 33.4117 18.0875 33.4124C18.0876 33.4125 18.0878 33.4126 18.088 33.4127C18.1139 33.4307 18.1408 33.4472 18.1686 33.4623C18.1725 33.4644 18.1759 33.4671 18.1797 33.4691C18.1799 33.4691 18.1799 33.4692 18.18 33.4692C18.1823 33.4704 18.1845 33.4719 18.1868 33.4731C18.1886 33.4739 18.1906 33.4745 18.1923 33.4753C18.1936 33.476 18.195 33.4764 18.1962 33.4769C18.1993 33.4784 18.2028 33.4794 18.2059 33.481C18.2204 33.488 18.2358 33.4937 18.2507 33.4998C18.2648 33.5055 18.2784 33.5123 18.2927 33.5173C18.2934 33.5175 18.2939 33.5179 18.2946 33.5181C18.2969 33.5189 18.299 33.5201 18.3015 33.521C18.3045 33.522 18.3074 33.5232 18.3104 33.5242C18.3116 33.5245 18.3128 33.5247 18.3139 33.525C18.3177 33.5262 18.3218 33.5267 18.3255 33.5278C18.3269 33.5282 18.3285 33.5285 18.33 33.5289C18.3501 33.535 18.371 33.5394 18.3918 33.544C18.3999 33.5458 18.4078 33.5484 18.416 33.5499C18.4172 33.5501 18.4182 33.5505 18.4195 33.5507C18.4222 33.5513 18.4247 33.5522 18.4275 33.5527C18.4318 33.5534 18.4361 33.5548 18.4406 33.5555C18.4442 33.556 18.4478 33.5558 18.4513 33.5563C18.452 33.5564 18.4525 33.5563 18.4532 33.5564C18.4534 33.5564 18.4535 33.5564 18.4537 33.5564C18.4932 33.5621 18.5333 33.5661 18.5741 33.5661C18.5743 33.5661 18.5745 33.5661 18.5748 33.5661C18.5749 33.5661 18.575 33.5661 18.575 33.5661H18.5751C18.5752 33.5661 18.5754 33.5661 18.5755 33.5661C18.6164 33.5661 18.6564 33.5621 18.6961 33.5564C18.6962 33.5564 18.6964 33.5564 18.6965 33.5564C18.6971 33.5563 18.6978 33.5564 18.6984 33.5563C18.7019 33.5558 18.7057 33.556 18.7092 33.5555C18.7137 33.5547 18.718 33.5534 18.7225 33.5527C18.7252 33.5522 18.7276 33.5513 18.7303 33.5507C18.7315 33.5505 18.7326 33.5501 18.7337 33.5499C18.7421 33.5483 18.7501 33.5457 18.7585 33.5439C18.7789 33.5394 18.7995 33.535 18.8195 33.529C18.8209 33.5286 18.8223 33.5285 18.8237 33.528C18.8277 33.5269 18.8317 33.5263 18.8357 33.5251C18.8369 33.5247 18.8382 33.5246 18.8393 33.5243C18.8424 33.5233 18.8454 33.522 18.8484 33.521C18.8508 33.5201 18.8529 33.5189 18.8553 33.5181C18.8559 33.5179 18.8565 33.5175 18.8571 33.5173C18.8723 33.512 18.8867 33.5049 18.9016 33.4988C18.9154 33.493 18.9295 33.4879 18.943 33.4814C18.9463 33.4798 18.9499 33.4789 18.9531 33.4773C18.9544 33.4766 18.9559 33.4762 18.9571 33.4756C18.959 33.4747 18.9609 33.4742 18.9627 33.4732C18.9652 33.4719 18.9675 33.4704 18.9699 33.4692C18.9699 33.4692 18.97 33.4692 18.97 33.4691C18.974 33.4671 18.9775 33.4642 18.9815 33.4621C19.0091 33.4471 19.0359 33.4307 19.0617 33.4128C19.0637 33.4114 19.0661 33.4103 19.0682 33.4088C19.0687 33.4084 19.0694 33.4082 19.0699 33.4078C19.0724 33.4059 19.0753 33.4048 19.0777 33.4029L35.8302 21.2325C36.5932 20.6775 36.9098 19.7009 36.6181 18.8022ZM29.4089 2.14152L32.6943 12.2565H26.1235L29.4089 2.14152ZM32.119 13.9669L30.7784 15.6846L20.8905 28.3538L25.5678 13.9668H32.119V13.9669ZM17.7615 32.9754C17.7615 32.9753 17.7615 32.9753 17.7615 32.9754C17.7624 32.978 17.7638 32.9804 17.7646 32.983C17.7638 32.9804 17.7624 32.978 17.7615 32.9754ZM16.2615 28.3547L5.0392 13.9669H11.5908L16.2615 28.3547ZM7.74324 2.14141L11.0347 12.2565H4.46378L7.74324 2.14141ZM2.32767 19.8492C2.16531 19.7311 2.09806 19.5226 2.16028 19.3312L3.60231 14.9058L14.1686 28.4526L2.32767 19.8492ZM18.0427 33.3805C18.0393 33.3778 18.0361 33.3749 18.0329 33.3721C18.0323 33.3716 18.0316 33.3708 18.0309 33.3703C18.0245 33.3649 18.0181 33.3595 18.0119 33.3539C17.9997 33.3433 17.9877 33.3325 17.9763 33.3211C17.9772 33.322 17.9783 33.3227 17.9793 33.3236C17.9805 33.3248 17.9819 33.3257 17.9832 33.3269C18.0078 33.3504 18.0336 33.3724 18.0605 33.3928C18.0609 33.393 18.0611 33.3933 18.0614 33.3935C18.0627 33.3945 18.0638 33.3957 18.065 33.3967C18.0576 33.3914 18.0498 33.3861 18.0427 33.3805ZM18.5754 29.9431L15.827 21.477L13.389 13.9669H23.7692L18.5754 29.9431ZM19.1378 33.3538C19.1314 33.3594 19.1252 33.3649 19.1186 33.3703C19.1179 33.3709 19.1171 33.3717 19.1164 33.3723C19.1131 33.375 19.11 33.3779 19.1068 33.3806C19.0997 33.3862 19.092 33.3914 19.0846 33.3968C19.0859 33.3959 19.0869 33.3946 19.0883 33.3937C19.0886 33.3935 19.0888 33.3933 19.089 33.3931C19.116 33.3727 19.1417 33.3509 19.166 33.3274C19.1669 33.3265 19.1681 33.3257 19.1691 33.3249C19.1704 33.3237 19.1718 33.3227 19.1729 33.3216C19.1616 33.3327 19.1498 33.3433 19.1378 33.3538ZM34.8245 19.849L22.9853 28.4499L33.555 14.9069L34.9913 19.3304C35.0536 19.5226 34.9866 19.7312 34.8245 19.849Z" fill="#5F5F5F"/>
<path d="M77.1208 8.1543H74.7861L74.7968 25.5572H84.2533V23.4046H77.1315L77.1208 8.1543Z" fill="#5F5F5F"/>
<path d="M93.2521 22.5034C92.6631 23.1139 91.6885 23.7243 90.3605 23.7243C88.5828 23.7243 87.8652 22.8461 87.8652 21.7002C87.8652 19.976 89.0647 19.1514 91.6136 19.1514C92.0955 19.1514 92.8666 19.2049 93.2628 19.2799V22.5034H93.2521ZM90.8318 11.9546C88.9469 11.9546 87.212 12.6186 85.8626 13.7431L86.6872 15.1781C87.6403 14.6213 88.8077 14.0644 90.4891 14.0644C92.4061 14.0644 93.2521 15.0496 93.2521 16.6989V17.5449C92.8773 17.47 92.1062 17.4164 91.635 17.4164C87.5439 17.4164 85.4663 18.8515 85.4663 21.8502C85.4663 24.5382 87.1156 25.8876 89.6109 25.8876C91.2923 25.8876 92.9094 25.1166 93.4663 23.8635L93.8947 25.5664H95.5439V16.6561C95.5332 13.8395 94.3123 11.9546 90.8318 11.9546Z" fill="#5F5F5F"/>
<path d="M103.077 23.804C102.199 23.804 101.428 23.6969 100.849 23.4292V16.2217V15.3864C101.642 14.7224 102.627 14.2405 103.88 14.2405C106.14 14.2405 107.007 15.8362 107.007 18.4172C107.007 22.0798 105.604 23.804 103.077 23.804ZM104.062 11.9593C101.974 11.9593 100.849 13.3837 100.849 13.3837V11.1347L100.839 8.15747H99.7891H98.5575L98.5682 25.132C99.7141 25.6139 101.278 25.871 102.981 25.871C107.339 25.871 109.438 23.0865 109.438 18.2779C109.428 14.4761 107.489 11.9593 104.062 11.9593Z" fill="#5F5F5F"/>
<path d="M51.7008 10.0426C53.7678 10.0426 55.1065 10.728 55.9739 11.4241L56.9806 9.67846C55.6205 8.479 53.7785 7.83643 51.8079 7.83643C46.8387 7.83643 43.3582 10.8672 43.3582 16.9823C43.3582 23.3866 47.1172 25.8819 51.4117 25.8819C53.5643 25.8819 55.3956 25.3786 56.5951 24.8752L56.5415 18.0319V17.2287V15.8793H50.1694V18.0319H54.239L54.2925 23.226C53.7571 23.4937 52.8361 23.7079 51.583 23.7079C48.1346 23.7079 45.8213 21.5339 45.8213 16.9609C45.8106 12.3023 48.1988 10.0426 51.7008 10.0426Z" fill="#5F5F5F"/>
<path d="M68.1429 8.15186H65.8618L65.8725 11.0755V12.275V12.9711V14.192V21.1532V21.1746C65.8725 23.9912 67.0934 25.8761 70.574 25.8761C71.0559 25.8761 71.5271 25.8332 71.9769 25.7475V23.702C71.6449 23.7556 71.2915 23.777 70.9167 23.777C68.9997 23.777 68.1536 22.7917 68.1536 21.1425V14.1813H71.9769V12.275H68.1536L68.1429 8.15186Z" fill="#5F5F5F"/>
<path d="M60.0607 25.5574H62.3418V12.2776H60.0607V25.5574Z" fill="#5F5F5F"/>
<path d="M60.0607 10.4462H62.3418V8.16504H60.0607V10.4462Z" fill="#5F5F5F"/>
</g>
</svg>
