<svg width="150" height="39" viewBox="0 0 150 39" fill="none" xmlns="http://www.w3.org/2000/svg">
<g opacity="0.8">
<path opacity="0.8" d="M54.7767 21.8855L52.7326 15.5898C52.7335 15.5927 52.7339 15.5956 52.7348 15.5984C52.7338 15.5951 52.7332 15.5918 52.7323 15.5886C52.7322 15.5883 52.7322 15.5882 52.7322 15.588C52.7322 15.5879 52.7322 15.5878 52.7322 15.5878L48.6741 3.09442C48.4522 2.43624 47.8412 1.9945 47.1411 2.00005C46.4388 2.00368 45.8448 2.4368 45.6275 3.10404L41.7756 14.9627H29.6217L25.7626 3.10337C25.5456 2.4368 24.9515 2.00368 24.2493 2.00005C24.2464 2.00005 24.2437 2.00005 24.2408 2.00005C23.5493 2.00005 22.9373 2.43907 22.7129 3.10462L18.6661 15.5868L18.6655 15.5883C18.6655 15.5884 18.6655 15.5886 18.6655 15.5887C18.6645 15.5918 18.664 15.595 18.663 15.5982C18.6639 15.5954 18.6643 15.5925 18.6652 15.5896L16.6135 21.8857C16.3049 22.8361 16.6398 23.869 17.4471 24.4562L35.1622 37.3276C35.1649 37.3295 35.1678 37.3306 35.1704 37.3326C35.178 37.338 35.1854 37.3436 35.193 37.3487C35.1858 37.3438 35.179 37.3384 35.1719 37.3334C35.1719 37.3334 35.1719 37.3333 35.1717 37.3333C35.1729 37.3343 35.1743 37.3348 35.1754 37.3356C35.1765 37.3363 35.1776 37.3367 35.1785 37.3374C35.1786 37.3375 35.1788 37.3377 35.179 37.3378C35.2064 37.3568 35.2349 37.3742 35.2643 37.3902C35.2684 37.3924 35.272 37.3953 35.276 37.3974C35.2762 37.3974 35.2762 37.3975 35.2763 37.3975C35.2788 37.3988 35.2811 37.4004 35.2835 37.4016C35.2854 37.4025 35.2876 37.4031 35.2894 37.404C35.2907 37.4047 35.2922 37.4051 35.2935 37.4057C35.2968 37.4072 35.3005 37.4083 35.3037 37.41C35.3191 37.4174 35.3354 37.4234 35.3511 37.4299C35.366 37.4359 35.3804 37.4431 35.3955 37.4484C35.3963 37.4486 35.3968 37.449 35.3975 37.4492C35.4 37.4501 35.4022 37.4513 35.4048 37.4523C35.408 37.4534 35.4111 37.4546 35.4143 37.4557C35.4155 37.456 35.4168 37.4562 35.418 37.4565C35.422 37.4578 35.4263 37.4583 35.4302 37.4595C35.4317 37.4599 35.4334 37.4602 35.435 37.4607C35.4562 37.4671 35.4784 37.4718 35.5003 37.4766C35.5089 37.4785 35.5173 37.4813 35.5259 37.4829C35.5272 37.4831 35.5283 37.4835 35.5296 37.4837C35.5325 37.4843 35.5351 37.4853 35.5381 37.4858C35.5427 37.4866 35.5472 37.488 35.552 37.4888C35.5558 37.4893 35.5596 37.4891 35.5633 37.4896C35.564 37.4897 35.5645 37.4896 35.5653 37.4897C35.5655 37.4897 35.5656 37.4897 35.5658 37.4897C35.6076 37.4958 35.65 37.5 35.6932 37.5C35.6934 37.5 35.6936 37.5 35.6939 37.5C35.694 37.5 35.6941 37.5 35.6941 37.5H35.6942C35.6943 37.5 35.6945 37.5 35.6946 37.5C35.7379 37.5 35.7802 37.4958 35.8222 37.4897C35.8223 37.4897 35.8225 37.4897 35.8226 37.4897C35.8232 37.4896 35.824 37.4897 35.8246 37.4896C35.8283 37.4891 35.8323 37.4893 35.836 37.4888C35.8408 37.4879 35.8453 37.4866 35.8501 37.4858C35.853 37.4853 35.8555 37.4843 35.8584 37.4837C35.8596 37.4835 35.8608 37.4831 35.8619 37.4829C35.8708 37.4812 35.8793 37.4784 35.8882 37.4765C35.9098 37.4718 35.9315 37.4671 35.9527 37.4608C35.9542 37.4603 35.9557 37.4602 35.9571 37.4597C35.9614 37.4585 35.9656 37.4579 35.9698 37.4566C35.9711 37.4562 35.9725 37.4561 35.9736 37.4558C35.9769 37.4547 35.9801 37.4534 35.9833 37.4523C35.9858 37.4513 35.988 37.4501 35.9906 37.4492C35.9912 37.449 35.9918 37.4486 35.9925 37.4484C36.0085 37.4428 36.0238 37.4353 36.0395 37.4288C36.0541 37.4227 36.069 37.4173 36.0833 37.4104C36.0868 37.4087 36.0906 37.4078 36.094 37.4061C36.0954 37.4053 36.0969 37.4049 36.0982 37.4043C36.1002 37.4033 36.1022 37.4028 36.1041 37.4017C36.1068 37.4004 36.1092 37.3988 36.1118 37.3975C36.1118 37.3975 36.1119 37.3975 36.1119 37.3974C36.1161 37.3953 36.1198 37.3922 36.124 37.39C36.1532 37.3741 36.1816 37.3568 36.2088 37.3379C36.211 37.3364 36.2135 37.3352 36.2157 37.3336C36.2162 37.3332 36.217 37.333 36.2175 37.3326C36.2202 37.3306 36.2232 37.3294 36.2258 37.3274L53.9435 24.4558C54.7504 23.8688 55.0853 22.836 54.7767 21.8855ZM47.1522 4.2649L50.6269 14.9627H43.6775L47.1522 4.2649ZM50.0184 16.7716L48.6006 18.5883L38.143 31.9874L43.0898 16.7715H50.0184V16.7716ZM34.8337 36.8753C34.8337 36.8752 34.8337 36.8752 34.8337 36.8753C34.8347 36.878 34.8362 36.8806 34.837 36.8833C34.8362 36.8806 34.8347 36.878 34.8337 36.8753ZM33.2473 31.9883L21.3784 16.7716H28.3075L33.2473 31.9883ZM24.2383 4.26479L27.7194 14.9627H20.7699L24.2383 4.26479ZM18.5107 22.9928C18.339 22.8679 18.2679 22.6474 18.3337 22.445L19.8588 17.7646L31.0338 32.0919L18.5107 22.9928ZM35.1311 37.3037C35.1275 37.3009 35.1242 37.2978 35.1208 37.2948C35.1201 37.2943 35.1194 37.2934 35.1187 37.2929C35.1119 37.2872 35.1051 37.2815 35.0986 37.2756C35.0857 37.2644 35.073 37.2529 35.0609 37.2409C35.0619 37.2418 35.063 37.2426 35.0641 37.2435C35.0654 37.2448 35.0668 37.2458 35.0682 37.247C35.0942 37.2719 35.1215 37.2951 35.15 37.3167C35.1504 37.3169 35.1506 37.3172 35.1509 37.3175C35.1523 37.3185 35.1535 37.3198 35.1547 37.3208C35.1469 37.3152 35.1386 37.3096 35.1311 37.3037ZM35.6945 33.6683L32.7878 24.7144L30.2093 16.7716H41.1876L35.6945 33.6683ZM36.2893 37.2755C36.2826 37.2814 36.276 37.2872 36.269 37.2929C36.2683 37.2936 36.2674 37.2944 36.2667 37.295C36.2632 37.2979 36.2599 37.301 36.2565 37.3038C36.249 37.3097 36.2409 37.3152 36.2331 37.3209C36.2344 37.32 36.2355 37.3186 36.237 37.3177C36.2373 37.3175 36.2375 37.3172 36.2377 37.317C36.2663 37.2955 36.2935 37.2724 36.3192 37.2475C36.3201 37.2466 36.3214 37.2458 36.3224 37.2449C36.3238 37.2436 36.3253 37.2426 36.3265 37.2414C36.3145 37.2532 36.302 37.2644 36.2893 37.2755ZM52.8798 22.9926L40.3585 32.089L51.5372 17.7658L53.0562 22.4441C53.1221 22.6474 53.0513 22.868 52.8798 22.9926Z" fill="#777777"/>
<path opacity="0.8" d="M97.6132 10.624H95.144L95.1554 29.0296H105.157V26.753H97.6246L97.6132 10.624Z" fill="#777777"/>
<path opacity="0.8" d="M114.674 25.7999C114.051 26.4456 113.02 27.0911 111.616 27.0911C109.736 27.0911 108.977 26.1623 108.977 24.9504C108.977 23.1269 110.245 22.2548 112.941 22.2548C113.451 22.2548 114.266 22.3113 114.685 22.3907V25.7999H114.674ZM112.114 14.6433C110.121 14.6433 108.286 15.3456 106.859 16.5349L107.731 18.0525C108.739 17.4637 109.973 16.8747 111.752 16.8747C113.779 16.8747 114.674 17.9166 114.674 19.661V20.5557C114.277 20.4765 113.462 20.4198 112.964 20.4198C108.637 20.4198 106.439 21.9376 106.439 25.109C106.439 27.9519 108.184 29.3791 110.823 29.3791C112.601 29.3791 114.311 28.5636 114.9 27.2383L115.353 29.0394H117.098V19.6157C117.086 16.6368 115.795 14.6433 112.114 14.6433Z" fill="#777777"/>
<path opacity="0.8" d="M125.064 27.1752C124.135 27.1752 123.32 27.0619 122.708 26.7788V19.156V18.2726C123.546 17.5704 124.588 17.0607 125.913 17.0607C128.304 17.0607 129.22 18.7483 129.22 21.478C129.22 25.3517 127.737 27.1752 125.064 27.1752ZM126.106 14.6481C123.898 14.6481 122.708 16.1545 122.708 16.1545V13.776L122.697 10.6272H121.587H120.284L120.295 28.5797C121.507 29.0894 123.161 29.3613 124.963 29.3613C129.572 29.3613 131.792 26.4164 131.792 21.3307C131.781 17.3099 129.73 14.6481 126.106 14.6481Z" fill="#777777"/>
<path opacity="0.8" d="M70.728 12.6211C72.9141 12.6211 74.33 13.346 75.2473 14.0822L76.312 12.236C74.8736 10.9674 72.9254 10.2878 70.8413 10.2878C65.5858 10.2878 61.9048 13.4932 61.9048 19.9606C61.9048 26.7339 65.8804 29.373 70.4223 29.373C72.6989 29.373 74.6357 28.8407 75.9043 28.3083L75.8476 21.0707V20.2212V18.7941H69.1084V21.0707H73.4125L73.4691 26.5641C72.9028 26.8472 71.9288 27.0737 70.6035 27.0737C66.9564 27.0737 64.5098 24.7745 64.5098 19.938C64.4985 15.011 67.0243 12.6211 70.728 12.6211Z" fill="#777777"/>
<path opacity="0.8" d="M88.1171 10.6218H85.7046L85.7159 13.7139V14.9825V15.7187V17.01V24.3722V24.3949C85.7159 27.3737 87.0071 29.3672 90.6883 29.3672C91.1979 29.3672 91.6963 29.3219 92.172 29.2312V27.0679C91.8209 27.1246 91.4471 27.1472 91.0507 27.1472C89.0233 27.1472 88.1284 26.1051 88.1284 24.3609V16.9986H92.172V14.9825H88.1284L88.1171 10.6218Z" fill="#777777"/>
<path opacity="0.8" d="M79.5708 29.0298H81.9833V14.9849H79.5708V29.0298Z" fill="#777777"/>
<path opacity="0.8" d="M79.5708 13.0478H81.9833V10.6353H79.5708V13.0478Z" fill="#777777"/>
</g>
</svg>
