<svg width="40" height="40" viewBox="0 0 40 40" fill="none" xmlns="http://www.w3.org/2000/svg">
<path fill-rule="evenodd" clip-rule="evenodd" d="M18.5306 22.2827H21.4998L19.9561 18.9504L18.5306 22.2827Z" fill="#FF6112"/>
<path fill-rule="evenodd" clip-rule="evenodd" d="M26.3747 16.2254C26.6231 16.2254 26.8251 16.0234 26.8251 15.775C26.8251 15.5265 26.6231 15.3245 26.3747 15.3245C26.1262 15.3245 25.924 15.5265 25.924 15.775C25.924 16.0234 26.1262 16.2254 26.3747 16.2254Z" fill="#FF6112"/>
<path fill-rule="evenodd" clip-rule="evenodd" d="M13.9298 14.0317C14.8909 14.0317 15.6727 14.8138 15.6727 15.7746C15.6727 16.7357 14.8909 17.5175 13.9298 17.5175C12.9689 17.5175 12.1869 16.7357 12.1869 15.7746C12.1869 14.8138 12.9689 14.0317 13.9298 14.0317ZM26.3746 14.0317C27.3357 14.0317 28.1175 14.8138 28.1175 15.7746C28.1175 16.7357 27.3357 17.5175 26.3746 17.5175C25.4135 17.5175 24.6315 16.7357 24.6315 15.7746C24.6315 14.8138 25.4135 14.0317 26.3746 14.0317ZM9.81948 18.4766H30.0653C30.9972 18.4766 31.7528 17.7212 31.7528 16.7891V14.7095C31.7528 13.7776 30.9972 13.022 30.0653 13.022H9.81948C8.88783 13.022 8.1322 13.7776 8.1322 14.7095V16.7891C8.1322 17.7212 8.88783 18.4766 9.81948 18.4766Z" fill="#FF6112"/>
<path fill-rule="evenodd" clip-rule="evenodd" d="M2.83801 22.9528V22.714V22.458V15.4126V15.1568V14.9178C2.83801 14.9157 2.8387 14.9141 2.8387 14.9123C2.84192 14.4189 3.24363 14.0186 3.73727 14.0186H4.17046C4.66617 14.0186 5.06972 14.4221 5.06972 14.9178V22.9528C5.06972 23.4487 4.66617 23.8523 4.17046 23.8523H3.73727C3.24363 23.8523 2.84192 23.4517 2.8387 22.9585C2.8387 22.9567 2.83801 22.9548 2.83801 22.9528ZM2.25653 17.5623V20.3084V22.5941C2.25539 22.5941 2.25424 22.5945 2.25332 22.5945H1.38899C0.929827 22.5945 0.556152 22.2206 0.556152 21.7615V21.6006V21.3749V21.1495V16.7214V16.4958V16.2701V16.1092C0.556152 15.6498 0.929827 15.2764 1.38899 15.2764H2.25332C2.25424 15.2764 2.25539 15.2766 2.25653 15.2766V17.5623ZM5.73376 13.8222C5.73376 11.5863 7.03289 9.65293 8.91322 8.72287C8.98814 8.68587 9.06214 8.64795 9.1389 8.61394C9.2129 8.58154 9.28873 8.55258 9.36434 8.52293C9.8566 8.33081 10.3803 8.20372 10.9275 8.15615C11.0155 8.14857 11.1049 8.14627 11.1936 8.14282C11.2709 8.13961 11.3467 8.1311 11.4248 8.1311H11.4761H14.2665H14.5581H14.8286H17.897H18.1671H18.4594H21.2493H21.5412H21.8114H25.3191H25.5893H25.8814H28.2834C28.4094 8.1311 28.5323 8.1419 28.6559 8.14995C28.7479 8.15592 28.8403 8.16029 28.9308 8.17063C29.0179 8.18051 29.1029 8.19637 29.1884 8.21016C29.8002 8.30829 30.3802 8.5011 30.9106 8.77872C30.9872 8.8187 31.0619 8.86214 31.1363 8.90534C31.2126 8.9497 31.2882 8.99497 31.362 9.04277C32.9311 10.0572 33.9747 11.8185 33.9747 13.8222V21.366C33.9747 24.0091 32.161 26.2307 29.7142 26.8678C29.2562 26.987 28.7784 27.0569 28.2834 27.0569H11.4248C11.2336 27.0569 11.0452 27.0468 10.8588 27.0282C7.98547 26.7432 5.73376 24.3129 5.73376 21.366V13.8222ZM9.36438 6.68479C9.36438 6.01282 9.91087 5.46655 10.5828 5.46655H10.6334H10.8588H11.0848H14.6579H14.8833H15.1092H17.6165H17.8419H18.0678H21.6407H21.8666H22.0919H25.0387H25.2642H25.4896H29.063H29.2889H29.5143H29.6924C30.3642 5.46655 30.9107 6.01282 30.9107 6.68479V8.14755C30.4361 7.92165 29.9301 7.75342 29.3983 7.65529C29.3243 7.64173 29.2489 7.63208 29.1742 7.62105C29.0986 7.61002 29.0239 7.59485 28.9474 7.58658C28.7291 7.56291 28.508 7.54912 28.2837 7.54912H25.5921H25.3563H25.1217H22.0089H21.774H21.5387H18.1699H17.9341H17.6994H15.026H14.7912H14.5556H11.4249C11.3458 7.54912 11.2688 7.55808 11.1905 7.56084C11.113 7.56406 11.0353 7.56704 10.9586 7.57256C10.8821 7.57877 10.8053 7.58267 10.7295 7.59118C10.2556 7.64518 9.79964 7.75641 9.36438 7.91222V6.68479ZM11.0845 4.21745C11.0845 3.43723 11.7192 2.80249 12.4992 2.80249H13.2424C14.0229 2.80249 14.6576 3.43723 14.6576 4.21745V4.88506H11.0845V4.21745ZM18.0675 4.21745C18.0675 3.43723 18.702 2.80249 19.4822 2.80249H20.2257C21.0059 2.80249 21.6404 3.43723 21.6404 4.21745V4.88506H18.0675V4.21745ZM25.4894 4.21745C25.4894 3.43723 26.1241 2.80249 26.9046 2.80249H27.648C28.4282 2.80249 29.0627 3.43723 29.0627 4.21745V4.88506H25.4894V4.21745ZM11.2969 29.53H28.6404V27.5564H11.2969V29.53ZM34.6982 14.9178C34.6982 14.4221 35.1018 14.0186 35.5975 14.0186H36.0307C36.5243 14.0186 36.926 14.4189 36.9293 14.9123C36.9293 14.9141 36.93 14.9157 36.93 14.9178V15.1568V15.4126V22.458V22.714V22.9528C36.93 22.9548 36.9293 22.9567 36.9293 22.9585C36.926 23.4517 36.5243 23.8523 36.0307 23.8523H35.5975C35.1018 23.8523 34.6982 23.4487 34.6982 22.9528V14.9178ZM37.5114 20.3084V17.5623V15.2766C37.5125 15.2766 37.5134 15.2764 37.5146 15.2764H38.3787C38.8378 15.2764 39.2115 15.6498 39.2115 16.1092V16.2701V16.4958V16.7214V21.1495V21.3749V21.6006V21.7615C39.2115 22.2206 38.8378 22.5945 38.3787 22.5945H37.5146C37.5134 22.5945 37.5125 22.5941 37.5114 22.5941V20.3084ZM6.02315 30.0917H10.8586H29.7141H34.2469C35.187 30.0917 36.0539 30.3995 36.7596 30.9156C38.8084 27.7766 40 24.0279 40 20C40 8.95444 31.0458 0 20.0001 0C8.95418 0 0 8.95444 0 20C0 24.0867 1.22674 27.8862 3.33044 31.0526C4.06584 30.4532 5.0021 30.0917 6.02315 30.0917Z" fill="#FF6112"/>
<path fill-rule="evenodd" clip-rule="evenodd" d="M22.5143 23.3137H17.5701C17.2727 23.3137 17.0319 23.5547 17.0319 23.8523C17.0319 24.1497 17.2727 24.3908 17.5701 24.3908H22.5143C22.8117 24.3908 23.0528 24.1497 23.0528 23.8523C23.0528 23.5547 22.8117 23.3137 22.5143 23.3137Z" fill="#FF6112"/>
<path fill-rule="evenodd" clip-rule="evenodd" d="M13.9298 16.2254C14.1782 16.2254 14.3802 16.0234 14.3802 15.775C14.3802 15.5265 14.1782 15.3245 13.9298 15.3245C13.6813 15.3245 13.4793 15.5265 13.4793 15.775C13.4793 16.0234 13.6813 16.2254 13.9298 16.2254Z" fill="#FF6112"/>
<path fill-rule="evenodd" clip-rule="evenodd" d="M7.25663 34.8213C7.58319 34.6187 7.96445 34.4962 8.37628 34.4962H31.711C32.1226 34.4962 32.5041 34.6187 32.8304 34.8213C32.9455 34.8928 33.0505 34.9776 33.1501 35.0684C33.2886 34.9471 33.4256 34.8236 33.5612 34.6986C33.3511 34.4838 33.1043 34.3052 32.8304 34.173C32.4912 34.0092 32.1122 33.9147 31.711 33.9147H8.37628C7.97479 33.9147 7.59606 34.0092 7.25663 34.173C6.96477 34.3139 6.70462 34.5086 6.48584 34.7423C6.62028 34.8657 6.7561 34.988 6.89422 35.1075C7.00499 35.0006 7.12518 34.9029 7.25663 34.8213Z" fill="#FF6112"/>
<path fill-rule="evenodd" clip-rule="evenodd" d="M14.6576 4.21728C14.6576 3.43707 14.0229 2.80255 13.2426 2.80255H12.4992C11.7192 2.80255 11.0845 3.43707 11.0845 4.21728V4.88489H14.6576V4.21728Z" fill="white"/>
<path fill-rule="evenodd" clip-rule="evenodd" d="M21.6407 4.21728C21.6407 3.43707 21.0059 2.80255 20.2259 2.80255H19.4823C18.7023 2.80255 18.0676 3.43707 18.0676 4.21728V4.88489H21.6407V4.21728Z" fill="white"/>
<path fill-rule="evenodd" clip-rule="evenodd" d="M29.0628 4.21728C29.0628 3.43707 28.428 2.80255 27.6481 2.80255H26.9044C26.1242 2.80255 25.4894 3.43707 25.4894 4.21728V4.88489H29.0628V4.21728Z" fill="white"/>
<path fill-rule="evenodd" clip-rule="evenodd" d="M38.3787 22.5943C38.8379 22.5943 39.2116 22.2204 39.2116 21.7612V21.6003V21.3744V21.1492V16.7209V16.4955V16.2696V16.1087C39.2116 15.6493 38.8379 15.2759 38.3787 15.2759H37.5144C37.5132 15.2759 37.5123 15.2761 37.5114 15.2761V17.5621V20.3081V22.5938C37.5123 22.5938 37.5132 22.5943 37.5144 22.5943H38.3787Z" fill="white"/>
<path fill-rule="evenodd" clip-rule="evenodd" d="M35.5973 23.8521H36.0305C36.5242 23.8521 36.9259 23.4515 36.9291 22.9583C36.9291 22.9565 36.9298 22.9547 36.9298 22.9526V22.7138V22.4578V15.4124V15.1566V14.9176C36.9298 14.9156 36.9291 14.914 36.9291 14.9121C36.9259 14.4187 36.5242 14.0184 36.0305 14.0184H35.5973C35.1016 14.0184 34.6981 14.4219 34.6981 14.9176V22.9526C34.6981 23.4485 35.1016 23.8521 35.5973 23.8521Z" fill="white"/>
<path fill-rule="evenodd" clip-rule="evenodd" d="M1.38899 15.2759C0.929827 15.2759 0.556152 15.6493 0.556152 16.1087V16.2696V16.4955V16.7209V21.1492V21.3744V21.6003V21.7612C0.556152 22.2204 0.929827 22.5943 1.38899 22.5943H2.25332C2.25424 22.5943 2.25539 22.5938 2.2563 22.5938V20.3079V17.5618V15.2761C2.25539 15.2761 2.25424 15.2759 2.25332 15.2759H1.38899Z" fill="white"/>
<path fill-rule="evenodd" clip-rule="evenodd" d="M29.7141 30.092H10.8587H6.02318C5.00212 30.092 4.06587 30.4532 3.33024 31.0528C4.23041 32.4078 5.29123 33.647 6.48602 34.7425C6.70457 34.5088 6.96495 34.3141 7.25658 34.1732C7.59602 34.0094 7.97475 33.9149 8.37623 33.9149H31.7109C32.1124 33.9149 32.4911 34.0094 32.8306 34.1732C33.1043 34.3054 33.3511 34.4839 33.5611 34.6988C34.7764 33.5769 35.8521 32.3065 36.7597 30.9159C36.0539 30.3997 35.1868 30.092 34.2469 30.092H29.7141Z" fill="white"/>
<path fill-rule="evenodd" clip-rule="evenodd" d="M31.711 34.4961H8.37626C7.96444 34.4961 7.58318 34.6186 7.25662 34.8213C7.12516 34.9031 7.00497 35.0005 6.8942 35.1074C10.4041 38.1552 14.9866 39.9999 19.9999 39.9999C25.0347 39.9999 29.6341 38.1391 33.15 35.0683C33.0505 34.9776 32.9455 34.8928 32.8304 34.8213C32.504 34.6186 32.1226 34.4961 31.711 34.4961Z" fill="#FF6112"/>
<path fill-rule="evenodd" clip-rule="evenodd" d="M10.9586 7.57299C11.0354 7.56747 11.1131 7.56448 11.1905 7.56127C11.2689 7.55851 11.3459 7.54932 11.4249 7.54932H14.5557H14.7912H15.0261H17.6995H17.9344H18.1699H21.5387H21.7743H22.0089H25.1217H25.3564H25.5922H28.2837C28.508 7.54932 28.7291 7.56334 28.9474 7.58701C29.024 7.59528 29.0986 7.61045 29.1742 7.62148C29.2489 7.63251 29.3243 7.64216 29.3983 7.65572C29.9301 7.75385 30.4361 7.92207 30.9107 8.14798V6.68522C30.9107 6.01325 30.3642 5.46698 29.6925 5.46698H29.5144H29.2889H29.063H25.4897H25.2642H25.0388H22.0919H21.8667H21.6408H18.0679H17.842H17.6165H15.1093H14.8834H14.6579H11.0848H10.8589H10.6334H10.5829C9.91091 5.46698 9.36442 6.01325 9.36442 6.68522V7.91265C9.79968 7.75684 10.2556 7.64538 10.7295 7.5916C10.8053 7.5831 10.8821 7.57896 10.9586 7.57299Z" fill="white"/>
<path fill-rule="evenodd" clip-rule="evenodd" d="M3.73731 23.8521H4.1705C4.66621 23.8521 5.06976 23.4485 5.06976 22.9526V14.9176C5.06976 14.4219 4.66621 14.0184 4.1705 14.0184H3.73731C3.24367 14.0184 2.84196 14.4187 2.83874 14.9121C2.83874 14.914 2.83805 14.9156 2.83805 14.9176V15.1566V15.4124V22.4578V22.7138V22.9526C2.83805 22.9547 2.83874 22.9565 2.83874 22.9583C2.84196 23.4515 3.24367 23.8521 3.73731 23.8521Z" fill="white"/>
<path fill-rule="evenodd" clip-rule="evenodd" d="M13.9298 15.3245C14.1782 15.3245 14.3802 15.5265 14.3802 15.7749C14.3802 16.0233 14.1782 16.2253 13.9298 16.2253C13.6814 16.2253 13.4794 16.0233 13.4794 15.7749C13.4794 15.5265 13.6814 15.3245 13.9298 15.3245ZM13.9298 17.5178C14.8909 17.5178 15.6727 16.736 15.6727 15.7749C15.6727 14.814 14.8909 14.032 13.9298 14.032C12.9689 14.032 12.1869 14.814 12.1869 15.7749C12.1869 16.736 12.9689 17.5178 13.9298 17.5178Z" fill="white"/>
<path fill-rule="evenodd" clip-rule="evenodd" d="M26.3745 15.3245C26.6229 15.3245 26.8249 15.5265 26.8249 15.7749C26.8249 16.0233 26.6229 16.2253 26.3745 16.2253C26.1261 16.2253 25.9238 16.0233 25.9238 15.7749C25.9238 15.5265 26.1261 15.3245 26.3745 15.3245ZM26.3745 17.5178C27.3356 17.5178 28.1174 16.736 28.1174 15.7749C28.1174 14.814 27.3356 14.032 26.3745 14.032C25.4132 14.032 24.6313 14.814 24.6313 15.7749C24.6313 16.736 25.4132 17.5178 26.3745 17.5178Z" fill="white"/>
<path fill-rule="evenodd" clip-rule="evenodd" d="M8.13293 14.7092C8.13293 13.7771 8.88833 13.0217 9.82022 13.0217H30.0658C30.9977 13.0217 31.7533 13.7771 31.7533 14.7092V16.7888C31.7533 17.7207 30.9977 18.4763 30.0658 18.4763H9.82022C8.88833 18.4763 8.13293 17.7207 8.13293 16.7888V14.7092ZM18.5314 22.2825L19.9569 18.9502L21.5005 22.2825H18.5314ZM22.5144 24.3906H17.5702C17.2728 24.3906 17.032 24.1495 17.032 23.8522C17.032 23.5546 17.2728 23.3135 17.5702 23.3135H22.5144C22.8118 23.3135 23.0528 23.5546 23.0528 23.8522C23.0528 24.1495 22.8118 24.3906 22.5144 24.3906ZM10.8588 27.0284C11.0452 27.047 11.2336 27.0571 11.4248 27.0571H28.2834C28.7784 27.0571 29.2562 26.987 29.7142 26.8678C32.161 26.2307 33.9747 24.0091 33.9747 21.366V13.8222C33.9747 11.8185 32.9311 10.0572 31.362 9.04277C31.2882 8.99497 31.2126 8.94993 31.1363 8.90534C31.0616 8.86214 30.9872 8.8187 30.9106 8.77872C30.3802 8.5011 29.8002 8.30852 29.1884 8.21016C29.1029 8.19637 29.0179 8.18051 28.9308 8.17063C28.84 8.16029 28.7479 8.15592 28.6559 8.14995C28.5323 8.1419 28.4091 8.1311 28.2834 8.1311H25.8812H25.5893H25.3191H21.8112H21.5412H21.2493H18.4594H18.1671H17.897H14.8286H14.5581H14.2662H11.4761H11.4248C11.3467 8.1311 11.2709 8.13961 11.1936 8.14282C11.1049 8.14627 11.0155 8.14857 10.9275 8.15615C10.3803 8.20372 9.8566 8.33081 9.36434 8.52293C9.28873 8.55258 9.2129 8.58154 9.1389 8.61417C9.06214 8.64795 8.98814 8.68587 8.91299 8.72287C7.03289 9.65293 5.73376 11.5863 5.73376 13.8222V21.366C5.73376 24.3129 7.98547 26.7432 10.8588 27.0284Z" fill="white"/>
<path fill-rule="evenodd" clip-rule="evenodd" d="M11.2969 29.5301H28.6404V27.5565H11.2969V29.5301Z" fill="white"/>
</svg>
