<svg width="150" height="31" viewBox="0 0 150 31" fill="none" xmlns="http://www.w3.org/2000/svg">
<g opacity="0.8" clip-path="url(#clip0)">
<path d="M70.4268 29.676L74.8977 30.5877V10.7229L70.4268 11.5908V29.676Z" fill="#9E9E9E"/>
<path d="M82.1196 18.8046V29.675L86.5905 30.5868V19.4796C86.5905 16.9549 88.0107 15.8153 90.2286 15.3945L92.806 14.9211V10.2573L90.2286 10.6781C85.3194 11.8002 82.1196 13.4045 82.1196 18.8046Z" fill="#9E9E9E"/>
<path d="M63.202 18.1485C63.202 12.2749 59.2922 10.3113 56.145 10.3551C53.6466 10.3902 51.6128 11.4246 50.3942 13.0113C49.1845 11.2668 47.0279 10.3025 45.2746 10.3025C43.1181 10.3025 41.2157 11.2493 39.9709 12.7659V10.7233L35.5 11.5912V29.6764L39.9709 30.5881V18.1485C39.9709 16.176 41.4086 14.7734 43.5739 14.7734C45.6954 14.7734 47.1331 16.176 47.1331 18.1485V29.6764L51.604 30.5881V18.1485C51.604 16.176 53.0417 14.7734 55.1632 14.7734C57.2847 14.7734 58.7224 16.176 58.7224 18.1485V29.6764L63.1933 30.5881V18.1485H63.202Z" fill="#9E9E9E"/>
<path d="M106.841 26.8097C103.37 26.8097 101.047 24.3288 101.047 20.6382C101.047 16.9475 103.37 14.5016 106.841 14.5016C110.085 14.5016 112.215 16.9387 112.215 20.6382C112.215 24.3376 110.076 26.8097 106.841 26.8097ZM106.841 31.0001C112.829 31.0001 116.791 26.8448 116.791 20.6294C116.791 14.414 112.829 10.3025 106.841 10.3025C100.626 10.3025 96.4707 14.4227 96.4707 20.6294C96.4707 26.836 100.626 31.0001 106.841 31.0001Z" fill="#9E9E9E"/>
<path d="M72.7579 7.62807C74.3884 7.62807 75.4667 6.4972 75.4667 4.80527C75.4667 3.11334 74.3884 2 72.7579 2C71.0659 2 69.9351 3.12211 69.9351 4.80527C69.9351 6.48843 71.0659 7.62807 72.7579 7.62807Z" fill="#9E9E9E"/>
</g>
<defs>
<clipPath id="clip0">
<rect width="150" height="31" fill="white"/>
</clipPath>
</defs>
</svg>
