<svg width="172" height="22" viewBox="0 0 172 22" fill="none" xmlns="http://www.w3.org/2000/svg">
<g opacity="0.8">
<path fill-rule="evenodd" clip-rule="evenodd" d="M146.165 21.6342C146.077 21.7097 145.963 21.7504 145.846 21.7504H139.628C139.432 21.7504 139.24 21.6464 139.159 21.4668C139.065 21.2602 139.12 21.0191 139.289 20.8794L150.636 11.3231C150.889 11.1097 150.889 10.7203 150.637 10.5064L139.306 0.885445C139.168 0.76832 139.088 0.589241 139.12 0.411519C139.162 0.166869 139.372 0 139.609 0H145.593C145.707 0 145.819 0.0406997 145.911 0.115768L158.259 10.5032L158.371 10.5987C158.561 10.7606 158.566 11.0522 158.382 11.2209L158.26 11.3326L146.165 21.6342Z" fill="#CECECE"/>
<path fill-rule="evenodd" clip-rule="evenodd" d="M24.9159 0.152539H21.1218C20.6669 0.152539 20.2942 0.525168 20.2942 0.980552V13.2438C20.2942 13.5319 19.9551 13.6865 19.7375 13.4971L5.69434 1.27133C4.73699 0.438342 3.69644 0.0141602 2.59845 0.0141602C1.62934 0.0141602 0 0.409852 0 3.05624V20.7981C0 21.2553 0.370367 21.6257 0.827561 21.6257H4.61942C5.07616 21.6257 5.44653 21.2553 5.44653 20.7986V8.48422C5.44653 8.19571 5.78614 8.0415 6.00366 8.23143L20.1952 20.6421C21.0748 21.4227 22.0312 21.8183 23.0383 21.8183C24.0486 21.8183 25.7426 21.405 25.7426 18.637V0.979648C25.7426 0.524715 25.3704 0.152539 24.9159 0.152539Z" fill="#797979"/>
<path fill-rule="evenodd" clip-rule="evenodd" d="M52.6702 0.1521H48.2602C47.9906 0.1521 47.7691 0.371878 47.7691 0.643209V15.0052C47.7691 16.1882 46.3002 16.7883 43.4011 16.7883H37.4033C34.4498 16.7883 32.9503 16.1882 32.9503 15.0052V0.643209C32.9503 0.371878 32.7305 0.1521 32.4587 0.1521H27.9944C27.7222 0.1521 27.502 0.371878 27.502 0.643209V15.2259C27.502 16.2375 27.6733 17.1103 28.0062 17.8212C28.3377 18.524 28.789 19.1286 29.3493 19.6183C29.8978 20.0968 30.5422 20.4771 31.2603 20.7462C31.9572 21.0098 32.6916 21.2079 33.4391 21.3386C34.183 21.4729 34.9572 21.5534 35.7405 21.5832C36.5034 21.6112 37.2206 21.6253 37.8926 21.6253H42.7729C46.3554 21.6253 48.905 21.1296 50.5696 20.1117C52.2899 19.0589 53.1627 17.4165 53.1627 15.2259V0.643209C53.1627 0.371878 52.9411 0.1521 52.6702 0.1521Z" fill="#797979"/>
<path fill-rule="evenodd" clip-rule="evenodd" d="M78.4532 3.94197V1.1156C78.4532 0.568419 78.0101 0.125244 77.4629 0.125244H55.8934C55.3462 0.125244 54.9026 0.568871 54.9026 1.11606V3.94197C54.9026 4.48916 55.3462 4.93324 55.8939 4.93324H63.4391C63.715 4.93324 63.9388 5.15663 63.9388 5.43249V20.6343C63.9388 21.1815 64.3825 21.6251 64.9296 21.6251H68.3959C68.9435 21.6251 69.3876 21.181 69.3876 20.6338V5.43249C69.3876 5.15663 69.611 4.93324 69.8869 4.93324H77.462C78.0096 4.93324 78.4532 4.48961 78.4532 3.94197Z" fill="#797979"/>
<path fill-rule="evenodd" clip-rule="evenodd" d="M84.1067 10.8357L86.8697 6.8643C86.9959 6.68206 87.265 6.68116 87.3929 6.86204L90.189 10.8054C90.3192 10.9885 90.1881 11.2422 89.9633 11.2422H84.3192C84.1103 11.2422 83.9873 11.0071 84.1067 10.8357ZM90.1867 1.605C89.4437 0.567607 88.4602 0.0407715 87.2632 0.0407715C86.0824 0.0407715 85.1083 0.577555 84.3635 1.63937L71.0583 20.8519C70.9313 21.0346 70.9403 21.2833 71.0941 21.4588C71.194 21.5723 71.3464 21.6252 71.4974 21.6252H76.7278C76.8942 21.6252 77.0507 21.5402 77.1411 21.4004L80.4826 16.2596C80.5558 16.147 80.6806 16.0792 80.815 16.0792C80.815 16.0792 91.9554 16.0765 93.6417 16.0787C93.7756 16.0787 93.899 16.1456 93.9727 16.2573L97.3897 21.4045C97.4801 21.5424 97.6343 21.6252 97.7994 21.6252H102.819C102.999 21.6252 103.167 21.5248 103.252 21.3624C103.338 21.2019 103.327 21.0079 103.226 20.8573L90.1867 1.605Z" fill="#797979"/>
<path fill-rule="evenodd" clip-rule="evenodd" d="M129.436 0.152051H125.538C125.11 0.152051 124.763 0.498903 124.763 0.926702V13.3587C124.763 13.6019 124.477 13.7322 124.294 13.5726L110.164 1.27084C109.207 0.437853 108.165 0.0136719 107.065 0.0136719C106.096 0.0136719 104.468 0.409363 104.468 3.05575V20.8501C104.468 21.2766 104.817 21.6252 105.243 21.6252H109.14C109.568 21.6252 109.916 21.2779 109.916 20.8497V8.36796C109.916 8.12422 110.202 7.99443 110.386 8.15452L124.664 20.6416C125.543 21.4222 126.5 21.8179 127.508 21.8179C128.517 21.8179 130.212 21.4045 130.212 18.6365V0.927606C130.212 0.499355 129.865 0.152051 129.436 0.152051Z" fill="#797979"/>
<path fill-rule="evenodd" clip-rule="evenodd" d="M136.902 0.1521H132.44C132.168 0.1521 131.948 0.371878 131.948 0.643209V21.1337C131.948 21.4046 132.168 21.6253 132.44 21.6253H136.902C137.174 21.6253 137.395 21.4046 137.395 21.1337V0.643209C137.395 0.371878 137.174 0.1521 136.902 0.1521Z" fill="#797979"/>
<path fill-rule="evenodd" clip-rule="evenodd" d="M160.166 9.11628C160.364 9.28496 160.655 9.28496 160.854 9.11673L170.758 0.885445C170.895 0.76832 170.975 0.589241 170.944 0.411519C170.902 0.166869 170.692 0 170.455 0H164.471C164.356 0 164.245 0.0406997 164.153 0.115768L157.203 5.78162C156.951 5.99326 156.95 6.3799 157.2 6.5929L160.166 9.11628Z" fill="#797979"/>
<path fill-rule="evenodd" clip-rule="evenodd" d="M160.133 12.7151C160.331 12.5464 160.623 12.546 160.821 12.7147L170.873 20.9242C171.011 21.0409 171.09 21.2204 171.059 21.3982C171.017 21.6424 170.807 21.8097 170.57 21.8097H164.586C164.472 21.8097 164.36 21.769 164.268 21.6939L157.361 15.9431C157.11 15.7314 157.109 15.3448 157.359 15.1318L160.133 12.7151Z" fill="#797979"/>
</g>
</svg>
