<svg width="150" height="29" viewBox="0 0 150 29" fill="none" xmlns="http://www.w3.org/2000/svg">
<g clip-path="url(#clip0)">
<g opacity="0.8">
<path opacity="0.8" fill-rule="evenodd" clip-rule="evenodd" d="M127.776 28.8384C127.699 28.9042 127.6 28.9396 127.498 28.9396H122.084C121.913 28.9396 121.746 28.8491 121.675 28.6927C121.593 28.5128 121.641 28.3028 121.789 28.1812L131.669 19.8598C131.889 19.674 131.889 19.3349 131.67 19.1487L121.803 10.771C121.683 10.669 121.614 10.5131 121.641 10.3583C121.678 10.1453 121.861 10 122.067 10H127.278C127.377 10 127.475 10.0354 127.555 10.1008L138.307 19.1459L138.405 19.229C138.57 19.37 138.574 19.6239 138.414 19.7708L138.308 19.8681L127.776 28.8384Z" fill="#CECECE"/>
<path opacity="0.8" fill-rule="evenodd" clip-rule="evenodd" d="M22.1961 10.1347H18.8923C18.4962 10.1347 18.1716 10.4591 18.1716 10.8557V21.5342C18.1716 21.785 17.8763 21.9196 17.6869 21.7547L5.45847 11.1089C4.62484 10.3835 3.71876 10.0142 2.76266 10.0142C1.91878 10.0142 0.5 10.3587 0.5 12.6631V28.1122C0.5 28.5103 0.822505 28.8329 1.22062 28.8329H4.52246C4.92018 28.8329 5.24268 28.5103 5.24268 28.1127V17.3896C5.24268 17.1384 5.53841 17.0041 5.72782 17.1695L18.0854 27.9764C18.8513 28.6561 19.6841 29.0006 20.5611 29.0006C21.4408 29.0006 22.9159 28.6407 22.9159 26.2304V10.8549C22.9159 10.4587 22.5918 10.1347 22.1961 10.1347Z" fill="#828282"/>
<path opacity="0.8" fill-rule="evenodd" clip-rule="evenodd" d="M46.363 10.1321H42.5229C42.2882 10.1321 42.0953 10.3235 42.0953 10.5597V23.0657C42.0953 24.0959 40.8162 24.6184 38.2917 24.6184H33.069C30.4972 24.6184 29.1915 24.0959 29.1915 23.0657V10.5597C29.1915 10.3235 29.0001 10.1321 28.7634 10.1321H24.876C24.639 10.1321 24.4473 10.3235 24.4473 10.5597V23.2579C24.4473 24.1388 24.5964 24.8988 24.8863 25.5178C25.175 26.1298 25.5679 26.6563 26.0558 27.0827C26.5335 27.4994 27.0946 27.8305 27.7199 28.0648C28.3267 28.2944 28.9662 28.4669 29.6171 28.5807C30.2649 28.6976 30.939 28.7677 31.6211 28.7937C32.2854 28.8181 32.9099 28.8303 33.4951 28.8303H37.7447C40.8643 28.8303 43.0844 28.3987 44.5339 27.5123C46.0319 26.5956 46.7919 25.1654 46.7919 23.2579V10.5597C46.7919 10.3235 46.5989 10.1321 46.363 10.1321Z" fill="#828282"/>
<path opacity="0.8" fill-rule="evenodd" clip-rule="evenodd" d="M68.8138 13.4324V10.9713C68.8138 10.4948 68.428 10.1089 67.9515 10.1089H49.1694C48.6929 10.1089 48.3066 10.4952 48.3066 10.9717V13.4324C48.3066 13.9089 48.6929 14.2956 49.1698 14.2956H55.74C55.9802 14.2956 56.1751 14.4901 56.1751 14.7303V27.9676C56.1751 28.4441 56.5615 28.8303 57.0379 28.8303H60.0562C60.5331 28.8303 60.9198 28.4436 60.9198 27.9672V14.7303C60.9198 14.4901 61.1143 14.2956 61.3545 14.2956H67.9507C68.4276 14.2956 68.8138 13.9093 68.8138 13.4324Z" fill="#828282"/>
<path opacity="0.8" fill-rule="evenodd" clip-rule="evenodd" d="M73.7372 19.4353L76.1431 15.9771C76.253 15.8184 76.4874 15.8177 76.5987 15.9752L79.0335 19.4089C79.1469 19.5684 79.0327 19.7893 78.837 19.7893H73.9222C73.7403 19.7893 73.6332 19.5846 73.7372 19.4353ZM79.0315 11.3975C78.3845 10.4942 77.5281 10.0354 76.4858 10.0354C75.4576 10.0354 74.6094 10.5028 73.9608 11.4274L62.375 28.1571C62.2644 28.3162 62.2723 28.5328 62.4062 28.6856C62.4932 28.7844 62.6259 28.8305 62.7574 28.8305H67.3119C67.4568 28.8305 67.593 28.7565 67.6718 28.6348L70.5814 24.1583C70.6452 24.0602 70.7539 24.0012 70.8709 24.0012C70.8709 24.0012 80.5716 23.9989 82.04 24.0008C82.1566 24.0008 82.2641 24.059 82.3282 24.1563L85.3037 28.6383C85.3824 28.7584 85.5167 28.8305 85.6604 28.8305H90.0313C90.1881 28.8305 90.3344 28.7431 90.4084 28.6017C90.4833 28.4619 90.4737 28.293 90.3858 28.1618L79.0315 11.3975Z" fill="#828282"/>
<path opacity="0.8" fill-rule="evenodd" clip-rule="evenodd" d="M113.209 10.132H109.815C109.442 10.132 109.14 10.434 109.14 10.8065V21.6319C109.14 21.8437 108.891 21.9572 108.732 21.8182L96.4277 11.1062C95.5944 10.3808 94.687 10.0115 93.7292 10.0115C92.8854 10.0115 91.4678 10.356 91.4678 12.6604V28.1552C91.4678 28.5266 91.7717 28.8302 92.1426 28.8302H95.536C95.9087 28.8302 96.2117 28.5278 96.2117 28.1549V17.2862C96.2117 17.0739 96.4608 16.9609 96.621 17.1003L109.054 27.9737C109.819 28.6534 110.653 28.998 111.53 28.998C112.409 28.998 113.885 28.638 113.885 26.2277V10.8073C113.885 10.4344 113.583 10.132 113.209 10.132Z" fill="#828282"/>
<path opacity="0.8" fill-rule="evenodd" clip-rule="evenodd" d="M119.711 10.1321H115.825C115.589 10.1321 115.397 10.3235 115.397 10.5597V28.4023C115.397 28.6382 115.589 28.8303 115.825 28.8303H119.711C119.948 28.8303 120.14 28.6382 120.14 28.4023V10.5597C120.14 10.3235 119.948 10.1321 119.711 10.1321Z" fill="#828282"/>
<path opacity="0.8" fill-rule="evenodd" clip-rule="evenodd" d="M139.968 17.9382C140.14 18.0851 140.394 18.0851 140.567 17.9386L149.191 10.771C149.31 10.669 149.38 10.5131 149.353 10.3583C149.317 10.1453 149.134 10 148.927 10H143.717C143.617 10 143.52 10.0354 143.44 10.1008L137.388 15.0345C137.168 15.2188 137.168 15.5554 137.385 15.7409L139.968 17.9382Z" fill="#828282"/>
<path opacity="0.8" fill-rule="evenodd" clip-rule="evenodd" d="M139.939 21.0718C140.112 20.9249 140.366 20.9245 140.538 21.0714L149.291 28.22C149.411 28.3216 149.48 28.4779 149.453 28.6328C149.417 28.8454 149.234 28.9911 149.027 28.9911H143.817C143.717 28.9911 143.62 28.9557 143.54 28.8903L137.525 23.8826C137.307 23.6983 137.306 23.3616 137.524 23.1762L139.939 21.0718Z" fill="#828282"/>
</g>
</g>
<defs>
<clipPath id="clip0">
<rect width="150" height="29" fill="white"/>
</clipPath>
</defs>
</svg>
