<svg width="110" height="21" viewBox="0 0 110 21" fill="none" xmlns="http://www.w3.org/2000/svg">
<g opacity="0.8">
<path d="M38.3345 0.399414V18.9094C38.3345 19.9786 37.7828 20.513 36.6792 20.5127H33.7676C33.2968 20.5127 32.929 20.4106 32.6642 20.2064C32.3408 19.9292 32.0797 19.5867 31.8979 19.2015L26.3499 8.4744C25.6552 7.05617 25.2261 6.01659 25.0626 5.35568H24.7256C24.8747 6.41785 24.9463 7.48944 24.94 8.56199V20.5133H20.496V2.00339C20.496 0.935067 21.0579 0.400637 22.1818 0.400094H25.0322C25.5017 0.400094 25.8695 0.502034 26.1356 0.70592C26.4587 0.983802 26.7198 1.32651 26.9019 1.71182L32.2662 12.1183C32.7767 13.0904 33.2875 14.1688 33.7987 15.3536H34.1052C33.9825 13.8379 33.9212 12.7107 33.9211 11.9721V0.399414H38.3345Z" fill="#7E7E7E"/>
<path d="M57.4445 8.90836V20.5317H54.0117L53.5826 18.5168C51.9474 20.1132 49.9142 20.9114 47.4831 20.9112C45.1126 20.9112 43.3962 20.0838 42.3339 18.429C41.2715 16.7742 40.7402 14.0971 40.7399 10.3977C40.7399 6.46522 41.4398 3.74915 42.8396 2.24952C44.2393 0.749896 46.6965 0.000216749 50.2111 0.000488355C52.7651 0.000488355 54.931 0.234159 56.7089 0.701502L56.3417 3.97287C54.0319 3.8759 52.0396 3.82719 50.3646 3.82674C49.4245 3.82674 48.6839 3.89976 48.1427 4.04579C47.5799 4.20549 47.0812 4.53745 46.7168 4.99505C46.3081 5.48177 46.0323 6.15835 45.8893 7.02477C45.7464 7.89119 45.6748 9.06421 45.6746 10.5438C45.6746 13.0551 45.9198 14.7781 46.4103 15.7128C46.9007 16.6475 47.8099 17.1148 49.138 17.1148C50.364 17.1148 51.6309 16.7741 52.9386 16.0926V8.90863L57.4445 8.90836Z" fill="#7E7E7E"/>
<path d="M76.7464 20.5129H71.8122L70.2184 14.358C70.0137 13.7164 69.7429 13.274 69.406 13.0309C69.0691 12.7879 68.5838 12.6663 67.9501 12.6663L64.6704 12.6372V20.5127H60.0731V0.386177C61.9733 0.211172 64.6603 0.123626 68.1339 0.123535C70.9739 0.123535 72.9867 0.551405 74.1721 1.40715C75.3576 2.26289 75.9502 3.81865 75.9498 6.07443C75.9498 7.55242 75.6381 8.70932 75.0148 9.54515C74.3915 10.381 73.3548 10.8867 71.9049 11.0622V11.2074C73.5184 11.5573 74.5197 12.5684 74.9086 14.2408L76.7464 20.5129ZM64.6705 9.22465H68.0423C69.268 9.22465 70.1058 9.02548 70.5556 8.62712C71.0053 8.22877 71.2301 7.47519 71.2298 6.36641C71.2298 5.25816 71.0101 4.50948 70.5708 4.12036C70.1314 3.73124 69.2886 3.5369 68.0424 3.53735L64.6707 3.56615L64.6705 9.22465Z" fill="#7E7E7E"/>
<path d="M92.8626 17.0468L93.077 20.3132C91.1559 20.5076 87.8865 20.6049 83.269 20.6049C81.8588 20.6049 80.7349 20.2403 79.8973 19.5112C79.0598 18.7822 78.6307 17.7953 78.61 16.5507V4.36077C78.6301 3.11718 79.0592 2.13034 79.8973 1.40027C80.7354 0.670189 81.8593 0.305647 83.269 0.306643C87.8863 0.306643 91.1557 0.403972 93.077 0.598623L92.8626 3.89402H84.7402C84.2289 3.89402 83.8611 4.01063 83.6368 4.24385C83.4125 4.47707 83.3001 4.85623 83.2997 5.38134V8.44329H91.7286V11.6511H83.2997V15.53C83.2997 16.0742 83.4121 16.463 83.6368 16.6963C83.8615 16.9296 84.2293 17.0463 84.7402 17.0464L92.8626 17.0468Z" fill="#7E7E7E"/>
<path d="M103.288 12.91L99.0279 11.4782C97.4544 10.9332 96.3306 10.1934 95.6566 9.25892C94.9827 8.32442 94.6454 7.09766 94.6449 5.57866C94.6449 3.35909 95.2119 1.87431 96.3458 1.12432C97.4798 0.374322 99.4771 -0.000452268 102.338 4.09585e-07C105.035 4.09585e-07 107.355 0.262917 109.296 0.788747L108.989 3.82666C107.212 3.76845 105.005 3.73934 102.369 3.73934C101.143 3.73934 100.326 3.84147 99.9169 4.04571C99.5081 4.24996 99.3037 4.76108 99.3035 5.57906C99.3035 6.24097 99.4568 6.71791 99.7633 7.00989C100.07 7.30186 100.652 7.5842 101.511 7.85689L105.526 9.17106C107.161 9.71653 108.315 10.4612 108.989 11.405C109.663 12.3489 110 13.5804 110 15.0997C110 17.3584 109.428 18.8914 108.284 19.6989C107.14 20.5064 105.096 20.9104 102.154 20.911C99.713 20.9058 97.279 20.6514 94.8899 20.1517L95.1654 16.9394C99.5178 17.0371 101.847 17.0857 102.154 17.0851C103.4 17.0851 104.233 16.9586 104.652 16.7057C105.071 16.4527 105.28 15.9271 105.28 15.1289C105.28 14.4474 105.137 13.9655 104.851 13.6833C104.565 13.401 104.044 13.1432 103.288 12.91Z" fill="#7E7E7E"/>
<path d="M11.2784 0.155271V5.95407C11.2784 7.14207 11.1154 7.95915 10.7895 8.40531C10.4658 8.85142 9.88657 9.07238 9.05124 9.07238C8.22013 9.07238 7.64459 8.85142 7.32084 8.40531C6.99708 7.9592 6.83521 7.14234 6.83521 5.95407V0.150928C7.5657 0.0475829 8.30276 -0.00234485 9.04051 0.00154382C9.78928 -0.00338139 10.5374 0.048005 11.2784 0.155271Z" fill="#7E7E7E"/>
<path d="M16.1213 2.25815C15.4248 1.47819 14.444 0.903284 13.1787 0.533447V10.6724H13.1772C13.1625 13.2238 12.8718 14.9642 12.3051 15.8939C11.723 16.8467 10.6349 17.3231 9.04096 17.3232C7.44699 17.3233 6.3588 16.8468 5.77639 15.8939C5.20936 14.966 4.91865 13.2255 4.90426 10.6724H4.90399V0.535076C3.64482 0.906271 2.66912 1.48063 1.97689 2.25815C0.659415 3.74574 0.00045291 6.48275 2.33066e-07 10.4692C-0.000452444 14.4557 0.658509 17.1926 1.97689 18.6799C3.29508 20.1675 5.65009 20.9112 9.04191 20.9111C12.4337 20.911 14.7935 20.1673 16.1213 18.6799C17.4496 17.1923 18.1137 14.4554 18.1137 10.4692C18.1137 6.48303 17.4496 3.74601 16.1213 2.25815Z" fill="#7E7E7E"/>
</g>
</svg>
