<svg width="150" height="30" viewBox="0 0 150 30" fill="none" xmlns="http://www.w3.org/2000/svg">
<g clip-path="url(#clip0)">
<g opacity="0.8">
<path opacity="0.8" d="M60.1642 10.3818V28.0853C60.1642 29.1079 59.6366 29.619 58.581 29.6187H55.7963C55.346 29.6187 54.9943 29.521 54.741 29.3257C54.4317 29.0606 54.182 28.733 54.0081 28.3646L48.7018 18.105C48.0374 16.7485 47.627 15.7542 47.4706 15.1221H47.1483C47.2909 16.138 47.3594 17.1629 47.3534 18.1887V29.6193H43.103V11.9159C43.103 10.8941 43.6404 10.383 44.7154 10.3825H47.4416C47.8906 10.3825 48.2424 10.48 48.4969 10.675C48.8059 10.9408 49.0556 11.2685 49.2298 11.6371L54.3603 21.5901C54.8486 22.5198 55.3371 23.5512 55.8261 24.6844H56.1192C56.0019 23.2347 55.9432 22.1567 55.9431 21.4502V10.3818H60.1642Z" fill="#8E8E8E"/>
<path opacity="0.8" d="M78.4411 18.5202V29.6371H75.1578L74.7474 27.71C73.1835 29.2368 71.2389 30.0002 68.9137 30C66.6465 30 65.0049 29.2087 63.9889 27.626C62.9728 26.0433 62.4646 23.4828 62.4644 19.9446C62.4644 16.1835 63.1338 13.5858 64.4726 12.1515C65.8113 10.7172 68.1614 10.0002 71.5229 10.0005C73.9656 10.0005 76.0371 10.224 77.7375 10.671L77.3863 13.7998C75.1772 13.707 73.2717 13.6604 71.6697 13.66C70.7705 13.66 70.0622 13.7299 69.5446 13.8695C69.0063 14.0223 68.5293 14.3398 68.1808 14.7774C67.7899 15.2429 67.5261 15.89 67.3894 16.7187C67.2527 17.5474 67.1842 18.6693 67.184 20.0844C67.184 22.4862 67.4185 24.1342 67.8877 25.0281C68.3567 25.9221 69.2263 26.369 70.4965 26.369C71.6691 26.369 72.8808 26.0432 74.1315 25.3914V18.5205L78.4411 18.5202Z" fill="#8E8E8E"/>
<path opacity="0.8" d="M96.9023 29.6191H92.1831L90.6588 23.7324C90.463 23.1187 90.204 22.6956 89.8818 22.4631C89.5596 22.2307 89.0954 22.1144 88.4893 22.1144L85.3525 22.0865V29.6189H80.9556V10.3694C82.773 10.202 85.3429 10.1183 88.6651 10.1182C91.3814 10.1182 93.3065 10.5274 94.4402 11.3458C95.574 12.1643 96.1408 13.6523 96.1404 15.8097C96.1404 17.2233 95.8423 18.3298 95.2462 19.1292C94.65 19.9287 93.6585 20.4123 92.2718 20.5802V20.7191C93.815 21.0537 94.7727 22.0207 95.1446 23.6203L96.9023 29.6191ZM85.3526 18.8227H88.5775C89.7498 18.8227 90.5511 18.6322 90.9813 18.2512C91.4114 17.8702 91.6264 17.1495 91.6261 16.089C91.6261 15.029 91.416 14.313 90.9958 13.9408C90.5756 13.5687 89.7695 13.3828 88.5776 13.3832L85.3528 13.4108L85.3526 18.8227Z" fill="#8E8E8E"/>
<path opacity="0.8" d="M112.316 26.3039L112.521 29.428C110.684 29.6139 107.557 29.707 103.141 29.707C101.792 29.707 100.717 29.3583 99.9158 28.6609C99.1148 27.9637 98.7044 27.0198 98.6846 25.8294V14.1707C98.7038 12.9813 99.1142 12.0374 99.9158 11.3392C100.717 10.6409 101.792 10.2923 103.141 10.2932C107.557 10.2932 110.684 10.3863 112.521 10.5725L112.316 13.7243H104.548C104.059 13.7243 103.707 13.8358 103.492 14.0589C103.278 14.2819 103.17 14.6446 103.17 15.1468V18.0753H111.232V21.1433H103.17V24.8532C103.17 25.3737 103.277 25.7456 103.492 25.9687C103.707 26.1918 104.059 26.3034 104.548 26.3035L112.316 26.3039Z" fill="#8E8E8E"/>
<path opacity="0.8" d="M122.287 22.3475L118.213 20.978C116.708 20.4568 115.633 19.7492 114.988 18.8555C114.344 17.9617 114.021 16.7884 114.021 15.3356C114.021 13.2127 114.563 11.7926 115.647 11.0753C116.732 10.358 118.642 9.99957 121.378 10C123.958 10 126.177 10.2515 128.033 10.7544L127.74 13.6599C126.04 13.6042 123.929 13.5764 121.408 13.5764C120.235 13.5764 119.454 13.6741 119.063 13.8694C118.672 14.0648 118.476 14.5536 118.476 15.336C118.476 15.969 118.623 16.4252 118.916 16.7044C119.209 16.9837 119.766 17.2537 120.587 17.5145L124.427 18.7714C125.991 19.2931 127.095 20.0054 127.74 20.908C128.384 21.8108 128.707 22.9886 128.707 24.4417C128.707 26.602 128.159 28.0682 127.065 28.8405C125.971 29.6128 124.016 29.9992 121.202 29.9998C118.868 29.9948 116.54 29.7515 114.255 29.2736L114.518 26.2013C118.681 26.2947 120.909 26.3412 121.202 26.3406C122.394 26.3406 123.191 26.2196 123.592 25.9778C123.992 25.7358 124.192 25.2331 124.192 24.4697C124.192 23.8179 124.055 23.357 123.782 23.0871C123.508 22.8171 123.01 22.5705 122.287 22.3475Z" fill="#8E8E8E"/>
<path opacity="0.8" d="M34.2867 10.1486V15.6947C34.2867 16.8309 34.1308 17.6124 33.8191 18.0391C33.5095 18.4658 32.9555 18.6771 32.1566 18.6771C31.3617 18.6771 30.8112 18.4658 30.5016 18.0391C30.1919 17.6124 30.0371 16.8312 30.0371 15.6947V10.1444C30.7358 10.0456 31.4407 9.99781 32.1463 10.0015C32.8625 9.99682 33.578 10.046 34.2867 10.1486Z" fill="#8E8E8E"/>
<path opacity="0.8" d="M38.9188 12.1596C38.2527 11.4136 37.3146 10.8637 36.1044 10.51V20.2072H36.103C36.0889 22.6474 35.8109 24.3119 35.2689 25.2011C34.7122 26.1124 33.6715 26.5681 32.147 26.5682C30.6225 26.5682 29.5817 26.1125 29.0247 25.2011C28.4824 24.3137 28.2043 22.649 28.1906 20.2072H28.1903V10.5116C26.986 10.8666 26.0528 11.4159 25.3907 12.1596C24.1307 13.5823 23.5004 16.2001 23.5 20.0128C23.4996 23.8256 24.1298 26.4432 25.3907 27.8657C26.6515 29.2885 28.9039 29.9998 32.1479 29.9997C35.3919 29.9996 37.6489 29.2883 38.9188 27.8657C40.1892 26.443 40.8244 23.8253 40.8244 20.0128C40.8244 16.2003 40.1892 13.5826 38.9188 12.1596Z" fill="#8E8E8E"/>
</g>
</g>
<defs>
<clipPath id="clip0">
<rect width="150" height="30" fill="white"/>
</clipPath>
</defs>
</svg>
