<svg width="21" height="40" viewBox="0 0 21 40" fill="none" xmlns="http://www.w3.org/2000/svg">
<path fill-rule="evenodd" clip-rule="evenodd" d="M0.366364 39.8467H10.8107V26.9364H0.366364V39.8467Z" fill="#808080"/>
<path fill-rule="evenodd" clip-rule="evenodd" d="M0.519592 39.6934H10.6572V27.0898H0.519592V39.6934ZM0.213074 40H10.9642V26.783H0.213074V40Z" fill="white"/>
<path fill-rule="evenodd" clip-rule="evenodd" d="M8.68616 35.5974L1.10919 29.4656C0.00337009 28.5706 -0.167693 26.9487 0.727294 25.8428L6.98341 18.1122L13.3597 18.3279L18.5651 27.4849L12.3091 35.2155C11.4141 36.3213 9.79199 36.4924 8.68616 35.5974Z" fill="#808080"/>
<path fill-rule="evenodd" clip-rule="evenodd" d="M7.05451 18.2681L0.846449 25.9392C0.439395 26.4423 0.252586 27.0737 0.32048 27.7172C0.388271 28.3608 0.702687 28.9393 1.20565 29.3465L8.78252 35.4781C9.28558 35.8854 9.91677 36.0723 10.5605 36.0042C11.2041 35.9364 11.7826 35.622 12.1898 35.119L18.38 27.4697L13.2686 18.4784L7.05451 18.2681ZM10.3039 36.3232C9.70073 36.3232 9.09388 36.1247 8.58969 35.7166L1.01272 29.5849C0.44595 29.1262 0.0917591 28.4744 0.015379 27.7494C-0.0611034 27.0244 0.149428 26.313 0.608015 25.7464L6.91208 17.9563L13.4506 18.1776L13.4929 18.2522L18.7501 27.5L12.4282 35.3119C11.8896 35.9775 11.0999 36.3231 10.3039 36.3232Z" fill="white"/>
<path fill-rule="evenodd" clip-rule="evenodd" d="M16.5418 39.6024C16.5144 37.0955 16.4771 33.6635 13.3549 29.4179C9.78616 24.5646 10.8341 20.4953 10.8804 20.3243L12.8541 20.8599L11.8672 20.5921L12.856 20.8525C12.8217 20.9869 12.0503 24.1917 15.0024 28.2063C18.5149 32.9826 18.558 36.9524 18.5865 39.5792L16.5418 39.6024Z" fill="#FF6112"/>
<path fill-rule="evenodd" clip-rule="evenodd" d="M20.263 8.34095C20.2934 12.9779 16.5591 16.7615 11.9223 16.7917C7.28537 16.8221 3.50174 13.0879 3.47138 8.45097C3.44101 3.81418 7.17535 0.0305519 11.8122 0.000183916C16.449 -0.0301841 20.2327 3.70406 20.263 8.34095Z" fill="#FF6112"/>
<path fill-rule="evenodd" clip-rule="evenodd" d="M18.0618 8.3554C18.0394 4.93424 15.2478 2.17904 11.8267 2.20143C8.40555 2.22382 5.65034 5.01543 5.67284 8.43658C5.69523 11.8576 8.48673 14.6128 11.9078 14.5905C15.3289 14.5681 18.0842 11.7765 18.0618 8.3554Z" fill="white"/>
<path fill-rule="evenodd" clip-rule="evenodd" d="M14.1637 8.38092C14.1554 7.11272 13.1205 6.09126 11.8522 6.09954C10.5839 6.10792 9.56257 7.14279 9.57085 8.41108C9.57913 9.67928 10.614 10.7006 11.8823 10.6924C13.1506 10.6841 14.172 9.64922 14.1637 8.38092Z" fill="#808080"/>
<path fill-rule="evenodd" clip-rule="evenodd" d="M11.8675 6.20166C11.8626 6.20166 11.8577 6.20176 11.8529 6.20176C10.6431 6.20964 9.66527 7.20043 9.67314 8.41034C9.68102 9.61535 10.6639 10.5902 11.8671 10.5902C11.872 10.5902 11.8769 10.5901 11.8817 10.5901C13.0915 10.5822 14.0693 9.59142 14.0615 8.38151C14.0536 7.1765 13.0708 6.20166 11.8675 6.20166ZM11.8671 10.7946C10.5516 10.7946 9.47721 9.7291 9.46862 8.41172C9.45993 7.08913 10.5289 6.00601 11.8515 5.99731H11.8675C13.1829 5.99731 14.2574 7.06285 14.2659 8.38023C14.2746 9.70282 13.2056 10.7859 11.883 10.7946H11.8671Z" fill="white"/>
<path fill-rule="evenodd" clip-rule="evenodd" d="M12.5794 8.3913C12.577 7.99794 12.2559 7.68117 11.8625 7.68373C11.4691 7.68619 11.1523 8.00725 11.1548 8.4007C11.1575 8.79405 11.4784 9.11082 11.8719 9.10837C12.2652 9.10571 12.582 8.78475 12.5794 8.3913Z" fill="white"/>
<path fill-rule="evenodd" clip-rule="evenodd" d="M13.3097 20.5828L10.5846 20.6006L10.5667 17.8755L13.2918 17.8578L13.3097 20.5828Z" fill="#FF6112"/>
<path fill-rule="evenodd" clip-rule="evenodd" d="M13.2888 17.4074L10.5638 17.4253L10.5609 16.9976C10.5584 16.6045 10.8749 16.284 11.2677 16.2813L12.5699 16.2728C12.9628 16.2703 13.2834 16.5867 13.286 16.9797L13.2888 17.4074Z" fill="#FF6112"/>
<path fill-rule="evenodd" clip-rule="evenodd" d="M12.5748 16.375H12.5707L11.2687 16.3835C10.9327 16.3856 10.6612 16.6609 10.6633 16.9968L10.6654 17.3222L13.186 17.3058L13.1839 16.9803C13.1828 16.8175 13.1184 16.6649 13.0027 16.5507C12.8879 16.4373 12.7359 16.375 12.5748 16.375ZM10.4623 17.528L10.4588 16.9981C10.4559 16.5493 10.8185 16.1819 11.2672 16.1789L12.5692 16.1704H12.5749C12.7901 16.1704 12.9929 16.2535 13.1462 16.405C13.3009 16.5576 13.3869 16.7614 13.3884 16.9788L13.3918 17.5087L10.4623 17.528Z" fill="white"/>
<path fill-rule="evenodd" clip-rule="evenodd" d="M11.1455 22.0608L9.1711 22.8399C8.90505 22.945 8.60423 22.8144 8.49912 22.5483L7.87581 20.969C7.7708 20.7029 7.90137 20.402 8.16752 20.2971L10.1421 19.5179C10.4081 19.4129 10.7089 19.5434 10.8139 19.8095L11.4372 21.3888C11.5423 21.6549 11.4117 21.9558 11.1455 22.0608Z" fill="#808080"/>
<path fill-rule="evenodd" clip-rule="evenodd" d="M10.3323 19.635C10.2871 19.635 10.2417 19.6435 10.1984 19.6607L8.22393 20.4399C8.13323 20.4757 8.06207 20.5445 8.02331 20.6339C7.98446 20.7231 7.98282 20.8222 8.01861 20.9128L8.64192 22.4921C8.67761 22.5826 8.74652 22.6539 8.83589 22.6927C8.92495 22.7315 9.02423 22.7332 9.11492 22.6974L11.0893 21.9182C11.1798 21.8824 11.2511 21.8136 11.2899 21.7243C11.3287 21.635 11.3304 21.5358 11.2946 21.4452L10.6713 19.866C10.6356 19.7753 10.5668 19.7041 10.4774 19.6654C10.4309 19.6451 10.3816 19.635 10.3323 19.635ZM8.9807 23.0298C8.89001 23.0298 8.79931 23.0112 8.71363 22.9738C8.54911 22.9025 8.42222 22.7714 8.35637 22.6045L7.73306 21.0253C7.66731 20.8584 7.67028 20.676 7.74175 20.5115C7.81312 20.347 7.9443 20.2202 8.11107 20.1543L10.0856 19.3751C10.2525 19.3093 10.4349 19.3123 10.5993 19.3838C10.7639 19.4551 10.8907 19.5863 10.9565 19.7531L11.5798 21.3324C11.7157 21.6767 11.5461 22.0674 11.2018 22.2034L9.22733 22.9825C9.14747 23.014 9.06414 23.0298 8.9807 23.0298Z" fill="white"/>
<path fill-rule="evenodd" clip-rule="evenodd" d="M10.5621 17.7674L8.11366 19.2365C7.61683 19.5347 6.9246 19.2791 6.58299 18.6714L6.27706 18.1272C5.94853 17.5429 6.06734 16.8494 6.54495 16.5629L8.99341 15.0937C9.49024 14.7956 10.1825 15.0513 10.5242 15.6589L10.8301 16.2031C11.1585 16.7874 11.0398 17.4808 10.5621 17.7674Z" fill="#808080"/>
<path fill-rule="evenodd" clip-rule="evenodd" d="M9.45276 15.1228C9.31585 15.1228 9.18558 15.1575 9.07239 15.2253L6.62394 16.6945C6.22138 16.936 6.12578 17.545 6.41085 18.052L6.71678 18.5963C6.8814 18.8892 7.14193 19.1011 7.43181 19.1779C7.64745 19.2352 7.86146 19.2092 8.03487 19.1051L10.4833 17.636C10.886 17.3945 10.9816 16.7855 10.6965 16.2784L10.3906 15.7342C10.226 15.4413 9.96534 15.2293 9.67546 15.1526C9.60041 15.1327 9.52566 15.1228 9.45276 15.1228ZM7.65486 19.5141C7.55557 19.5141 7.45424 19.5009 7.35322 19.4741C6.9838 19.3763 6.65435 19.111 6.44934 18.7463L6.14341 18.2022C5.77153 17.5407 5.91335 16.7629 6.46611 16.4312L8.91457 14.962C9.15955 14.8149 9.45751 14.7772 9.75393 14.8558C10.1235 14.9537 10.4529 15.2189 10.6579 15.5836L10.9638 16.1277C11.3356 16.7892 11.1938 17.5671 10.641 17.8987L8.19258 19.3679C8.03124 19.4647 7.84668 19.5141 7.65486 19.5141Z" fill="white"/>
<path fill-rule="evenodd" clip-rule="evenodd" d="M6.96425 19.995L5.72898 23.1452C5.48859 23.7581 4.75495 24.0362 4.10822 23.7596L3.53246 23.5135C2.91293 23.2485 2.60353 22.5711 2.83369 21.984L4.06896 18.8339C4.30925 18.221 5.04299 17.9428 5.68961 18.2194L6.26537 18.4655C6.885 18.7305 7.19441 19.4079 6.96425 19.995Z" fill="#808080"/>
<path fill-rule="evenodd" clip-rule="evenodd" d="M5.17113 18.2661C5.02532 18.2661 4.88115 18.2939 4.74762 18.3499C4.49751 18.4546 4.30713 18.6464 4.21162 18.8899L2.97635 22.04C2.77513 22.5534 3.04588 23.1386 3.59271 23.3724L4.16848 23.6187C4.45355 23.7405 4.77481 23.7444 5.05007 23.6291C5.30027 23.5245 5.49066 23.3327 5.58616 23.0891L6.82143 19.9389C7.02256 19.4256 6.7519 18.8403 6.20497 18.6065L5.62921 18.3604C5.48248 18.2976 5.32594 18.2661 5.17113 18.2661ZM4.62672 24.0194C4.43071 24.0194 4.23306 23.9798 4.04799 23.9005L3.47222 23.6544C2.77192 23.3551 2.42877 22.5967 2.69084 21.9279L3.92611 18.7778C4.05218 18.4564 4.30187 18.2039 4.62928 18.0669C4.9804 17.9198 5.38899 17.924 5.74993 18.0783L6.32569 18.3245C7.026 18.6238 7.36914 19.3822 7.10708 20.0509L5.87181 23.2011C5.74574 23.5225 5.49604 23.7751 5.16864 23.9121C4.99758 23.9836 4.81281 24.0194 4.62672 24.0194Z" fill="white"/>
<path fill-rule="evenodd" clip-rule="evenodd" d="M17.0012 23.3996L12.5611 25.1519C12.2622 25.2698 11.9244 25.1231 11.8063 24.8243L11.2299 23.3636C11.1119 23.0648 11.2586 22.7269 11.5575 22.609L15.9977 20.8567C16.2965 20.7388 16.6344 20.8854 16.7523 21.1843L17.3288 22.6449C17.4467 22.9438 17.3 23.2817 17.0012 23.3996Z" fill="#808080"/>
<path fill-rule="evenodd" clip-rule="evenodd" d="M16.2113 20.969C16.1581 20.969 16.105 20.979 16.0541 20.9992L11.6139 22.7515C11.3941 22.8381 11.2859 23.0875 11.3727 23.3071L11.9491 24.7678C12.0359 24.9875 12.2854 25.0957 12.5049 25.0091L16.9449 23.2567C17.1647 23.17 17.273 22.9207 17.1862 22.701L16.6097 21.2404C16.5678 21.1339 16.4868 21.0503 16.3819 21.0047C16.3272 20.9809 16.2692 20.969 16.2113 20.969ZM12.3485 25.3461C12.0553 25.3461 11.7777 25.1695 11.6636 24.8808L11.0872 23.4201C11.0151 23.2375 11.0185 23.0377 11.0966 22.8576C11.1748 22.6774 11.3185 22.5385 11.5012 22.4664L15.9413 20.7141C16.318 20.5655 16.7462 20.7509 16.8949 21.1281L17.4714 22.5887C17.6202 22.9657 17.4345 23.3936 17.0574 23.5424L12.6174 25.2948C12.5291 25.3295 12.4381 25.3461 12.3485 25.3461Z" fill="white"/>
<path fill-rule="evenodd" clip-rule="evenodd" d="M10.6438 25.9085L9.95396 26.1808C9.65315 26.2995 9.31286 26.1519 9.19415 25.851L8.62063 24.3976C8.50192 24.0967 8.64947 23.7566 8.95039 23.6378L9.64037 23.3656C9.94118 23.2469 10.2813 23.3945 10.4 23.6953L10.9737 25.1488C11.0924 25.4497 10.9447 25.7898 10.6438 25.9085Z" fill="#808080"/>
<path fill-rule="evenodd" clip-rule="evenodd" d="M9.85544 23.4778C9.80186 23.4778 9.74808 23.488 9.69665 23.5083L9.00667 23.7804C8.785 23.8679 8.6759 24.1195 8.76332 24.3412L9.33694 25.7946C9.37927 25.9021 9.46096 25.9865 9.56689 26.0325C9.67272 26.0785 9.7901 26.0804 9.89767 26.038L10.5875 25.7657C10.8093 25.6783 10.9184 25.4268 10.831 25.2051L10.2574 23.7516C10.2151 23.6441 10.1334 23.5598 10.0274 23.5138C9.97231 23.4897 9.91383 23.4778 9.85544 23.4778ZM9.73889 26.3755C9.63899 26.3755 9.5392 26.355 9.44482 26.314C9.26374 26.2354 9.12417 26.091 9.05167 25.9074L8.47805 24.4539C8.32846 24.0749 8.51527 23.6448 8.89421 23.4951L9.58419 23.223C9.96343 23.0735 10.3934 23.2601 10.5429 23.639L11.1165 25.0925C11.1889 25.2761 11.1855 25.4769 11.1069 25.658C11.0284 25.8391 10.884 25.9787 10.7003 26.0512L10.0105 26.3235C9.92253 26.3581 9.83071 26.3755 9.73889 26.3755Z" fill="white"/>
<path fill-rule="evenodd" clip-rule="evenodd" d="M18.066 22.9794C17.7906 23.0881 17.4793 22.953 17.3706 22.6776L16.7606 21.1318C16.6519 20.8565 16.787 20.5451 17.0624 20.4365C17.3378 20.3277 17.6491 20.463 17.7577 20.7383L18.3677 22.2841C18.4765 22.5594 18.3412 22.8708 18.066 22.9794Z" fill="#808080"/>
<path fill-rule="evenodd" clip-rule="evenodd" d="M17.2592 20.5522C17.2116 20.5522 17.1641 20.5612 17.1186 20.5792C17.0235 20.6167 16.9487 20.689 16.908 20.7827C16.8674 20.8765 16.8656 20.9804 16.9032 21.0755L17.5132 22.6213C17.5507 22.7163 17.623 22.7911 17.7167 22.8319C17.8104 22.8725 17.9145 22.8741 18.0096 22.8367C18.1047 22.7993 18.1794 22.727 18.22 22.6332C18.2608 22.5395 18.2625 22.4355 18.2249 22.3404L17.6149 20.7946C17.5775 20.6995 17.5052 20.6247 17.4114 20.5841C17.3625 20.5629 17.3109 20.5522 17.2592 20.5522ZM17.8687 23.1706C17.7756 23.1706 17.6825 23.1515 17.5944 23.1133C17.4255 23.04 17.2952 22.9053 17.2276 22.734L16.6177 21.1882C16.55 21.0169 16.5532 20.8296 16.6265 20.6607C16.6998 20.4917 16.8346 20.3615 17.0058 20.2939C17.1768 20.2263 17.3642 20.2293 17.5335 20.3028C17.7023 20.376 17.8325 20.5108 17.9002 20.6821L18.5102 22.2279C18.5777 22.3991 18.5747 22.5864 18.5013 22.7554C18.428 22.9242 18.2933 23.0545 18.122 23.1221C18.0401 23.1544 17.9543 23.1706 17.8687 23.1706Z" fill="white"/>
<path fill-rule="evenodd" clip-rule="evenodd" d="M18.0101 26.8L13.9843 28.3887C13.6679 28.5137 13.3103 28.3583 13.1854 28.042L12.634 26.6445C12.5091 26.3283 12.6643 25.9707 12.9807 25.8459L17.0066 24.257C17.3228 24.1322 17.6805 24.2874 17.8053 24.6038L18.3569 26.0012C18.4816 26.3175 18.3264 26.6751 18.0101 26.8Z" fill="#808080"/>
<path fill-rule="evenodd" clip-rule="evenodd" d="M17.2327 24.3669C17.1752 24.3669 17.1179 24.3777 17.0629 24.3995L13.037 25.9883C12.9221 26.0337 12.8318 26.1209 12.7826 26.2343C12.7334 26.3475 12.7314 26.4733 12.7767 26.5881L13.3281 27.9855C13.3735 28.1005 13.4608 28.1908 13.5741 28.2399C13.6873 28.289 13.813 28.2913 13.928 28.2459L17.9538 26.657C18.191 26.5635 18.3077 26.2944 18.2142 26.0572L17.6626 24.6598C17.6173 24.5449 17.5299 24.4546 17.4167 24.4054C17.3576 24.3798 17.2952 24.3669 17.2327 24.3669ZM13.758 28.5856C13.654 28.5856 13.5501 28.5642 13.4519 28.5216C13.2635 28.4398 13.1181 28.2894 13.0427 28.0983L12.4912 26.7009C12.3355 26.3064 12.5299 25.8589 12.9243 25.7032L16.9501 24.1143C17.1412 24.0391 17.3503 24.0425 17.5388 24.1242C17.7272 24.206 17.8726 24.3563 17.948 24.5474L18.4995 25.9449C18.6551 26.3394 18.4608 26.787 18.0664 26.9426L14.0405 28.5315C13.9491 28.5676 13.8534 28.5856 13.758 28.5856Z" fill="white"/>
<path fill-rule="evenodd" clip-rule="evenodd" d="M12.0409 29.1557L11.3401 29.4323C11.0422 29.5498 10.7054 29.4038 10.588 29.1059L10.01 27.6414C9.89245 27.3437 10.0387 27.007 10.3365 26.8894L11.0374 26.6128C11.3353 26.4952 11.672 26.6414 11.7895 26.9393L12.3674 28.4037C12.485 28.7015 12.3388 29.0382 12.0409 29.1557Z" fill="#808080"/>
<path fill-rule="evenodd" clip-rule="evenodd" d="M11.2501 26.7256C11.1971 26.7256 11.1443 26.7356 11.0936 26.7556L10.3927 27.0322C10.174 27.1186 10.0663 27.3668 10.1526 27.5853L10.7305 29.0497C10.7722 29.1557 10.8528 29.239 10.9574 29.2843C11.0618 29.3298 11.1775 29.3318 11.2835 29.2898L11.9845 29.0132C12.0904 28.9715 12.1737 28.8909 12.2191 28.7864C12.2644 28.6819 12.2664 28.5661 12.2245 28.4601L11.6466 26.9958C11.6049 26.8898 11.5243 26.8065 11.4198 26.7612C11.3653 26.7374 11.3077 26.7256 11.2501 26.7256ZM11.127 29.6264C11.0279 29.6264 10.929 29.6061 10.8353 29.5655C10.6557 29.4875 10.5171 29.3442 10.4452 29.1621L9.86733 27.6977C9.71887 27.3217 9.90414 26.895 10.2802 26.7465L10.981 26.47C11.3572 26.3214 11.7838 26.5069 11.9322 26.8828L12.5101 28.3472C12.5819 28.5295 12.5786 28.7286 12.5007 28.9083C12.4226 29.0878 12.2793 29.2264 12.0972 29.2983L11.3964 29.5749C11.3091 29.6092 11.218 29.6264 11.127 29.6264Z" fill="white"/>
<path fill-rule="evenodd" clip-rule="evenodd" d="M19.067 26.3829C18.7916 26.4915 18.4803 26.3564 18.3716 26.0811L17.7616 24.5353C17.6529 24.2599 17.7879 23.9486 18.0634 23.8399C18.3387 23.7312 18.6501 23.8664 18.7587 24.1418L19.3687 25.6875C19.4775 25.9629 19.3422 26.2743 19.067 26.3829Z" fill="#808080"/>
<path fill-rule="evenodd" clip-rule="evenodd" d="M18.2596 23.9558C18.213 23.9558 18.1656 23.9644 18.1196 23.9826C18.0245 24.0201 17.9498 24.0924 17.909 24.1862C17.8684 24.2798 17.8667 24.3839 17.9042 24.4789L18.5142 26.0247C18.5917 26.2209 18.8142 26.3178 19.0106 26.2402C19.1056 26.2027 19.1805 26.1304 19.2211 26.0367C19.2619 25.9429 19.2635 25.8388 19.226 25.7437L18.616 24.198C18.5567 24.0477 18.4122 23.9558 18.2596 23.9558ZM18.871 26.5737C18.596 26.5737 18.3357 26.408 18.2288 26.1374L17.6188 24.5916C17.5512 24.4203 17.5544 24.2329 17.6276 24.0641C17.7009 23.895 17.8357 23.7649 18.0069 23.6972C18.3608 23.5573 18.7619 23.732 18.9013 24.0854L19.5113 25.6311C19.5789 25.8024 19.5759 25.9898 19.5024 26.1587C19.4291 26.3276 19.2945 26.4579 19.1232 26.5255C19.0405 26.5581 18.955 26.5737 18.871 26.5737Z" fill="white"/>
<path fill-rule="evenodd" clip-rule="evenodd" d="M18.7493 30.1821L15.6229 31.4159C15.3941 31.5062 15.1353 31.394 15.045 31.1651L14.3685 29.4508C14.2782 29.2219 14.3904 28.9632 14.6192 28.873L17.7459 27.6391C17.9746 27.5488 18.2332 27.6611 18.3236 27.8898L19.0001 29.6043C19.0904 29.8331 18.9781 30.0917 18.7493 30.1821Z" fill="#808080"/>
<path fill-rule="evenodd" clip-rule="evenodd" d="M17.909 27.7615C17.8734 27.7615 17.8373 27.7679 17.8022 27.7818L14.6757 29.0158C14.5259 29.0748 14.4522 29.2447 14.5114 29.3945L15.1879 31.1088C15.2165 31.1814 15.2717 31.2385 15.3432 31.2695C15.4149 31.3008 15.4941 31.3019 15.5667 31.2733L18.6931 30.0394C18.8429 29.9802 18.9167 29.8103 18.8576 29.6607L18.181 27.9462C18.1358 27.8316 18.0255 27.7615 17.909 27.7615ZM15.4593 31.6007C15.3784 31.6007 15.2975 31.584 15.221 31.5508C15.0743 31.4871 14.9612 31.3701 14.9025 31.2214L14.2258 29.507C14.1048 29.1998 14.2559 28.8514 14.563 28.7303L17.6895 27.4963C17.9971 27.3753 18.3451 27.5266 18.4663 27.8334L19.1429 29.548C19.2641 29.855 19.1127 30.2034 18.8058 30.3246L15.6792 31.5586C15.6081 31.5866 15.5337 31.6007 15.4593 31.6007Z" fill="white"/>
<path fill-rule="evenodd" clip-rule="evenodd" d="M13.7912 32.1387L13.184 32.3784C12.8603 32.5061 12.4942 32.3472 12.3665 32.0235L11.8255 30.6529C11.6978 30.3292 11.8567 29.9633 12.1804 29.8354L12.7876 29.5958C13.1113 29.4681 13.4773 29.627 13.6051 29.9507L14.146 31.3213C14.2737 31.6449 14.1148 32.011 13.7912 32.1387Z" fill="#808080"/>
<path fill-rule="evenodd" clip-rule="evenodd" d="M13.0182 29.7051C12.9602 29.7051 12.9011 29.7157 12.8439 29.7383L12.2368 29.978C11.9923 30.0745 11.8718 30.3519 11.9682 30.5965L12.5093 31.967C12.556 32.0855 12.6461 32.1787 12.7629 32.2293C12.8798 32.2801 13.0092 32.2824 13.1277 32.2355L13.7349 31.9959C13.9794 31.8994 14.0998 31.622 14.0033 31.3775L13.4624 30.0068C13.3885 29.8195 13.2083 29.7051 13.0182 29.7051ZM12.9525 32.5764C12.8466 32.5764 12.7408 32.5546 12.6407 32.511C12.4488 32.4278 12.3006 32.2746 12.2239 32.08L11.6829 30.7094C11.5245 30.3077 11.7223 29.8516 12.1242 29.6929L12.7312 29.4533C13.1332 29.295 13.5891 29.4927 13.7478 29.8946L14.2887 31.2652C14.4473 31.6672 14.2493 32.1231 13.8475 32.2816L13.2403 32.5212C13.1472 32.558 13.0498 32.5764 12.9525 32.5764Z" fill="white"/>
<path fill-rule="evenodd" clip-rule="evenodd" d="M19.6409 29.7359C19.3656 29.8445 19.0543 29.7094 18.9455 29.4341L18.3355 27.8884C18.2269 27.6129 18.362 27.3017 18.6375 27.193C18.9127 27.0843 19.2241 27.2194 19.3327 27.4948L19.9428 29.0405C20.0515 29.316 19.9163 29.6273 19.6409 29.7359Z" fill="#808080"/>
<path fill-rule="evenodd" clip-rule="evenodd" d="M18.834 27.3086C18.7865 27.3086 18.739 27.3176 18.6936 27.3356C18.4973 27.413 18.4007 27.6357 18.4781 27.8319L19.088 29.3776C19.1655 29.5737 19.3882 29.671 19.5845 29.5931C19.6795 29.5557 19.7543 29.4834 19.795 29.3897C19.8357 29.2959 19.8374 29.1918 19.7999 29.0967L19.1898 27.551C19.1524 27.4559 19.0801 27.3812 18.9863 27.3405C18.9374 27.3192 18.8858 27.3086 18.834 27.3086ZM19.4451 29.9266C19.1702 29.9266 18.9098 29.761 18.8028 29.4903L18.1929 27.9446C18.0533 27.591 18.2274 27.1898 18.581 27.0502C18.7523 26.9826 18.9397 26.9858 19.1086 27.0591C19.2775 27.1324 19.4077 27.2672 19.4754 27.4384L20.0854 28.9841C20.225 29.3378 20.0507 29.739 19.6972 29.8785C19.6145 29.9111 19.5291 29.9266 19.4451 29.9266Z" fill="white"/>
<path fill-rule="evenodd" clip-rule="evenodd" d="M16.9123 19.7849L12.679 21.4555C12.3742 21.5759 12.0297 21.4263 11.9093 21.1214L11.3414 19.6822C11.2211 19.3775 11.3707 19.0329 11.6755 18.9126L15.9087 17.2419C16.2135 17.1216 16.5581 17.2712 16.6784 17.576L17.2464 19.0152C17.3666 19.3199 17.217 19.6645 16.9123 19.7849Z" fill="#808080"/>
<path fill-rule="evenodd" clip-rule="evenodd" d="M16.1259 17.354C16.0723 17.354 16.0177 17.3639 15.9649 17.3848L11.7317 19.0554C11.6224 19.0986 11.5364 19.1816 11.4896 19.2895C11.4429 19.3971 11.4409 19.5168 11.4841 19.6261L12.052 21.0652C12.0951 21.1745 12.1782 21.2605 12.286 21.3074C12.3938 21.354 12.5133 21.3561 12.6226 21.313L16.8559 19.6423C17.0815 19.5533 17.1926 19.2972 17.1037 19.0717L16.5357 17.6325C16.4675 17.4596 16.3013 17.354 16.1259 17.354ZM12.461 21.6506C12.3601 21.6506 12.2594 21.6298 12.164 21.5885C11.981 21.5091 11.8399 21.3632 11.7666 21.1776L11.1987 19.7384C11.1255 19.553 11.1289 19.35 11.2082 19.1671C11.2878 18.9842 11.4336 18.843 11.6192 18.7698L15.8523 17.0992C16.2353 16.9483 16.6699 17.1366 16.8211 17.5196L17.3891 18.9588C17.5401 19.3417 17.3515 19.7763 16.9686 19.9275L12.7353 21.5982C12.6466 21.6332 12.5536 21.6506 12.461 21.6506Z" fill="white"/>
</svg>
