<svg width="92" height="34" viewBox="0 0 92 34" fill="none" xmlns="http://www.w3.org/2000/svg">
<g opacity="0.8">
<path d="M60.9189 7.09945V22.7554C60.9189 23.0035 60.7328 23.1895 60.4848 23.1895H57.2916C57.0436 23.1895 56.8576 23.0035 56.8576 22.7554V7.09945C56.8576 6.85143 57.0436 6.66542 57.2916 6.66542H60.4848C60.7328 6.69642 60.9189 6.88243 60.9189 7.09945ZM85.8444 6.69642H82.2792C82.0932 6.69642 81.9382 6.82043 81.8762 7.00644L79.055 16.276L75.9548 7.00644C75.8928 6.82043 75.7378 6.72743 75.5518 6.72743H73.0406C72.8546 6.72743 72.6996 6.85143 72.6376 7.00644L69.5374 16.276L66.7162 7.00644C66.6542 6.82043 66.4992 6.69642 66.3132 6.69642H62.748C62.624 6.69642 62.469 6.75843 62.407 6.88244C62.3139 7.00645 62.3139 7.13045 62.345 7.25446L67.6153 22.9414C67.6773 23.1275 67.8323 23.2205 68.0183 23.2205H70.8705C71.0565 23.2205 71.2115 23.0965 71.2735 22.9414L74.3427 13.7959L77.4119 22.9414C77.4739 23.1275 77.6289 23.2205 77.8149 23.2205H80.6671C80.8531 23.2205 81.0081 23.0965 81.0701 22.9414L86.3405 7.25446C86.3715 7.13045 86.3715 6.97544 86.2785 6.88244C86.1235 6.75843 85.9994 6.69642 85.8444 6.69642ZM91.2388 6.69642H88.0456C87.7976 6.69642 87.6115 6.88243 87.6115 7.13045V22.7864C87.6115 23.0345 87.7976 23.2205 88.0456 23.2205H91.2388C91.4868 23.2205 91.6728 23.0345 91.6728 22.7864V7.13045C91.6728 6.88243 91.4558 6.69642 91.2388 6.69642ZM55.0285 22.6624C55.2145 22.8794 55.0595 23.1895 54.7805 23.1895H50.8742C50.7192 23.1895 50.5642 23.1275 50.4712 23.0035L49.8202 22.1974C48.4561 23.0655 46.844 23.5925 45.1389 23.5925C40.3646 23.5925 36.4893 19.7172 36.4893 14.9429C36.4893 10.1686 40.3646 6.29339 45.1389 6.29339C49.9132 6.29339 53.7884 10.1686 53.7884 14.9429C53.7884 16.6481 53.2924 18.2601 52.4243 19.6242L55.0285 22.6624ZM47.247 19.1902L45.5419 17.1131C45.3559 16.8961 45.5109 16.555 45.7899 16.555H49.3861C49.5721 16.059 49.6651 15.501 49.6651 14.9429C49.6651 12.3698 47.743 10.1376 45.1079 10.1376C42.4727 10.1376 40.5506 12.3698 40.5506 14.9429C40.5506 17.5161 42.4727 19.7172 45.1079 19.7172C45.8829 19.7482 46.596 19.5312 47.247 19.1902ZM26.5997 22.6004C26.6927 23.2515 26.4757 23.5305 26.2897 23.5305C26.0726 23.5305 25.7936 23.2515 25.4526 22.7554C25.1116 22.2284 24.9876 21.6394 25.1736 21.3603C25.2666 21.1743 25.5146 21.0813 25.7936 21.1743C26.3207 21.3603 26.5377 22.1974 26.5997 22.6004ZM23.5305 23.9955C24.1815 24.5535 24.3985 25.2356 24.0575 25.7006C23.8715 25.9486 23.5615 26.1037 23.1585 26.1037C22.7864 26.1037 22.4144 25.9796 22.1354 25.7316C21.5464 25.2046 21.3603 24.3365 21.7634 23.8715C21.9184 23.6855 22.1664 23.5925 22.4764 23.5925C22.8174 23.5925 23.1895 23.7475 23.5305 23.9955ZM22.4144 29.4209C25.2666 29.4209 28.3668 30.4129 31.808 33.4511C32.149 33.7611 32.6141 33.3891 32.304 32.9861C28.9248 28.7388 25.8246 27.9328 22.7244 27.2507C18.9112 26.4137 16.9581 24.2745 15.594 21.9184C15.315 21.4534 15.191 21.5464 15.191 22.1354C15.16 22.8794 15.222 23.8405 15.377 24.8016C15.222 24.8016 15.067 24.8016 14.9119 24.8016C9.4866 24.8016 5.05332 20.3993 5.05332 14.9429C5.05332 9.5176 9.4556 5.08432 14.9119 5.08432C20.3683 5.08432 24.7706 9.4866 24.7706 14.9429C24.7706 15.315 24.7396 15.718 24.7086 16.09C23.9955 15.966 22.5694 15.935 21.5774 16.028C21.2053 16.059 21.2673 16.245 21.5464 16.276C24.8016 16.8651 27.0337 18.8802 27.5607 22.5384C27.5607 22.6314 27.6848 22.6624 27.7158 22.5694C29.0488 20.3373 29.8239 17.7331 29.8239 14.9119C29.8239 6.69642 23.1585 0 14.9119 0C6.66542 0 0 6.66542 0 14.9119C0 23.1275 6.66542 29.8239 14.9119 29.8239C17.0821 29.8549 19.2522 29.4209 22.4144 29.4209Z" fill="#7A7A7A"/>
</g>
</svg>
