<svg width="150" height="41" viewBox="0 0 150 41" fill="none" xmlns="http://www.w3.org/2000/svg">
<g opacity="0.8">
<path opacity="0.8" d="M92.6857 10.9463V28.4698C92.6857 28.7475 92.4774 28.9557 92.1998 28.9557H88.6257C88.3481 28.9557 88.1399 28.7475 88.1399 28.4698V10.9463C88.1399 10.6687 88.3481 10.4605 88.6257 10.4605H92.1998C92.4774 10.4952 92.6857 10.7034 92.6857 10.9463ZM120.584 10.4952H116.594C116.386 10.4952 116.212 10.634 116.143 10.8422L112.985 21.2175L109.515 10.8422C109.446 10.634 109.272 10.5299 109.064 10.5299H106.253C106.045 10.5299 105.872 10.6687 105.802 10.8422L102.332 21.2175L99.1745 10.8422C99.1051 10.634 98.9316 10.4952 98.7235 10.4952H94.733C94.5942 10.4952 94.4207 10.5646 94.3513 10.7034C94.2471 10.8422 94.2471 10.981 94.2819 11.1198L100.181 28.678C100.25 28.8863 100.424 28.9904 100.632 28.9904H103.824C104.033 28.9904 104.206 28.8516 104.275 28.678L107.711 18.4416L111.146 28.678C111.215 28.8863 111.389 28.9904 111.597 28.9904H114.79C114.998 28.9904 115.171 28.8516 115.241 28.678L121.14 11.1198C121.174 10.981 121.174 10.8075 121.07 10.7034C120.897 10.5646 120.758 10.4952 120.584 10.4952ZM126.622 10.4952H123.048C122.771 10.4952 122.562 10.7034 122.562 10.981V28.5045C122.562 28.7822 122.771 28.9904 123.048 28.9904H126.622C126.9 28.9904 127.108 28.7822 127.108 28.5045V10.981C127.108 10.7034 126.865 10.4952 126.622 10.4952ZM86.0926 28.3657C86.3008 28.6086 86.1273 28.9557 85.8151 28.9557H81.4428C81.2693 28.9557 81.0958 28.8863 80.9917 28.7475L80.2631 27.8452C78.7362 28.8169 76.9318 29.4068 75.0233 29.4068C69.6795 29.4068 65.342 25.0692 65.342 19.7254C65.342 14.3816 69.6795 10.0441 75.0233 10.0441C80.3672 10.0441 84.7046 14.3816 84.7046 19.7254C84.7046 21.634 84.1494 23.4383 83.1778 24.9651L86.0926 28.3657ZM77.3829 24.4793L75.4744 22.1545C75.2662 21.9116 75.4397 21.5298 75.752 21.5298H79.7772C79.9854 20.9746 80.0895 20.3501 80.0895 19.7254C80.0895 16.8453 77.9381 14.3469 74.9886 14.3469C72.0391 14.3469 69.8877 16.8453 69.8877 19.7254C69.8877 22.6055 72.0391 25.0692 74.9886 25.0692C75.8561 25.1039 76.6543 24.861 77.3829 24.4793ZM54.2727 28.2963C54.3768 29.0251 54.1339 29.3374 53.9257 29.3374C53.6827 29.3374 53.3704 29.0251 52.9887 28.4698C52.6071 27.8799 52.4683 27.2207 52.6765 26.9083C52.7806 26.7001 53.0581 26.596 53.3704 26.7001C53.9604 26.9083 54.2033 27.8452 54.2727 28.2963ZM50.8374 29.8578C51.566 30.4824 51.8089 31.2459 51.4272 31.7663C51.219 32.0439 50.8721 32.2175 50.421 32.2175C50.0045 32.2175 49.5881 32.0786 49.2758 31.801C48.6166 31.2112 48.4083 30.2395 48.8595 29.719C49.033 29.5109 49.3105 29.4068 49.6575 29.4068C50.0392 29.4068 50.4557 29.5803 50.8374 29.8578ZM49.5881 35.9304C52.7806 35.9304 56.2506 37.0407 60.1023 40.4414C60.4839 40.7883 61.0045 40.372 60.6574 39.9209C56.8751 35.1669 53.4051 34.2648 49.9351 33.5013C45.667 32.5645 43.481 30.1701 41.9541 27.533C41.6419 27.0125 41.5031 27.1166 41.5031 27.7759C41.4684 28.6086 41.5378 29.6843 41.7113 30.7601C41.5378 30.7601 41.3643 30.7601 41.1907 30.7601C35.1182 30.7601 30.1561 25.8327 30.1561 19.7254C30.1561 13.6529 35.0835 8.69081 41.1907 8.69081C47.298 8.69081 52.2254 13.6182 52.2254 19.7254C52.2254 20.1419 52.1907 20.5929 52.156 21.0093C51.3578 20.8705 49.7616 20.8358 48.6513 20.9399C48.2348 20.9746 48.3042 21.1828 48.6166 21.2175C52.2601 21.8769 54.7584 24.1323 55.3483 28.2269C55.3483 28.331 55.4872 28.3657 55.5219 28.2616C57.0139 25.7633 57.8815 22.8484 57.8815 19.6907C57.8815 10.4952 50.421 3 41.1907 3C31.9605 3 24.5 10.4605 24.5 19.6907C24.5 28.8863 31.9605 36.3815 41.1907 36.3815C43.6198 36.4162 46.0487 35.9304 49.5881 35.9304Z" fill="#8A8A8A"/>
</g>
</svg>
