<svg xmlns="http://www.w3.org/2000/svg" width="42" height="26.351" viewBox="0 0 42 26.351">
  <g id="logo" transform="translate(-3 -11)">
    <path id="Path_1" data-name="Path 1" d="M26.667,27.714a1.276,1.276,0,0,0,.06-.187l0-.017a1.032,1.032,0,0,0,.037-.233,1.048,1.048,0,0,0-.016-.175.515.515,0,0,1,.016-.23V23.036a5.252,5.252,0,0,1-.429.35c-1.955,1.463-5.837,2.6-11.455,2.6-5.641,0-9.533-1.144-11.48-2.616-.129-.095-.244-.194-.357-.293l-.022-.019L3,23.035v3.836a.515.515,0,0,1,.016.23A1.1,1.1,0,0,0,3,27.276a1.026,1.026,0,0,0,.036.23l0,.018a1.253,1.253,0,0,0,.06.188,1.6,1.6,0,0,0,.074.153,1.928,1.928,0,0,0,.119.191c.034.048.073.1.113.143a2.7,2.7,0,0,0,.188.2c.038.038.081.075.123.112l.011.01c.085.074.173.147.272.22.029.022.06.043.091.064l.042.029c.117.081.239.161.373.239l.068.039.041.023c.154.087.315.173.488.257l.025.011.043.02c.193.091.4.181.613.268L5.8,29.7a20.029,20.029,0,0,0,4.423,1.121l.026,0q.51.074,1.047.134l.09.008.089.008c.313.033.629.063.954.086.093.007.188.012.284.016l.172.009.182.011c.184.011.367.022.556.028q.616.022,1.257.023c.427,0,.846-.008,1.256-.021.206-.007.406-.019.606-.031l.132-.008.192-.01c.089,0,.178-.009.264-.015.326-.024.642-.054.954-.086l.089-.008.09-.008q.537-.059,1.047-.134l.026,0h0A20.029,20.029,0,0,0,23.964,29.7l.019-.007c.217-.087.419-.177.613-.268l.013-.006.055-.026c.174-.084.334-.17.488-.257l.034-.019.076-.043c.134-.079.256-.159.373-.239l.029-.02c.035-.024.07-.048.1-.073.1-.073.187-.146.272-.22l0,0c.046-.04.091-.08.132-.12.069-.067.13-.135.188-.2.04-.048.079-.1.113-.143a1.745,1.745,0,0,0,.119-.191A1.471,1.471,0,0,0,26.667,27.714Zm.1-7.043V16.835c-.044.04-.091.079-.139.118l-.06.05-.047.04-.064.053c-.155.122-.322.242-.5.36l-.069.042-.05.03q-.228.143-.481.278l-.19.1q-.283.144-.595.28l-.042.019-.058.026c-.242.1-.5.2-.767.3l-.145.049-.082.028q-.319.108-.661.207l-.078.023-.169.049c-.3.083-.614.163-.942.237l-.071.015-.068.014c-.289.063-.589.121-.9.176l-.317.054q-.44.072-.9.132l-.1.014-.135.018c-.384.047-.782.087-1.191.12l-.172.012-.136.01q-.491.036-1,.059h-.015l-.361.015c-.445.015-.9.026-1.369.026s-.924-.011-1.369-.026l-.368-.016h-.007q-.513-.023-1-.059l-.105-.007-.2-.014c-.409-.034-.807-.074-1.191-.12l-.135-.018-.1-.014q-.464-.06-.9-.132l-.317-.054c-.308-.055-.608-.113-.9-.176l-.061-.012-.078-.016c-.328-.073-.64-.153-.942-.237l-.168-.048-.079-.023q-.342-.1-.661-.207l-.082-.028-.145-.049c-.268-.095-.525-.193-.767-.3L5.242,18.2,5.2,18.185q-.312-.136-.595-.28l-.19-.1q-.253-.136-.482-.278l-.05-.03-.069-.042c-.181-.117-.349-.238-.5-.36-.025-.02-.049-.04-.072-.06L3.2,17l-.061-.05c-.048-.039-.1-.078-.139-.118v3.836a.515.515,0,0,1,.016.23A1.1,1.1,0,0,0,3,21.076a1.027,1.027,0,0,0,.036.231l0,.018a1.253,1.253,0,0,0,.06.188,1.6,1.6,0,0,0,.074.153,1.928,1.928,0,0,0,.119.191c.034.048.073.1.113.143a2.7,2.7,0,0,0,.188.2c.038.038.081.075.123.112l.011.01c.085.074.173.147.272.22.029.022.06.043.091.064l.042.029c.117.081.239.161.373.239l.068.039.041.023c.154.087.315.173.488.257l.025.011.043.02c.193.091.4.181.613.268h0L5.8,23.5a20.035,20.035,0,0,0,4.423,1.121l.026,0q.51.074,1.047.134l.09.008.089.008c.313.033.629.063.954.086.093.007.188.012.284.016l.172.009.182.011c.184.011.367.022.556.028q.616.022,1.257.023c.427,0,.846-.008,1.256-.021.206-.007.406-.019.606-.031l.132-.008.192-.01c.089,0,.178-.009.264-.015.326-.024.642-.054.954-.086l.089-.008.09-.008q.537-.059,1.047-.134l.026,0A20.03,20.03,0,0,0,23.964,23.5l.009,0,.009,0c.217-.087.419-.177.613-.268l.068-.031c.174-.084.334-.17.488-.257l.034-.019.076-.043c.134-.079.256-.159.373-.239l.029-.02c.035-.024.07-.048.1-.073.1-.073.187-.146.272-.22l0,0c.046-.04.091-.08.132-.12.069-.067.13-.135.188-.2.04-.048.079-.1.113-.143a1.745,1.745,0,0,0,.119-.191,1.472,1.472,0,0,0,.074-.154,1.276,1.276,0,0,0,.06-.187l0-.017a1.032,1.032,0,0,0,.037-.233,1.048,1.048,0,0,0-.016-.175A.515.515,0,0,1,26.768,20.671Zm0-5.8c0-1.833-4.88-3.875-11.884-3.875S3,13.042,3,14.875,7.88,18.75,14.884,18.75,26.768,16.708,26.768,14.875Zm-.016,18.775a.529.529,0,0,1,.016-.07V29.236a5.272,5.272,0,0,1-.429.35c-1.955,1.463-5.837,2.6-11.455,2.6-5.641,0-9.533-1.144-11.48-2.616-.129-.095-.244-.194-.357-.293l-.022-.019L3,29.236v4.347a.564.564,0,0,1,.017.068c.293,1.787,5.132,3.7,11.867,3.7S26.458,35.438,26.751,33.651Z" fill="#ff6112" fill-rule="evenodd"/>
    <path id="Path_2" data-name="Path 2" d="M41.1,12.366v6.355c2.395-.64,3.9-1.959,3.9-3.178S43.5,13.007,41.1,12.366Zm0,7.339v4.728a8.389,8.389,0,0,0,2.239-.939l.006,0,.006,0c.128-.08.248-.163.363-.247l.008-.005.033-.024c.1-.077.2-.157.289-.237l.02-.017.045-.04c.079-.072.151-.146.22-.221l.017-.018h0c.021-.022.042-.044.061-.067.058-.067.111-.135.161-.2v0c.027-.037.054-.074.078-.111.041-.062.077-.124.111-.187.024-.044.047-.088.067-.132s.05-.117.071-.176.032-.094.044-.141a1.656,1.656,0,0,0,.035-.173l0-.016A1.443,1.443,0,0,0,45,21.257a1.49,1.49,0,0,0-.009-.161A.73.73,0,0,1,45,20.884V17.35c-.026.036-.054.072-.083.108h0l-.036.046-.028.037h0l-.038.049c-.092.113-.191.223-.3.331l-.041.039-.03.028q-.135.131-.285.256l-.112.092q-.167.133-.352.258l-.025.017-.034.024c-.143.095-.3.185-.454.273l-.086.045h0l-.049.025c-.126.066-.256.13-.391.191l-.046.021-.1.045c-.179.077-.364.15-.557.218l-.042.013h0l-.04.013c-.171.058-.348.112-.531.162l-.187.049Zm0,5.716v4.725a8.389,8.389,0,0,0,2.239-.939l.006,0,.006,0c.128-.08.248-.163.363-.247l.008-.006.033-.024c.1-.077.2-.157.289-.237l.02-.017.045-.04c.079-.072.151-.146.22-.22l.017-.018c.021-.022.042-.044.061-.067.058-.067.111-.135.161-.2v0c.027-.037.054-.074.078-.111.041-.062.077-.124.111-.187.024-.044.047-.088.067-.132s.05-.117.071-.176.032-.094.044-.141a1.656,1.656,0,0,0,.035-.173l0-.016A1.443,1.443,0,0,0,45,26.97a1.493,1.493,0,0,0-.009-.161A.729.729,0,0,1,45,26.6V23.063a3.918,3.918,0,0,1-.254.323A6.947,6.947,0,0,1,41.1,25.421Zm0,5.713v4.724c2.281-.613,3.765-1.843,3.889-3.014,0-.022.006-.043.01-.064v-4a3.918,3.918,0,0,1-.254.323A6.947,6.947,0,0,1,41.1,31.134Z" fill="#ff6112" fill-rule="evenodd"/>
    <path id="Path_3" data-name="Path 3" d="M35.169,12.363v6.355c2.395-.64,3.9-1.959,3.9-3.178S37.564,13,35.169,12.363Zm0,7.339V24.43a8.383,8.383,0,0,0,2.239-.939l.006,0,.006,0c.128-.08.248-.163.363-.247l.008-.005.033-.024c.1-.077.2-.157.289-.237l.02-.017.045-.04c.079-.072.151-.146.22-.22l.017-.018c.021-.022.042-.045.061-.067.058-.067.111-.135.161-.2v0h0c.027-.037.054-.074.078-.111.041-.062.077-.124.111-.187.024-.044.047-.088.067-.132s.05-.117.071-.176.032-.094.044-.141a1.682,1.682,0,0,0,.035-.173l0-.016a1.443,1.443,0,0,0,.022-.215,1.49,1.49,0,0,0-.009-.161.73.73,0,0,1,.009-.212V17.347c-.026.036-.054.072-.083.108l-.036.046-.028.037h0l-.038.049q-.138.169-.3.331l-.041.039-.03.028q-.135.131-.285.256l-.112.092q-.167.133-.352.258l-.025.017-.034.024c-.143.095-.3.185-.454.273l-.086.045-.049.025c-.126.066-.256.13-.391.191l-.046.021-.1.045c-.179.077-.364.15-.557.218l-.042.013h0l-.04.013c-.171.058-.348.112-.531.162l-.187.049Zm0,5.716v4.725a8.386,8.386,0,0,0,2.239-.939l.006,0,.006,0c.128-.08.248-.163.363-.247l.008-.005.033-.024c.1-.077.2-.157.289-.237l.02-.017.045-.04c.079-.072.151-.146.22-.22l.017-.018c.021-.022.042-.044.061-.067.058-.067.111-.135.161-.2h0c.027-.037.054-.074.078-.111.041-.062.077-.124.111-.187.024-.044.047-.088.067-.132s.05-.117.071-.176.032-.094.044-.141a1.682,1.682,0,0,0,.035-.173l0-.016a1.443,1.443,0,0,0,.022-.215,1.493,1.493,0,0,0-.009-.161.729.729,0,0,1,.009-.212V23.06a3.938,3.938,0,0,1-.254.323A6.947,6.947,0,0,1,35.169,25.418Zm0,5.713v4.724c2.281-.613,3.765-1.843,3.888-3.014,0-.022.006-.043.01-.064v-4a3.938,3.938,0,0,1-.254.323A6.947,6.947,0,0,1,35.169,31.131Z" fill="#ff6112" fill-rule="evenodd"/>
    <path id="Path_4" data-name="Path 4" d="M29.231,12.363v6.355c2.395-.64,3.9-1.959,3.9-3.178S31.626,13,29.231,12.363Zm0,7.339V24.43a8.383,8.383,0,0,0,2.239-.939l.005,0,.006,0c.128-.08.248-.163.363-.247l.008-.005.033-.024c.1-.077.2-.157.289-.237l.02-.017.045-.04c.079-.072.151-.146.22-.22l.017-.018c.021-.022.042-.045.061-.067.058-.067.111-.135.161-.2v0h0c.027-.037.054-.074.078-.111.041-.062.077-.124.111-.187.024-.044.047-.088.067-.132s.05-.117.071-.176.032-.094.044-.141a1.656,1.656,0,0,0,.035-.173l0-.016a1.443,1.443,0,0,0,.022-.215,1.489,1.489,0,0,0-.01-.161.734.734,0,0,1,.01-.212V17.347c-.026.036-.054.072-.083.108h0l-.036.046-.028.037h0l-.038.049q-.138.169-.3.331l-.041.039-.03.028q-.135.131-.285.256l-.112.092q-.168.133-.352.258l-.025.017-.034.024c-.143.095-.3.185-.454.273l-.086.045-.049.025c-.126.066-.256.13-.391.191l-.046.021-.1.045c-.179.077-.364.15-.558.218l-.042.013h0l-.04.013c-.171.058-.348.112-.531.162l-.187.049Zm0,5.716v4.725A8.386,8.386,0,0,0,31.47,29.2l.005,0,.006,0c.128-.08.248-.163.363-.247l.008-.005h0l.032-.024c.1-.077.2-.157.289-.237l.02-.017.045-.04c.079-.072.151-.146.22-.22l.017-.018c.021-.022.042-.044.061-.067.058-.067.111-.135.161-.2h0c.027-.037.054-.074.078-.111.041-.062.077-.124.111-.187.024-.044.047-.088.067-.132s.05-.117.071-.176.032-.094.044-.141a1.656,1.656,0,0,0,.035-.173l0-.016a1.443,1.443,0,0,0,.022-.215,1.492,1.492,0,0,0-.01-.161.733.733,0,0,1,.01-.212V23.06a3.938,3.938,0,0,1-.254.323A6.947,6.947,0,0,1,29.231,25.418Zm0,5.713v4.724c2.281-.613,3.765-1.843,3.888-3.014,0-.022.006-.043.01-.064v-4a3.938,3.938,0,0,1-.254.323A6.947,6.947,0,0,1,29.231,31.131Z" fill="#ff6112" fill-rule="evenodd"/>
  </g>
</svg>
