<svg width="50" height="32" viewBox="0 0 50 32" fill="none" xmlns="http://www.w3.org/2000/svg">
<path fill-rule="evenodd" clip-rule="evenodd" d="M28.048 19.1017C28.077 19.0296 28.1 18.9588 28.1165 18.8873C28.1181 18.8808 28.1196 18.8742 28.1212 18.8677C28.1422 18.7786 28.1632 18.6895 28.1632 18.6009C28.1632 18.5342 28.1561 18.4675 28.1449 18.4013C28.1301 18.3122 28.1384 18.223 28.1632 18.1386L28.1626 13.7553C28.0114 13.8917 27.8508 14.0257 27.6725 14.1556C25.4386 15.8279 21.0015 17.1247 14.5816 17.1247C8.13447 17.1247 3.6862 15.8173 1.46177 14.135C1.31415 14.0263 1.18306 13.9135 1.05433 13.8001C1.04632 13.793 1.03753 13.7859 1.02876 13.7789C1.01877 13.7708 1.0088 13.7628 1 13.7547V18.1386C1.0248 18.223 1.03307 18.3122 1.01831 18.4013C1.00768 18.4675 1 18.5342 1 18.6009C1 18.6889 1.02072 18.7774 1.04113 18.8645C1.04278 18.8715 1.04442 18.8785 1.04606 18.8856C1.06259 18.957 1.08562 19.0285 1.11456 19.0999C1.13877 19.1584 1.16711 19.2168 1.199 19.2753C1.23915 19.3479 1.28344 19.4206 1.33541 19.4932C1.37438 19.5481 1.41867 19.6024 1.46473 19.6568C1.53027 19.7347 1.59995 19.8115 1.67908 19.8882C1.72303 19.9316 1.77147 19.9741 1.81981 20.0164L1.83261 20.0276C1.92945 20.112 2.03043 20.1959 2.14322 20.2791C2.17663 20.304 2.212 20.3283 2.24741 20.3526C2.26332 20.3635 2.27923 20.3745 2.29498 20.3854C2.42843 20.4776 2.56779 20.5691 2.72073 20.6588C2.74575 20.6739 2.77215 20.6886 2.7985 20.7032C2.81443 20.712 2.83034 20.7208 2.84592 20.7297C3.02189 20.8295 3.20553 20.9275 3.40394 21.0232C3.41322 21.0275 3.42273 21.0318 3.4323 21.0362C3.44894 21.0437 3.46577 21.0513 3.48189 21.0592C3.70274 21.1637 3.9348 21.2665 4.18223 21.3657C4.18931 21.3686 4.1964 21.3716 4.20348 21.3739C5.54452 21.9095 7.25993 22.3601 9.25879 22.6553C9.26883 22.6571 9.27887 22.6583 9.2889 22.6595C9.67746 22.7162 10.076 22.7675 10.4853 22.8124C10.5189 22.816 10.5535 22.819 10.5882 22.8219C10.6222 22.8249 10.6562 22.8278 10.6896 22.8313C11.0468 22.8685 11.4082 22.9028 11.7802 22.9299C11.8864 22.9377 11.9957 22.9431 12.105 22.9485C12.1708 22.9518 12.2366 22.9551 12.3017 22.9589C12.3712 22.9628 12.4406 22.967 12.5101 22.9711C12.7199 22.9836 12.9298 22.9962 13.1455 23.0037C13.6149 23.0203 14.0932 23.0297 14.5816 23.0297C15.0699 23.0297 15.5482 23.0203 16.0171 23.0055C16.2524 22.9973 16.481 22.9835 16.71 22.9697C16.7602 22.9666 16.8105 22.9636 16.8609 22.9606C16.9335 22.9562 17.0069 22.9525 17.0803 22.9489C17.182 22.9439 17.2836 22.9389 17.3824 22.9317C17.7544 22.9045 18.1158 22.8703 18.473 22.8331C18.5063 22.8296 18.5404 22.8266 18.5744 22.8237C18.6091 22.8207 18.6436 22.8178 18.6773 22.8142C19.0865 22.7693 19.4851 22.7185 19.8737 22.6612C19.8837 22.6595 19.8938 22.6583 19.9038 22.6571C21.9027 22.3619 23.6181 21.9113 24.9591 21.3757C24.9612 21.3749 24.9632 21.3741 24.9652 21.3733C24.9703 21.3714 24.9753 21.3695 24.9804 21.3674C25.2278 21.2682 25.4593 21.1655 25.6807 21.061C25.6974 21.0534 25.7144 21.0458 25.7312 21.038C25.7404 21.0337 25.7496 21.0294 25.7587 21.025C25.9571 20.9293 26.1407 20.8307 26.3167 20.7315C26.3295 20.7242 26.3425 20.7171 26.3554 20.7099C26.3847 20.6936 26.414 20.6774 26.4419 20.6606C26.5948 20.5709 26.7342 20.4793 26.8676 20.3872C26.919 20.3518 26.971 20.3169 27.0194 20.2809C27.1322 20.1977 27.2331 20.1138 27.33 20.0294L27.3322 20.0275C27.3846 19.9815 27.4363 19.936 27.4835 19.89C27.5626 19.8132 27.6323 19.7359 27.6979 19.6585C27.7439 19.6042 27.7882 19.5499 27.8272 19.495C27.8797 19.4223 27.924 19.3497 27.9636 19.2771C27.9955 19.2186 28.0244 19.1601 28.048 19.1017ZM28.1632 11.0525V6.66862C28.1134 6.71386 28.0586 6.75851 28.0038 6.80319C27.9807 6.82209 27.9575 6.84099 27.9347 6.85995C27.9162 6.87513 27.8984 6.89031 27.8805 6.9055C27.8568 6.92574 27.833 6.94599 27.8077 6.96624C27.6305 7.10619 27.4392 7.24318 27.232 7.37723C27.2069 7.39337 27.18 7.40931 27.1531 7.42529C27.1337 7.43678 27.1143 7.44829 27.0956 7.4599C26.9219 7.56855 26.7383 7.67425 26.5452 7.77759C26.4743 7.81597 26.4023 7.85376 26.3285 7.89156C26.113 8.00139 25.8868 8.10768 25.6488 8.21161C25.6325 8.21879 25.6168 8.22607 25.6011 8.23332C25.5794 8.24338 25.5578 8.25338 25.5348 8.26298C25.2585 8.38049 24.9638 8.49269 24.658 8.60134C24.6039 8.62062 24.5482 8.63916 24.4923 8.65776C24.4609 8.66822 24.4294 8.6787 24.3981 8.68933C24.1548 8.77141 23.9033 8.84994 23.6429 8.92612C23.6131 8.93473 23.5835 8.9434 23.5539 8.95207C23.4902 8.97076 23.4264 8.98946 23.3606 9.00761C23.0152 9.10268 22.6585 9.19421 22.2841 9.27806C22.2577 9.28384 22.2301 9.28931 22.2025 9.29478C22.1765 9.29994 22.1505 9.3051 22.1253 9.31054C21.7952 9.38258 21.4527 9.44931 21.1008 9.5119C20.9815 9.53316 20.8604 9.55323 20.7388 9.57331C20.4034 9.62823 20.0591 9.67842 19.7054 9.72448C19.6662 9.72957 19.6278 9.73498 19.5894 9.7404C19.5387 9.74755 19.488 9.75471 19.4355 9.76109C18.9962 9.81424 18.5415 9.8603 18.0744 9.89868C18.0098 9.90396 17.944 9.90831 17.8782 9.91267C17.8262 9.91612 17.7741 9.91957 17.7225 9.92348C17.3487 9.95064 16.9666 9.97308 16.5757 9.9908L16.5586 9.99158C16.4215 9.99781 16.2853 10.004 16.1464 10.0091C15.6374 10.0262 15.1189 10.0386 14.5816 10.0386C14.0442 10.0386 13.5258 10.0262 13.0168 10.0091C12.8744 10.0039 12.7355 9.99756 12.5961 9.99119L12.5875 9.9908C12.1965 9.97308 11.8145 9.95064 11.4407 9.92348C11.401 9.92067 11.3609 9.918 11.3207 9.91532C11.2428 9.91012 11.1648 9.90492 11.0888 9.89868C10.6217 9.85971 10.167 9.81424 9.72765 9.76109C9.67521 9.75471 9.62448 9.74755 9.57374 9.7404C9.53535 9.73498 9.49695 9.72957 9.45779 9.72448C9.10408 9.67842 8.75922 9.62823 8.42441 9.57331C8.30276 9.55323 8.18171 9.53316 8.06243 9.5119C7.71049 9.44931 7.36799 9.38258 7.0379 9.31054C7.01518 9.30563 6.99178 9.30106 6.96834 9.29649C6.93818 9.2906 6.90797 9.2847 6.87906 9.27806C6.50468 9.19421 6.14801 9.10327 5.80257 9.00761C5.73734 8.99 5.67401 8.97131 5.61074 8.95264C5.58065 8.94375 5.55057 8.93487 5.52031 8.92612C5.2599 8.84994 5.00834 8.77141 4.76505 8.68933C4.7338 8.6787 4.70231 8.66822 4.67087 8.65775C4.615 8.63916 4.55927 8.62061 4.50523 8.60134C4.19935 8.49269 3.90528 8.38049 3.62833 8.26298C3.60535 8.25338 3.58376 8.24337 3.56206 8.23332C3.54641 8.22606 3.5307 8.21879 3.51437 8.21161C3.27639 8.10827 3.05023 8.00139 2.8347 7.89156C2.76088 7.85376 2.68943 7.81597 2.61798 7.77759C2.42489 7.67366 2.24124 7.56796 2.06763 7.4599C2.04886 7.44829 2.02946 7.43678 2.01009 7.42529C1.98317 7.40931 1.9563 7.39337 1.93122 7.37723C1.72396 7.24318 1.53263 7.10559 1.35548 6.96624C1.32663 6.94346 1.29998 6.92068 1.27333 6.89791C1.25852 6.88525 1.24371 6.8726 1.22852 6.85995C1.20571 6.84099 1.18253 6.82209 1.15935 6.80319C1.10455 6.75851 1.0498 6.71386 1 6.66862V11.0525C1.0248 11.137 1.03307 11.2261 1.01831 11.3153C1.00768 11.3814 1 11.4482 1 11.5149C1 11.6028 1.02072 11.6913 1.04113 11.7784C1.04278 11.7855 1.04442 11.7925 1.04606 11.7995C1.06259 11.871 1.08562 11.9424 1.11456 12.0139C1.13877 12.0723 1.16711 12.1308 1.199 12.1892C1.23915 12.2619 1.28344 12.3345 1.33541 12.4071C1.37438 12.4621 1.41867 12.5164 1.46473 12.5707C1.53027 12.6487 1.59995 12.7254 1.67908 12.8022C1.72301 12.8456 1.77141 12.888 1.81973 12.9303C1.82403 12.934 1.82832 12.9378 1.83261 12.9415C1.92945 13.026 2.03043 13.1098 2.14322 13.1931C2.17662 13.218 2.212 13.2422 2.2474 13.2665C2.26331 13.2775 2.27923 13.2884 2.29498 13.2994C2.42843 13.3915 2.56779 13.483 2.72073 13.5728C2.74577 13.5879 2.77218 13.6025 2.79854 13.6171C2.81446 13.626 2.83035 13.6348 2.84592 13.6437C3.02189 13.7435 3.20553 13.8415 3.40394 13.9371C3.41322 13.9414 3.42273 13.9458 3.4323 13.9501C3.44894 13.9577 3.46577 13.9653 3.48189 13.9732C3.70274 14.0777 3.9348 14.1804 4.18223 14.2796C4.18931 14.2826 4.1964 14.2855 4.20348 14.2879C5.54452 14.8235 7.25993 15.274 9.25879 15.5693C9.2644 15.5703 9.27002 15.5711 9.27563 15.5718C9.28006 15.5724 9.28448 15.5729 9.2889 15.5734C9.67746 15.6301 10.076 15.6815 10.4853 15.7264C10.5189 15.7299 10.5535 15.7329 10.5882 15.7359C10.6222 15.7388 10.6562 15.7418 10.6896 15.7453C11.0468 15.7825 11.4082 15.8167 11.7802 15.8439C11.8863 15.8516 11.9957 15.857 12.1049 15.8625C12.1708 15.8658 12.2366 15.869 12.3017 15.8728C12.3712 15.8768 12.4406 15.8809 12.51 15.8851C12.7199 15.8976 12.9298 15.9101 13.1455 15.9177C13.6149 15.9342 14.0932 15.9437 14.5816 15.9437C15.0699 15.9437 15.5482 15.9342 16.0171 15.9195C16.2524 15.9112 16.481 15.8974 16.7099 15.8836C16.7602 15.8806 16.8105 15.8776 16.8609 15.8746C16.9335 15.8701 17.007 15.8665 17.0804 15.8629C17.1821 15.8579 17.2836 15.8528 17.3824 15.8456C17.7544 15.8185 18.1158 15.7842 18.473 15.747C18.5063 15.7435 18.5404 15.7406 18.5744 15.7377C18.609 15.7347 18.6436 15.7317 18.6773 15.7281C19.0865 15.6833 19.4851 15.6325 19.8737 15.5752C19.8837 15.5734 19.8938 15.5722 19.9038 15.5711C21.9027 15.2758 23.6181 14.8253 24.9591 14.2897C24.9618 14.2885 24.9645 14.2875 24.9672 14.2865C24.9716 14.2848 24.976 14.2832 24.9804 14.2814C25.2278 14.1822 25.4593 14.0794 25.6807 13.9749C25.7067 13.9631 25.7333 13.9513 25.7587 13.9389C25.9571 13.8432 26.1407 13.7446 26.3167 13.6454C26.3295 13.6382 26.3425 13.631 26.3554 13.6238C26.3847 13.6076 26.414 13.5914 26.4419 13.5746C26.5948 13.4848 26.7342 13.3933 26.8676 13.3012C26.8787 13.2935 26.8899 13.2859 26.901 13.2782C26.9413 13.2506 26.9814 13.2231 27.0194 13.1949C27.1322 13.1116 27.2331 13.0278 27.33 12.9433L27.3322 12.9414C27.3846 12.8954 27.4363 12.85 27.4835 12.804C27.5626 12.7272 27.6323 12.6498 27.6979 12.5725C27.7439 12.5182 27.7882 12.4638 27.8272 12.4089C27.8797 12.3363 27.924 12.2636 27.9636 12.191C27.9955 12.1326 28.0244 12.0741 28.048 12.0156C28.077 11.9436 28.1 11.8727 28.1165 11.8013C28.1181 11.7947 28.1196 11.7882 28.1212 11.7816C28.1422 11.6925 28.1632 11.6035 28.1632 11.5149C28.1632 11.4482 28.1561 11.3814 28.1449 11.3153C28.1301 11.2261 28.1384 11.137 28.1632 11.0525ZM28.1632 4.42884C28.1632 2.33373 22.5859 6.10352e-05 14.5816 6.10352e-05C6.57731 6.10352e-05 1 2.33373 1 4.42884C1 6.52395 6.57731 8.85762 14.5816 8.85762C22.5859 8.85762 28.1632 6.52395 28.1632 4.42884ZM28.1443 25.8866C28.149 25.8594 28.1549 25.8328 28.1632 25.8069L28.1626 20.8413C28.0114 20.9777 27.8508 21.1118 27.6725 21.2417C25.4386 22.914 21.0015 24.2107 14.5816 24.2107C8.13447 24.2107 3.6862 22.9033 1.46177 21.221C1.31415 21.1123 1.18306 20.9996 1.05433 20.8862C1.04631 20.879 1.03753 20.8719 1.02875 20.8649C1.01877 20.8569 1.0088 20.8489 1 20.8407V25.8092C1.00768 25.834 1.01417 25.86 1.0189 25.8866C1.35371 27.9291 6.88378 30.1158 14.5816 30.1158C22.2794 30.1158 27.8095 27.9291 28.1443 25.8866Z" fill="#FF6112"/>
<path fill-rule="evenodd" clip-rule="evenodd" d="M44.5452 1.56177V8.82501C47.2817 8.09353 49.0002 6.58624 49.0002 5.19339C49.0002 3.80054 47.2817 2.29325 44.5452 1.56177ZM44.5452 9.94886V15.3519C45.5439 15.0834 46.4088 14.7113 47.1038 14.2792L47.1101 14.2754L47.1164 14.2716C47.2629 14.1802 47.3999 14.0855 47.5309 13.9892L47.5398 13.9829L47.5398 13.9829C47.5523 13.9741 47.5649 13.9652 47.5771 13.956C47.6945 13.8679 47.8032 13.777 47.9073 13.6856L47.9303 13.6657C47.9476 13.6507 47.9649 13.6358 47.9814 13.6203C48.0719 13.5376 48.1544 13.4533 48.2334 13.3684L48.2531 13.3473C48.277 13.3218 48.3008 13.2965 48.3232 13.2705C48.39 13.1937 48.4497 13.1165 48.5071 13.0387L48.5084 13.0369L48.5084 13.0369C48.5394 12.9945 48.57 12.9526 48.5979 12.9103C48.6448 12.8395 48.686 12.7683 48.7248 12.697C48.7521 12.6469 48.7783 12.5969 48.8013 12.5463C48.8324 12.4793 48.8587 12.4124 48.8821 12.3455C48.9009 12.2916 48.9181 12.2378 48.9321 12.1839C48.9492 12.1175 48.9628 12.0522 48.9726 11.9864L48.9753 11.9683C48.9878 11.8862 49.0002 11.8041 49.0002 11.7225C49.0002 11.661 48.996 11.5995 48.9894 11.5386C48.9806 11.4565 48.9855 11.3743 49.0002 11.2965V7.25714C48.9707 7.29882 48.9383 7.33996 48.9059 7.38113C48.8922 7.39854 48.8785 7.41596 48.8649 7.43342C48.854 7.44741 48.8435 7.4614 48.8329 7.47539C48.8189 7.49405 48.8048 7.5127 48.7898 7.53136C48.685 7.66031 48.5717 7.78654 48.449 7.91005C48.4342 7.92492 48.4183 7.93961 48.4024 7.95434C48.3909 7.96492 48.3794 7.97552 48.3683 7.98622C48.2656 8.08633 48.1569 8.18373 48.0426 8.27894C48.0006 8.31431 47.958 8.34913 47.9143 8.38395C47.7868 8.48516 47.6529 8.58309 47.512 8.67885C47.5024 8.68546 47.4931 8.69216 47.4838 8.69884L47.4838 8.69885C47.471 8.70812 47.4582 8.71734 47.4446 8.72619C47.281 8.83446 47.1066 8.93784 46.9256 9.03795C46.8936 9.05571 46.8606 9.07279 46.8276 9.08992L46.8275 9.08994C46.8089 9.09958 46.7903 9.10923 46.7718 9.11902C46.6278 9.19465 46.4789 9.26702 46.3248 9.33721L46.2722 9.36111C46.2344 9.37833 46.1967 9.39556 46.1577 9.41229C45.9533 9.49989 45.7422 9.58422 45.5206 9.66149C45.505 9.66681 45.4886 9.67185 45.4723 9.67689C45.4569 9.68164 45.4415 9.6864 45.4266 9.69141C45.2312 9.75779 45.0285 9.81927 44.8202 9.87695C44.7496 9.89653 44.678 9.91503 44.606 9.93353L44.5452 9.94886ZM44.5452 16.4811V21.881C45.5439 21.6125 46.4088 21.2405 47.1038 20.8083L47.1101 20.8045L47.1164 20.8007C47.2629 20.7093 47.3999 20.6146 47.5309 20.5183L47.5398 20.5121C47.5523 20.5033 47.5649 20.4944 47.5771 20.4851C47.6945 20.397 47.8032 20.3061 47.9073 20.2147L47.9302 20.1949C47.9476 20.1799 47.9649 20.1649 47.9814 20.1494C48.0719 20.0667 48.1544 19.9824 48.2334 19.8975L48.2532 19.8764C48.277 19.8509 48.3008 19.8256 48.3232 19.7996C48.39 19.7229 48.4497 19.6456 48.5071 19.5678L48.5084 19.566C48.5394 19.5236 48.57 19.4818 48.5979 19.4394C48.6448 19.3687 48.686 19.2974 48.7248 19.2261C48.7521 19.1761 48.7783 19.126 48.8013 19.0754C48.8324 19.0085 48.8587 18.9415 48.8821 18.8746C48.9009 18.8208 48.9181 18.7669 48.9321 18.713C48.9492 18.6466 48.9628 18.5814 48.9726 18.5155L48.9753 18.4974C48.9878 18.4153 49.0002 18.3332 49.0002 18.2516C49.0002 18.1902 48.996 18.1287 48.9894 18.0677C48.9806 17.9856 48.9855 17.9034 49.0002 17.8256L48.9999 13.7868C48.9104 13.9125 48.8153 14.036 48.7098 14.1557C47.8549 15.152 46.455 16.0036 44.5452 16.4811ZM44.5452 23.0102V28.409C47.152 27.7087 48.8481 26.3031 48.989 24.9647C48.9918 24.9396 48.9953 24.9152 49.0002 24.8912L48.9999 20.3159C48.9104 20.4416 48.8153 20.5651 48.7098 20.6848C47.8549 21.6811 46.455 22.5327 44.5452 23.0102Z" fill="#FF6112"/>
<path fill-rule="evenodd" clip-rule="evenodd" d="M37.7649 1.55804V8.82129C40.5015 8.0898 42.2199 6.58252 42.2199 5.18967C42.2199 3.79681 40.5015 2.28953 37.7649 1.55804ZM37.7649 9.94514V15.3482C38.7636 15.0797 39.6285 14.7076 40.3236 14.2755L40.3299 14.2717L40.3361 14.2679C40.4826 14.1765 40.6196 14.0818 40.7506 13.9855L40.7595 13.9792C40.772 13.9704 40.7846 13.9615 40.7968 13.9523C40.9142 13.8642 41.0229 13.7733 41.1271 13.6819L41.15 13.662L41.15 13.6619C41.1674 13.647 41.1847 13.6321 41.2011 13.6166C41.2917 13.5339 41.3741 13.4496 41.4531 13.3647L41.4729 13.3436L41.4729 13.3436C41.4967 13.3181 41.5205 13.2928 41.543 13.2667C41.6097 13.19 41.6695 13.1128 41.7268 13.035L41.7281 13.0331L41.7281 13.0331C41.7591 12.9908 41.7898 12.9489 41.8177 12.9065C41.8645 12.8358 41.9057 12.7645 41.9445 12.6933C41.9718 12.6432 41.998 12.5932 42.0211 12.5426C42.0522 12.4756 42.0784 12.4087 42.1018 12.3418C42.1207 12.2879 42.1378 12.234 42.1518 12.1802C42.1689 12.1138 42.1825 12.0485 42.1923 11.9827L42.1951 11.9646C42.2075 11.8825 42.2199 11.8004 42.2199 11.7188C42.2199 11.6573 42.2157 11.5958 42.2091 11.5349C42.2004 11.4527 42.2053 11.3706 42.2199 11.2928V7.25341C42.1905 7.29509 42.158 7.33624 42.1256 7.37741C42.1119 7.39482 42.0982 7.41224 42.0847 7.4297C42.0737 7.44369 42.0632 7.45768 42.0526 7.47167C42.0386 7.49032 42.0245 7.50898 42.0095 7.52764C41.9047 7.65659 41.7914 7.78282 41.6688 7.90633C41.6539 7.9212 41.638 7.93589 41.6221 7.95061C41.6106 7.9612 41.5992 7.9718 41.588 7.9825C41.4853 8.08261 41.3766 8.18001 41.2623 8.27522C41.2204 8.31059 41.1777 8.34541 41.134 8.38023C41.0065 8.48143 40.8726 8.57937 40.7318 8.67513C40.7221 8.68174 40.7128 8.68844 40.7036 8.69512L40.7036 8.69513C40.6907 8.7044 40.6779 8.71362 40.6643 8.72247C40.5008 8.83074 40.3264 8.93412 40.1453 9.03423C40.1133 9.05199 40.0804 9.06907 40.0473 9.0862L40.0473 9.08622C40.0287 9.09585 40.01 9.10551 39.9915 9.1153C39.8475 9.19093 39.6987 9.2633 39.5445 9.33348L39.4919 9.35739C39.4542 9.37461 39.4164 9.39184 39.3775 9.40857C39.173 9.49617 38.9619 9.5805 38.7403 9.65776C38.7247 9.66309 38.7084 9.66813 38.692 9.67317C38.6766 9.67792 38.6612 9.68268 38.6463 9.68769C38.451 9.75407 38.2482 9.81555 38.0399 9.87323C37.9694 9.89281 37.8977 9.91131 37.8257 9.92981L37.7649 9.94514ZM37.7649 16.4774V21.8773C38.7636 21.6088 39.6285 21.2368 40.3236 20.8046L40.3299 20.8008L40.3361 20.797C40.4826 20.7056 40.6196 20.6109 40.7506 20.5146L40.7595 20.5083C40.772 20.4995 40.7846 20.4907 40.7968 20.4814C40.9142 20.3933 41.0229 20.3024 41.1271 20.211L41.15 20.1911L41.1501 20.191C41.1674 20.1761 41.1847 20.1612 41.2011 20.1457C41.2917 20.063 41.3741 19.9787 41.4531 19.8938L41.4729 19.8727C41.4967 19.8472 41.5205 19.8219 41.543 19.7959C41.6097 19.7191 41.6695 19.6419 41.7268 19.5641L41.7281 19.5623L41.7282 19.5621C41.7592 19.5198 41.7898 19.478 41.8177 19.4357C41.8645 19.3649 41.9057 19.2937 41.9445 19.2224C41.9718 19.1723 41.998 19.1223 42.0211 19.0717C42.0522 19.0047 42.0784 18.9378 42.1018 18.8709C42.1207 18.817 42.1378 18.7632 42.1518 18.7093C42.1689 18.6429 42.1825 18.5776 42.1923 18.5118L42.1951 18.4937C42.2075 18.4116 42.2199 18.3295 42.2199 18.2479C42.2199 18.1864 42.2157 18.125 42.2091 18.064C42.2004 17.9819 42.2053 17.8997 42.2199 17.8219L42.2196 13.7831C42.1301 13.9088 42.035 14.0323 41.9295 14.152C41.0747 15.1482 39.6747 15.9998 37.7649 16.4774ZM37.7649 23.0065V28.4053C40.3717 27.705 42.0678 26.2994 42.2087 24.9609C42.2115 24.9359 42.215 24.9114 42.2199 24.8875L42.2196 20.3122C42.1301 20.4379 42.035 20.5614 41.9295 20.6811C41.0747 21.6774 39.6747 22.529 37.7649 23.0065Z" fill="#FF6112"/>
<path fill-rule="evenodd" clip-rule="evenodd" d="M30.9785 1.55804V8.82129C33.7151 8.0898 35.4336 6.58252 35.4336 5.18967C35.4336 3.79681 33.7151 2.28953 30.9785 1.55804ZM30.9785 9.94514V15.3482C31.9772 15.0797 32.8422 14.7076 33.5372 14.2755L33.5435 14.2717L33.5498 14.2679C33.6962 14.1765 33.8332 14.0818 33.9643 13.9855L33.9732 13.9792C33.9857 13.9704 33.9983 13.9615 34.0104 13.9523C34.1278 13.8642 34.2365 13.7733 34.3407 13.6819L34.3636 13.662L34.3637 13.6619C34.381 13.647 34.3983 13.6321 34.4148 13.6166C34.5053 13.5339 34.5878 13.4496 34.6668 13.3647L34.6865 13.3436L34.6865 13.3436C34.7104 13.3181 34.7341 13.2928 34.7566 13.2667C34.8233 13.19 34.8831 13.1128 34.9404 13.035L34.9417 13.0331C34.9727 12.9908 35.0034 12.9489 35.0313 12.9065C35.0781 12.8358 35.1194 12.7645 35.1581 12.6933C35.1854 12.6432 35.2116 12.5932 35.2347 12.5426C35.2658 12.4756 35.292 12.4087 35.3154 12.3418C35.3343 12.2879 35.3514 12.234 35.3654 12.1802C35.3825 12.1138 35.3962 12.0485 35.4059 11.9827L35.4087 11.9646C35.4211 11.8825 35.4336 11.8004 35.4336 11.7188C35.4336 11.6573 35.4294 11.5958 35.4227 11.5349C35.414 11.4527 35.4189 11.3706 35.4336 11.2928V7.25341C35.4041 7.29509 35.3717 7.33624 35.3392 7.37741C35.3255 7.39482 35.3118 7.41224 35.2983 7.4297C35.2874 7.44369 35.2768 7.45768 35.2663 7.47167C35.2522 7.49032 35.2381 7.50898 35.2232 7.52764C35.1183 7.65659 35.0051 7.78282 34.8824 7.90633C34.8676 7.9212 34.8517 7.93589 34.8357 7.95061C34.8243 7.9612 34.8128 7.9718 34.8017 7.9825C34.6989 8.08261 34.5902 8.18001 34.4759 8.27522C34.434 8.31059 34.3914 8.34541 34.3477 8.38023C34.2201 8.48143 34.0862 8.57937 33.9454 8.67513C33.9357 8.68174 33.9264 8.68844 33.9172 8.69512L33.9172 8.69513C33.9043 8.7044 33.8915 8.71362 33.8779 8.72247C33.7144 8.83074 33.54 8.93412 33.3589 9.03423C33.327 9.05199 33.294 9.06907 33.2609 9.0862L33.2609 9.08622C33.2423 9.09585 33.2237 9.10551 33.2052 9.1153C33.0612 9.19093 32.9123 9.2633 32.7582 9.33348L32.7055 9.35739C32.6678 9.37461 32.63 9.39184 32.5911 9.40857C32.3866 9.49617 32.1755 9.5805 31.954 9.65776C31.9383 9.66309 31.922 9.66813 31.9057 9.67317C31.8903 9.67792 31.8749 9.68268 31.8599 9.68769C31.6646 9.75407 31.4619 9.81555 31.2536 9.87323C31.183 9.89281 31.1113 9.91131 31.0393 9.92981L30.9785 9.94514ZM30.9785 16.4774V21.8773C31.9772 21.6088 32.8422 21.2368 33.5372 20.8046L33.5435 20.8008L33.5498 20.797C33.6962 20.7056 33.8332 20.6109 33.9643 20.5146L33.9732 20.5083C33.9857 20.4995 33.9983 20.4907 34.0104 20.4814C34.1278 20.3933 34.2365 20.3024 34.3407 20.211L34.3636 20.1911L34.3637 20.191C34.381 20.1761 34.3983 20.1612 34.4148 20.1457C34.5053 20.063 34.5878 19.9787 34.6668 19.8938L34.6865 19.8727C34.7104 19.8472 34.7341 19.8219 34.7566 19.7959C34.8233 19.7191 34.8831 19.6419 34.9404 19.5641L34.9417 19.5623L34.9418 19.5621C34.9728 19.5198 35.0034 19.478 35.0313 19.4357C35.0781 19.3649 35.1194 19.2937 35.1581 19.2224C35.1854 19.1723 35.2116 19.1223 35.2347 19.0717C35.2658 19.0047 35.292 18.9378 35.3154 18.8709C35.3343 18.817 35.3514 18.7632 35.3654 18.7093C35.3825 18.6429 35.3962 18.5776 35.4059 18.5118L35.4087 18.4937C35.4211 18.4116 35.4336 18.3295 35.4336 18.2479C35.4336 18.1864 35.4294 18.125 35.4227 18.064C35.414 17.9819 35.4189 17.8997 35.4336 17.8219L35.4332 13.7831C35.3437 13.9088 35.2487 14.0323 35.1431 14.152C34.2883 15.1482 32.8883 15.9998 30.9785 16.4774ZM30.9785 23.0065V28.4053C33.5853 27.705 35.2814 26.2994 35.4224 24.9609C35.4252 24.9359 35.4287 24.9114 35.4336 24.8875L35.4332 20.3122C35.3437 20.4379 35.2487 20.5614 35.1431 20.6811C34.2883 21.6774 32.8883 22.529 30.9785 23.0065Z" fill="#FF6112"/>
</svg>
