<svg width="952" height="126" viewBox="0 0 952 126" fill="none" xmlns="http://www.w3.org/2000/svg">
<path d="M63.352 27.076C63.352 9.784 51.208 0.0159984 34.972 0.0159984H0.520001V94H7.648V54.136H34.972C51.208 54.136 63.352 44.236 63.352 27.076ZM56.224 27.076C56.224 41.2 47.248 47.8 34.18 47.8H7.648V6.352H34.18C47.248 6.352 56.224 12.952 56.224 27.076ZM128.308 62.188C128.308 53.08 127.12 43.312 120.388 36.58C115.768 31.96 109.96 29.584 102.7 29.584C95.5724 29.584 89.6324 31.96 85.0124 36.58C78.2804 43.312 77.0924 53.08 77.0924 62.188C77.0924 71.296 78.2804 81.064 85.0124 87.796C89.6324 92.416 95.5724 94.792 102.7 94.792C109.96 94.792 115.768 92.416 120.388 87.796C127.12 81.064 128.308 71.296 128.308 62.188ZM121.576 62.188C121.576 69.58 121.18 78.16 115.9 83.44C112.336 87.004 107.848 88.852 102.7 88.852C97.5524 88.852 93.0644 87.004 89.5004 83.44C84.2204 78.16 83.8244 69.58 83.8244 62.188C83.8244 54.796 84.2204 46.216 89.5004 40.936C93.0644 37.372 97.5524 35.524 102.7 35.524C107.848 35.524 112.336 37.372 115.9 40.936C121.18 46.216 121.576 54.796 121.576 62.188ZM195.281 75.916C195.281 63.508 187.229 60.34 176.669 59.284L166.373 58.36C157.397 57.436 153.437 54.4 153.437 47.668C153.437 39.748 159.113 35.392 169.673 35.392C176.669 35.392 182.609 37.24 187.493 40.804L191.981 36.316C186.305 32.092 178.517 29.584 169.673 29.584C155.813 29.584 146.837 36.58 146.837 47.668C146.837 57.7 153.173 63.244 165.977 64.3L176.537 65.224C184.985 66.148 188.681 69.184 188.681 75.916C188.681 84.496 182.081 88.852 169.541 88.852C160.565 88.852 153.569 86.212 148.685 81.064L144.065 85.684C150.533 91.888 158.717 94.792 169.805 94.792C185.513 94.792 195.281 87.532 195.281 75.916ZM231.102 94H236.91V88.06H232.29C225.558 88.06 222.522 84.232 222.522 77.5V35.392H236.91V30.376H222.522V10.048H215.79V30.376H207.078V35.392H215.79V77.368C215.79 87.004 221.07 94 231.102 94ZM302.804 97.564V30.376H296.072V38.56C290.396 31.168 284.456 29.584 277.196 29.584C270.464 29.584 264.92 31.828 261.62 35.128C255.152 41.596 253.436 52.156 253.436 62.188C253.436 72.22 255.152 82.78 261.62 89.248C264.92 92.548 270.464 94.792 277.196 94.792C284.456 94.792 290.396 93.208 296.072 85.816V97.168C296.072 109.84 290.132 119.212 276.8 119.212C268.748 119.212 265.316 116.836 260.3 112.216L255.812 116.704C262.412 122.644 267.296 125.152 276.8 125.152C293.3 125.152 302.804 113.536 302.804 97.564ZM296.072 62.188C296.072 75.388 293.696 88.852 278.12 88.852C262.544 88.852 260.168 75.388 260.168 62.188C260.168 48.988 262.544 35.524 278.12 35.524C293.696 35.524 296.072 48.988 296.072 62.188ZM364.189 40.54L369.073 35.656C364.453 31.036 359.965 29.584 353.761 29.584C346.237 29.584 338.845 32.884 335.149 38.824V30.376H328.417V94H335.149V54.796C335.149 44.632 341.221 35.524 352.177 35.524C357.457 35.524 360.361 36.712 364.189 40.54ZM381.34 63.64H425.56V60.604C425.56 41.068 416.056 29.584 400.084 29.584C384.112 29.584 374.608 41.596 374.608 62.188C374.608 83.44 384.112 94.792 401.668 94.792C412.228 94.792 418.168 91.492 424.636 85.024L419.62 81.064C414.208 86.476 409.588 88.72 402.064 88.72C388.468 88.72 381.34 79.876 381.34 63.64ZM418.828 58.228H381.34C381.736 52.024 382.132 50.308 383.584 46.216C386.356 39.484 392.692 35.524 400.084 35.524C407.476 35.524 413.812 39.484 416.584 46.216C418.3 50.044 418.432 52.156 418.828 58.228ZM492.41 75.916C492.41 63.508 484.358 60.34 473.798 59.284L463.502 58.36C454.526 57.436 450.566 54.4 450.566 47.668C450.566 39.748 456.242 35.392 466.802 35.392C473.798 35.392 479.738 37.24 484.622 40.804L489.11 36.316C483.434 32.092 475.646 29.584 466.802 29.584C452.942 29.584 443.966 36.58 443.966 47.668C443.966 57.7 450.302 63.244 463.106 64.3L473.666 65.224C482.114 66.148 485.81 69.184 485.81 75.916C485.81 84.496 479.21 88.852 466.67 88.852C457.694 88.852 450.698 86.212 445.814 81.064L441.194 85.684C447.662 91.888 455.846 94.792 466.934 94.792C482.642 94.792 492.41 87.532 492.41 75.916ZM512.36 94H522.128V84.232H512.36V94ZM584.785 94H591.517V50.44C591.517 37.108 583.729 29.584 566.833 29.584C556.405 29.584 549.805 31.828 544.393 39.352L549.277 43.576C553.369 37.768 557.857 35.524 566.833 35.524C579.901 35.524 584.785 40.936 584.785 51.1V58.228H564.193C550.333 58.228 542.017 64.96 542.017 76.576C542.017 81.328 543.601 85.948 546.637 88.984C550.729 93.208 555.877 94.792 565.381 94.792C574.357 94.792 579.373 93.076 584.785 87.664V94ZM584.785 63.64V71.824C584.785 77.632 583.597 81.724 581.221 83.968C576.601 88.324 571.189 88.852 565.381 88.852C553.765 88.852 548.749 84.892 548.749 76.444C548.749 67.864 554.161 63.64 564.985 63.64H584.785ZM616.652 94H623.384V30.376H616.652V94ZM615.86 8.33199H624.176V0.0159984H615.86V8.33199ZM748.52 45.688C748.52 33.016 748.916 18.1 739.412 8.596C733.736 2.91999 725.816 0.0159984 715.916 0.0159984H684.368V94H715.916C725.816 94 733.736 91.096 739.412 85.42C748.916 75.916 748.52 58.36 748.52 45.688ZM741.392 45.688C741.392 56.248 741.788 72.616 734.396 80.404C728.984 86.08 721.724 87.664 714.2 87.664H691.496V6.352H714.2C721.724 6.352 728.984 7.936 734.396 13.612C741.788 21.4 741.392 35.128 741.392 45.688ZM819.633 62.188C819.633 53.08 818.445 43.312 811.713 36.58C807.093 31.96 801.285 29.584 794.025 29.584C786.897 29.584 780.957 31.96 776.337 36.58C769.605 43.312 768.417 53.08 768.417 62.188C768.417 71.296 769.605 81.064 776.337 87.796C780.957 92.416 786.897 94.792 794.025 94.792C801.285 94.792 807.093 92.416 811.713 87.796C818.445 81.064 819.633 71.296 819.633 62.188ZM812.901 62.188C812.901 69.58 812.505 78.16 807.225 83.44C803.661 87.004 799.173 88.852 794.025 88.852C788.877 88.852 784.389 87.004 780.825 83.44C775.545 78.16 775.149 69.58 775.149 62.188C775.149 54.796 775.545 46.216 780.825 40.936C784.389 37.372 788.877 35.524 794.025 35.524C799.173 35.524 803.661 37.372 807.225 40.936C812.505 46.216 812.901 54.796 812.901 62.188ZM886.869 85.024L882.249 80.8C876.837 86.74 872.613 88.852 865.881 88.852C858.621 88.852 852.813 86.08 848.985 80.404C845.817 75.784 844.629 70.768 844.629 62.188C844.629 53.608 845.817 48.592 848.985 43.972C852.813 38.296 858.621 35.524 865.881 35.524C872.613 35.524 876.837 37.504 882.249 43.576L886.869 39.352C880.137 31.828 874.593 29.584 865.881 29.584C848.457 29.584 837.897 41.992 837.897 62.188C837.897 82.384 848.457 94.792 865.881 94.792C874.593 94.792 880.137 92.548 886.869 85.024ZM951.703 75.916C951.703 63.508 943.651 60.34 933.091 59.284L922.795 58.36C913.819 57.436 909.859 54.4 909.859 47.668C909.859 39.748 915.535 35.392 926.095 35.392C933.091 35.392 939.031 37.24 943.915 40.804L948.403 36.316C942.727 32.092 934.939 29.584 926.095 29.584C912.235 29.584 903.259 36.58 903.259 47.668C903.259 57.7 909.595 63.244 922.399 64.3L932.959 65.224C941.407 66.148 945.103 69.184 945.103 75.916C945.103 84.496 938.503 88.852 925.963 88.852C916.987 88.852 909.991 86.212 905.107 81.064L900.487 85.684C906.955 91.888 915.139 94.792 926.227 94.792C941.935 94.792 951.703 87.532 951.703 75.916Z" fill="white"/>
</svg>
