<svg width="1118" height="181" viewBox="0 0 1118 181" fill="none" xmlns="http://www.w3.org/2000/svg">
<path d="M78.672 89.688C78.672 77.016 79.068 62.1 69.564 52.596C63.888 46.92 55.968 44.016 46.068 44.016H14.52V138H46.068C55.968 138 63.888 135.096 69.564 129.42C79.068 119.916 78.672 102.36 78.672 89.688ZM71.544 89.688C71.544 100.248 71.94 116.616 64.548 124.404C59.136 130.08 51.876 131.664 44.352 131.664H21.648V50.352H44.352C51.876 50.352 59.136 51.936 64.548 57.612C71.94 65.4 71.544 79.128 71.544 89.688ZM139.621 138H146.353V94.44C146.353 81.108 138.565 73.584 121.669 73.584C111.241 73.584 104.641 75.828 99.2289 83.352L104.113 87.576C108.205 81.768 112.693 79.524 121.669 79.524C134.737 79.524 139.621 84.936 139.621 95.1V102.228H119.029C105.169 102.228 96.8529 108.96 96.8529 120.576C96.8529 125.328 98.4369 129.948 101.473 132.984C105.565 137.208 110.713 138.792 120.217 138.792C129.193 138.792 134.209 137.076 139.621 131.664V138ZM139.621 107.64V115.824C139.621 121.632 138.433 125.724 136.057 127.968C131.437 132.324 126.025 132.852 120.217 132.852C108.601 132.852 103.585 128.892 103.585 120.444C103.585 111.864 108.997 107.64 119.821 107.64H139.621ZM188.384 138H194.192V132.06H189.572C182.84 132.06 179.804 128.232 179.804 121.5V79.392H194.192V74.376H179.804V54.048H173.072V74.376H164.36V79.392H173.072V121.368C173.072 131.004 178.352 138 188.384 138ZM251.383 138H258.115V94.44C258.115 81.108 250.327 73.584 233.431 73.584C223.003 73.584 216.403 75.828 210.991 83.352L215.875 87.576C219.967 81.768 224.455 79.524 233.431 79.524C246.499 79.524 251.383 84.936 251.383 95.1V102.228H230.791C216.931 102.228 208.615 108.96 208.615 120.576C208.615 125.328 210.199 129.948 213.235 132.984C217.327 137.208 222.475 138.792 231.979 138.792C240.955 138.792 245.971 137.076 251.383 131.664V138ZM251.383 107.64V115.824C251.383 121.632 250.195 125.724 247.819 127.968C243.199 132.324 237.787 132.852 231.979 132.852C220.363 132.852 215.347 128.892 215.347 120.444C215.347 111.864 220.759 107.64 231.583 107.64H251.383ZM332.617 106.188C332.617 96.156 330.901 85.596 324.433 79.128C321.133 75.828 315.589 73.584 308.857 73.584C301.597 73.584 295.657 75.168 289.981 82.56V44.016H283.249V138H289.981V129.816C295.657 137.208 301.597 138.792 308.857 138.792C315.589 138.792 321.133 136.548 324.433 133.248C330.901 126.78 332.617 116.22 332.617 106.188ZM325.885 106.188C325.885 119.388 323.509 132.852 307.933 132.852C292.357 132.852 289.981 119.388 289.981 106.188C289.981 92.988 292.357 79.524 307.933 79.524C323.509 79.524 325.885 92.988 325.885 106.188ZM391.89 138H398.622V94.44C398.622 81.108 390.834 73.584 373.938 73.584C363.51 73.584 356.91 75.828 351.498 83.352L356.382 87.576C360.474 81.768 364.962 79.524 373.938 79.524C387.006 79.524 391.89 84.936 391.89 95.1V102.228H371.298C357.438 102.228 349.122 108.96 349.122 120.576C349.122 125.328 350.706 129.948 353.742 132.984C357.834 137.208 362.982 138.792 372.486 138.792C381.462 138.792 386.478 137.076 391.89 131.664V138ZM391.89 107.64V115.824C391.89 121.632 390.702 125.724 388.326 127.968C383.706 132.324 378.294 132.852 372.486 132.852C360.87 132.852 355.854 128.892 355.854 120.444C355.854 111.864 361.266 107.64 372.09 107.64H391.89ZM468.769 119.916C468.769 107.508 460.717 104.34 450.157 103.284L439.861 102.36C430.885 101.436 426.925 98.4 426.925 91.668C426.925 83.748 432.601 79.392 443.161 79.392C450.157 79.392 456.097 81.24 460.981 84.804L465.469 80.316C459.793 76.092 452.005 73.584 443.161 73.584C429.301 73.584 420.325 80.58 420.325 91.668C420.325 101.7 426.661 107.244 439.465 108.3L450.025 109.224C458.473 110.148 462.169 113.184 462.169 119.916C462.169 128.496 455.569 132.852 443.029 132.852C434.053 132.852 427.057 130.212 422.173 125.064L417.553 129.684C424.021 135.888 432.205 138.792 443.293 138.792C459.001 138.792 468.769 131.532 468.769 119.916ZM492.02 107.64H536.24V104.604C536.24 85.068 526.736 73.584 510.764 73.584C494.792 73.584 485.288 85.596 485.288 106.188C485.288 127.44 494.792 138.792 512.348 138.792C522.908 138.792 528.848 135.492 535.316 129.024L530.3 125.064C524.888 130.476 520.268 132.72 512.744 132.72C499.148 132.72 492.02 123.876 492.02 107.64ZM529.508 102.228H492.02C492.416 96.024 492.812 94.308 494.264 90.216C497.036 83.484 503.372 79.524 510.764 79.524C518.156 79.524 524.492 83.484 527.264 90.216C528.98 94.044 529.112 96.156 529.508 102.228ZM593.438 138H650.462V131.664H600.566V44.016H593.438V138ZM704.617 138H711.349V94.44C711.349 81.108 703.561 73.584 686.665 73.584C676.237 73.584 669.637 75.828 664.225 83.352L669.109 87.576C673.201 81.768 677.689 79.524 686.665 79.524C699.733 79.524 704.617 84.936 704.617 95.1V102.228H684.025C670.165 102.228 661.849 108.96 661.849 120.576C661.849 125.328 663.433 129.948 666.469 132.984C670.561 137.208 675.709 138.792 685.213 138.792C694.189 138.792 699.205 137.076 704.617 131.664V138ZM704.617 107.64V115.824C704.617 121.632 703.429 125.724 701.053 127.968C696.433 132.324 691.021 132.852 685.213 132.852C673.597 132.852 668.581 128.892 668.581 120.444C668.581 111.864 673.993 107.64 684.817 107.64H704.617ZM785.852 106.188C785.852 96.156 784.136 85.596 777.668 79.128C774.368 75.828 768.824 73.584 762.092 73.584C754.832 73.584 748.892 75.168 743.216 82.56V44.016H736.484V138H743.216V129.816C748.892 137.208 754.832 138.792 762.092 138.792C768.824 138.792 774.368 136.548 777.668 133.248C784.136 126.78 785.852 116.22 785.852 106.188ZM779.12 106.188C779.12 119.388 776.744 132.852 761.168 132.852C745.592 132.852 743.216 119.388 743.216 106.188C743.216 92.988 745.592 79.524 761.168 79.524C776.744 79.524 779.12 92.988 779.12 106.188ZM907.281 89.688C907.281 77.016 907.677 62.1 898.173 52.596C892.497 46.92 884.577 44.016 874.677 44.016H843.129V138H874.677C884.577 138 892.497 135.096 898.173 129.42C907.677 119.916 907.281 102.36 907.281 89.688ZM900.153 89.688C900.153 100.248 900.549 116.616 893.157 124.404C887.745 130.08 880.485 131.664 872.961 131.664H850.257V50.352H872.961C880.485 50.352 887.745 51.936 893.157 57.612C900.549 65.4 900.153 79.128 900.153 89.688ZM978.394 106.188C978.394 97.08 977.206 87.312 970.474 80.58C965.854 75.96 960.046 73.584 952.786 73.584C945.658 73.584 939.718 75.96 935.098 80.58C928.366 87.312 927.178 97.08 927.178 106.188C927.178 115.296 928.366 125.064 935.098 131.796C939.718 136.416 945.658 138.792 952.786 138.792C960.046 138.792 965.854 136.416 970.474 131.796C977.206 125.064 978.394 115.296 978.394 106.188ZM971.662 106.188C971.662 113.58 971.266 122.16 965.986 127.44C962.422 131.004 957.934 132.852 952.786 132.852C947.638 132.852 943.15 131.004 939.586 127.44C934.306 122.16 933.91 113.58 933.91 106.188C933.91 98.796 934.306 90.216 939.586 84.936C943.15 81.372 947.638 79.524 952.786 79.524C957.934 79.524 962.422 81.372 965.986 84.936C971.266 90.216 971.662 98.796 971.662 106.188ZM1045.63 129.024L1041.01 124.8C1035.6 130.74 1031.37 132.852 1024.64 132.852C1017.38 132.852 1011.57 130.08 1007.75 124.404C1004.58 119.784 1003.39 114.768 1003.39 106.188C1003.39 97.608 1004.58 92.592 1007.75 87.972C1011.57 82.296 1017.38 79.524 1024.64 79.524C1031.37 79.524 1035.6 81.504 1041.01 87.576L1045.63 83.352C1038.9 75.828 1033.35 73.584 1024.64 73.584C1007.22 73.584 996.659 85.992 996.659 106.188C996.659 126.384 1007.22 138.792 1024.64 138.792C1033.35 138.792 1038.9 136.548 1045.63 129.024ZM1110.46 119.916C1110.46 107.508 1102.41 104.34 1091.85 103.284L1081.56 102.36C1072.58 101.436 1068.62 98.4 1068.62 91.668C1068.62 83.748 1074.3 79.392 1084.86 79.392C1091.85 79.392 1097.79 81.24 1102.68 84.804L1107.16 80.316C1101.49 76.092 1093.7 73.584 1084.86 73.584C1071 73.584 1062.02 80.58 1062.02 91.668C1062.02 101.7 1068.36 107.244 1081.16 108.3L1091.72 109.224C1100.17 110.148 1103.86 113.184 1103.86 119.916C1103.86 128.496 1097.26 132.852 1084.72 132.852C1075.75 132.852 1068.75 130.212 1063.87 125.064L1059.25 129.684C1065.72 135.888 1073.9 138.792 1084.99 138.792C1100.7 138.792 1110.46 131.532 1110.46 119.916Z" fill="white"/>
</svg>
