<svg xmlns="http://www.w3.org/2000/svg" viewBox="0 0 198.17 391.2"><defs><style>.cls-1{fill:gray;}.cls-2{fill:#fff;}.cls-3{fill:#ff6112;}</style></defs><title>Asset 3</title><g id="Layer_2" data-name="Layer 2"><g id="Layer_2-2" data-name="Layer 2"><rect class="cls-1" x="3.58" y="263.44" width="102.15" height="126.26"/><path class="cls-2" d="M107.23,391.2H2.08V261.94H107.23Zm-102.15-3h99.15V264.94H5.08Z"/><path class="cls-1" d="M85,348.14l-74.1-60a25.19,25.19,0,0,1-3.74-35.43L68.3,177.14l62.36,2.11,50.91,89.56-61.18,75.61A25.19,25.19,0,0,1,85,348.14Z"/><path class="cls-2" d="M100.77,355.24A26.56,26.56,0,0,1,84,349.31l-74.1-60a26.69,26.69,0,0,1-4-37.54L67.6,175.61l63.95,2.16.41.73L183.38,269l-61.83,76.4A26.66,26.66,0,0,1,100.77,355.24ZM69,178.66l-60.71,75A23.69,23.69,0,0,0,11.79,287l74.1,60a23.69,23.69,0,0,0,33.32-3.51l60.54-74.81-50-87.94Z"/><path class="cls-3" d="M161.78,387.31c-.27-24.52-.63-58.08-31.17-99.61-34.9-47.46-24.65-87.26-24.2-88.93l19.3,5.24-9.65-2.62,9.67,2.55c-.33,1.32-7.88,32.66,21,71.92,34.35,46.71,34.77,85.54,35.05,111.23Z"/><circle class="cls-3" cx="116.06" cy="82.11" r="82.11" transform="matrix(1, -0.01, 0.01, 1, -0.54, 0.76)"/><circle class="cls-2" cx="116.06" cy="82.11" r="60.58" transform="translate(-0.54 0.76) rotate(-0.38)"/><circle class="cls-1" cx="116.06" cy="82.11" r="22.46" transform="translate(-0.54 0.76) rotate(-0.38)"/><path class="cls-2" d="M116.06,105.57a23.46,23.46,0,0,1-.15-46.92h.16a23.46,23.46,0,0,1,.15,46.92Zm0-44.92h-.14a21.46,21.46,0,0,0,.14,42.92h.14a21.46,21.46,0,0,0-.14-42.92Z"/><circle class="cls-2" cx="116.06" cy="82.11" r="6.97" transform="translate(-0.54 0.76) rotate(-0.38)"/><rect class="cls-3" x="103.43" y="174.74" width="26.65" height="26.65" transform="translate(-1.23 0.77) rotate(-0.38)"/><path class="cls-3" d="M110.24,159.19H123a7,7,0,0,1,7,7v4.18a0,0,0,0,1,0,0H103.28a0,0,0,0,1,0,0v-4.18A7,7,0,0,1,110.24,159.19Z" transform="translate(-1.08 0.77) rotate(-0.38)"/><path class="cls-2" d="M102.32,171.43l0-5.18a8,8,0,0,1,7.91-8l12.73-.08H123a8,8,0,0,1,8,7.91l0,5.18ZM123,160.15h0l-12.73.08a6,6,0,0,0-5.92,6l0,3.18,24.65-.16,0-3.18a6,6,0,0,0-6-5.92Z"/><rect class="cls-1" x="78.99" y="193.76" width="30.89" height="26.74" rx="5.07" ry="5.07" transform="translate(-69.44 49.13) rotate(-21.54)"/><path class="cls-2" d="M87.83,225.23a6.58,6.58,0,0,1-6.11-4.16l-6.1-15.45a6.57,6.57,0,0,1,3.7-8.52l19.31-7.62a6.57,6.57,0,0,1,8.52,3.7l6.1,15.45a6.57,6.57,0,0,1-3.7,8.52l-19.31,7.62A6.57,6.57,0,0,1,87.83,225.23ZM101,192a3.55,3.55,0,0,0-1.31.25L80.43,199.9a3.56,3.56,0,0,0-2,4.63L84.52,220a3.57,3.57,0,0,0,4.63,2l19.31-7.62a3.57,3.57,0,0,0,2-4.63l-6.1-15.45A3.57,3.57,0,0,0,101,192Z"/><path class="cls-1" d="M103.3,173.77,79.35,188.13c-4.86,2.92-11.63.42-15-5.53l-3-5.32c-3.21-5.71-2.05-12.5,2.62-15.3L88,147.62c4.86-2.92,11.63-.42,15,5.53l3,5.32C109.13,164.18,108,171,103.3,173.77Z"/><path class="cls-2" d="M74.86,190.85a11.49,11.49,0,0,1-3-.39,14.68,14.68,0,0,1-8.84-7.12l-3-5.32c-3.64-6.47-2.25-14.08,3.16-17.32l23.95-14.37a10.55,10.55,0,0,1,8.21-1,14.69,14.69,0,0,1,8.84,7.12l3,5.32c3.64,6.47,2.25,14.08-3.16,17.32L80.12,189.42A10.16,10.16,0,0,1,74.86,190.85Zm17.58-43a7.19,7.19,0,0,0-3.72,1L64.78,163.27c-3.94,2.36-4.87,8.32-2.08,13.28l3,5.32a11.67,11.67,0,0,0,7,5.69,7.58,7.58,0,0,0,5.9-.71l23.95-14.37c3.94-2.36,4.87-8.32,2.08-13.28l-3-5.32a11.67,11.67,0,0,0-7-5.69A8.51,8.51,0,0,0,92.45,147.9Z"/><path class="cls-1" d="M68.11,195.55,56,226.36c-2.35,6-9.53,8.71-15.85,6L34.55,230c-6.06-2.59-9.09-9.22-6.83-15L39.79,184.2c2.35-6,9.53-8.71,15.85-6l5.63,2.41C67.33,183.18,70.36,189.81,68.11,195.55Z"/><path class="cls-2" d="M45.25,234.91a14.41,14.41,0,0,1-5.66-1.16L34,231.34c-6.85-2.93-10.21-10.34-7.64-16.88L38.4,183.65a12.44,12.44,0,0,1,6.88-7,14.14,14.14,0,0,1,11,.11l5.63,2.41c6.85,2.93,10.21,10.34,7.64,16.88L57.43,226.91a12.44,12.44,0,0,1-6.88,7A13.73,13.73,0,0,1,45.25,234.91Zm5.33-56.27a10.72,10.72,0,0,0-4.14.82,9.47,9.47,0,0,0-5.24,5.28L29.11,215.55c-2,5,.68,10.74,6,13L40.77,231a11.12,11.12,0,0,0,8.62.1,9.47,9.47,0,0,0,5.24-5.28L66.71,195c2-5-.68-10.74-6-13l-5.63-2.41A11.41,11.41,0,0,0,50.57,178.64Z"/><rect class="cls-1" x="110.62" y="211.61" width="58.06" height="26.74" rx="5.69" ry="5.69" transform="translate(-72.84 66.97) rotate(-21.54)"/><path class="cls-2" d="M120.77,247.88a7.2,7.2,0,0,1-6.7-4.55L108.43,229a7.19,7.19,0,0,1,4-9.33l43.42-17.14a7.2,7.2,0,0,1,9.33,4l5.64,14.29a7.2,7.2,0,0,1-4,9.33L123.4,247.38A7.17,7.17,0,0,1,120.77,247.88Zm37.78-42.8a4.17,4.17,0,0,0-1.54.29l-43.42,17.14a4.19,4.19,0,0,0-2.36,5.43l5.64,14.29a4.2,4.2,0,0,0,5.44,2.36l43.42-17.14a4.19,4.19,0,0,0,2.36-5.43l-5.64-14.29a4.2,4.2,0,0,0-3.9-2.65Z"/><rect class="cls-1" x="86.46" y="228.91" width="18.71" height="26.74" rx="5.73" ry="5.73" transform="matrix(0.93, -0.37, 0.37, 0.93, -82.25, 52.09)"/><path class="cls-2" d="M95.25,258a7.24,7.24,0,0,1-6.72-4.58l-5.61-14.21A7.24,7.24,0,0,1,87,229.78l6.75-2.66a7.24,7.24,0,0,1,9.38,4.07l5.61,14.21a7.23,7.23,0,0,1-4.07,9.38l-6.75,2.66A7.23,7.23,0,0,1,95.25,258Zm1.14-28.34a4.23,4.23,0,0,0-1.55.3l-6.75,2.66a4.23,4.23,0,0,0-2.38,5.48l5.61,14.21a4.23,4.23,0,0,0,5.48,2.38l6.75-2.66a4.23,4.23,0,0,0,2.38-5.48l-5.61-14.21a4.24,4.24,0,0,0-3.93-2.68Z"/><rect class="cls-1" x="166.53" y="198.94" width="10.48" height="26.74" rx="5.24" ry="5.24" transform="translate(-65.94 77.88) rotate(-21.54)"/><path class="cls-2" d="M174.76,226.61a6.75,6.75,0,0,1-6.27-4.27l-6-15.12a6.74,6.74,0,0,1,12.54-5l6,15.12a6.74,6.74,0,0,1-3.8,8.75h0A6.74,6.74,0,0,1,174.76,226.61Zm-6-25.61a3.74,3.74,0,0,0-3.48,5.12l6,15.12a3.74,3.74,0,0,0,4.85,2.11h0a3.74,3.74,0,0,0,2.11-4.85l-6-15.12a3.75,3.75,0,0,0-3.48-2.37Z"/><rect class="cls-1" x="124.36" y="244.07" width="54.37" height="26.74" rx="6.02" ry="6.02" transform="translate(-83.92 73.61) rotate(-21.54)"/><path class="cls-2" d="M134.55,279.57a7.54,7.54,0,0,1-7-4.76l-5.39-13.67a7.53,7.53,0,0,1,4.24-9.76l39.37-15.54a7.52,7.52,0,0,1,9.76,4.24l5.39,13.67a7.53,7.53,0,0,1-4.24,9.76L137.32,279A7.51,7.51,0,0,1,134.55,279.57Zm34-41.26a4.51,4.51,0,0,0-1.66.32L127.5,254.17A4.52,4.52,0,0,0,125,260l5.39,13.67a4.52,4.52,0,0,0,5.87,2.55l39.37-15.54a4.53,4.53,0,0,0,2.55-5.87l-5.39-13.67a4.53,4.53,0,0,0-4.21-2.86Z"/><rect class="cls-1" x="100.07" y="260.69" width="18.71" height="26.74" rx="5.67" ry="5.67" transform="translate(-92.97 59.3) rotate(-21.54)"/><path class="cls-2" d="M108.82,289.75a7.18,7.18,0,0,1-6.67-4.54L96.5,270.88a7.18,7.18,0,0,1,4-9.3l6.85-2.71a7.18,7.18,0,0,1,9.3,4l5.65,14.32a7.17,7.17,0,0,1-4,9.3l-6.85,2.71A7.18,7.18,0,0,1,108.82,289.75ZM110,261.37a4.15,4.15,0,0,0-1.53.29l-6.85,2.71a4.18,4.18,0,0,0-2.35,5.41l5.65,14.32a4.17,4.17,0,0,0,5.41,2.35l6.85-2.71a4.17,4.17,0,0,0,2.35-5.41L113.91,264a4.18,4.18,0,0,0-3.88-2.64Z"/><rect class="cls-1" x="176.32" y="232.22" width="10.48" height="26.74" rx="5.24" ry="5.24" transform="translate(-77.48 83.8) rotate(-21.54)"/><path class="cls-2" d="M184.56,259.89a6.75,6.75,0,0,1-6.28-4.27l-6-15.12a6.74,6.74,0,1,1,12.54-5l6,15.12a6.74,6.74,0,0,1-3.8,8.75h0A6.71,6.71,0,0,1,184.56,259.89Zm-6-25.6a3.74,3.74,0,0,0-3.48,5.12l6,15.12a3.74,3.74,0,0,0,4.85,2.11h0a3.74,3.74,0,0,0,2.11-4.85l-6-15.12A3.75,3.75,0,0,0,178.58,234.29Z"/><rect class="cls-1" x="142.38" y="275.41" width="41.58" height="26.74" rx="4.36" ry="4.36" transform="translate(-94.62 80.06) rotate(-21.54)"/><path class="cls-2" d="M151.19,309.06a5.87,5.87,0,0,1-5.45-3.71l-6.62-16.77a5.86,5.86,0,0,1,3.3-7.6L173,268.92a5.86,5.86,0,0,1,7.6,3.3L187.22,289a5.86,5.86,0,0,1-3.3,7.6l-30.58,12.07A5.86,5.86,0,0,1,151.19,309.06Zm24-37.55a2.83,2.83,0,0,0-1,.2l-30.58,12.07a2.86,2.86,0,0,0-1.61,3.7l6.62,16.77a2.86,2.86,0,0,0,3.7,1.61l30.58-12.07a2.86,2.86,0,0,0,1.61-3.7l-6.62-16.77A2.86,2.86,0,0,0,175.15,271.51Z"/><rect class="cls-1" x="117.65" y="289.69" width="18.71" height="26.74" rx="6.16" ry="6.16" transform="translate(-102.38 67.78) rotate(-21.54)"/><path class="cls-2" d="M126.68,318.6a7.68,7.68,0,0,1-7.13-4.85l-5.29-13.4a7.67,7.67,0,0,1,4.32-9.94l5.94-2.34a7.68,7.68,0,0,1,9.94,4.32l5.29,13.41a7.67,7.67,0,0,1-4.31,9.94l-5.94,2.34A7.66,7.66,0,0,1,126.68,318.6Zm.64-28.08a4.64,4.64,0,0,0-1.71.33l-5.94,2.34a4.67,4.67,0,0,0-2.63,6l5.29,13.4a4.66,4.66,0,0,0,6,2.63l5.94-2.34a4.67,4.67,0,0,0,2.63-6l-5.29-13.41A4.67,4.67,0,0,0,127.32,290.52Z"/><rect class="cls-1" x="181.94" y="265.01" width="10.48" height="26.74" rx="5.24" ry="5.24" transform="translate(-89.13 88.15) rotate(-21.54)"/><path class="cls-2" d="M190.17,292.68a6.76,6.76,0,0,1-6.28-4.27l-6-15.12a6.74,6.74,0,1,1,12.54-5l6,15.12a6.74,6.74,0,0,1-6.26,9.22Zm-6-25.6a3.75,3.75,0,0,0-3.48,5.12l6,15.12a3.74,3.74,0,1,0,7-2.75l-6-15.12a3.75,3.75,0,0,0-3.48-2.37Z"/><rect class="cls-1" x="111.74" y="175.86" width="56.11" height="26.74" rx="5.8" ry="5.8" transform="translate(-59.71 64.53) rotate(-21.54)"/><path class="cls-2" d="M121.87,211.75a7.32,7.32,0,0,1-6.79-4.63L109.52,193a7.3,7.3,0,0,1,4.11-9.47L155,167.23a7.31,7.31,0,0,1,9.47,4.11l5.55,14.08a7.31,7.31,0,0,1-4.11,9.47l-41.4,16.34A7.3,7.3,0,0,1,121.87,211.75Zm35.84-42a4.28,4.28,0,0,0-1.57.3l-41.4,16.34a4.3,4.3,0,0,0-2.42,5.58L117.87,206a4.3,4.3,0,0,0,5.58,2.42l41.4-16.34a4.31,4.31,0,0,0,2.42-5.58l-5.55-14.08A4.31,4.31,0,0,0,157.71,169.72Z"/></g></g></svg>