<svg width="224" height="170" viewBox="0 0 224 170" fill="none" xmlns="http://www.w3.org/2000/svg">
<g filter="url(#filter0_d)">
<path fill-rule="evenodd" clip-rule="evenodd" d="M120.832 97.0847C120.919 96.8694 120.988 96.6576 121.037 96.4441C121.042 96.4246 121.046 96.405 121.051 96.3855C121.114 96.1191 121.176 95.8529 121.176 95.5882C121.176 95.3888 121.155 95.1894 121.122 94.9918C121.078 94.7253 121.102 94.4588 121.176 94.2065L121.175 81.1071C120.723 81.5147 120.243 81.9153 119.71 82.3035C113.034 87.3012 99.7741 91.1765 80.5882 91.1765C61.3212 91.1765 48.0276 87.2694 41.38 82.2418C40.9388 81.9171 40.5471 81.58 40.1624 81.2412C40.1384 81.2197 40.1122 81.1986 40.0859 81.1776C40.0561 81.1536 40.0263 81.1297 40 81.1053V94.2065C40.0741 94.4588 40.0988 94.7253 40.0547 94.9918C40.0229 95.1894 40 95.3888 40 95.5882C40 95.8511 40.0619 96.1155 40.1229 96.3758C40.1278 96.3968 40.1328 96.4178 40.1376 96.4388C40.1871 96.6524 40.2559 96.8659 40.3424 97.0794C40.4147 97.2541 40.4994 97.4288 40.5947 97.6035C40.7147 97.8206 40.8471 98.0377 41.0024 98.2547C41.1188 98.4188 41.2512 98.5812 41.3888 98.7435C41.5847 98.9765 41.7929 99.2059 42.0294 99.4353C42.1607 99.565 42.3055 99.6917 42.45 99.8182L42.4882 99.8518C42.7776 100.104 43.0794 100.355 43.4165 100.604C43.5163 100.678 43.622 100.75 43.7278 100.823C43.7754 100.856 43.8229 100.888 43.87 100.921C44.2688 101.196 44.6853 101.47 45.1424 101.738C45.2172 101.783 45.2961 101.827 45.3748 101.871C45.4224 101.897 45.4699 101.923 45.5165 101.95C46.0424 102.248 46.5912 102.541 47.1841 102.827C47.2119 102.84 47.2403 102.853 47.269 102.866C47.3187 102.888 47.3689 102.911 47.4171 102.935C48.0771 103.247 48.7706 103.554 49.51 103.851C49.5312 103.859 49.5524 103.868 49.5735 103.875C53.5812 105.476 58.7077 106.822 64.6812 107.705C64.7112 107.71 64.7412 107.714 64.7712 107.717C65.9324 107.886 67.1235 108.04 68.3465 108.174C68.4471 108.185 68.5505 108.194 68.6541 108.203C68.7557 108.211 68.8574 108.22 68.9571 108.231C70.0247 108.342 71.1047 108.444 72.2165 108.525C72.5335 108.548 72.8601 108.565 73.1866 108.581C73.3834 108.591 73.5802 108.6 73.7747 108.612C73.9826 108.624 74.19 108.636 74.3974 108.648C75.0245 108.686 75.652 108.723 76.2965 108.746C77.6994 108.795 79.1288 108.824 80.5882 108.824C82.0477 108.824 83.4771 108.795 84.8782 108.751C85.5813 108.727 86.2643 108.685 86.9484 108.644C87.0988 108.635 87.2493 108.626 87.4 108.617C87.6169 108.604 87.8365 108.593 88.0559 108.582C88.3597 108.567 88.6632 108.552 88.9582 108.531C90.07 108.449 91.15 108.347 92.2177 108.236C92.3173 108.225 92.4191 108.217 92.5207 108.208C92.6242 108.199 92.7276 108.19 92.8282 108.179C94.0512 108.045 95.2424 107.894 96.4035 107.722C96.4335 107.717 96.4635 107.714 96.4935 107.71C102.467 106.828 107.594 105.481 111.601 103.881C111.612 103.876 111.622 103.872 111.633 103.868C111.644 103.864 111.654 103.86 111.665 103.856C112.404 103.559 113.096 103.252 113.758 102.94C113.773 102.933 113.787 102.926 113.802 102.92C113.866 102.891 113.929 102.862 113.991 102.832C114.584 102.546 115.132 102.252 115.658 101.955C115.697 101.934 115.735 101.912 115.774 101.891C115.862 101.842 115.949 101.794 116.032 101.744C116.489 101.475 116.906 101.202 117.305 100.926C117.338 100.904 117.371 100.881 117.404 100.858C117.525 100.775 117.645 100.693 117.758 100.609C118.095 100.36 118.397 100.109 118.686 99.8571L118.693 99.8514C118.85 99.7139 119.004 99.5781 119.145 99.4406C119.382 99.2112 119.59 98.98 119.786 98.7488C119.924 98.5865 120.056 98.4241 120.172 98.26C120.329 98.0429 120.462 97.8259 120.58 97.6088C120.675 97.4341 120.762 97.2594 120.832 97.0847ZM121.176 73.03V59.9288C121.028 60.064 120.864 60.1975 120.7 60.331C120.631 60.3875 120.562 60.4439 120.494 60.5006C120.438 60.546 120.385 60.5914 120.332 60.6367C120.261 60.6972 120.19 60.7577 120.114 60.8182C119.585 61.2365 119.013 61.6459 118.394 62.0465C118.319 62.0947 118.238 62.1424 118.158 62.1901C118.1 62.2244 118.042 62.2588 117.986 62.2935C117.467 62.6182 116.918 62.9341 116.341 63.2429C116.129 63.3576 115.914 63.4706 115.694 63.5835C115.049 63.9118 114.374 64.2294 113.662 64.54C113.614 64.5614 113.567 64.5832 113.52 64.6049C113.455 64.6349 113.39 64.6648 113.322 64.6935C112.496 65.0447 111.615 65.38 110.701 65.7047C110.54 65.7623 110.373 65.8177 110.206 65.8733C110.112 65.9046 110.018 65.9359 109.925 65.9677C109.198 66.2129 108.446 66.4476 107.668 66.6753C107.579 66.701 107.49 66.7269 107.402 66.7528C107.211 66.8087 107.021 66.8646 106.824 66.9188C105.792 67.2029 104.726 67.4765 103.607 67.7271C103.528 67.7443 103.446 67.7607 103.363 67.777C103.285 67.7924 103.208 67.8079 103.132 67.8241C102.146 68.0394 101.122 68.2388 100.071 68.4259C99.7141 68.4894 99.3524 68.5494 98.9888 68.6094C97.9865 68.7735 96.9577 68.9235 95.9006 69.0612C95.7835 69.0764 95.6687 69.0926 95.554 69.1088C95.4024 69.1301 95.2508 69.1515 95.0941 69.1706C93.7812 69.3294 92.4224 69.4671 91.0265 69.5818C90.8333 69.5975 90.6368 69.6106 90.4401 69.6236C90.2846 69.6339 90.129 69.6442 89.9747 69.6559C88.8577 69.7371 87.7159 69.8041 86.5477 69.8571L86.4969 69.8594C86.087 69.878 85.6799 69.8965 85.2647 69.9118C83.7435 69.9629 82.1941 70 80.5882 70C78.9824 70 77.433 69.9629 75.9118 69.9118C75.4864 69.8962 75.0712 69.8773 74.6545 69.8582L74.6288 69.8571C73.4606 69.8041 72.3188 69.7371 71.2018 69.6559C71.083 69.6475 70.9633 69.6395 70.8434 69.6315C70.6105 69.616 70.3772 69.6004 70.15 69.5818C68.7541 69.4653 67.3953 69.3294 66.0824 69.1706C65.9257 69.1515 65.7741 69.1301 65.6225 69.1087C65.5077 69.0926 65.393 69.0764 65.2759 69.0612C64.2188 68.9235 63.1882 68.7735 62.1876 68.6094C61.8241 68.5494 61.4624 68.4894 61.1059 68.4259C60.0541 68.2388 59.0306 68.0394 58.0441 67.8241C57.9762 67.8095 57.9063 67.7958 57.8362 67.7821C57.7461 67.7645 57.6558 67.7469 57.5694 67.7271C56.4506 67.4765 55.3847 67.2047 54.3524 66.9188C54.1574 66.8662 53.9682 66.8104 53.7791 66.7545C53.6892 66.728 53.5993 66.7015 53.5088 66.6753C52.7306 66.4476 51.9788 66.2129 51.2518 65.9677C51.1584 65.9359 51.0643 65.9046 50.9703 65.8733C50.8033 65.8177 50.6368 65.7623 50.4753 65.7047C49.5612 65.38 48.6824 65.0447 47.8547 64.6935C47.786 64.6648 47.7215 64.6349 47.6566 64.6049C47.6099 64.5832 47.5629 64.5614 47.5141 64.54C46.8029 64.2312 46.1271 63.9118 45.4829 63.5835C45.2624 63.4706 45.0488 63.3576 44.8353 63.2429C44.2582 62.9324 43.7094 62.6165 43.1906 62.2935C43.1345 62.2588 43.0765 62.2244 43.0186 62.1901C42.9382 62.1424 42.8579 62.0947 42.7829 62.0465C42.1635 61.6459 41.5918 61.2347 41.0624 60.8182C40.9761 60.7502 40.8965 60.6821 40.8168 60.614C40.7726 60.5762 40.7283 60.5384 40.6829 60.5006C40.6148 60.4439 40.5455 60.3875 40.4762 60.331C40.3125 60.1975 40.1488 60.064 40 59.9288V73.03C40.0741 73.2824 40.0988 73.5488 40.0547 73.8153C40.0229 74.0129 40 74.2124 40 74.4118C40 74.6746 40.0619 74.939 40.1229 75.1993C40.1278 75.2203 40.1328 75.2414 40.1376 75.2624C40.1871 75.4759 40.2559 75.6894 40.3424 75.9029C40.4147 76.0777 40.4994 76.2524 40.5947 76.4271C40.7147 76.6441 40.8471 76.8612 41.0024 77.0782C41.1188 77.2424 41.2512 77.4047 41.3888 77.5671C41.5847 77.8 41.7929 78.0294 42.0294 78.2588C42.1607 78.3885 42.3054 78.5152 42.4499 78.6417C42.4627 78.6529 42.4755 78.6641 42.4882 78.6753C42.7776 78.9277 43.0794 79.1782 43.4165 79.4271C43.5163 79.5013 43.622 79.5739 43.7278 79.6466C43.7754 79.6792 43.8229 79.7119 43.87 79.7447C44.2688 80.02 44.6853 80.2935 45.1424 80.5618C45.2172 80.6069 45.2961 80.6506 45.3749 80.6943C45.4225 80.7206 45.47 80.747 45.5165 80.7735C46.0424 81.0718 46.5912 81.3647 47.1841 81.6506C47.2119 81.6635 47.2403 81.6764 47.269 81.6894C47.3187 81.7119 47.3689 81.7347 47.4171 81.7582C48.0771 82.0706 48.7706 82.3776 49.51 82.6741C49.5312 82.6829 49.5524 82.6918 49.5735 82.6988C53.5812 84.2994 58.7077 85.6459 64.6812 86.5282C64.7111 86.5335 64.7411 86.537 64.771 86.5406L64.7712 86.5406C65.9324 86.71 67.1235 86.8635 68.3465 86.9977C68.4471 87.0083 68.5505 87.0172 68.6541 87.0261C68.7557 87.0349 68.8574 87.0436 68.9571 87.0541C70.0247 87.1653 71.1047 87.2677 72.2165 87.3488C72.5336 87.3719 72.8603 87.3882 73.1868 87.4044C73.3836 87.4142 73.5803 87.424 73.7747 87.4353C73.9826 87.4471 74.1899 87.4595 74.3973 87.4719C75.0244 87.5094 75.652 87.5469 76.2965 87.5694C77.6994 87.6188 79.1288 87.6471 80.5882 87.6471C82.0477 87.6471 83.4771 87.6188 84.8782 87.5747C85.5815 87.5501 86.2645 87.5089 86.9488 87.4676C87.0991 87.4586 87.2494 87.4495 87.4 87.4406C87.6168 87.4273 87.8365 87.4164 88.0559 87.4056C88.3597 87.3906 88.6631 87.3756 88.9582 87.3541C90.07 87.2729 91.15 87.1706 92.2177 87.0594C92.3173 87.0489 92.4191 87.0402 92.5206 87.0314C92.6242 87.0225 92.7276 87.0136 92.8282 87.0029C94.0512 86.8688 95.2424 86.7171 96.4035 86.5459C96.4335 86.5406 96.4635 86.5371 96.4935 86.5335C102.467 85.6512 107.594 84.3047 111.601 82.7041C111.612 82.6997 111.622 82.6958 111.633 82.6918C111.644 82.6878 111.654 82.6838 111.665 82.6794C112.404 82.3829 113.096 82.0759 113.758 81.7635C113.835 81.7282 113.915 81.6929 113.991 81.6559C114.584 81.37 115.132 81.0753 115.658 80.7788C115.697 80.7572 115.735 80.7358 115.774 80.7143C115.862 80.6658 115.949 80.6173 116.032 80.5671C116.489 80.2988 116.906 80.0253 117.305 79.75C117.338 79.7271 117.371 79.7043 117.404 79.6816C117.525 79.599 117.645 79.5168 117.758 79.4324C118.095 79.1835 118.397 78.9329 118.686 78.6806L118.693 78.6748C118.85 78.5374 119.004 78.4016 119.145 78.2641C119.382 78.0347 119.59 77.8035 119.786 77.5724C119.924 77.41 120.056 77.2477 120.172 77.0835C120.329 76.8665 120.462 76.6494 120.58 76.4324C120.675 76.2576 120.762 76.0829 120.832 75.9082C120.919 75.6929 120.988 75.4812 121.037 75.2677C121.042 75.2481 121.046 75.2286 121.051 75.209C121.114 74.9427 121.176 74.6765 121.176 74.4118C121.176 74.2124 121.155 74.0129 121.122 73.8153C121.078 73.5488 121.102 73.2824 121.176 73.03ZM121.176 53.2353C121.176 46.9741 104.509 40 80.5882 40C56.6676 40 40 46.9741 40 53.2353C40 59.4965 56.6676 66.4706 80.5882 66.4706C104.509 66.4706 121.176 59.4965 121.176 53.2353ZM121.12 117.361C121.134 117.28 121.152 117.201 121.176 117.123L121.175 102.284C120.723 102.691 120.243 103.092 119.71 103.48C113.034 108.478 99.7741 112.353 80.5882 112.353C61.3212 112.353 48.0276 108.446 41.38 103.418C40.9388 103.094 40.5471 102.756 40.1624 102.418C40.1384 102.396 40.1122 102.375 40.0859 102.354C40.0561 102.33 40.0263 102.306 40 102.282V117.13C40.0229 117.204 40.0424 117.282 40.0565 117.361C41.0571 123.465 57.5835 130 80.5882 130C103.593 130 120.119 123.465 121.12 117.361Z" fill="#FF6112"/>
<path fill-rule="evenodd" clip-rule="evenodd" d="M170.129 44.6719V66.3793C178.309 64.1935 183.445 59.6885 183.445 55.5256C183.445 51.3626 178.309 46.8576 170.129 44.6719ZM170.129 69.7378V85.8848C173.115 85.0823 175.7 83.9701 177.778 82.6783C177.784 82.6742 177.791 82.6706 177.797 82.6669C177.803 82.6633 177.809 82.6596 177.816 82.6556C178.253 82.3824 178.663 82.0995 179.054 81.8117L179.081 81.7929C179.118 81.7666 179.156 81.7401 179.192 81.7125C179.543 81.4491 179.868 81.1775 180.179 80.9043C180.202 80.8844 180.225 80.8646 180.248 80.8449C180.3 80.8001 180.351 80.7555 180.401 80.7092C180.671 80.4621 180.918 80.21 181.154 79.9564L181.213 79.8933L181.213 79.8931C181.284 79.8171 181.355 79.7414 181.422 79.6637C181.622 79.4344 181.8 79.2035 181.972 78.971L181.976 78.9656C182.068 78.839 182.16 78.7139 182.243 78.5873C182.383 78.3759 182.506 78.1629 182.622 77.9499C182.704 77.8003 182.782 77.6507 182.851 77.4995C182.944 77.2995 183.022 77.0995 183.092 76.8995C183.149 76.7385 183.2 76.5775 183.242 76.4166C183.293 76.2182 183.334 76.0231 183.363 75.8263L183.371 75.7722C183.408 75.5268 183.445 75.2816 183.445 75.0377C183.445 74.854 183.433 74.6702 183.413 74.4881C183.387 74.2426 183.401 73.997 183.445 73.7645V61.693C183.357 61.8176 183.26 61.9405 183.163 62.0636L183.163 62.0636L183.163 62.0637C183.122 62.1157 183.081 62.1677 183.041 62.2199C183.008 62.2617 182.977 62.3035 182.945 62.3453L182.945 62.3454C182.903 62.4011 182.861 62.4568 182.817 62.5125C182.503 62.8979 182.165 63.2751 181.798 63.6442C181.754 63.6887 181.706 63.7325 181.659 63.7765L181.659 63.7766C181.624 63.8082 181.59 63.8399 181.557 63.8719C181.25 64.1711 180.925 64.4621 180.583 64.7467C180.458 64.8524 180.331 64.9564 180.2 65.0605C179.819 65.3629 179.419 65.6556 178.998 65.9418C178.969 65.9615 178.941 65.9816 178.914 66.0016C178.875 66.0292 178.837 66.0568 178.796 66.0833C178.308 66.4068 177.786 66.7158 177.245 67.015C177.15 67.068 177.051 67.1191 176.952 67.1703C176.897 67.1991 176.841 67.228 176.786 67.2572C176.355 67.4833 175.911 67.6995 175.45 67.9093C175.397 67.9329 175.345 67.9568 175.293 67.9806L175.293 67.9807C175.18 68.0322 175.067 68.0837 174.951 68.1337C174.34 68.3954 173.709 68.6475 173.047 68.8784C173 68.8943 172.951 68.9093 172.902 68.9244L172.902 68.9244C172.856 68.9386 172.81 68.9528 172.766 68.9678C172.182 69.1662 171.576 69.3499 170.954 69.5223C170.743 69.5808 170.528 69.6361 170.313 69.6914C170.252 69.707 170.191 69.7225 170.129 69.7378ZM170.129 89.2593V105.397C173.115 104.594 175.7 103.482 177.778 102.19C177.784 102.186 177.791 102.183 177.797 102.179C177.803 102.175 177.809 102.172 177.816 102.168C178.253 101.895 178.663 101.612 179.054 101.324L179.081 101.305C179.118 101.279 179.156 101.252 179.192 101.225C179.543 100.961 179.868 100.69 180.179 100.416C180.202 100.397 180.225 100.377 180.248 100.357L180.248 100.357C180.3 100.312 180.351 100.268 180.401 100.221C180.671 99.9742 180.918 99.7222 181.154 99.4685L181.213 99.4054L181.213 99.4053C181.284 99.3292 181.355 99.2535 181.422 99.1758C181.622 98.9466 181.8 98.7157 181.972 98.4831L181.976 98.4777C182.068 98.3511 182.16 98.226 182.243 98.0994C182.383 97.888 182.506 97.675 182.622 97.462C182.704 97.3124 182.782 97.1628 182.851 97.0116C182.944 96.8116 183.022 96.6116 183.092 96.4116C183.149 96.2506 183.2 96.0896 183.242 95.9287C183.293 95.7303 183.334 95.5352 183.363 95.3384L183.371 95.2843C183.408 95.039 183.445 94.7937 183.445 94.5498C183.445 94.3661 183.433 94.1823 183.413 94.0002C183.387 93.7547 183.401 93.5092 183.445 93.2767L183.444 81.2068C183.177 81.5824 182.893 81.9515 182.577 82.3092C180.022 85.287 175.838 87.8323 170.129 89.2593ZM170.129 108.771V124.906C177.921 122.813 182.991 118.612 183.412 114.612C183.42 114.537 183.431 114.464 183.445 114.392L183.444 100.719C183.177 101.095 182.893 101.464 182.577 101.821C180.022 104.799 175.838 107.344 170.129 108.771Z" fill="#FF6112"/>
<path fill-rule="evenodd" clip-rule="evenodd" d="M149.87 44.6602C158.05 46.846 163.186 51.3509 163.186 55.5137C163.186 59.6766 158.05 64.1815 149.87 66.3673V44.6602ZM149.87 69.7259C149.932 69.7106 149.993 69.6951 150.054 69.6795C150.269 69.6242 150.483 69.569 150.694 69.5104C151.317 69.3381 151.923 69.1543 152.506 68.956C152.551 68.941 152.597 68.9268 152.643 68.9126L152.643 68.9125C152.692 68.8975 152.741 68.8824 152.787 68.8665C153.45 68.6356 154.08 68.3836 154.691 68.1218C154.808 68.0718 154.921 68.0203 155.033 67.9689L155.034 67.9688C155.086 67.9449 155.138 67.9211 155.191 67.8974C155.651 67.6877 156.096 67.4714 156.527 67.2454C156.582 67.2161 156.637 67.1873 156.693 67.1585C156.792 67.1073 156.89 67.0562 156.986 67.0031C157.527 66.7039 158.048 66.395 158.537 66.0714C158.578 66.045 158.616 66.0174 158.654 65.9897C158.682 65.9697 158.71 65.9497 158.739 65.9299C159.16 65.6438 159.56 65.3511 159.941 65.0487C160.071 64.9446 160.199 64.8405 160.324 64.7348C160.666 64.4503 160.991 64.1592 161.298 63.86C161.331 63.8281 161.365 63.7964 161.399 63.7647L161.399 63.7647C161.447 63.7207 161.495 63.6768 161.539 63.6324C161.905 63.2633 162.244 62.8861 162.557 62.5007C162.602 62.445 162.644 62.3892 162.686 62.3335L162.686 62.3334C162.718 62.2916 162.749 62.2498 162.782 62.208C162.822 62.1558 162.863 62.1038 162.904 62.0518L162.904 62.0517L162.904 62.0517C163.001 61.9287 163.098 61.8057 163.186 61.6812V73.7527C163.142 73.9852 163.128 74.2307 163.154 74.4763C163.173 74.6584 163.186 74.8421 163.186 75.0258C163.186 75.2697 163.149 75.515 163.112 75.7604L163.103 75.8145C163.074 76.0112 163.034 76.2063 162.982 76.4047C162.941 76.5657 162.889 76.7267 162.833 76.8876C162.763 77.0876 162.685 77.2876 162.592 77.4876C162.523 77.6388 162.444 77.7884 162.363 77.938C162.247 78.151 162.124 78.364 161.984 78.5754C161.9 78.7021 161.809 78.8271 161.716 78.9537L161.712 78.9592C161.541 79.1917 161.362 79.4226 161.163 79.6518C161.096 79.7295 161.025 79.8052 160.954 79.8813L160.953 79.8814L160.894 79.9445C160.658 80.1982 160.412 80.4502 160.141 80.6974C160.092 80.7436 160.04 80.7883 159.989 80.833C159.966 80.8528 159.943 80.8726 159.92 80.8925C159.609 81.1657 159.284 81.4372 158.933 81.7006C158.897 81.7282 158.859 81.7547 158.822 81.7811L158.795 81.7998C158.403 82.0876 157.994 82.3705 157.556 82.6437C157.55 82.6478 157.544 82.6514 157.538 82.6551C157.531 82.6587 157.525 82.6624 157.519 82.6665C155.441 83.9582 152.856 85.0703 149.87 85.8728V69.7259ZM149.87 89.2473C155.579 87.8203 159.763 85.275 162.318 82.2974C162.633 81.9396 162.918 81.5705 163.185 81.1949L163.186 93.2648C163.142 93.4973 163.128 93.7428 163.154 93.9884C163.173 94.1705 163.186 94.3542 163.186 94.538C163.186 94.7818 163.149 95.0271 163.112 95.2725L163.103 95.3266C163.074 95.5233 163.034 95.7184 162.982 95.9168C162.941 96.0778 162.889 96.2388 162.833 96.3997C162.763 96.5997 162.685 96.7997 162.592 96.9997C162.523 97.151 162.444 97.3006 162.363 97.4502C162.247 97.6632 162.124 97.8762 161.984 98.0875C161.9 98.2142 161.809 98.3393 161.716 98.4659L161.712 98.4713C161.541 98.7038 161.362 98.9347 161.163 99.164C161.096 99.2417 161.025 99.3174 160.954 99.3934L160.953 99.3936L160.894 99.4566C160.658 99.7103 160.412 99.9623 160.141 100.209C160.092 100.256 160.04 100.3 159.989 100.345L159.988 100.345C159.966 100.365 159.943 100.385 159.92 100.405C159.609 100.678 159.284 100.949 158.933 101.213C158.897 101.24 158.859 101.267 158.822 101.293L158.795 101.312C158.403 101.6 157.994 101.883 157.556 102.156C157.55 102.16 157.544 102.164 157.538 102.167C157.531 102.171 157.525 102.175 157.519 102.179C155.441 103.47 152.856 104.582 149.87 105.385V89.2473ZM149.87 108.759C155.579 107.332 159.763 104.787 162.318 101.809C162.633 101.452 162.918 101.083 163.185 100.707L163.186 114.38C163.171 114.452 163.161 114.525 163.153 114.6C162.731 118.6 157.662 122.801 149.87 124.894V108.759Z" fill="#FF6112"/>
<path fill-rule="evenodd" clip-rule="evenodd" d="M129.589 44.6592V66.3666C137.769 64.1808 142.905 59.6758 142.905 55.5129C142.905 51.3499 137.769 46.8449 129.589 44.6592ZM129.589 69.7251V85.8721C132.575 85.0696 135.16 83.9574 137.238 82.6656C137.244 82.6616 137.251 82.6579 137.257 82.6542C137.263 82.6506 137.269 82.6469 137.276 82.6429C137.713 82.3697 138.123 82.0868 138.514 81.799L138.541 81.7802C138.578 81.7539 138.616 81.7274 138.652 81.6998C139.003 81.4364 139.328 81.1648 139.639 80.8916C139.662 80.8717 139.685 80.8519 139.708 80.8322C139.76 80.7874 139.811 80.7428 139.861 80.6965C140.131 80.4494 140.378 80.1973 140.614 79.9437L140.673 79.8806L140.673 79.8805C140.744 79.8044 140.815 79.7287 140.882 79.651C141.082 79.4217 141.26 79.1908 141.432 78.9583L141.435 78.9529C141.528 78.8263 141.62 78.7012 141.703 78.5746C141.843 78.3632 141.966 78.1502 142.082 77.9372C142.164 77.7876 142.242 77.638 142.311 77.4868C142.404 77.2868 142.482 77.0868 142.552 76.8868C142.609 76.7258 142.66 76.5648 142.702 76.4039C142.753 76.2055 142.793 76.0104 142.823 75.8136L142.831 75.7595C142.868 75.5141 142.905 75.2689 142.905 75.025C142.905 74.8413 142.893 74.6575 142.873 74.4754C142.847 74.2299 142.861 73.9844 142.905 73.7518V61.6803C142.817 61.8049 142.72 61.9278 142.623 62.0509L142.623 62.0509L142.623 62.051C142.582 62.103 142.541 62.155 142.501 62.2072C142.468 62.249 142.437 62.2908 142.405 62.3326L142.405 62.3327C142.363 62.3884 142.321 62.4441 142.276 62.4998C141.963 62.8852 141.625 63.2624 141.258 63.6315C141.214 63.676 141.166 63.7199 141.119 63.7638L141.119 63.7639C141.084 63.7955 141.05 63.8272 141.017 63.8592C140.71 64.1584 140.385 64.4494 140.043 64.734C139.918 64.8397 139.791 64.9437 139.66 65.0478C139.279 65.3502 138.879 65.6429 138.458 65.9291C138.429 65.9489 138.401 65.9689 138.374 65.9889C138.335 66.0166 138.297 66.0441 138.256 66.0706C137.768 66.3941 137.246 66.7031 136.705 67.0023C136.61 67.0553 136.511 67.1064 136.412 67.1576C136.357 67.1864 136.301 67.2153 136.246 67.2445C135.815 67.4706 135.37 67.6868 134.91 67.8966C134.857 67.9202 134.805 67.9441 134.753 67.9679L134.753 67.968C134.64 68.0195 134.527 68.071 134.411 68.121C133.8 68.3827 133.169 68.6348 132.507 68.8657C132.46 68.8816 132.411 68.8966 132.362 68.9117L132.362 68.9117C132.316 68.9259 132.27 68.9401 132.226 68.9551C131.642 69.1535 131.036 69.3372 130.413 69.5096C130.202 69.5681 129.988 69.6234 129.773 69.6787C129.712 69.6943 129.65 69.7098 129.589 69.7251ZM129.589 89.2466V105.384C132.575 104.582 135.16 103.47 137.238 102.178C137.241 102.175 137.245 102.173 137.248 102.171C137.251 102.17 137.254 102.168 137.257 102.166C137.263 102.163 137.269 102.159 137.276 102.155C137.713 101.882 138.123 101.599 138.514 101.311L138.541 101.292C138.578 101.266 138.616 101.239 138.652 101.212C139.003 100.948 139.328 100.677 139.639 100.404C139.662 100.384 139.685 100.364 139.708 100.344L139.708 100.344C139.76 100.3 139.811 100.255 139.861 100.209C140.131 99.9615 140.378 99.7095 140.614 99.4558L140.673 99.3927L140.673 99.3926C140.744 99.3165 140.815 99.2408 140.882 99.1631C141.082 98.9339 141.26 98.703 141.432 98.4704L141.435 98.465C141.528 98.3384 141.62 98.2133 141.703 98.0867C141.843 97.8753 141.966 97.6623 142.082 97.4493C142.164 97.2997 142.242 97.1501 142.311 96.9989C142.404 96.7989 142.482 96.5989 142.552 96.3989C142.609 96.2379 142.66 96.077 142.702 95.916C142.753 95.7176 142.793 95.5225 142.823 95.3257L142.831 95.2716C142.868 95.0263 142.905 94.781 142.905 94.5371C142.905 94.3534 142.893 94.1696 142.873 93.9875C142.847 93.742 142.861 93.4965 142.905 93.264L142.904 81.1941C142.637 81.5697 142.353 81.9388 142.037 82.2965C139.482 85.2743 135.298 87.8196 129.589 89.2466ZM129.589 108.759V124.893C137.381 122.8 142.451 118.599 142.872 114.599C142.88 114.524 142.891 114.451 142.905 114.379L142.904 100.706C142.637 101.082 142.353 101.451 142.037 101.809C139.482 104.786 135.298 107.332 129.589 108.759Z" fill="#FF6112"/>
</g>
<defs>
<filter id="filter0_d" x="0" y="0" width="223.445" height="170" filterUnits="userSpaceOnUse" color-interpolation-filters="sRGB">
<feFlood flood-opacity="0" result="BackgroundImageFix"/>
<feColorMatrix in="SourceAlpha" type="matrix" values="0 0 0 0 0 0 0 0 0 0 0 0 0 0 0 0 0 0 127 0" result="hardAlpha"/>
<feOffset/>
<feGaussianBlur stdDeviation="20"/>
<feComposite in2="hardAlpha" operator="out"/>
<feColorMatrix type="matrix" values="0 0 0 0 1 0 0 0 0 0.380392 0 0 0 0 0.0705882 0 0 0 0.4 0"/>
<feBlend mode="normal" in2="BackgroundImageFix" result="effect1_dropShadow"/>
<feBlend mode="normal" in="SourceGraphic" in2="effect1_dropShadow" result="shape"/>
</filter>
</defs>
</svg>
