<svg width="513" height="188" viewBox="0 0 513 188" fill="none" xmlns="http://www.w3.org/2000/svg">
<path fill-rule="evenodd" clip-rule="evenodd" d="M124.312 64.9845H122.601V64.7928C122.601 62.8323 121.012 61.2431 119.052 61.2431C119.02 61.2431 118.988 61.251 118.954 61.253V60.7399C118.954 57.8391 116.604 55.4852 113.701 55.4852H110.435C108.167 55.4852 106.252 56.9287 105.516 58.9411H99.1587C98.2503 55.1039 94.8124 52.2469 90.6976 52.2469H81.9431V46.9063C86.9183 45.6685 90.6078 41.1864 90.6078 35.8298V21.2634C90.6078 16.949 88.216 13.1996 84.6902 11.2531V7.73127C84.6902 6.19198 83.4404 4.94218 81.9011 4.94218H81.1225V3.21722C81.1225 1.4683 79.703 0.0487976 77.9541 0.0487976H76.5186C74.7697 0.0487976 73.3502 1.4683 73.3502 3.21722V4.94218H66.7897V3.21722C66.7897 1.4683 65.3702 0.0487976 63.6213 0.0487976H62.1838C60.4349 0.0487976 59.0154 1.4683 59.0154 3.21722V4.94218H53.3035V3.21722C53.3035 1.4683 51.884 0.0487976 50.1351 0.0487976H48.6976C46.9487 0.0487976 45.5292 1.4683 45.5292 3.21722V4.94218H44.9961C43.4568 4.94218 42.209 6.19198 42.209 7.73127V10.722C38.0883 12.449 35.1954 16.5178 35.1954 21.2634V35.8298C35.1954 41.7733 39.7334 46.6507 45.5292 47.2038V52.2469H36.1916C32.0788 52.2469 28.6389 55.1039 27.7305 58.9411H21.0203C20.2836 56.9287 18.369 55.4852 16.103 55.4852H12.8347C9.93383 55.4852 7.57997 57.8391 7.57997 60.7399V61.253C7.54803 61.251 7.51808 61.2431 7.48414 61.2431C5.52359 61.2431 3.93439 62.8323 3.93439 64.7928V64.9845H2.2254C1.26109 64.9845 0.480469 65.7671 0.480469 66.7294V70.341C0.480469 71.3033 1.26109 72.086 2.2254 72.086H3.93439V72.2756C3.93439 74.2382 5.52359 75.8274 7.48414 75.8274C7.51808 75.8274 7.54803 75.8194 7.57997 75.8174V76.3305C7.57997 77.9576 8.33664 79.3951 9.49859 80.3594V104.768C8.32067 105.234 7.48414 106.376 7.48414 107.719V118.225C7.48414 119.57 8.32067 120.712 9.49859 121.178V125.586C8.33265 125.965 7.48414 127.047 7.48414 128.339V142.388C7.48414 143.993 8.78784 145.295 10.391 145.295H18.381C20.0261 145.295 21.3577 143.963 21.3577 142.318V139.825C21.3577 138.182 20.0261 136.85 18.381 136.85H17.3068V133.061H20.8446C22.7812 133.061 24.3484 131.493 24.3484 129.557V128.936C24.3484 127.177 23.0467 125.736 21.3577 125.484V121.385C23.0248 121.285 24.3484 119.918 24.3484 118.225V107.719C24.3484 106.03 23.0248 104.659 21.3577 104.559V78.1293H27.4869V127.405C27.4869 130.978 29.6411 134.045 32.7197 135.387V147.138C30.8171 147.537 29.3856 149.222 29.3856 151.245V159.931C29.3856 161.952 30.8171 163.639 32.7197 164.036V170.113C30.853 170.293 29.3916 171.824 29.3377 173.723H27.9082C25.9736 173.723 24.4083 175.29 24.4083 177.223V181.545C24.4083 181.561 24.4123 181.575 24.4123 181.591H21.3577V187.155H61.8724V181.591H59.0693C59.0693 181.575 59.0733 181.561 59.0733 181.545V177.223C59.0733 175.29 57.5081 173.723 55.5735 173.723H54.144C54.0861 171.701 52.437 170.077 50.4006 170.077H49.8236V164.054C51.7981 163.713 53.3035 162.004 53.3035 159.931V151.245C53.3035 149.174 51.7981 147.463 49.8236 147.122V136.109H75.7959V147.138C73.8912 147.537 72.4597 149.222 72.4597 151.245V159.931C72.4597 161.952 73.8912 163.639 75.7959 164.036V170.113C73.9312 170.293 72.4677 171.824 72.4138 173.723H70.9823C69.0497 173.723 67.4825 175.29 67.4825 177.223V181.545C67.4825 181.561 67.4865 181.575 67.4865 181.591H64.4339V187.155H104.949V181.591H102.143C102.145 181.575 102.149 181.561 102.149 181.545V177.223C102.149 175.29 100.582 173.723 98.6496 173.723H97.2202C97.1603 171.701 95.5132 170.077 93.4767 170.077H92.8998V164.054C94.8723 163.713 96.3776 162.004 96.3776 159.931V151.245C96.3776 149.174 94.8723 147.463 92.8998 147.122V135.818C96.6392 134.841 99.4023 131.449 99.4023 127.405V78.1293H105.178V104.559C103.513 104.659 102.187 106.03 102.187 107.719V118.225C102.187 119.918 103.513 121.285 105.178 121.385V125.484C103.487 125.736 102.187 127.177 102.187 128.936V129.557C102.187 131.493 103.757 133.061 105.693 133.061H109.227V136.85H108.153C106.512 136.85 105.178 138.182 105.178 139.825V142.318C105.178 143.963 106.512 145.295 108.153 145.295H116.143C117.75 145.295 119.052 143.993 119.052 142.388V128.339C119.052 127.047 118.201 125.965 117.035 125.586V121.178C118.213 120.712 119.052 119.57 119.052 118.225V107.719C119.052 106.376 118.213 105.234 117.035 104.768V80.3594C118.197 79.3951 118.954 77.9576 118.954 76.3305V75.8174C118.988 75.8194 119.02 75.8274 119.052 75.8274C121.012 75.8274 122.601 74.2382 122.601 72.2756V72.086H124.312C125.275 72.086 126.055 71.3033 126.055 70.341V66.7294C126.055 65.7671 125.275 64.9845 124.312 64.9845" fill="#CCCCCC"/>
<path fill-rule="evenodd" clip-rule="evenodd" d="M93.3067 41.0676H94.1432C95.3431 41.0676 96.3154 40.0953 96.3154 38.8955V38.588C96.4571 38.6199 96.6048 38.6399 96.7586 38.6399H98.4256C99.5557 38.6399 100.47 37.7235 100.47 36.5955V35.8388C101.602 35.7829 102.504 34.8546 102.504 33.7066V32.7583C102.56 32.7663 102.61 32.7922 102.668 32.7922H104.974C105.689 32.7922 106.268 32.2112 106.268 31.4985V30.7778C106.268 30.061 105.689 29.482 104.974 29.482H102.668C102.61 29.482 102.56 29.508 102.504 29.516V28.5656C102.504 27.4197 101.602 26.4913 100.47 26.4374V25.6787C100.47 24.5507 99.5557 23.6363 98.4256 23.6363H96.7586C96.6048 23.6363 96.4571 23.6543 96.3154 23.6862V23.3788C96.3154 22.1789 95.3431 21.2066 94.1432 21.2066H93.3067C92.1068 21.2066 91.1345 22.1789 91.1345 23.3788V38.8955C91.1345 40.0953 92.1068 41.0676 93.3067 41.0676" fill="#CCCCCC"/>
<path fill-rule="evenodd" clip-rule="evenodd" d="M20.9453 32.7931H23.2492C23.3091 32.7931 23.359 32.7651 23.4149 32.7571V33.7075C23.4149 34.8534 24.3174 35.7818 25.4494 35.8377V36.5944C25.4494 37.7244 26.3657 38.6408 27.4918 38.6408H29.1628C29.3146 38.6408 29.4623 38.6208 29.604 38.5869V38.8963C29.604 40.0942 30.5763 41.0685 31.7762 41.0685H32.6127C33.8126 41.0685 34.7869 40.0942 34.7869 38.8963V23.3777C34.7869 22.1798 33.8126 21.2055 32.6127 21.2055H31.7762C30.5763 21.2055 29.604 22.1798 29.604 23.3777V23.6851C29.4623 23.6552 29.3146 23.6352 29.1628 23.6352H27.4918C26.3657 23.6352 25.4494 24.5496 25.4494 25.6796V26.4363C24.3174 26.4922 23.4149 27.4205 23.4149 28.5665V29.5148C23.359 29.5069 23.3091 29.4829 23.2492 29.4829H20.9453C20.2325 29.4829 19.6516 30.0619 19.6516 30.7766V31.4994C19.6516 32.2121 20.2325 32.7931 20.9453 32.7931" fill="#CCCCCC"/>
<path fill-rule="evenodd" clip-rule="evenodd" d="M322.122 64.9845H320.411V64.7928C320.411 62.8323 318.822 61.2431 316.862 61.2431C316.83 61.2431 316.798 61.251 316.764 61.253V60.7399C316.764 57.8391 314.414 55.4852 311.511 55.4852H308.245C305.977 55.4852 304.062 56.9287 303.326 58.9411H296.969C296.06 55.1039 292.622 52.2469 288.508 52.2469H279.753V46.9063C284.728 45.6685 288.418 41.1864 288.418 35.8298V21.2634C288.418 16.949 286.026 13.1996 282.5 11.2531V7.73127C282.5 6.19198 281.25 4.94218 279.711 4.94218H278.933V3.21722C278.933 1.4683 277.513 0.0487976 275.764 0.0487976H274.329C272.58 0.0487976 271.16 1.4683 271.16 3.21722V4.94218H264.6V3.21722C264.6 1.4683 263.18 0.0487976 261.431 0.0487976H259.994C258.245 0.0487976 256.825 1.4683 256.825 3.21722V4.94218H251.113V3.21722C251.113 1.4683 249.694 0.0487976 247.945 0.0487976H246.508C244.759 0.0487976 243.339 1.4683 243.339 3.21722V4.94218H242.806C241.267 4.94218 240.019 6.19198 240.019 7.73127V10.722C235.898 12.449 233.005 16.5178 233.005 21.2634V35.8298C233.005 41.7733 237.543 46.6507 243.339 47.2038V52.2469H234.002C229.889 52.2469 226.449 55.1039 225.541 58.9411H218.83C218.094 56.9287 216.179 55.4852 213.913 55.4852H210.645C207.744 55.4852 205.39 57.8391 205.39 60.7399V61.253C205.358 61.251 205.328 61.2431 205.294 61.2431C203.334 61.2431 201.744 62.8323 201.744 64.7928V64.9845H200.035C199.071 64.9845 198.29 65.7671 198.29 66.7294V70.341C198.29 71.3033 199.071 72.086 200.035 72.086H201.744V72.2756C201.744 74.2382 203.334 75.8274 205.294 75.8274C205.328 75.8274 205.358 75.8194 205.39 75.8174V76.3305C205.39 77.9576 206.147 79.3951 207.309 80.3594V104.768C206.131 105.234 205.294 106.376 205.294 107.719V118.225C205.294 119.57 206.131 120.712 207.309 121.178V125.586C206.143 125.965 205.294 127.047 205.294 128.339V142.388C205.294 143.993 206.598 145.295 208.201 145.295H216.191C217.836 145.295 219.168 143.963 219.168 142.318V139.825C219.168 138.182 217.836 136.85 216.191 136.85H215.117V133.061H218.655C220.591 133.061 222.158 131.493 222.158 129.557V128.936C222.158 127.177 220.857 125.736 219.168 125.484V121.385C220.835 121.285 222.158 119.918 222.158 118.225V107.719C222.158 106.03 220.835 104.659 219.168 104.559V78.1293H225.297V127.405C225.297 130.978 227.451 134.045 230.53 135.387V147.138C228.627 147.537 227.196 149.222 227.196 151.245V159.931C227.196 161.952 228.627 163.639 230.53 164.036V170.113C228.663 170.293 227.202 171.824 227.148 173.723H225.718C223.784 173.723 222.218 175.29 222.218 177.223V181.545C222.218 181.561 222.222 181.575 222.222 181.591H219.168V187.155H259.682V181.591H256.879C256.879 181.575 256.883 181.561 256.883 181.545V177.223C256.883 175.29 255.318 173.723 253.383 173.723H251.954C251.896 171.701 250.247 170.077 248.211 170.077H247.634V164.054C249.608 163.713 251.113 162.004 251.113 159.931V151.245C251.113 149.174 249.608 147.463 247.634 147.122V136.109H273.606V147.138C271.701 147.537 270.27 149.222 270.27 151.245V159.931C270.27 161.952 271.701 163.639 273.606 164.036V170.113C271.741 170.293 270.278 171.824 270.224 173.723H268.792C266.86 173.723 265.293 175.29 265.293 177.223V181.545C265.293 181.561 265.297 181.575 265.297 181.591H262.244V187.155H302.759V181.591H299.954C299.955 181.575 299.959 181.561 299.959 181.545V177.223C299.959 175.29 298.392 173.723 296.46 173.723H295.03C294.97 171.701 293.323 170.077 291.287 170.077H290.71V164.054C292.682 163.713 294.188 162.004 294.188 159.931V151.245C294.188 149.174 292.682 147.463 290.71 147.122V135.818C294.449 134.841 297.212 131.449 297.212 127.405V78.1293H302.988V104.559C301.323 104.659 299.997 106.03 299.997 107.719V118.225C299.997 119.918 301.323 121.285 302.988 121.385V125.484C301.297 125.736 299.997 127.177 299.997 128.936V129.557C299.997 131.493 301.567 133.061 303.503 133.061H307.037V136.85H305.963C304.322 136.85 302.988 138.182 302.988 139.825V142.318C302.988 143.963 304.322 145.295 305.963 145.295H313.953C315.56 145.295 316.862 143.993 316.862 142.388V128.339C316.862 127.047 316.011 125.965 314.845 125.586V121.178C316.023 120.712 316.862 119.57 316.862 118.225V107.719C316.862 106.376 316.023 105.234 314.845 104.768V80.3594C316.007 79.3951 316.764 77.9576 316.764 76.3305V75.8174C316.798 75.8194 316.83 75.8274 316.862 75.8274C318.822 75.8274 320.411 74.2382 320.411 72.2756V72.086H322.122C323.085 72.086 323.865 71.3033 323.865 70.341V66.7294C323.865 65.7671 323.085 64.9845 322.122 64.9845" fill="#FF6112"/>
<path fill-rule="evenodd" clip-rule="evenodd" d="M291.117 41.0676H291.953C293.153 41.0676 294.125 40.0953 294.125 38.8955V38.588C294.267 38.6199 294.415 38.6399 294.569 38.6399H296.236C297.366 38.6399 298.28 37.7235 298.28 36.5955V35.8388C299.412 35.7829 300.315 34.8546 300.315 33.7066V32.7583C300.37 32.7663 300.42 32.7922 300.478 32.7922H302.784C303.499 32.7922 304.078 32.2112 304.078 31.4985V30.7778C304.078 30.061 303.499 29.482 302.784 29.482H300.478C300.42 29.482 300.37 29.508 300.315 29.516V28.5656C300.315 27.4197 299.412 26.4913 298.28 26.4374V25.6787C298.28 24.5507 297.366 23.6363 296.236 23.6363H294.569C294.415 23.6363 294.267 23.6543 294.125 23.6862V23.3788C294.125 22.1789 293.153 21.2066 291.953 21.2066H291.117C289.917 21.2066 288.945 22.1789 288.945 23.3788V38.8955C288.945 40.0953 289.917 41.0676 291.117 41.0676" fill="#FF6112"/>
<path fill-rule="evenodd" clip-rule="evenodd" d="M218.756 32.7931H221.06C221.12 32.7931 221.169 32.7651 221.225 32.7571V33.7075C221.225 34.8534 222.128 35.7818 223.26 35.8377V36.5944C223.26 37.7244 224.176 38.6408 225.302 38.6408H226.973C227.125 38.6408 227.273 38.6208 227.414 38.5869V38.8963C227.414 40.0942 228.387 41.0685 229.587 41.0685H230.423C231.623 41.0685 232.597 40.0942 232.597 38.8963V23.3777C232.597 22.1798 231.623 21.2055 230.423 21.2055H229.587C228.387 21.2055 227.414 22.1798 227.414 23.3777V23.6851C227.273 23.6552 227.125 23.6352 226.973 23.6352H225.302C224.176 23.6352 223.26 24.5496 223.26 25.6796V26.4363C222.128 26.4922 221.225 27.4205 221.225 28.5665V29.5148C221.169 29.5069 221.12 29.4829 221.06 29.4829H218.756C218.043 29.4829 217.462 30.0619 217.462 30.7766V31.4994C217.462 32.2121 218.043 32.7931 218.756 32.7931" fill="#FF6112"/>
<path fill-rule="evenodd" clip-rule="evenodd" d="M510.738 64.9845H509.027V64.7928C509.027 62.8323 507.437 61.2431 505.477 61.2431C505.445 61.2431 505.413 61.251 505.379 61.253V60.7399C505.379 57.8391 503.029 55.4852 500.126 55.4852H496.86C494.592 55.4852 492.677 56.9287 491.941 58.9411H485.584C484.675 55.1039 481.237 52.2469 477.123 52.2469H468.368V46.9063C473.343 45.6685 477.033 41.1864 477.033 35.8298V21.2634C477.033 16.949 474.641 13.1996 471.115 11.2531V7.73127C471.115 6.19198 469.865 4.94218 468.326 4.94218H467.548V3.21722C467.548 1.4683 466.128 0.0487976 464.379 0.0487976H462.944C461.195 0.0487976 459.775 1.4683 459.775 3.21722V4.94218H453.215V3.21722C453.215 1.4683 451.795 0.0487976 450.046 0.0487976H448.609C446.86 0.0487976 445.44 1.4683 445.44 3.21722V4.94218H439.729V3.21722C439.729 1.4683 438.309 0.0487976 436.56 0.0487976H435.123C433.374 0.0487976 431.954 1.4683 431.954 3.21722V4.94218H431.421C429.882 4.94218 428.634 6.19198 428.634 7.73127V10.722C424.513 12.449 421.62 16.5178 421.62 21.2634V35.8298C421.62 41.7733 426.158 46.6507 431.954 47.2038V52.2469H422.617C418.504 52.2469 415.064 55.1039 414.156 58.9411H407.445C406.709 56.9287 404.794 55.4852 402.528 55.4852H399.26C396.359 55.4852 394.005 57.8391 394.005 60.7399V61.253C393.973 61.251 393.943 61.2431 393.909 61.2431C391.949 61.2431 390.359 62.8323 390.359 64.7928V64.9845H388.65C387.686 64.9845 386.906 65.7671 386.906 66.7294V70.341C386.906 71.3033 387.686 72.086 388.65 72.086H390.359V72.2756C390.359 74.2382 391.949 75.8274 393.909 75.8274C393.943 75.8274 393.973 75.8194 394.005 75.8174V76.3305C394.005 77.9576 394.762 79.3951 395.924 80.3594V104.768C394.746 105.234 393.909 106.376 393.909 107.719V118.225C393.909 119.57 394.746 120.712 395.924 121.178V125.586C394.758 125.965 393.909 127.047 393.909 128.339V142.388C393.909 143.993 395.213 145.295 396.816 145.295H404.806C406.451 145.295 407.783 143.963 407.783 142.318V139.825C407.783 138.182 406.451 136.85 404.806 136.85H403.732V133.061H407.27C409.206 133.061 410.774 131.493 410.774 129.557V128.936C410.774 127.177 409.472 125.736 407.783 125.484V121.385C409.45 121.285 410.774 119.918 410.774 118.225V107.719C410.774 106.03 409.45 104.659 407.783 104.559V78.1293H413.912V127.405C413.912 130.978 416.066 134.045 419.145 135.387V147.138C417.242 147.537 415.811 149.222 415.811 151.245V159.931C415.811 161.952 417.242 163.639 419.145 164.036V170.113C417.278 170.293 415.817 171.824 415.763 173.723H414.333C412.399 173.723 410.833 175.29 410.833 177.223V181.545C410.833 181.561 410.837 181.575 410.837 181.591H407.783V187.155H448.297V181.591H445.494C445.494 181.575 445.498 181.561 445.498 181.545V177.223C445.498 175.29 443.933 173.723 441.999 173.723H440.569C440.511 171.701 438.862 170.077 436.826 170.077H436.249V164.054C438.223 163.713 439.729 162.004 439.729 159.931V151.245C439.729 149.174 438.223 147.463 436.249 147.122V136.109H462.221V147.138C460.316 147.537 458.885 149.222 458.885 151.245V159.931C458.885 161.952 460.316 163.639 462.221 164.036V170.113C460.356 170.293 458.893 171.824 458.839 173.723H457.407C455.475 173.723 453.908 175.29 453.908 177.223V181.545C453.908 181.561 453.912 181.575 453.912 181.591H450.859V187.155H491.374V181.591H488.569C488.571 181.575 488.575 181.561 488.575 181.545V177.223C488.575 175.29 487.007 173.723 485.075 173.723H483.645C483.585 171.701 481.938 170.077 479.902 170.077H479.325V164.054C481.297 163.713 482.803 162.004 482.803 159.931V151.245C482.803 149.174 481.297 147.463 479.325 147.122V135.818C483.064 134.841 485.827 131.449 485.827 127.405V78.1293H491.603V104.559C489.938 104.659 488.612 106.03 488.612 107.719V118.225C488.612 119.918 489.938 121.285 491.603 121.385V125.484C489.912 125.736 488.612 127.177 488.612 128.936V129.557C488.612 131.493 490.182 133.061 492.118 133.061H495.652V136.85H494.578C492.937 136.85 491.603 138.182 491.603 139.825V142.318C491.603 143.963 492.937 145.295 494.578 145.295H502.568C504.175 145.295 505.477 143.993 505.477 142.388V128.339C505.477 127.047 504.626 125.965 503.46 125.586V121.178C504.638 120.712 505.477 119.57 505.477 118.225V107.719C505.477 106.376 504.638 105.234 503.46 104.768V80.3594C504.622 79.3951 505.379 77.9576 505.379 76.3305V75.8174C505.413 75.8194 505.445 75.8274 505.477 75.8274C507.437 75.8274 509.027 74.2382 509.027 72.2756V72.086H510.738C511.7 72.086 512.48 71.3033 512.48 70.341V66.7294C512.48 65.7671 511.7 64.9845 510.738 64.9845" fill="#808080"/>
<path fill-rule="evenodd" clip-rule="evenodd" d="M479.731 41.0676H480.568C481.768 41.0676 482.74 40.0953 482.74 38.8955V38.588C482.882 38.6199 483.03 38.6399 483.183 38.6399H484.85C485.98 38.6399 486.895 37.7235 486.895 36.5955V35.8388C488.027 35.7829 488.929 34.8546 488.929 33.7066V32.7583C488.985 32.7663 489.035 32.7922 489.093 32.7922H491.399C492.114 32.7922 492.693 32.2112 492.693 31.4985V30.7778C492.693 30.061 492.114 29.482 491.399 29.482H489.093C489.035 29.482 488.985 29.508 488.929 29.516V28.5656C488.929 27.4197 488.027 26.4913 486.895 26.4374V25.6787C486.895 24.5507 485.98 23.6363 484.85 23.6363H483.183C483.03 23.6363 482.882 23.6543 482.74 23.6862V23.3788C482.74 22.1789 481.768 21.2066 480.568 21.2066H479.731C478.531 21.2066 477.559 22.1789 477.559 23.3788V38.8955C477.559 40.0953 478.531 41.0676 479.731 41.0676" fill="#808080"/>
<path fill-rule="evenodd" clip-rule="evenodd" d="M407.37 32.7931H409.674C409.734 32.7931 409.784 32.7651 409.84 32.7571V33.7075C409.84 34.8534 410.742 35.7818 411.874 35.8377V36.5944C411.874 37.7244 412.791 38.6408 413.917 38.6408H415.588C415.74 38.6408 415.887 38.6208 416.029 38.5869V38.8963C416.029 40.0942 417.001 41.0685 418.201 41.0685H419.038C420.238 41.0685 421.212 40.0942 421.212 38.8963V23.3777C421.212 22.1798 420.238 21.2055 419.038 21.2055H418.201C417.001 21.2055 416.029 22.1798 416.029 23.3777V23.6851C415.887 23.6552 415.74 23.6352 415.588 23.6352H413.917C412.791 23.6352 411.874 24.5496 411.874 25.6796V26.4363C410.742 26.4922 409.84 27.4205 409.84 28.5665V29.5148C409.784 29.5069 409.734 29.4829 409.674 29.4829H407.37C406.658 29.4829 406.077 30.0619 406.077 30.7766V31.4994C406.077 32.2121 406.658 32.7931 407.37 32.7931" fill="#808080"/>
</svg>
