<svg xmlns="http://www.w3.org/2000/svg" viewBox="0 0 174.05 174.05"><defs><style>.cls-1{fill:#ff6112;}.cls-2{fill:#fff;}</style></defs><title>Asset 2</title><g id="Layer_2" data-name="Layer 2"><g id="Layer_2-2" data-name="Layer 2"><polygon class="cls-1" points="80.64 96.96 93.55 96.96 86.84 82.46 80.64 96.96"/><circle class="cls-1" cx="114.76" cy="68.64" r="1.96"/><path class="cls-1" d="M42.73,80.4h88.1a7.34,7.34,0,0,0,7.34-7.34V64a7.34,7.34,0,0,0-7.34-7.34H42.73A7.34,7.34,0,0,0,35.39,64v9A7.34,7.34,0,0,0,42.73,80.4Zm72-19.34a7.58,7.58,0,1,1-7.58,7.58A7.59,7.59,0,0,1,114.76,61.06Zm-54.15,0A7.58,7.58,0,1,1,53,68.64,7.59,7.59,0,0,1,60.61,61.06Z"/><path class="cls-1" d="M26.21,130.94H149A18.46,18.46,0,0,1,160,134.52a87,87,0,1,0-145.46.6A18.48,18.48,0,0,1,26.21,130.94Zm137-42.57V66.47H167a3.63,3.63,0,0,1,3.62,3.62v24.6A3.63,3.63,0,0,1,167,98.32h-3.77ZM151,64.91A3.92,3.92,0,0,1,154.9,61h1.88a3.92,3.92,0,0,1,3.91,3.89v35a3.92,3.92,0,0,1-3.91,3.89H154.9A3.92,3.92,0,0,1,151,99.88ZM124.62,128.5H49.16v-8.59h75.47ZM110.91,18.35a6.16,6.16,0,0,1,6.16-6.16h3.24a6.16,6.16,0,0,1,6.16,6.16v2.91H110.91Zm-32.3,0a6.16,6.16,0,0,1,6.16-6.16H88a6.16,6.16,0,0,1,6.16,6.16v2.91H78.62Zm-30.39,0a6.16,6.16,0,0,1,6.16-6.16h3.24a6.16,6.16,0,0,1,6.16,6.16v2.91H48.23ZM40.75,29.09a5.31,5.31,0,0,1,5.3-5.3H129.2a5.31,5.31,0,0,1,5.3,5.3v6.36a26.45,26.45,0,0,0-6.58-2.14c-.32-.06-.65-.1-1-.15s-.65-.11-1-.15a26.76,26.76,0,0,0-2.89-.16H49.71c-.34,0-.68,0-1,.05l-1,.05c-.33,0-.67,0-1,.08a26.45,26.45,0,0,0-5.94,1.4ZM24.95,60.14A24.77,24.77,0,0,1,38.78,38c.33-.16.65-.33,1-.47s.65-.27,1-.4a24.54,24.54,0,0,1,6.8-1.6c.38,0,.77,0,1.16-.06s.67-.05,1-.05h73.36c.55,0,1.08,0,1.62.08s.8,0,1.2.09.75.11,1.12.17a24.54,24.54,0,0,1,7.49,2.47c.33.17.66.36,1,.55s.66.39,1,.6a24.75,24.75,0,0,1,11.37,20.8V93a24.89,24.89,0,0,1-24.76,24.76H49.71c-.83,0-1.65,0-2.46-.12A24.8,24.8,0,0,1,24.95,93ZM9.82,76.42v21.9H6a3.63,3.63,0,0,1-3.62-3.62V70.09A3.63,3.63,0,0,1,6,66.47H9.82Zm2.53,23.46v-35A3.92,3.92,0,0,1,16.26,61h1.88a3.92,3.92,0,0,1,3.91,3.91v35a3.92,3.92,0,0,1-3.91,3.91H16.26a3.92,3.92,0,0,1-3.91-3.89Z"/><path class="cls-1" d="M98,101.45H76.45a2.34,2.34,0,1,0,0,4.69H98a2.34,2.34,0,0,0,0-4.69Z"/><circle class="cls-1" cx="60.61" cy="68.64" r="1.96"/><path class="cls-1" d="M31.58,151.52a9.21,9.21,0,0,1,4.87-1.41H138a9.21,9.21,0,0,1,4.87,1.41,9.49,9.49,0,0,1,1.39,1.07q.91-.79,1.79-1.61a11.36,11.36,0,0,0-3.18-2.29,11.17,11.17,0,0,0-4.87-1.12H36.45a11.17,11.17,0,0,0-4.87,1.12,11.36,11.36,0,0,0-3.35,2.48q.88.81,1.78,1.59A9.49,9.49,0,0,1,31.58,151.52Z"/><path class="cls-2" d="M63.78,18.35a6.16,6.16,0,0,0-6.16-6.16H54.39a6.16,6.16,0,0,0-6.16,6.16v2.91H63.78Z"/><path class="cls-2" d="M94.17,18.35A6.16,6.16,0,0,0,88,12.2H84.77a6.16,6.16,0,0,0-6.16,6.16v2.91H94.17Z"/><path class="cls-2" d="M126.46,18.35a6.16,6.16,0,0,0-6.16-6.16h-3.24a6.16,6.16,0,0,0-6.16,6.16v2.91h15.55Z"/><path class="cls-2" d="M167,98.32a3.63,3.63,0,0,0,3.62-3.62V70.09A3.63,3.63,0,0,0,167,66.47h-3.77V98.31H167Z"/><path class="cls-2" d="M154.9,103.79h1.88a3.92,3.92,0,0,0,3.91-3.89v-35A3.92,3.92,0,0,0,156.78,61H154.9A3.92,3.92,0,0,0,151,64.91v35A3.92,3.92,0,0,0,154.9,103.79Z"/><path class="cls-2" d="M6,66.47a3.63,3.63,0,0,0-3.62,3.62v24.6A3.63,3.63,0,0,0,6,98.32H9.82V66.47H6Z"/><path class="cls-2" d="M129.3,130.94H26.21a18.48,18.48,0,0,0-11.72,4.18,87.47,87.47,0,0,0,13.73,16.06,11.36,11.36,0,0,1,3.35-2.48,11.17,11.17,0,0,1,4.87-1.12H138a11.17,11.17,0,0,1,4.87,1.12A11.36,11.36,0,0,1,146,151,87.47,87.47,0,0,0,160,134.52,18.46,18.46,0,0,0,149,130.94Z"/><path class="cls-1" d="M138,150.11H36.45a9.21,9.21,0,0,0-4.87,1.41A9.49,9.49,0,0,0,30,152.77a87,87,0,0,0,114.25-.17,9.49,9.49,0,0,0-1.39-1.07A9.21,9.21,0,0,0,138,150.11Z"/><path class="cls-2" d="M47.68,33l1-.05c.34,0,.68-.05,1-.05h73.36A26.76,26.76,0,0,1,126,33c.33,0,.66.1,1,.15s.65.09,1,.15a26.45,26.45,0,0,1,6.58,2.14V29.09a5.31,5.31,0,0,0-5.3-5.3H46a5.31,5.31,0,0,0-5.3,5.3v5.34A26.45,26.45,0,0,1,46.69,33C47,33,47.35,33,47.68,33Z"/><path class="cls-2" d="M16.26,103.79h1.88a3.92,3.92,0,0,0,3.91-3.91v-35A3.92,3.92,0,0,0,18.15,61H16.26a3.92,3.92,0,0,0-3.91,3.89v35A3.92,3.92,0,0,0,16.26,103.79Z"/><path class="cls-2" d="M60.61,76.23A7.58,7.58,0,1,0,53,68.64,7.59,7.59,0,0,0,60.61,76.23Zm0-9.54a2,2,0,1,1-2,2A2,2,0,0,1,60.61,66.68Z"/><path class="cls-2" d="M114.76,76.23a7.58,7.58,0,1,0-7.58-7.58A7.59,7.59,0,0,0,114.76,76.23Zm0-9.54a2,2,0,1,1-2,2A2,2,0,0,1,114.76,66.68Z"/><path class="cls-2" d="M47.25,117.61c.81.08,1.63.12,2.46.12h73.36A24.89,24.89,0,0,0,147.84,93V60.14a24.75,24.75,0,0,0-11.37-20.8c-.32-.21-.65-.4-1-.6s-.65-.38-1-.55A24.54,24.54,0,0,0,127,35.72c-.37-.06-.74-.13-1.12-.17s-.8-.06-1.2-.09-1.07-.08-1.62-.08H49.71c-.34,0-.67,0-1,.05s-.78,0-1.16.06a24.54,24.54,0,0,0-6.8,1.6c-.33.13-.66.25-1,.4s-.66.31-1,.47A24.77,24.77,0,0,0,24.95,60.14V93A24.8,24.8,0,0,0,47.25,117.61ZM98,106.13H76.45a2.34,2.34,0,1,1,0-4.69H98a2.34,2.34,0,0,1,0,4.69ZM80.63,97l6.2-14.5L93.55,97ZM35.39,64a7.34,7.34,0,0,1,7.34-7.34h88.1A7.34,7.34,0,0,1,138.17,64v9a7.34,7.34,0,0,1-7.34,7.34H42.73a7.34,7.34,0,0,1-7.34-7.34Z"/><rect class="cls-2" x="49.16" y="119.91" width="75.47" height="8.59"/></g></g></svg>