<svg xmlns="http://www.w3.org/2000/svg" viewBox="0 0 302.26 447.67"><defs><style>.cls-1{fill:#ff6112;}.cls-2{fill:gray;}</style></defs><title>Asset 4</title><g id="Layer_2" data-name="Layer 2"><g id="Layer_2-2" data-name="Layer 2"><path class="cls-1" d="M126.33,6.57A6.58,6.58,0,0,0,119.76,0h-3.45a6.58,6.58,0,0,0-6.57,6.57v3.1h16.59Z"/><path class="cls-1" d="M195.22,288.23,185,293.78l-7.91-5.44a2.1,2.1,0,0,0-2.28-.06l-9.54,5.79-7.87-5.7a2.1,2.1,0,0,0-2.59.11l-11.92,10.2-12-10.2a2.1,2.1,0,0,0-2.72,0L122,293.77,112.67,285a2.06,2.06,0,0,0-1.54-.56,2.09,2.09,0,0,0-1.47.71L96.36,300.38,86.2,293.46v5.07h0l9.33,6.36a2.09,2.09,0,0,0,2.76-.35l13.11-15,9.14,8.55a2.1,2.1,0,0,0,2.79.06l6.24-5.35,12,10.2a2.1,2.1,0,0,0,2.72,0l12-10.29,7.66,5.55a2.09,2.09,0,0,0,2.32.09l9.57-5.81,7.85,5.4a2.09,2.09,0,0,0,2.19.11l10.15-5.53,17.46,12.71a5.26,5.26,0,0,0,2.7-3.22l-18.76-13.66A2.1,2.1,0,0,0,195.22,288.23Z"/><path class="cls-1" d="M138,193.33H110.33V206H138Zm-18.92,8.22h-6v-3.81h6Zm8.23,0h-6v-3.81h6Zm7.86,0h-6v-3.81h6Z"/><path class="cls-1" d="M163.23,244.81,175.78,235a2.09,2.09,0,0,1,2.51-.06l12.62,9V227H163.23Z"/><path class="cls-2" d="M117.29,351.26a11,11,0,0,1,1.73.17V327.06H86.25a21.83,21.83,0,0,1-8.34-1.66v26.06a11.11,11.11,0,0,1,2.07-.21Z"/><path class="cls-2" d="M80,394.41a11.11,11.11,0,0,1-2.07-.21v12.5c.29,0,.57-.09.87-.09H119V394.23a11,11,0,0,1-1.73.17Z"/><path class="cls-2" d="M70.93,362.39v20.88a9.15,9.15,0,0,0,9,9h37.31a9.09,9.09,0,0,0,9-9V362.39a9.09,9.09,0,0,0-9-9H80a9.15,9.15,0,0,0-9,9Z"/><path class="cls-2" d="M77.9,415.38h50.34a8,8,0,0,0-7.84-6.67H78.77a7.81,7.81,0,0,0-.87.09,8,8,0,0,0-7,6.58Z"/><path class="cls-2" d="M140.2,424.84a7.37,7.37,0,0,0-7.37-7.37H66.33A7.37,7.37,0,0,0,59,424.84v9.45H140.2Z"/><polygon class="cls-2" points="141.13 436.38 140.09 436.38 59.08 436.38 58.04 436.38 56.99 436.38 51.63 436.38 51.63 447.67 146.93 447.67 146.93 436.38 142.18 436.38 141.13 436.38"/><path class="cls-2" d="M183.52,394.41a11.11,11.11,0,0,1-2.07-.21v12.5c.29,0,.57-.09.87-.09h40.25V394.23a11,11,0,0,1-1.73.17Z"/><path class="cls-2" d="M220.83,351.26a11,11,0,0,1,1.73.17v-25a21.88,21.88,0,0,1-5.29.67H181.45v24.41a11.11,11.11,0,0,1,2.07-.21Z"/><path class="cls-2" d="M174.48,362.39v20.88a9.15,9.15,0,0,0,9,9h37.31a9.09,9.09,0,0,0,9-9V362.39a9.09,9.09,0,0,0-9-9H183.52a9.15,9.15,0,0,0-9,9Z"/><path class="cls-2" d="M181.45,415.38h50.35a8,8,0,0,0-7.85-6.67H182.31a7.8,7.8,0,0,0-.87.09,8,8,0,0,0-7,6.58Z"/><path class="cls-2" d="M173.29,417.47h-3.41a7.37,7.37,0,0,0-7.37,7.37v9.45h81.24v-9.45a7.37,7.37,0,0,0-7.37-7.37H173.29Z"/><polygon class="cls-2" points="244.68 436.38 243.63 436.38 162.63 436.38 161.58 436.38 160.53 436.38 155.18 436.38 155.18 447.67 250.47 447.67 250.47 436.38 245.72 436.38 244.68 436.38"/><path class="cls-2" d="M264.71,196a13.7,13.7,0,0,1-12.63-8.44v61.57c.15,0,.3,0,.45,0h25.25a8.59,8.59,0,0,1,2.8.5V193.37a13.59,13.59,0,0,1-8,2.62Z"/><path class="cls-2" d="M278.43,299.3a7.91,7.91,0,0,1,2.15.33v-8.42a8.58,8.58,0,0,1-2.8.5H252.53c-.15,0-.3,0-.45,0v7.76a9.34,9.34,0,0,1,1.23-.12Z"/><path class="cls-2" d="M298.07,155H295v17.07h3.06a4.19,4.19,0,0,0,4.19-4.19v-8.68A4.19,4.19,0,0,0,298.07,155Z"/><path class="cls-2" d="M286.24,147.18V180a7.47,7.47,0,0,0,6.67-7.4v-18A7.47,7.47,0,0,0,286.24,147.18Z"/><path class="cls-2" d="M0,159.24v8.68a4.19,4.19,0,0,0,4.19,4.19H7.26V155H4.19A4.19,4.19,0,0,0,0,159.24Z"/><path class="cls-2" d="M9.35,154.58v18A7.47,7.47,0,0,0,16,180v-32.8A7.47,7.47,0,0,0,9.35,154.58Z"/><path class="cls-2" d="M251.74,140.51H238.68a21.92,21.92,0,0,1,.55,4.84v41.29h12.5a13.6,13.6,0,0,1-.71-4.33V144.84A13.59,13.59,0,0,1,251.74,140.51Z"/><path class="cls-2" d="M253.12,144.84v37.47a11.61,11.61,0,0,0,11.58,11.58h7.85a11.62,11.62,0,0,0,11.58-11.58V144.84a11.6,11.6,0,0,0-11.58-11.58h-7.85a11.61,11.61,0,0,0-11.58,11.58Z"/><path class="cls-2" d="M280.58,251.82a6.52,6.52,0,0,0-2.8-.65H252.53c-.15,0-.3,0-.45,0a6.58,6.58,0,0,0-6.14,6.55V283a6.58,6.58,0,0,0,6.14,6.55c.15,0,.3,0,.45,0h25.25a6.52,6.52,0,0,0,2.8-.65,6.59,6.59,0,0,0,3.8-5.95V257.77A6.59,6.59,0,0,0,280.58,251.82Z"/><path class="cls-2" d="M280.58,301.81a5.89,5.89,0,0,0-2.15-.42H253.31a7.28,7.28,0,0,0-1.23.13,7.37,7.37,0,0,0-6.14,7.25v1.49a7.38,7.38,0,0,0,7.38,7.38h9.55v11.21h-3.63a6.11,6.11,0,0,0-6.1,6.1v6a6.11,6.11,0,0,0,6.1,6.1h19.21a6,6,0,0,0,5.94-5.94V307.33A5.94,5.94,0,0,0,280.58,301.81Z"/><path class="cls-2" d="M38,196H30.1a13.59,13.59,0,0,1-8-2.62v56.21a8.57,8.57,0,0,1,2.8-.5H50.14c.15,0,.3,0,.45,0V187.55A13.7,13.7,0,0,1,38,196Z"/><path class="cls-2" d="M24.88,291.71a8.57,8.57,0,0,1-2.8-.5v8.42a7.92,7.92,0,0,1,2.15-.33H49.35a9.34,9.34,0,0,1,1.23.12v-7.76c-.15,0-.3,0-.45,0Z"/><path class="cls-2" d="M50.92,186.64H64.27V145.35a21.92,21.92,0,0,1,.55-4.84H50.92a13.6,13.6,0,0,1,.71,4.33v37.47A13.6,13.6,0,0,1,50.92,186.64Z"/><path class="cls-2" d="M196.22,112.67a28.41,28.41,0,0,1-6.64.81H111.32c-.89,0-1.76-.05-2.63-.13v10h87.53Z"/><path class="cls-2" d="M158.74,6.57A6.57,6.57,0,0,0,152.18,0h-3.45a6.57,6.57,0,0,0-6.57,6.57v3.1h16.59Z"/><path class="cls-2" d="M193.2,6.57A6.57,6.57,0,0,0,186.63,0h-3.45a6.57,6.57,0,0,0-6.57,6.57v3.1H193.2Z"/><path class="cls-2" d="M254.69,74.55V72.81a3.11,3.11,0,0,0-3.11-3.11h-4.89v8h4.89A3.11,3.11,0,0,0,254.69,74.55Z"/><path class="cls-2" d="M244.6,79.86V67.5a4.09,4.09,0,0,0-2.79-3.86V83.73A4.09,4.09,0,0,0,244.6,79.86Z"/><path class="cls-2" d="M235.84,90.67a3.87,3.87,0,0,0,3.87-3.87V60.56a3.87,3.87,0,0,0-3.87-3.87h-4v34h4Z"/><path class="cls-1" d="M223.54,96.51h2a4.18,4.18,0,0,0,4.17-4.15V55a4.18,4.18,0,0,0-4.17-4.15h-2A4.18,4.18,0,0,0,219.36,55v37.3A4.18,4.18,0,0,0,223.54,96.51Z"/><path class="cls-2" d="M49.6,77.66h4.89v-8H49.6a3.11,3.11,0,0,0-3.11,3.11v1.73A3.11,3.11,0,0,0,49.6,77.66Z"/><path class="cls-2" d="M59.38,83.73V63.64a4.09,4.09,0,0,0-2.79,3.86V79.86A4.09,4.09,0,0,0,59.38,83.73Z"/><path class="cls-2" d="M65.34,90.67h4v-34h-4a3.87,3.87,0,0,0-3.87,3.87V86.8A3.87,3.87,0,0,0,65.34,90.67Z"/><path class="cls-2" d="M108.69,125.47H86.25a20,20,0,0,0-19.88,19.88V305.08A19.95,19.95,0,0,0,86.25,325h131a20,20,0,0,0,19.88-19.88V145.35a20,20,0,0,0-19.88-19.88H108.69ZM216.46,300.55a5.22,5.22,0,0,1-.24,1.49h0a5.32,5.32,0,0,1-5,3.79H91.48a5.28,5.28,0,0,1-5.28-5.28v-2h0v-5.07h0v-4a5.28,5.28,0,0,1,5.28-5.28h119.7a5.28,5.28,0,0,1,5.28,5.28Zm-5.77-156.13a12,12,0,0,1,6.81,10.81v106.2a12,12,0,0,1-12,12H97.17a12,12,0,0,1-12-12V155.23a12.06,12.06,0,0,1,12-12H205.49A11.92,11.92,0,0,1,210.69,144.42Z"/><polygon class="cls-2" points="86.2 293.46 86.2 293.46 86.2 298.53 86.2 298.53 86.2 298.53 86.2 293.46"/><path class="cls-2" d="M214.43,304.68a5.26,5.26,0,0,0,1.79-2.64h0A5.26,5.26,0,0,1,214.43,304.68Z"/><path class="cls-2" d="M30.1,193.9H38a11.61,11.61,0,0,0,11.58-11.58V144.84A11.61,11.61,0,0,0,38,133.26H30.1a11.6,11.6,0,0,0-11.58,11.58v37.47A11.62,11.62,0,0,0,30.1,193.9Z"/><path class="cls-2" d="M22.09,289a6.52,6.52,0,0,0,2.8.65H50.14c.15,0,.3,0,.45,0A6.58,6.58,0,0,0,56.73,283V257.77a6.58,6.58,0,0,0-6.14-6.55c-.15,0-.3,0-.45,0H24.88a6.66,6.66,0,0,0-6.59,6.59V283A6.59,6.59,0,0,0,22.09,289Z"/><path class="cls-2" d="M43.44,328.84H39.81V317.63h9.55a7.38,7.38,0,0,0,7.38-7.38v-1.49a7.37,7.37,0,0,0-6.14-7.25,7.29,7.29,0,0,0-1.23-.12H24.23a6,6,0,0,0-5.94,5.94V341.1A6,6,0,0,0,24.23,347H43.44a6.11,6.11,0,0,0,6.1-6.1v-6A6.11,6.11,0,0,0,43.44,328.84Z"/><path class="cls-2" d="M92,146.82a9.89,9.89,0,0,0-4.72,8.41v106.2a9.93,9.93,0,0,0,9.92,9.92H205.49a9.93,9.93,0,0,0,9.92-9.92V155.23a10,10,0,0,0-9.92-9.92H97.17A9.82,9.82,0,0,0,92,146.82Zm65.82,19.32a6.24,6.24,0,0,1,6.24-6.24h26.07a6.24,6.24,0,0,1,6.25,6.24v84.38a6.25,6.25,0,0,1-6.25,6.25H164a6.24,6.24,0,0,1-6.24-6.25Zm-52.9,0a6.24,6.24,0,0,1,6.24-6.24H137.2a6.24,6.24,0,0,1,6.25,6.24v84.38a6.24,6.24,0,0,1-6.25,6.25H111.13a6.24,6.24,0,0,1-6.24-6.25Z"/><path class="cls-2" d="M138,168.17a4.14,4.14,0,0,0-4.14-4.14h-2.45v25.26H138Z"/><path class="cls-2" d="M117.24,164h-2.77a4.14,4.14,0,0,0-4.14,4.14v21.12h6.91Z"/><rect class="cls-2" x="120.93" y="164.03" width="6.79" height="25.26"/><path class="cls-2" d="M111.62,249.12a2,2,0,0,1-.47.24,5.8,5.8,0,0,0,5,2.89h16a5.82,5.82,0,0,0,5.35-3.53l-13.31-9.48Z"/><path class="cls-2" d="M110.33,244.81,122.88,235a2.09,2.09,0,0,1,2.51-.06l12.62,9V227H110.33Z"/><rect class="cls-2" x="120.93" y="210.21" width="6.79" height="12.63"/><rect class="cls-2" x="131.41" y="210.21" width="6.59" height="12.63"/><rect class="cls-2" x="110.33" y="210.21" width="6.91" height="12.63"/><path class="cls-2" d="M170.14,164h-2.77a4.14,4.14,0,0,0-4.14,4.14v21.12h6.91Z"/><path class="cls-2" d="M190.91,168.17a4.14,4.14,0,0,0-4.14-4.14h-2.45v25.26h6.59Z"/><rect class="cls-2" x="173.83" y="164.03" width="6.79" height="25.26"/><path class="cls-2" d="M164.52,249.12a2,2,0,0,1-.47.24,5.8,5.8,0,0,0,5,2.89h16a5.82,5.82,0,0,0,5.35-3.53l-13.31-9.48Z"/><path class="cls-2" d="M190.91,193.33H163.23V206h27.68ZM172,201.54h-6v-3.81h6Zm8.23,0h-6v-3.81h6Zm7.86,0h-6v-3.81h6Z"/><rect class="cls-2" x="163.23" y="210.21" width="6.91" height="12.63"/><rect class="cls-2" x="184.32" y="210.21" width="6.59" height="12.63"/><rect class="cls-2" x="173.83" y="210.21" width="6.79" height="12.63"/><path class="cls-2" d="M109.16,21.54l1.08-.05c.36,0,.72-.06,1.09-.06h78.26a28.56,28.56,0,0,1,3.08.17c.36,0,.7.11,1.05.16s.7.1,1,.16a28.22,28.22,0,0,1,7,2.28V17.42a5.66,5.66,0,0,0-5.66-5.66H107.41a5.66,5.66,0,0,0-5.66,5.66v5.7a28.22,28.22,0,0,1,6.34-1.49C108.44,21.59,108.8,21.57,109.16,21.54Z"/><path class="cls-1" d="M77.64,50.86h-2A4.18,4.18,0,0,0,71.46,55V92.36a4.18,4.18,0,0,0,4.17,4.15h2a4.18,4.18,0,0,0,4.17-4.17V55A4.18,4.18,0,0,0,77.64,50.86Z"/><path class="cls-2" d="M123,50.92A8.09,8.09,0,1,0,131,59,8.1,8.1,0,0,0,123,50.92Zm0,10.18A2.09,2.09,0,1,1,125,59,2.09,2.09,0,0,1,123,61.1Z"/><path class="cls-2" d="M180.72,50.92A8.09,8.09,0,1,0,188.81,59,8.1,8.1,0,0,0,180.72,50.92Zm0,10.18A2.09,2.09,0,1,1,182.81,59,2.09,2.09,0,0,1,180.72,61.1Z"/><polygon class="cls-1" points="154.96 87.22 151 78.67 147.34 87.22 154.96 87.22"/><path class="cls-2" d="M203.87,27.76c-.34-.22-.69-.43-1-.64s-.69-.4-1-.59a26.18,26.18,0,0,0-8-2.64c-.4-.06-.79-.14-1.2-.18s-.85-.07-1.28-.1-1.15-.09-1.73-.09H111.32c-.36,0-.71,0-1.07.05s-.83,0-1.24.06a26.18,26.18,0,0,0-7.26,1.7c-.35.14-.7.27-1,.42s-.7.33-1,.51A26.42,26.42,0,0,0,84.9,49.94V85a26.45,26.45,0,0,0,23.79,26.29c.86.09,1.74.13,2.63.13h78.26A26.55,26.55,0,0,0,216,85v-35A26.4,26.4,0,0,0,203.87,27.76ZM162.8,99h-23a2.5,2.5,0,0,1,0-5h23a2.5,2.5,0,0,1,0,5Zm-18.49-9.79,6.62-15.47,7.17,15.47Zm61.38-25.5a7.83,7.83,0,0,1-7.83,7.83h-94A7.83,7.83,0,0,1,96,63.72V54.06a7.83,7.83,0,0,1,7.83-7.83h94a7.83,7.83,0,0,1,7.83,7.83Z"/></g></g></svg>