<?xml version="1.0" encoding="utf-8"?>
<!-- Generator: Adobe Illustrator 23.0.4, SVG Export Plug-In . SVG Version: 6.00 Build 0)  -->
<svg version="1.1" id="Layer_1" xmlns="http://www.w3.org/2000/svg" xmlns:xlink="http://www.w3.org/1999/xlink" x="0px" y="0px"
	 viewBox="0 0 176 176" enable-background="new 0 0 176 176" xml:space="preserve">
<g>
	<circle fill="#FF6112" cx="87.957" cy="87.957" r="87.957"/>
	<g>
		<defs>
			<circle id="SVGID_1_" cx="87.957" cy="87.957" r="87.957"/>
		</defs>
		<clipPath id="SVGID_2_">
			<use xlink:href="#SVGID_1_"  overflow="visible"/>
		</clipPath>
		<g clip-path="url(#SVGID_2_)">
			<path fill="#FFFFFF" d="M71.197,23.339c0-2.546-2.072-4.618-4.618-4.618h-2.427c-2.546,0-4.618,2.072-4.618,4.618v2.179h11.663
				V23.339z"/>
			<path fill="#FFFFFF" d="M119.637,223.079l-7.163,3.905l-5.56-3.825c-0.48-0.328-1.105-0.346-1.6-0.045l-6.705,4.072l-5.532-4.007
				c-0.55-0.397-1.303-0.369-1.822,0.074l-8.379,7.17l-8.448-7.174c-0.552-0.468-1.363-0.467-1.913,0.004l-4.341,3.722l-6.578-6.153
				c-0.291-0.272-0.689-0.424-1.08-0.395c-0.399,0.019-0.772,0.201-1.035,0.501l-9.358,10.694l-7.139-4.867v3.565v0l6.558,4.47
				c0.618,0.421,1.449,0.314,1.938-0.247l9.214-10.53l6.429,6.014c0.55,0.513,1.396,0.532,1.965,0.042l4.389-3.763l8.448,7.173
				c0.552,0.468,1.36,0.468,1.912-0.004l8.451-7.232l5.385,3.901c0.48,0.348,1.123,0.374,1.628,0.065l6.727-4.086l5.52,3.798
				c0.457,0.316,1.054,0.347,1.54,0.08l7.139-3.891l12.275,8.939c0.228-0.114,0.443-0.25,0.64-0.406
				c0.593-0.468,1.036-1.112,1.257-1.858l-13.191-9.606C120.748,222.847,120.137,222.809,119.637,223.079z"/>
			<path fill="#FFFFFF" d="M79.709,156.691H60.876v8.593h18.834V156.691z M66.834,162.283h-4.112v-2.59h4.112V162.283z
				 M72.433,162.283h-4.112v-2.59h4.112V162.283z M77.785,162.283h-4.112v-2.59h4.112V162.283z"/>
			<path fill="#FFFFFF" d="M97.144,192.548l8.822-6.91c0.514-0.403,1.232-0.42,1.763-0.04l8.876,6.324v-11.899h-19.46V192.548z"/>
			<path fill="#FFFFFF" d="M64.84,267.393c0.416,0,0.816,0.06,1.215,0.123v-17.138h-23.04c-2.077,0-4.056-0.418-5.867-1.165v18.326
				c0.473-0.09,0.958-0.147,1.457-0.147H64.84z"/>
			<path fill="#FFFFFF" d="M38.605,297.733c-0.499,0-0.984-0.058-1.457-0.147v8.79c0.204-0.018,0.401-0.061,0.609-0.061h28.298
				v-8.704c-0.399,0.063-0.799,0.123-1.215,0.123H38.605z"/>
			<path fill="#FFFFFF" d="M32.248,275.223v14.679c0,3.002,2.098,5.51,4.9,6.172c0.47,0.111,0.954,0.184,1.457,0.184H64.84
				c0.416,0,0.821-0.046,1.215-0.123c2.925-0.57,5.142-3.145,5.142-6.234v-14.679c0-3.089-2.217-5.664-5.142-6.234
				c-0.394-0.077-0.799-0.123-1.215-0.123H38.605c-0.504,0-0.987,0.073-1.457,0.185C34.346,269.714,32.248,272.222,32.248,275.223z"
				/>
			<path fill="#FFFFFF" d="M37.148,312.477h28.907h6.491c-0.442-2.654-2.738-4.689-5.515-4.689h-0.975H37.757
				c-0.209,0-0.406,0.039-0.609,0.061c-2.497,0.275-4.497,2.173-4.906,4.628H37.148z"/>
			<path fill="#FFFFFF" d="M80.953,319.128c0-2.855-2.323-5.179-5.179-5.179h-1.662h-0.736h-0.737h-6.584H37.148h-4.999h-0.737
				h-0.736h-1.663c-2.855,0-5.179,2.323-5.179,5.179v6.646h57.118V319.128z"/>
			<polygon fill="#FFFFFF" points="81.607,327.247 80.871,327.247 23.917,327.247 23.18,327.247 22.444,327.247 18.68,327.247 
				18.68,335.18 85.682,335.18 85.682,327.247 82.344,327.247 			"/>
			<path fill="#FFFFFF" d="M111.407,297.733c-0.499,0-0.984-0.058-1.457-0.147v8.79c0.204-0.018,0.4-0.061,0.609-0.061h28.298
				v-8.704c-0.399,0.063-0.799,0.123-1.215,0.123H111.407z"/>
			<path fill="#FFFFFF" d="M137.642,267.393c0.416,0,0.816,0.06,1.215,0.123v-17.61c-1.194,0.297-2.436,0.472-3.721,0.472H109.95
				v17.162c0.473-0.09,0.958-0.147,1.457-0.147H137.642z"/>
			<path fill="#FFFFFF" d="M105.05,275.223v14.679c0,3.002,2.098,5.51,4.9,6.172c0.47,0.111,0.954,0.184,1.457,0.184h26.235
				c0.416,0,0.821-0.046,1.215-0.123c2.925-0.57,5.142-3.145,5.142-6.234v-14.679c0-3.089-2.217-5.664-5.142-6.234
				c-0.394-0.077-0.799-0.123-1.215-0.123h-26.235c-0.503,0-0.987,0.073-1.457,0.185C107.148,269.714,105.05,272.222,105.05,275.223
				z"/>
			<path fill="#FFFFFF" d="M109.95,312.477h28.907h6.491c-0.442-2.654-2.738-4.689-5.516-4.689h-0.975h-28.298
				c-0.208,0-0.406,0.039-0.609,0.061c-2.497,0.275-4.498,2.173-4.906,4.628H109.95z"/>
			<path fill="#FFFFFF" d="M104.214,313.95h-0.737h-1.662c-2.856,0-5.179,2.323-5.179,5.179v6.646h57.118v-6.646
				c0-2.855-2.323-5.179-5.179-5.179h-1.662h-0.737h-0.736h-6.584H109.95h-4.999H104.214z"/>
			<polygon fill="#FFFFFF" points="154.409,327.247 153.672,327.247 96.718,327.247 95.982,327.247 95.245,327.247 91.482,327.247 
				91.482,335.18 158.484,335.18 158.484,327.247 155.145,327.247 			"/>
			<path fill="#FFFFFF" d="M168.492,158.226c-3.999,0-7.433-2.454-8.882-5.934v43.293c0.107-0.005,0.209-0.032,0.317-0.032h17.755
				c0.692,0,1.347,0.141,1.968,0.354v-39.523c-1.586,1.154-3.531,1.843-5.638,1.843H168.492z"/>
			<path fill="#FFFFFF" d="M178.143,230.861c0.526,0,1.025,0.095,1.508,0.23v-5.919c-0.621,0.213-1.275,0.354-1.968,0.354h-17.755
				c-0.109,0-0.21-0.026-0.317-0.032v5.455c0.287-0.038,0.57-0.088,0.867-0.088H178.143z"/>
			<path fill="#FFFFFF" d="M191.947,129.434h-2.154v12.001h2.154c1.628,0,2.948-1.32,2.948-2.948v-6.105
				C194.895,130.754,193.575,129.434,191.947,129.434z"/>
			<path fill="#FFFFFF" d="M183.63,123.904v5.69v11.682v5.689c2.63-0.29,4.69-2.5,4.69-5.205v-0.324v-12.001v-0.324
				C188.32,126.404,186.26,124.194,183.63,123.904z"/>
			<path fill="#FFFFFF" d="M-17.625,132.382v6.105c0,1.628,1.32,2.948,2.948,2.948h2.154v-12.001h-2.154
				C-16.305,129.434-17.625,130.754-17.625,132.382z"/>
			<path fill="#FFFFFF" d="M-11.051,129.11v0.324v12.001v0.324c0,2.706,2.06,4.915,4.69,5.205v-5.689v-11.682v-5.69
				C-8.991,124.194-11.051,126.404-11.051,129.11z"/>
			<path fill="#FFFFFF" d="M158.378,120.573h-7.186c0.194,0.858,0.305,1.747,0.305,2.663v30.247h6.88
				c-0.251-0.75-0.392-1.549-0.392-2.382v-28.147C157.986,122.122,158.127,121.322,158.378,120.573z"/>
			<path fill="#FFFFFF" d="M160.347,122.261v25.499v0.849c0,1.076,0.215,2.102,0.595,3.043c1.208,2.987,4.134,5.101,7.549,5.101
				h5.52c2.188,0,4.173-0.872,5.638-2.28c1.542-1.483,2.507-3.561,2.507-5.864v-0.204v-0.736v-0.737v-6.727v-9.54v-6.728V123.2
				v-0.737v-0.203c0-4.491-3.654-8.145-8.145-8.145h-5.52c-3.415,0-6.341,2.115-7.549,5.102
				C160.562,120.159,160.347,121.184,160.347,122.261z"/>
			<path fill="#FFFFFF" d="M179.651,197.48c-0.599-0.284-1.262-0.455-1.968-0.455h-17.755c-0.109,0-0.211,0.025-0.317,0.032
				c-2.406,0.167-4.319,2.157-4.319,4.604v17.755c0,2.447,1.913,4.438,4.319,4.604c0.107,0.008,0.209,0.032,0.317,0.032h17.755
				c0.706,0,1.368-0.171,1.968-0.455c1.572-0.743,2.669-2.331,2.669-4.182v-17.755C182.32,199.811,181.223,198.223,179.651,197.48z"
				/>
			<path fill="#FFFFFF" d="M179.651,232.626c-0.469-0.183-0.975-0.293-1.508-0.293h-17.665c-0.297,0-0.583,0.039-0.867,0.088
				c-2.446,0.415-4.319,2.535-4.319,5.098v1.047c0,2.86,2.326,5.186,5.186,5.186h6.714v7.879h-2.552
				c-2.366,0-4.292,1.925-4.292,4.292v4.214c0,2.366,1.925,4.292,4.292,4.292h13.503c2.304,0,4.177-1.874,4.177-4.177v-23.742
				C182.32,234.741,181.209,233.234,179.651,232.626z"/>
			<path fill="#FFFFFF" d="M9.062,158.226H3.541c-2.107,0-4.051-0.689-5.638-1.843v39.523c0.621-0.213,1.275-0.354,1.967-0.354
				h17.756c0.109,0,0.21,0.027,0.317,0.032v-43.292C16.494,155.772,13.06,158.226,9.062,158.226z"/>
			<path fill="#FFFFFF" d="M-0.13,225.526c-0.692,0-1.347-0.141-1.967-0.354v5.919c0.483-0.135,0.983-0.23,1.508-0.23h17.664
				c0.297,0,0.581,0.05,0.867,0.088v-5.455c-0.107,0.006-0.209,0.032-0.317,0.032H-0.13z"/>
			<path fill="#FFFFFF" d="M19.441,155.765h6.963v-32.669c0-0.868,0.105-1.71,0.289-2.523h-7.252
				c0.238,0.71,0.372,1.468,0.372,2.257v30.678C19.813,154.297,19.679,155.054,19.441,155.765z"/>
			<path fill="#FFFFFF" d="M120.341,100.206c-1.501,0.36-3.06,0.572-4.67,0.572H60.645c-0.624,0-1.238-0.037-1.847-0.094v5.919
				h61.543V100.206z"/>
			<path fill="#FFFFFF" d="M93.989,23.339c0-2.546-2.072-4.618-4.618-4.618h-2.427c-2.546,0-4.618,2.071-4.618,4.618v2.179h11.662
				V23.339z"/>
			<path fill="#FFFFFF" d="M118.215,23.339c0-2.546-2.071-4.618-4.618-4.618h-2.427c-2.547,0-4.618,2.071-4.618,4.618v2.179h11.663
				V23.339z"/>
			<path fill="#FFFFFF" d="M164.003,72.838v-1.22c0-1.208-0.979-2.188-2.188-2.188h-3.437v5.595h3.437
				C163.023,75.025,164.003,74.046,164.003,72.838z"/>
			<path fill="#FFFFFF" d="M156.055,76.574v-1.809v-5.074v-1.809c0-1.266-0.827-2.332-1.965-2.717v14.127
				C155.228,78.906,156.055,77.84,156.055,76.574z"/>
			<path fill="#FFFFFF" d="M149.048,84.171c1.499,0,2.718-1.22,2.718-2.719v-0.525v-0.737v-0.736V65.002v-0.737v-0.736v-0.526
				c0-1.499-1.219-2.718-2.718-2.718h-2.821c-0.003,0-0.007,0.001-0.01,0.001v7.461v8.963v7.461c0.003,0,0.007,0.001,0.01,0.001
				H149.048z"/>
			<path fill="#FFFFFF" d="M139.545,88.276h1.413c1.612,0,2.923-1.307,2.933-2.917c0-0.006,0.002-0.012,0.002-0.019v-0.78v-0.835
				V60.73v-0.835v-0.78c0-0.007-0.002-0.012-0.002-0.019c-0.01-1.609-1.322-2.916-2.933-2.916h-1.413
				c-1.618,0-2.935,1.317-2.935,2.935v26.226C136.61,86.959,137.927,88.276,139.545,88.276z"/>
			<path fill="#FFFFFF" d="M14.697,75.025h3.437V69.43h-3.437c-1.208,0-2.188,0.979-2.188,2.188v1.22
				C12.509,74.046,13.489,75.025,14.697,75.025z"/>
			<path fill="#FFFFFF" d="M22.422,79.291V65.165c-1.138,0.385-1.965,1.451-1.965,2.717v1.809v5.074v1.809
				C20.457,77.84,21.284,78.906,22.422,79.291z"/>
			<path fill="#FFFFFF" d="M27.464,84.171h2.821c0.003,0,0.007-0.001,0.01-0.001v-7.461v-8.963v-7.461
				c-0.003,0-0.007-0.001-0.01-0.001h-2.821c-1.499,0-2.718,1.219-2.718,2.718v0.526v0.736v0.737v14.453v0.736v0.737v0.525
				C24.746,82.952,25.965,84.171,27.464,84.171z"/>
			<path fill="#FFFFFF" d="M58.798,108.643H43.015c-6.531,0-12.014,4.51-13.54,10.575c-0.274,1.091-0.436,2.227-0.436,3.402v29.032
				v83.278c0,5.609,3.329,10.444,8.109,12.668c1.787,0.831,3.77,1.308,5.867,1.308h23.04h43.895h25.186
				c1.29,0,2.534-0.19,3.721-0.518c5.903-1.635,10.255-7.041,10.255-13.458v-83.278v-29.032c0-1.175-0.162-2.311-0.436-3.402
				c-1.525-6.065-7.009-10.575-13.54-10.575h-14.795H58.798z M134.569,231.741c0,0.366-0.07,0.712-0.168,1.046l0,0v0
				c-0.22,0.746-0.664,1.39-1.257,1.858c-0.198,0.156-0.412,0.292-0.64,0.406c-0.498,0.248-1.052,0.401-1.647,0.401H46.697
				c-2.05,0-3.712-1.662-3.712-3.712v-1.419v0v-3.565l0,0v0v-2.836c0-2.05,1.662-3.712,3.712-3.712h84.159
				c2.05,0,3.712,1.662,3.712,3.712V231.741z M130.513,121.964c2.83,1.366,4.792,4.256,4.792,7.603v22.085v52.583
				c0,4.658-3.789,8.447-8.446,8.447H50.695c-4.657,0-8.446-3.789-8.446-8.447v-52.583v-22.085c0-3.347,1.962-6.237,4.791-7.603
				c1.108-0.535,2.344-0.844,3.655-0.844h76.163C128.169,121.12,129.405,121.429,130.513,121.964z"/>
			<polygon fill="#FFFFFF" points="42.985,226.757 42.985,226.757 42.985,230.322 42.985,230.322 42.985,230.322 			"/>
			<path fill="#FFFFFF" d="M133.143,234.645c0.593-0.468,1.036-1.112,1.257-1.858v0C134.18,233.533,133.737,234.178,133.143,234.645
				z"/>
			<path fill="#FFFFFF" d="M3.541,156.753h5.521c3.415,0,6.341-2.114,7.549-5.101c0.381-0.941,0.595-1.967,0.595-3.043v-0.849
				v-25.499c0-1.076-0.215-2.102-0.595-3.043c-1.209-2.987-4.135-5.102-7.549-5.102H3.541c-4.491,0-8.144,3.654-8.144,8.145v0.203
				v0.737v0.736v6.728v9.539v6.728v0.737v0.736v0.204c0,2.303,0.965,4.381,2.507,5.864C-0.632,155.881,1.353,156.753,3.541,156.753z
				"/>
			<path fill="#FFFFFF" d="M-2.097,223.599c0.599,0.283,1.262,0.454,1.967,0.454h17.756c0.109,0,0.21-0.025,0.317-0.032
				c2.406-0.167,4.319-2.156,4.319-4.604v-17.755c0-2.448-1.913-4.438-4.319-4.604c-0.107-0.008-0.209-0.032-0.317-0.032H-0.13
				c-0.706,0-1.368,0.171-1.967,0.454c-1.572,0.743-2.669,2.332-2.669,4.182v17.755C-4.766,221.267-3.669,222.856-2.097,223.599z"/>
			<path fill="#FFFFFF" d="M12.915,251.632h-2.552v-7.879h6.713c2.86,0,5.187-2.326,5.187-5.186v-1.047
				c0-2.563-1.873-4.682-4.319-5.098c-0.284-0.048-0.57-0.088-0.867-0.088H-0.589c-0.533,0-1.039,0.11-1.508,0.293
				c-1.558,0.607-2.669,2.114-2.669,3.884v23.742c0,2.303,1.874,4.177,4.177,4.177h13.504c2.366,0,4.292-1.926,4.292-4.292v-4.214
				C17.207,253.557,15.281,251.632,12.915,251.632z"/>
			<path fill="#FFFFFF" d="M48.384,125.047c-1.919,1.191-3.211,3.301-3.211,5.722v21.374v50.89c0,3.721,3.027,6.75,6.749,6.75
				h73.711c3.721,0,6.749-3.028,6.749-6.75v-50.89v-21.374c0-2.421-1.292-4.53-3.212-5.722c-1.031-0.64-2.236-1.027-3.537-1.027
				H51.922C50.621,124.02,49.416,124.407,48.384,125.047z M93.171,138.191c0-2.347,1.903-4.249,4.249-4.249h17.742
				c2.347,0,4.25,1.903,4.25,4.249v57.419c0,2.347-1.903,4.25-4.25,4.25H97.42c-2.347,0-4.249-1.903-4.249-4.25V138.191z
				 M57.172,138.191c0-2.347,1.903-4.249,4.249-4.249h17.742c2.347,0,4.25,1.903,4.25,4.249v57.419c0,2.347-1.903,4.25-4.25,4.25
				H61.421c-2.347,0-4.249-1.903-4.249-4.25V138.191z"/>
			<path fill="#FFFFFF" d="M79.71,139.571c0-1.556-1.262-2.818-2.818-2.818h-1.669v17.186h4.487V139.571z"/>
			<path fill="#FFFFFF" d="M65.579,136.754h-1.885c-1.556,0-2.817,1.262-2.817,2.818v14.368h4.703V136.754z"/>
			<path fill="#FFFFFF" d="M60.856,195.579c-0.102,0.08-0.22,0.118-0.334,0.168c0.711,1.211,2.013,2.033,3.518,2.033h11.275
				c1.687,0,3.133-1.021,3.76-2.479l-9.356-6.666L60.856,195.579z"/>
			<path fill="#FFFFFF" d="M59.948,192.548l8.821-6.91c0.514-0.403,1.231-0.42,1.763-0.04l8.876,6.324v-11.899h-19.46V192.548z"/>
			<rect x="68.09" y="168.183" fill="#FFFFFF" width="4.622" height="8.593"/>
			<path fill="#FFFFFF" d="M101.577,136.754h-1.885c-1.556,0-2.817,1.262-2.817,2.818v14.368h4.703V136.754z"/>
			<path fill="#FFFFFF" d="M115.708,139.571c0-1.556-1.261-2.818-2.817-2.818h-1.669v17.186h4.487V139.571z"/>
			<path fill="#FFFFFF" d="M98.052,195.579c-0.102,0.08-0.22,0.118-0.334,0.168c0.711,1.211,2.012,2.033,3.518,2.033h11.275
				c1.687,0,3.133-1.021,3.76-2.479l-9.356-6.666L98.052,195.579z"/>
			<path fill="#FFFFFF" d="M115.708,156.691H96.874v8.593h18.834V156.691z M102.833,162.283h-4.112v-2.59h4.112V162.283z
				 M108.432,162.283h-4.112v-2.59h4.112V162.283z M113.783,162.283h-4.112v-2.59h4.112V162.283z"/>
			<rect x="104.088" y="168.183" fill="#FFFFFF" width="4.622" height="8.593"/>
			<path fill="#FFFFFF" d="M59.123,34.717c0.251-0.019,0.504-0.028,0.757-0.038c0.256-0.01,0.507-0.039,0.765-0.039h10.219h0.769
				h0.767h8.726h0.766h0.769h10.996h0.769h0.766h10.159h0.767h0.769h8.785c0.733,0,1.455,0.045,2.167,0.122
				c0.25,0.027,0.492,0.077,0.74,0.113c0.244,0.036,0.49,0.067,0.731,0.112c1.736,0.32,3.388,0.869,4.937,1.606v-4.774
				c0-2.193-1.784-3.977-3.977-3.977h-0.581h-0.736h-0.737h-11.663h-0.736h-0.737h-9.617h-0.736h-0.737H82.327H81.59h-0.736H72.67
				h-0.737h-0.736H59.534h-0.737h-0.736h-0.165c-2.193,0-3.977,1.784-3.977,3.977v4.006c1.421-0.508,2.908-0.872,4.455-1.047
				C58.623,34.75,58.873,34.736,59.123,34.717z"/>
			<path fill="#FFFFFF" d="M36.967,56.18h-1.413c-1.612,0-2.923,1.307-2.933,2.916c0,0.007-0.002,0.012-0.002,0.019v0.78v0.835
				v22.996v0.835v0.78c0,0.006,0.002,0.012,0.002,0.019c0.01,1.61,1.321,2.917,2.933,2.917h1.413c1.618,0,2.935-1.317,2.935-2.935
				V59.115C39.902,57.497,38.585,56.18,36.967,56.18z"/>
			<path fill="#FFFFFF" d="M68.822,56.225c-3.137,0-5.689,2.552-5.689,5.689c0,3.137,2.552,5.689,5.689,5.689
				c3.137,0,5.689-2.552,5.689-5.689C74.511,58.777,71.959,56.225,68.822,56.225z M68.822,65.112c-1.765,0-3.199-1.434-3.199-3.199
				c0-1.765,1.434-3.199,3.199-3.199c1.765,0,3.199,1.434,3.199,3.199C72.021,63.678,70.587,65.112,68.822,65.112z"/>
			<path fill="#FFFFFF" d="M109.441,56.225c-3.137,0-5.689,2.552-5.689,5.689c0,3.137,2.552,5.689,5.689,5.689
				c3.137,0,5.689-2.552,5.689-5.689C115.129,58.777,112.577,56.225,109.441,56.225z M109.441,65.112c-1.765,0-3.2-1.434-3.2-3.199
				c0-1.765,1.436-3.199,3.2-3.199s3.199,1.434,3.199,3.199C112.64,63.678,111.206,65.112,109.441,65.112z"/>
			<path fill="#FFFFFF" d="M125.719,39.939c-0.241-0.156-0.488-0.303-0.737-0.448c-0.243-0.141-0.486-0.283-0.736-0.413
				c-1.732-0.906-3.625-1.535-5.621-1.856c-0.279-0.045-0.557-0.096-0.841-0.129c-0.296-0.034-0.597-0.048-0.897-0.068
				c-0.404-0.026-0.805-0.062-1.216-0.062h-7.841h-0.953h-0.882H94.546h-0.882h-0.953h-9.107h-0.953H81.77H71.754h-0.882H69.92
				h-9.107h-0.167c-0.254,0-0.502,0.028-0.754,0.038c-0.29,0.012-0.582,0.019-0.869,0.044c-1.786,0.156-3.496,0.57-5.102,1.197
				c-0.247,0.096-0.494,0.191-0.736,0.298c-0.251,0.11-0.493,0.234-0.737,0.355c-6.137,3.036-10.378,9.346-10.378,16.644v24.622
				c0,9.619,7.35,17.552,16.728,18.482c0.608,0.06,1.224,0.094,1.847,0.094h55.026c1.616,0,3.175-0.229,4.67-0.618
				c7.985-2.079,13.906-9.331,13.906-17.958V55.539C134.247,48.999,130.841,43.25,125.719,39.939z M96.841,90.034H80.704
				c-0.971,0-1.758-0.787-1.758-1.758c0-0.971,0.787-1.758,1.758-1.758h16.137c0.971,0,1.758,0.787,1.758,1.758
				C98.599,89.247,97.812,90.034,96.841,90.034z M83.84,83.154l4.653-10.877l5.038,10.877H83.84z M126.995,65.224
				c0,3.042-2.466,5.508-5.508,5.508H55.407c-3.042,0-5.508-2.466-5.508-5.508v-6.788c0-3.042,2.466-5.508,5.508-5.508h66.081
				c3.042,0,5.508,2.466,5.508,5.508V65.224z"/>
		</g>
	</g>
</g>
</svg>
