<svg width="18" height="14" viewBox="0 0 18 14" fill="none" xmlns="http://www.w3.org/2000/svg">
<path d="M6.11371 13.1587L0.263708 7.30871C0.180104 7.22513 0.113784 7.1259 0.0685365 7.01669C0.0232889 6.90748 0 6.79042 0 6.67221C0 6.55399 0.0232889 6.43694 0.0685365 6.32772C0.113784 6.21851 0.180104 6.11928 0.263708 6.03571L1.53571 4.76371C1.61928 4.6801 1.71851 4.61378 1.82772 4.56854C1.93694 4.52329 2.05399 4.5 2.17221 4.5C2.29042 4.5 2.40748 4.52329 2.51669 4.56854C2.6259 4.61378 2.72513 4.6801 2.80871 4.76371L6.74971 8.70471L15.1907 0.263708C15.2743 0.180104 15.3735 0.113784 15.4827 0.0685368C15.5919 0.0232891 15.709 0 15.8272 0C15.9454 0 16.0625 0.0232891 16.1717 0.0685368C16.2809 0.113784 16.3801 0.180104 16.4637 0.263708L17.7367 1.53671C17.8203 1.62028 17.8866 1.71951 17.9319 1.82872C17.9771 1.93794 18.0004 2.05499 18.0004 2.17321C18.0004 2.29142 17.9771 2.40848 17.9319 2.51769C17.8866 2.6269 17.8203 2.72613 17.7367 2.80971L7.38571 13.1587C7.21696 13.3272 6.98821 13.4219 6.74971 13.4219C6.51121 13.4219 6.28246 13.3272 6.11371 13.1587Z" fill="#FF6112"/>
</svg>
