<svg xmlns="http://www.w3.org/2000/svg" viewBox="0 0 629.71 126.4"><defs><style>.cls-1{fill:#1a1a1a;}</style></defs><title>Asset 7</title><g id="Layer_2" data-name="Layer 2"><g id="Layer_2-2" data-name="Layer 2"><path class="cls-1" d="M34.8,54.67H7.2V94.93H0V0H34.8C51.2,0,63.47,9.87,63.47,27.33S51.2,54.67,34.8,54.67ZM34,6.4H7.2V48.27H34c13.2,0,22.27-6.67,22.27-20.93S47.2,6.4,34,6.4Z"/><path class="cls-1" d="M121.06,88.67c-4.67,4.67-10.53,7.07-17.87,7.07a24.31,24.31,0,0,1-17.87-7.07c-6.8-6.8-8-16.67-8-25.87s1.2-19.07,8-25.87a24.31,24.31,0,0,1,17.87-7.07c7.33,0,13.2,2.4,17.87,7.07,6.8,6.8,8,16.67,8,25.87S127.86,81.87,121.06,88.67Zm-4.53-47.33a19,19,0,0,0-26.67,0c-5.33,5.33-5.73,14-5.73,21.47s.4,16.13,5.73,21.47a19,19,0,0,0,26.67,0c5.33-5.33,5.73-14,5.73-21.47S121.86,46.67,116.53,41.33Z"/><path class="cls-1" d="M170.93,95.73c-11.2,0-19.47-2.93-26-9.2l4.67-4.67c4.93,5.2,12,7.87,21.07,7.87,12.67,0,19.33-4.4,19.33-13.07,0-6.8-3.73-9.87-12.27-10.8l-10.67-.93c-12.93-1.07-19.33-6.67-19.33-16.8,0-11.2,9.07-18.27,23.07-18.27,8.93,0,16.8,2.53,22.53,6.8l-4.53,4.53a29.74,29.74,0,0,0-18-5.47c-10.67,0-16.4,4.4-16.4,12.4,0,6.8,4,9.87,13.07,10.8l10.4.93c10.67,1.07,18.8,4.27,18.8,16.8C196.66,88.4,186.79,95.73,170.93,95.73Z"/><path class="cls-1" d="M217.32,78.13V35.73h-8.8V30.67h8.8V10.13h6.8V30.67h14.53v5.07H224.12V78.27c0,6.8,3.07,10.67,9.87,10.67h4.67v6h-5.87C222.66,94.93,217.32,87.87,217.32,78.13Z"/><path class="cls-1" d="M278.92,126.4c-9.6,0-14.53-2.53-21.2-8.53l4.53-4.53c5.07,4.67,8.53,7.07,16.67,7.07,13.47,0,19.47-9.47,19.47-22.27V86.67c-5.73,7.47-11.73,9.07-19.07,9.07-6.8,0-12.4-2.27-15.73-5.6-6.53-6.53-8.27-17.2-8.27-27.33s1.73-20.8,8.27-27.33c3.33-3.33,8.93-5.6,15.73-5.6,7.33,0,13.33,1.6,19.07,9.07V30.67h6.8V98.53C305.19,114.67,295.59,126.4,278.92,126.4Zm1.33-90.53c-15.73,0-18.13,13.6-18.13,26.93s2.4,26.93,18.13,26.93,18.13-13.6,18.13-26.93S296,35.87,280.26,35.87Z"/><path class="cls-1" d="M355.05,35.87c-11.07,0-17.2,9.2-17.2,19.47v39.6h-6.8V30.67h6.8V39.2c3.73-6,11.2-9.33,18.8-9.33,6.27,0,10.8,1.47,15.47,6.13l-4.93,4.93C363.32,37.07,360.39,35.87,355.05,35.87Z"/><path class="cls-1" d="M405.45,89.6c7.6,0,12.27-2.27,17.73-7.73l5.07,4c-6.53,6.53-12.53,9.87-23.2,9.87-17.73,0-27.33-11.47-27.33-32.93,0-20.8,9.6-32.93,25.73-32.93s25.73,11.6,25.73,31.33v3.07H384.52C384.52,80.67,391.72,89.6,405.45,89.6Zm14.67-42.93c-2.8-6.8-9.2-10.8-16.67-10.8s-13.87,4-16.67,10.8c-1.47,4.13-1.87,5.87-2.27,12.13h37.87C422,52.67,421.85,50.53,420.12,46.67Z"/><path class="cls-1" d="M470.92,95.73c-11.2,0-19.47-2.93-26-9.2l4.67-4.67c4.93,5.2,12,7.87,21.07,7.87,12.67,0,19.33-4.4,19.33-13.07,0-6.8-3.73-9.87-12.27-10.8L467,64.93c-12.93-1.07-19.33-6.67-19.33-16.8,0-11.2,9.07-18.27,23.07-18.27,8.93,0,16.8,2.53,22.53,6.8l-4.53,4.53a29.74,29.74,0,0,0-18-5.47c-10.67,0-16.4,4.4-16.4,12.4,0,6.8,4,9.87,13.07,10.8l10.4.93c10.67,1.07,18.8,4.27,18.8,16.8C496.65,88.4,486.78,95.73,470.92,95.73Z"/><path class="cls-1" d="M516.78,85.07h9.87v9.87h-9.87Z"/><path class="cls-1" d="M590,88.53c-5.47,5.47-10.53,7.2-19.6,7.2-9.6,0-14.8-1.6-18.93-5.87-3.07-3.07-4.67-7.73-4.67-12.53,0-11.73,8.4-18.53,22.4-18.53H590V51.6c0-10.27-4.93-15.73-18.13-15.73-9.07,0-13.6,2.27-17.73,8.13l-4.93-4.27c5.47-7.6,12.13-9.87,22.67-9.87,17.07,0,24.93,7.6,24.93,21.07v44H590ZM570,64.27c-10.93,0-16.4,4.27-16.4,12.93s5.07,12.53,16.8,12.53c5.87,0,11.33-.53,16-4.93,2.4-2.27,3.6-6.4,3.6-12.27V64.27Z"/><path class="cls-1" d="M621.31,0h8.4V8.4h-8.4Zm.8,30.67h6.8V94.93h-6.8Z"/></g></g></svg>