<?xml version="1.0" encoding="utf-8"?>
<!-- Generator: Adobe Illustrator 23.0.4, SVG Export Plug-In . SVG Version: 6.00 Build 0)  -->
<svg version="1.1" id="Layer_1" xmlns="http://www.w3.org/2000/svg" xmlns:xlink="http://www.w3.org/1999/xlink" x="0px" y="0px"
	 viewBox="0 0 176 176" enable-background="new 0 0 176 176" xml:space="preserve">
<g>
	<circle fill="#FF6112" cx="87.679" cy="88.153" r="87.957"/>
	<g>
		<defs>
			<circle id="SVGID_1_" cx="87.679" cy="88.153" r="87.957"/>
		</defs>
		<clipPath id="SVGID_2_">
			<use xlink:href="#SVGID_1_"  overflow="visible"/>
		</clipPath>
		<g clip-path="url(#SVGID_2_)">
			<path fill="#FFFFFF" d="M14.562,216.065v8.483c0,2.15,1.749,3.9,3.9,3.9h0.627c2.15,0,3.9-1.75,3.9-3.9v-8.405h-7.656
				C15.07,216.143,14.816,216.103,14.562,216.065z"/>
			<path fill="#FFFFFF" d="M153.334,216.143v8.405c0,2.15,1.75,3.9,3.9,3.9h0.627c2.15,0,3.9-1.75,3.9-3.9v-8.483
				c-0.253,0.038-0.507,0.078-0.771,0.078H153.334z"/>
			<path fill="#FFFFFF" d="M9.806,71.995h3.729v1.309c0,1.246,1.013,2.259,2.259,2.259h2.402c1.246,0,2.259-1.013,2.259-2.259
				v-4.196v-4.107v-4.196c0-1.245-1.013-2.259-2.259-2.259h-2.402c-1.246,0-2.259,1.013-2.259,2.259v3.157H9.806
				c-1.185,0-2.149,0.964-2.149,2.149v3.736C7.657,71.031,8.621,71.995,9.806,71.995z"/>
			<path fill="#FFFFFF" d="M157.163,75.563h2.402c1.246,0,2.259-1.013,2.259-2.259v-1.309h3.729c1.185,0,2.149-0.964,2.149-2.149
				V66.11c0-1.185-0.964-2.149-2.149-2.149h-3.729v-3.157c0-1.245-1.013-2.259-2.259-2.259h-2.402c-1.246,0-2.259,1.013-2.259,2.259
				v4.196v4.107v4.196C154.904,74.55,155.917,75.563,157.163,75.563z"/>
			<path fill="#FFFFFF" d="M70.486,141.725c-0.503-0.389-1.229-0.296-1.617,0.209l-1.046,1.358h2.898
				C71.069,142.79,70.975,142.102,70.486,141.725z"/>
			<path fill="#FFFFFF" d="M64.784,147.235c-0.389,0.505-0.295,1.229,0.209,1.617c0.209,0.162,0.457,0.24,0.703,0.24
				c0.345,0,0.687-0.154,0.914-0.449l4.085-5.301c0.012-0.015,0.014-0.034,0.025-0.05h-2.898L64.784,147.235z"/>
			<path fill="#FFFFFF" d="M107.191,141.934c-0.389-0.506-1.114-0.599-1.617-0.209c-0.489,0.377-0.583,1.066-0.234,1.567h2.898
				L107.191,141.934z"/>
			<path fill="#FFFFFF" d="M108.237,143.292h-2.898c0.011,0.016,0.013,0.035,0.025,0.05l4.085,5.301
				c0.227,0.295,0.569,0.449,0.914,0.449c0.246,0,0.494-0.078,0.703-0.24c0.505-0.389,0.599-1.113,0.21-1.617L108.237,143.292z"/>
			<path fill="#FFFFFF" d="M57.969,225.395c-2.713,1.017-4.659,3.615-4.659,6.679v6.33c0,3.064,1.946,5.662,4.659,6.679V225.395z"/>
			<path fill="#FFFFFF" d="M76.738,218.21v-18.343H63.476v18.333h13.16C76.671,218.199,76.703,218.209,76.738,218.21z"/>
			<path fill="#FFFFFF" d="M76.738,256.763v-5.327c-0.035,0.001-0.067,0.011-0.103,0.011h-13.16v4.96h11.117
				C75.344,256.407,76.055,256.553,76.738,256.763z"/>
			<path fill="#FFFFFF" d="M76.738,219.579c-0.035-0.001-0.067-0.01-0.103-0.01h-13.16h-0.199c-2.172,0-3.94,1.767-3.94,3.94v0.128
				v0.691v0.709v20.407v0.695c0,0.004,0.001,0.009,0.001,0.013c0.001,0.24,0.029,0.474,0.071,0.702
				c0.338,1.831,1.94,3.224,3.867,3.224h0.199h13.16c0.035,0,0.068-0.01,0.103-0.01c2.123-0.056,3.836-1.792,3.836-3.929v-22.63
				C80.575,221.371,78.862,219.635,76.738,219.579z"/>
			<rect x="45.774" y="270.098" fill="#FFFFFF" width="34.801" height="9.217"/>
			<path fill="#FFFFFF" d="M76.738,258.19c-0.668-0.258-1.387-0.414-2.145-0.414H63.476h-11.72c-3.299,0-5.982,2.684-5.982,5.982
				v0.16h34.801v-0.16C80.575,261.218,78.976,259.056,76.738,258.19z"/>
			<path fill="#FFFFFF" d="M121.439,232.074c0-3.064-1.946-5.662-4.66-6.679v19.688c2.713-1.016,4.66-3.615,4.66-6.679V232.074z"/>
			<path fill="#FFFFFF" d="M98.01,251.436v5.327c0.683-0.21,1.394-0.357,2.145-0.357h11.117v-4.96h-13.16
				C98.078,251.446,98.045,251.436,98.01,251.436z"/>
			<path fill="#FFFFFF" d="M111.272,218.199v-18.333H98.01v18.343c0.035-0.001,0.068-0.011,0.103-0.011H111.272z"/>
			<path fill="#FFFFFF" d="M94.173,223.508v22.63c0,2.137,1.713,3.873,3.837,3.929c0.035,0.001,0.068,0.011,0.103,0.011h13.16h0.198
				c1.927,0,3.529-1.393,3.867-3.224c0.042-0.228,0.07-0.462,0.071-0.702c0-0.005,0.001-0.009,0.001-0.013v-0.695v-20.407v-0.709
				v-0.691v-0.128c0-2.172-1.767-3.94-3.94-3.94h-0.198h-13.16c-0.035,0-0.068,0.01-0.103,0.01
				C95.886,219.635,94.173,221.371,94.173,223.508z"/>
			<rect x="94.173" y="270.098" fill="#FFFFFF" width="34.801" height="9.217"/>
			<path fill="#FFFFFF" d="M122.992,257.776h-11.72h-11.117c-0.758,0-1.477,0.156-2.145,0.414c-2.238,0.866-3.837,3.027-3.837,5.568
				v0.16h34.801v-0.16C128.974,260.459,126.29,257.776,122.992,257.776z"/>
			<path fill="#FFFFFF" d="M136.625,74.584h0.592c1.349,0,2.442-1.093,2.442-2.442v-8.806c0-1.349-1.093-2.442-2.442-2.442h-0.592
				c-1.348,0-2.442,1.093-2.442,2.442v8.806C134.184,73.49,135.277,74.584,136.625,74.584z"/>
			<path fill="#FFFFFF" d="M46.235,82.797c1.323,0,2.396-1.073,2.396-2.396V55.076c0-1.323-1.072-2.396-2.396-2.396
				s-2.396,1.073-2.396,2.396v25.325C43.84,81.724,44.912,82.797,46.235,82.797z"/>
			<path fill="#FFFFFF" d="M129.278,82.797c1.323,0,2.396-1.073,2.396-2.396V55.076c0-1.323-1.073-2.396-2.396-2.396
				c-1.323,0-2.396,1.073-2.396,2.396v25.325C126.882,81.724,127.955,82.797,129.278,82.797z"/>
			<path fill="#FFFFFF" d="M38.179,74.584h0.592c1.348,0,2.442-1.093,2.442-2.442v-8.806c0-1.349-1.093-2.442-2.442-2.442h-0.592
				c-1.348,0-2.442,1.093-2.442,2.442v8.806C35.737,73.49,36.83,74.584,38.179,74.584z"/>
			<rect x="142.495" y="65.001" fill="#FFFFFF" width="10.19" height="4.107"/>
			<rect x="22.675" y="65.001" fill="#FFFFFF" width="10.303" height="4.107"/>
			<path fill="#FFFFFF" d="M137.251,104.722c0-5.637-4.57-10.206-10.206-10.206H47.764c-5.637,0-10.206,4.569-10.206,10.206v3.922
				h-2.024v25.545h2.024v8.67c0,3.816,2.098,7.137,5.199,8.888v19.086c0,2.122,1.307,3.933,3.158,4.687
				c0.22,0.089,0.451,0.154,0.685,0.212c0.222,0.056,0.451,0.086,0.684,0.111v13.698c0,4.938,4.018,8.956,8.956,8.956h7.235h13.262
				H98.01h13.262h7.296c4.938,0,8.956-4.018,8.956-8.956v-13.698c0.233-0.025,0.462-0.056,0.684-0.111
				c0.234-0.058,0.465-0.123,0.685-0.212c1.851-0.754,3.158-2.565,3.158-4.687v-19.086c3.102-1.751,5.2-5.073,5.2-8.888v-8.67h2.574
				v-25.545h-2.574V104.722z M50.134,109.289c0-1.509,1.223-2.732,2.732-2.732h69.266c1.509,0,2.732,1.223,2.732,2.732v4.225
				l-6.51-5.749c-0.508-0.449-1.267-0.457-1.787-0.022l-9.222,7.748l-4.674-3.806c-0.529-0.432-1.297-0.408-1.797,0.06l-9.579,8.925
				l-7.505-7.639c-0.509-0.517-1.327-0.548-1.874-0.075l-3.962,3.435l-4.345-3.471c-0.515-0.411-1.256-0.397-1.755,0.039
				l-3.886,3.395l-8.696-7.579c-0.537-0.468-1.344-0.446-1.854,0.05l-7.288,7.078V109.289z M124.864,116.99v2.471
				c0,1.509-1.223,2.732-2.732,2.732H93.679l8.19-7.631l4.627,3.768c0.509,0.415,1.242,0.41,1.745-0.013l9.186-7.718l6.923,6.114
				C124.503,116.848,124.68,116.935,124.864,116.99z M88.955,122.193H52.866c-1.506,0-2.727-1.219-2.731-2.724
				c0.211-0.06,0.415-0.152,0.582-0.315l7.709-7.486l8.647,7.537c0.517,0.45,1.285,0.448,1.801-0.002l3.924-3.429l4.341,3.468
				c0.515,0.412,1.251,0.397,1.751-0.035l3.851-3.339L88.955,122.193z M49.45,152.503v-8.481v-11.529
				c0-3.307,2.69-5.997,5.997-5.997h20.5c3.307,0,5.997,2.69,5.997,5.997v11.529v8.481H49.45z M118.612,190.05
				c0,1.069-0.867,1.935-1.935,1.935H58.946c-1.069,0-1.935-0.866-1.935-1.935v-3.364c0-1.069,0.866-1.935,1.935-1.935h57.732
				c1.069,0,1.935,0.866,1.935,1.935V190.05z M124.864,173.3c0,0.797-0.647,1.444-1.444,1.444H51.578
				c-0.798,0-1.444-0.647-1.444-1.444v-2.798c0-0.798,0.646-1.444,1.444-1.444h71.842c0.798,0,1.444,0.646,1.444,1.444V173.3z
				 M124.864,163.426c0,0.797-0.647,1.444-1.444,1.444H51.578c-0.798,0-1.444-0.647-1.444-1.444v-2.798
				c0-0.798,0.646-1.444,1.444-1.444h71.842c0.798,0,1.444,0.646,1.444,1.444V163.426z M125.549,144.023v8.481H93.054v-8.481
				v-11.529c0-3.307,2.691-5.997,5.998-5.997h20.499c3.307,0,5.998,2.69,5.998,5.997V144.023z"/>
			<path fill="#FFFFFF" d="M29.426,103.903v4.741v25.545v4.741h1.252c1.297,0,2.353-1.055,2.353-2.353v-2.388v-25.545v-2.388
				c0-1.297-1.055-2.353-2.353-2.353H29.426z"/>
			<path fill="#FFFFFF" d="M3.702,110.377v22.079c0,1.519,1.231,2.75,2.75,2.75h0.634v-27.58H6.453
				C4.934,107.627,3.702,108.858,3.702,110.377z"/>
			<path fill="#FFFFFF" d="M145.933,138.93v-4.741v-25.545v-4.741h-1.252c-1.298,0-2.353,1.055-2.353,2.353v2.388v25.545v2.388
				c0,1.298,1.055,2.353,2.353,2.353H145.933z"/>
			<path fill="#FFFFFF" d="M168.907,107.627h-0.634v27.58h0.634c1.519,0,2.75-1.231,2.75-2.75v-22.079
				C171.657,108.858,170.425,107.627,168.907,107.627z"/>
			<path fill="#FFFFFF" d="M13.878,144.82v6.575c0.536-0.153,1.089-0.261,1.673-0.261h8.371c0.218,0,0.424,0.042,0.637,0.064v-6.452
				c-0.24,0.032-0.478,0.073-0.727,0.073H13.878z"/>
			<path fill="#FFFFFF" d="M23.922,180.158h-4.186v25.684h9.645v-29.069C28.367,178.771,26.313,180.158,23.922,180.158z"/>
			<path fill="#FFFFFF" d="M15.551,178.789h4.185h4.186c2.633,0,4.775-2.142,4.775-4.775v-2.113v-14.622
				c0-2.415-1.809-4.396-4.139-4.711c-0.21-0.028-0.419-0.064-0.637-0.064h-8.371c-0.591,0-1.151,0.122-1.673,0.319
				c-1.807,0.681-3.102,2.414-3.102,4.456v16.735C10.776,176.647,12.918,178.789,15.551,178.789z"/>
			<path fill="#FFFFFF" d="M19.737,207.21h-4.403c-2.085,0-3.782,1.697-3.782,3.781c0,1.291,0.652,2.43,1.642,3.113
				c0.214,0.147,0.442,0.275,0.684,0.376c0.219,0.092,0.448,0.164,0.685,0.213c0.249,0.052,0.507,0.08,0.771,0.08h7.655h0.685h0.685
				h1.662v10.679c0,1.652,1.344,2.995,2.995,2.995h1.168c1.652,0,2.995-1.344,2.995-2.995V207.21h-3.796H19.737z"/>
			<path fill="#FFFFFF" d="M160.772,151.134c0.584,0,1.137,0.108,1.673,0.261v-6.637c-0.205,0.023-0.406,0.062-0.617,0.062h-10.064
				v6.378c0.212-0.022,0.419-0.064,0.637-0.064H160.772z"/>
			<path fill="#FFFFFF" d="M156.587,180.158h-4.185c-2.391,0-4.445-1.387-5.46-3.386v29.07h9.645V180.158z"/>
			<path fill="#FFFFFF" d="M162.445,152.822c-0.522-0.197-1.082-0.319-1.673-0.319h-8.371c-0.218,0-0.427,0.036-0.637,0.064
				c-2.33,0.315-4.138,2.296-4.138,4.711v14.622v2.113c0,2.633,2.142,4.775,4.775,4.775h4.185h4.186
				c2.633,0,4.775-2.142,4.775-4.775v-16.735C165.547,155.236,164.252,153.503,162.445,152.822z"/>
			<path fill="#FFFFFF" d="M160.99,207.21h-4.403h-9.645h-3.795v18.242c0,1.652,1.344,2.995,2.994,2.995h1.168
				c1.651,0,2.995-1.344,2.995-2.995v-10.679h1.662h0.685h0.684h7.656c0.264,0,0.522-0.028,0.771-0.08
				c0.237-0.049,0.466-0.122,0.684-0.213c0.242-0.101,0.471-0.229,0.685-0.376c0.989-0.683,1.641-1.822,1.641-3.112
				C164.771,208.907,163.074,207.21,160.99,207.21z"/>
			<path fill="#FFFFFF" d="M14.161,143.452h8.254c0.249,0,0.49-0.032,0.727-0.074c1.715-0.3,3.078-1.629,3.415-3.332
				c0.045-0.228,0.065-0.465,0.071-0.705c0.001-0.039,0.012-0.075,0.012-0.115v-0.655v-34.309v-0.655
				c0-0.04-0.011-0.076-0.012-0.115c-0.007-0.24-0.026-0.477-0.071-0.705c-0.383-1.938-2.093-3.405-4.142-3.405h-8.6
				c-2.329,0-4.225,1.895-4.225,4.225v4.02v27.58v4.02c0,2.329,1.896,4.225,4.225,4.225H14.161z"/>
			<path fill="#FFFFFF" d="M161.544,99.382h-8.6c-2.049,0-3.758,1.467-4.142,3.405c-0.045,0.229-0.065,0.465-0.071,0.705
				c-0.001,0.039-0.012,0.075-0.012,0.115v0.655v34.309v0.655c0,0.039,0.011,0.076,0.012,0.115c0.006,0.24,0.026,0.477,0.071,0.705
				c0.383,1.938,2.093,3.405,4.142,3.405h0.237h8.363c0.212,0,0.414-0.033,0.617-0.063c2.036-0.302,3.608-2.045,3.608-4.163v-4.02
				v-27.58v-4.02C165.77,101.277,163.874,99.382,161.544,99.382z"/>
			<path fill="#FFFFFF" d="M74.332,129.681h-17.27c-2.15,0-3.899,1.749-3.899,3.899v9.712v4.424
				c0.463-1.279,1.291-2.926,2.706-4.424c1.946-2.059,4.999-3.81,9.828-3.81s7.882,1.751,9.828,3.81
				c1.415,1.498,2.243,3.144,2.706,4.424v-4.424v-9.712C78.231,131.43,76.482,129.681,74.332,129.681z M61.666,135.865h-5.142
				v-3.015h5.142V135.865z M68.268,135.865h-5.142v-3.015h5.142V135.865z M74.87,135.865h-5.142v-3.015h5.142V135.865z"/>
			<path fill="#FFFFFF" d="M117.936,129.681h-17.269c-2.15,0-3.899,1.749-3.899,3.899v9.712v4.424
				c0.463-1.279,1.291-2.926,2.706-4.424c1.946-2.059,4.999-3.81,9.828-3.81s7.882,1.751,9.828,3.81
				c1.416,1.498,2.243,3.146,2.707,4.425v-4.425v-9.712C121.836,131.43,120.086,129.681,117.936,129.681z M105.271,135.865h-5.142
				v-3.015h5.142V135.865z M111.873,135.865h-5.142v-3.015h5.142V135.865z M118.475,135.865h-5.142v-3.015h5.142V135.865z"/>
			<path fill="#FFFFFF" d="M54.808,87.609h0.244c2.131,2.102,5.055,3.402,8.285,3.402h48.95c6.518,0,11.802-5.284,11.802-11.802
				V53.531c0-5.786-4.167-10.591-9.663-11.598c0.035-0.13,0.08-0.256,0.08-0.397v-2.351c0-0.863-0.699-1.562-1.562-1.562h-6.651
				v-2.499c0-0.888-0.72-1.607-1.607-1.607h-2.261c-0.888,0-1.608,0.719-1.608,1.607v2.499h-2.544c-0.863,0-1.562,0.699-1.562,1.562
				v2.351c0,0.069,0.031,0.127,0.039,0.194H78.874c0.008-0.066,0.039-0.125,0.039-0.194v-2.351c0-0.863-0.7-1.562-1.562-1.562
				h-2.544v-2.499c0-0.888-0.72-1.607-1.608-1.607h-2.261c-0.888,0-1.607,0.719-1.607,1.607v2.499H62.68
				c-0.863,0-1.562,0.699-1.562,1.562v2.351c0,0.141,0.045,0.267,0.08,0.397c-5.495,1.008-9.663,5.812-9.663,11.598v25.678
				c0,3.161,1.25,6.025,3.273,8.144V87.609z M94.707,81.488H80.609c-0.722,0-1.307-0.585-1.307-1.307
				c0-0.722,0.585-1.307,1.307-1.307h14.098c0.722,0,1.307,0.585,1.307,1.307C96.014,80.902,95.429,81.488,94.707,81.488z
				 M65.089,53.691h45.107c4.549,0,8.249,3.701,8.249,8.25s-3.7,8.249-8.249,8.249H65.089c-4.549,0-8.25-3.7-8.25-8.249
				S60.54,53.691,65.089,53.691z"/>
			<path fill="#FFFFFF" d="M63.386,59.102v5.773h10.227v-5.773H63.386z M67.003,63.024c0,0.722-0.585,1.307-1.307,1.307
				c-0.722,0-1.307-0.585-1.307-1.307v-2.13c0-0.722,0.585-1.307,1.307-1.307c0.722,0,1.307,0.585,1.307,1.307V63.024z
				 M70.314,63.024c0,0.722-0.585,1.307-1.307,1.307c-0.722,0-1.307-0.585-1.307-1.307v-2.13c0-0.722,0.585-1.307,1.307-1.307
				c0.722,0,1.307,0.585,1.307,1.307V63.024z"/>
			<path fill="#FFFFFF" d="M101.877,59.102v5.773h10.227v-5.773H101.877z M105.543,63.024c0,0.722-0.585,1.307-1.307,1.307
				s-1.307-0.585-1.307-1.307v-2.13c0-0.722,0.585-1.307,1.307-1.307s1.307,0.585,1.307,1.307V63.024z M108.853,63.024
				c0,0.722-0.585,1.307-1.307,1.307s-1.307-0.585-1.307-1.307v-2.13c0-0.722,0.585-1.307,1.307-1.307s1.307,0.585,1.307,1.307
				V63.024z"/>
		</g>
	</g>
</g>
</svg>
