<svg xmlns="http://www.w3.org/2000/svg" viewBox="0 0 53.02 78.24"><defs><style>.cls-1{fill:gray;}</style></defs><title>Asset 5</title><g id="Layer_2" data-name="Layer 2"><g id="Layer_2-2" data-name="Layer 2"><path class="cls-1" d="M18.75,18.34H34.36a3.76,3.76,0,0,0,3.76-3.76V6.38A3.76,3.76,0,0,0,35,2.68a.48.48,0,0,0,0-.13V1.81a.5.5,0,0,0-.5-.5H32.44V.51A.51.51,0,0,0,31.93,0h-.72a.51.51,0,0,0-.51.51v.8h-.81a.5.5,0,0,0-.5.5v.75a.48.48,0,0,0,0,.06H23.7a.47.47,0,0,0,0-.06V1.81a.5.5,0,0,0-.5-.5H22.4V.51A.51.51,0,0,0,21.89,0h-.72a.51.51,0,0,0-.51.51v.8H18.54a.5.5,0,0,0-.5.5v.75a.48.48,0,0,0,0,.13A3.76,3.76,0,0,0,15,6.38v8.19A3.76,3.76,0,0,0,18.75,18.34Z"/><rect class="cls-1" x="40.89" y="8.73" width="1.75" height="4.37" rx="0.78" ry="0.78"/><path class="cls-1" d="M13.56,15.72a.76.76,0,0,0,.76-.76V6.88a.76.76,0,0,0-1.53,0V15A.76.76,0,0,0,13.56,15.72Z"/><path class="cls-1" d="M39.5,15.72a.76.76,0,0,0,.76-.76V6.88a.76.76,0,0,0-1.53,0V15A.76.76,0,0,0,39.5,15.72Z"/><rect class="cls-1" x="10.4" y="8.73" width="1.75" height="4.37" rx="0.78" ry="0.78"/><path class="cls-1" d="M52.14,23.27h-.42V22a1.57,1.57,0,0,0-1.57-1.57H46.87a1.56,1.56,0,0,0-1.55,1.46l-.19,0h-.44a1,1,0,0,0-1,1v.76h-1.4V22.35a3.25,3.25,0,0,0-3.25-3.25H13.78a3.25,3.25,0,0,0-3.25,3.25V23.6H9.3v-.76a1,1,0,0,0-1-1H7.89l-.19,0a1.56,1.56,0,0,0-1.55-1.46H2.86A1.57,1.57,0,0,0,1.3,22v1.28H.88a.88.88,0,0,0-.88.88v7a.88.88,0,0,0,.88.88H1.3v1.28a1.57,1.57,0,0,0,1.57,1.57H3v2.54a1.74,1.74,0,0,0-1.21,1.65v5.34a1.74,1.74,0,0,0,1.74,1.74H4.84v8.63H3.44A1.42,1.42,0,0,0,3,57.58v3A1.46,1.46,0,0,0,4.44,62h.2A1.46,1.46,0,0,0,6.1,60.56v-2.9h.53v3.19A1.17,1.17,0,0,0,7.8,62h.37a1.17,1.17,0,0,0,1.17-1.17v-6H7.92V39.11a1.74,1.74,0,0,0-1.54-1.72V34.89A1.56,1.56,0,0,0,7.7,33.45l.19,0h.44a1,1,0,0,0,1-1v-.76h1.23v2.76a3.25,3.25,0,0,0,1.66,2.83v6.09A1.61,1.61,0,0,0,13.41,45v4.4a3.07,3.07,0,0,0,3.07,3.07h2.31v6.28h-.06a1.47,1.47,0,0,0-1.47,1.47v.31A2.5,2.5,0,0,0,15.33,63v2a2.5,2.5,0,0,0,1.92,2.43v0a1.47,1.47,0,0,0,1.47,1.47h.06v2H15.05a2.13,2.13,0,0,0-2.13,2.13v5.18H24.46V73.06a2.12,2.12,0,0,0-1.44-2V68.91a1.47,1.47,0,0,0,1.44-1.47V60.23A1.47,1.47,0,0,0,23,58.76V52.47H29.8v6.29a1.47,1.47,0,0,0-1.44,1.47v7.22a1.47,1.47,0,0,0,1.44,1.47v2.14a2.12,2.12,0,0,0-1.44,2v5.18H39.9V73.06a2.13,2.13,0,0,0-2.13-2.13H34v-2h.06a1.47,1.47,0,0,0,1.47-1.47v0A2.5,2.5,0,0,0,37.49,65V63a2.5,2.5,0,0,0-1.92-2.43v-.31a1.47,1.47,0,0,0-1.47-1.47H34V52.47h2.33a3.07,3.07,0,0,0,3.07-3.07V45a1.61,1.61,0,0,0,1.23-1.56V37.34a3.25,3.25,0,0,0,1.66-2.83V31.74h1.4v.76a1,1,0,0,0,1,1h.44l.19,0a1.56,1.56,0,0,0,1.55,1.46h.08v2.47a1.74,1.74,0,0,0-1.54,1.72v15.7H44v6A1.17,1.17,0,0,0,45.15,62h.37a1.17,1.17,0,0,0,1.17-1.17V57.66h.53v2.9A1.46,1.46,0,0,0,48.69,62h.2a1.46,1.46,0,0,0,1.46-1.46v-3a1.42,1.42,0,0,0-.46-2.76h-1.4V46.18h1.33a1.74,1.74,0,0,0,1.74-1.74V39.11a1.74,1.74,0,0,0-1.21-1.65V34.9a1.56,1.56,0,0,0,1.37-1.55V32.07h.42a.88.88,0,0,0,.88-.88v-7A.88.88,0,0,0,52.14,23.27Z"/><path class="cls-1" d="M2.67,12.49h1v.2a.94.94,0,0,0,.94.94h.77a.94.94,0,0,0,.94-.94V11.35h3.5V10H6.28V8.7a.94.94,0,0,0-.94-.94H4.58a.94.94,0,0,0-.94.94v.79h-1a.9.9,0,0,0-.9.9v1.19A.9.9,0,0,0,2.67,12.49Z"/><path class="cls-1" d="M46.73,12.49v.2a.94.94,0,0,0,.94.94h.77a.94.94,0,0,0,.94-.94v-.2h1a.9.9,0,0,0,.9-.9V10.39a.9.9,0,0,0-.9-.9h-1V8.7a.94.94,0,0,0-.94-.94h-.77a.94.94,0,0,0-.94.94V10H43.27v1.31h3.47Z"/></g></g></svg>