<svg xmlns="http://www.w3.org/2000/svg" viewBox="0 0 174.05 174.06"><defs><style>.cls-1{fill:#ff6112;}.cls-2{fill:#fff;}</style></defs><title>Asset 4</title><g id="Layer_2" data-name="Layer 2"><g id="Layer_2-2" data-name="Layer 2"><path class="cls-1" d="M174,85.77h-2.81V79.19h2.47a87,87,0,0,0-173.35,0H3v6.58H0c0,.42,0,.84,0,1.26a86.58,86.58,0,0,0,11.21,42.75,16.29,16.29,0,0,1,11.85-5.11h127a16.28,16.28,0,0,1,12.4,5.71A86.62,86.62,0,0,0,174,87C174,86.61,174,86.19,174,85.77ZM14.84,90.63a3.93,3.93,0,0,1-3.92,3.92H10a3.92,3.92,0,0,1-3.91-3.92V76.52A3.91,3.91,0,0,1,10,72.61h1a3.92,3.92,0,0,1,3.92,3.91Zm11,13.24a3.83,3.83,0,1,1-7.67,0V63.29a3.83,3.83,0,1,1,7.67,0ZM145.37,102a18.91,18.91,0,0,1-18.91,18.91H48a18.85,18.85,0,0,1-13.28-5.45h-.39V115A18.87,18.87,0,0,1,29.1,102V60.81A18.92,18.92,0,0,1,44.59,42.22a2.2,2.2,0,0,1-.13-.63V37.82a2.5,2.5,0,0,1,2.5-2.5H57.62v-4a2.58,2.58,0,0,1,2.58-2.57h3.62a2.58,2.58,0,0,1,2.58,2.57v4h4.07A2.5,2.5,0,0,1,73,37.82v3.77a1.73,1.73,0,0,1-.07.31h28.65a1.73,1.73,0,0,1-.07-.31V37.82a2.51,2.51,0,0,1,2.51-2.5h4.08v-4a2.57,2.57,0,0,1,2.57-2.57h3.62a2.57,2.57,0,0,1,2.58,2.57v4h10.66a2.5,2.5,0,0,1,2.5,2.5v3.77a2.2,2.2,0,0,1-.13.63,18.92,18.92,0,0,1,15.49,18.59Zm10.79,1.91a3.84,3.84,0,1,1-7.68,0V63.29a3.84,3.84,0,1,1,7.68,0ZM168,90.63a3.92,3.92,0,0,1-3.91,3.92h-.95a3.93,3.93,0,0,1-3.92-3.92V76.52a3.92,3.92,0,0,1,3.92-3.91h.95A3.91,3.91,0,0,1,168,76.52Z"/><path class="cls-2" d="M171.23,85.77H174c0-2.21-.15-4.41-.34-6.58h-2.47Z"/><path class="cls-2" d="M164.14,72.61h-.95a3.92,3.92,0,0,0-3.92,3.91V90.63a3.93,3.93,0,0,0,3.92,3.92h.95A3.92,3.92,0,0,0,168,90.63V76.52A3.91,3.91,0,0,0,164.14,72.61Z"/><path class="cls-2" d="M152.32,59.45a3.84,3.84,0,0,0-3.84,3.84v40.58a3.84,3.84,0,1,0,7.68,0V63.29A3.84,3.84,0,0,0,152.32,59.45Z"/><path class="cls-2" d="M129.88,42.22a2.2,2.2,0,0,0,.13-.63V37.82a2.5,2.5,0,0,0-2.5-2.5H116.85v-4a2.57,2.57,0,0,0-2.58-2.57h-3.62a2.57,2.57,0,0,0-2.57,2.57v4H104a2.51,2.51,0,0,0-2.51,2.5v3.77a1.73,1.73,0,0,0,.07.31H72.91a1.73,1.73,0,0,0,.07-.31V37.82a2.5,2.5,0,0,0-2.51-2.5H66.4v-4a2.58,2.58,0,0,0-2.58-2.57H60.2a2.58,2.58,0,0,0-2.58,2.57v4H47a2.5,2.5,0,0,0-2.5,2.5v3.77a2.2,2.2,0,0,0,.13.63A18.92,18.92,0,0,0,29.1,60.81V102A18.87,18.87,0,0,0,34.35,115v.41h.39A18.85,18.85,0,0,0,48,120.87h78.44A18.91,18.91,0,0,0,145.37,102V60.81A18.92,18.92,0,0,0,129.88,42.22ZM98.29,105.61H75.69a2.1,2.1,0,0,1,0-4.19h22.6a2.1,2.1,0,0,1,0,4.19Zm24.82-18.1H50.82a13.22,13.22,0,0,1,0-26.44h72.29a13.22,13.22,0,0,1,0,26.44Z"/><path class="cls-1" d="M123.11,61.07H50.82a13.22,13.22,0,0,0,0,26.44h72.29a13.22,13.22,0,0,0,0-26.44Zm0,22.25H50.82a9,9,0,0,1,0-18.07h72.29a9,9,0,0,1,0,18.07Z"/><path class="cls-1" d="M123.11,65.25H50.82a9,9,0,0,0,0,18.07h72.29a9,9,0,0,0,0-18.07ZM64.48,79H48.1V69.74H64.48Zm61.68,0H109.78V69.74h16.38Z"/><path class="cls-2" d="M109.78,79h16.38V69.74H109.78Zm7-6.38a2.09,2.09,0,0,1,4.18,0V76a2.09,2.09,0,1,1-4.18,0Zm-5.31,0a2.09,2.09,0,0,1,4.19,0V76a2.09,2.09,0,1,1-4.19,0Z"/><path class="cls-1" d="M118.86,78.12a2.09,2.09,0,0,0,2.09-2.1V72.61a2.09,2.09,0,0,0-4.18,0V76A2.09,2.09,0,0,0,118.86,78.12Z"/><path class="cls-1" d="M113.56,78.12a2.1,2.1,0,0,0,2.09-2.1V72.61a2.09,2.09,0,0,0-4.19,0V76A2.1,2.1,0,0,0,113.56,78.12Z"/><path class="cls-1" d="M98.29,101.42H75.69a2.1,2.1,0,0,0,0,4.19h22.6a2.1,2.1,0,0,0,0-4.19Z"/><path class="cls-2" d="M48.1,79H64.48V69.74H48.1ZM55,72.61a2.1,2.1,0,0,1,4.19,0V76A2.1,2.1,0,1,1,55,76Zm-5.31,0a2.09,2.09,0,0,1,4.19,0V76a2.09,2.09,0,1,1-4.19,0Z"/><path class="cls-1" d="M57.1,78.12A2.1,2.1,0,0,0,59.2,76V72.61a2.1,2.1,0,0,0-4.19,0V76A2.1,2.1,0,0,0,57.1,78.12Z"/><path class="cls-1" d="M51.8,78.12A2.1,2.1,0,0,0,53.89,76V72.61a2.09,2.09,0,0,0-4.19,0V76A2.1,2.1,0,0,0,51.8,78.12Z"/><path class="cls-2" d="M22,59.45a3.83,3.83,0,0,0-3.84,3.84v40.58a3.83,3.83,0,1,0,7.67,0V63.29A3.83,3.83,0,0,0,22,59.45Z"/><path class="cls-2" d="M10.92,72.61H10a3.91,3.91,0,0,0-3.91,3.91V90.63A3.92,3.92,0,0,0,10,94.55h1a3.93,3.93,0,0,0,3.92-3.92V76.52A3.92,3.92,0,0,0,10.92,72.61Z"/><path class="cls-2" d="M3,79.19H.35C.16,81.36,0,83.56,0,85.77H3Z"/><path class="cls-1" d="M58.48,151.77l7.19-6.28,7.92,6.32L81,145.39l12.72,12.95,15.84-14.76,8.44,6.88,15.29-12.85L143.9,147v-6.64a4.13,4.13,0,0,0-4.13-4.13H35.08A4.13,4.13,0,0,0,31,140.34v11.34l13-12.6Z"/><path class="cls-1" d="M80.83,149.5l-7.17,6.22-7.91-6.32-7.27,6.36L44,143.16,32.23,154.62a87.34,87.34,0,0,0,7.13,5.21H91Z"/><path class="cls-1" d="M133.24,141.56,118,154.34l-8.34-6.79L96.5,159.84H134.7a87.34,87.34,0,0,0,9.21-7V151Z"/><polygon class="cls-2" points="93.63 162.52 96.5 159.84 90.99 159.84 93.63 162.52"/><polygon class="cls-2" points="144.07 151.13 146.06 148.88 143.9 146.98 143.9 150.98 144.07 151.13"/><path class="cls-2" d="M91,159.84H39.35a87,87,0,0,0,95.34,0H96.5l-2.88,2.68Z"/><path class="cls-2" d="M150.1,124.67h-127a16.29,16.29,0,0,0-11.85,5.11A88.23,88.23,0,0,0,31,153.58c.42.35.85.69,1.27,1L44,143.16l14.45,12.6,7.27-6.36,7.91,6.32,7.17-6.22L91,159.84H96.5l13.19-12.29,8.34,6.79,15.21-12.78L143.9,151v-4l-10.62-9.38L118,150.45l-8.44-6.88L93.72,158.33,81,145.39l-7.41,6.43-7.92-6.32-7.19,6.28L43.92,139.08l-13,12.6V140.34a4.13,4.13,0,0,1,4.13-4.13H139.77a4.13,4.13,0,0,1,4.13,4.13V147l2.15,1.9-2,2.25-.17-.15v1.9a87.42,87.42,0,0,0,18.6-22.5A16.28,16.28,0,0,0,150.1,124.67Z"/></g></g></svg>