<svg xmlns="http://www.w3.org/2000/svg" viewBox="0 0 254.44 374.44"><defs><style>.cls-1{fill:#ff6112;}.cls-2{fill:gray;}</style></defs><title>Asset 3</title><g id="Layer_2" data-name="Layer 2"><g id="Layer_2-2" data-name="Layer 2"><path class="cls-1" d="M15.32,277.64v13a6,6,0,0,0,6,6h1a6,6,0,0,0,6-6V277.76H16.5A7.81,7.81,0,0,1,15.32,277.64Z"/><path class="cls-1" d="M227.7,277.76v12.86a6,6,0,0,0,6,6h1a6,6,0,0,0,6-6v-13a7.81,7.81,0,0,1-1.18.12Z"/><path class="cls-1" d="M12.81,58.89h5.71v2A3.46,3.46,0,0,0,22,64.35h3.68a3.46,3.46,0,0,0,3.46-3.46V41.76a3.46,3.46,0,0,0-3.46-3.46H22a3.46,3.46,0,0,0-3.46,3.46V46.6H12.81a3.29,3.29,0,0,0-3.29,3.29V55.6A3.29,3.29,0,0,0,12.81,58.89Z"/><path class="cls-1" d="M228.79,64.35h3.68a3.46,3.46,0,0,0,3.46-3.46v-2h5.71a3.29,3.29,0,0,0,3.29-3.29V49.88a3.29,3.29,0,0,0-3.29-3.29h-5.71V41.76a3.46,3.46,0,0,0-3.46-3.46h-3.68a3.46,3.46,0,0,0-3.46,3.46V60.89A3.46,3.46,0,0,0,228.79,64.35Z"/><path class="cls-1" d="M102.28,164.54a2.09,2.09,0,0,0-2.94.38l-1.9,2.47h5.26A2.08,2.08,0,0,0,102.28,164.54Z"/><path class="cls-1" d="M91.92,174.55a2.09,2.09,0,1,0,3.32,2.56l7.42-9.63s0-.06,0-.09H97.44Z"/><path class="cls-1" d="M156.48,164.92a2.09,2.09,0,0,0-3.36,2.47h5.26Z"/><path class="cls-1" d="M158.38,167.39h-5.26s0,.06,0,.09l7.42,9.63a2.09,2.09,0,1,0,3.32-2.56Z"/><path class="cls-2" d="M81.75,291.92a10.93,10.93,0,0,0-7.13,10.22v9.69a10.93,10.93,0,0,0,7.13,10.22Z"/><path class="cls-2" d="M110.47,280.93V252.85H90.18v28.06h20.14Z"/><path class="cls-2" d="M110.47,339.93v-8.15l-.16,0H90.18v7.59h17A11.1,11.1,0,0,1,110.47,339.93Z"/><path class="cls-2" d="M110.47,283l-.16,0H89.87a6,6,0,0,0-6,6v34.65a6.08,6.08,0,0,0,6,6h20.44l.16,0a6,6,0,0,0,5.87-6V289A6,6,0,0,0,110.47,283Z"/><rect class="cls-2" x="63.09" y="360.34" width="53.26" height="14.11"/><path class="cls-2" d="M110.47,342.11a9.07,9.07,0,0,0-3.28-.63H72.24a9.17,9.17,0,0,0-9.16,9.16v.25h53.26v-.25A9.15,9.15,0,0,0,110.47,342.11Z"/><path class="cls-2" d="M178.89,302.14a10.93,10.93,0,0,0-7.13-10.22v30.13a10.93,10.93,0,0,0,7.13-10.22Z"/><path class="cls-2" d="M143,331.78v8.15a11.1,11.1,0,0,1,3.28-.55h17v-7.59H143.19Z"/><path class="cls-2" d="M163.33,280.91V252.85H143v28.07l.16,0Z"/><path class="cls-2" d="M137.16,289v34.63a6,6,0,0,0,5.87,6l.16,0h20.44a6.08,6.08,0,0,0,6-6V289a6,6,0,0,0-6-6H143.19l-.16,0A6,6,0,0,0,137.16,289Z"/><rect class="cls-2" x="137.16" y="360.34" width="53.26" height="14.11"/><path class="cls-2" d="M181.26,341.48h-35a9.24,9.24,0,0,0-9.15,9.16v.25h53.26v-.25A9.17,9.17,0,0,0,181.26,341.48Z"/><rect class="cls-2" x="196.22" y="41.9" width="8.38" height="20.95" rx="3.74" ry="3.74"/><path class="cls-2" d="M65.09,75.42a3.67,3.67,0,0,0,3.67-3.67V33a3.67,3.67,0,1,0-7.33,0V71.76A3.67,3.67,0,0,0,65.09,75.42Z"/><path class="cls-2" d="M189.58,75.42a3.67,3.67,0,0,0,3.67-3.67V33a3.67,3.67,0,1,0-7.33,0V71.76A3.67,3.67,0,0,0,189.58,75.42Z"/><rect class="cls-2" x="49.89" y="41.9" width="8.38" height="20.95" rx="3.74" ry="3.74"/><rect class="cls-2" x="207.64" y="48.19" width="15.59" height="6.29"/><rect class="cls-2" x="31.21" y="48.19" width="15.77" height="6.29"/><path class="cls-2" d="M203.09,107.24a15.62,15.62,0,0,0-15.62-15.62H66.13a15.62,15.62,0,0,0-15.62,15.62v6H45.68v39.09h4.83v13.27a15.61,15.61,0,0,0,8,13.6v29.21a7.62,7.62,0,0,0,6.93,7.67v21A13.72,13.72,0,0,0,79.1,250.76h95.39a13.72,13.72,0,0,0,13.71-13.71v-21a7.62,7.62,0,0,0,6.93-7.67V179.21a15.61,15.61,0,0,0,8-13.6V152.34h5.68V113.24h-5.68Zm-133.33,7A4.18,4.18,0,0,1,73.94,110h106a4.18,4.18,0,0,1,4.18,4.18v6.47l-10-8.8a2.1,2.1,0,0,0-2.73,0l-14.11,11.86-7.15-5.83a2.09,2.09,0,0,0-2.75.09l-14.66,13.66L121.27,120a2.09,2.09,0,0,0-2.87-.11l-6.06,5.26-6.65-5.31a2.1,2.1,0,0,0-2.69.06L97.06,125l-13.31-11.6a2.1,2.1,0,0,0-2.84.08L69.76,124.35ZM184.13,126v3.78a4.18,4.18,0,0,1-4.18,4.18H136.4l12.53-11.68,7.08,5.77a2.09,2.09,0,0,0,2.67,0l14.06-11.81,10.59,9.36A2.06,2.06,0,0,0,184.13,126Zm-55,8H73.94a4.18,4.18,0,0,1-4.18-4.17,2,2,0,0,0,.89-.48l11.8-11.46,13.23,11.53a2.1,2.1,0,0,0,2.76,0l6-5.25,6.64,5.31a2.1,2.1,0,0,0,2.68-.05l5.89-5.11ZM68.71,180.37V149.74a9.19,9.19,0,0,1,9.18-9.18h31.37a9.19,9.19,0,0,1,9.18,9.18v30.62Zm105.85,57.46a3,3,0,0,1-3,3H83.24a3,3,0,0,1-3-3v-5.15a3,3,0,0,1,3-3H171.6a3,3,0,0,1,3,3Zm9.57-25.64a2.21,2.21,0,0,1-2.21,2.21H72a2.21,2.21,0,0,1-2.21-2.21v-4.28A2.21,2.21,0,0,1,72,205.7H181.92a2.21,2.21,0,0,1,2.21,2.21Zm0-15.11a2.21,2.21,0,0,1-2.21,2.21H72a2.21,2.21,0,0,1-2.21-2.21V192.8A2.21,2.21,0,0,1,72,190.59H181.92a2.21,2.21,0,0,1,2.21,2.21Zm1-29.7v13H135.45V149.74a9.19,9.19,0,0,1,9.18-9.18H176a9.19,9.19,0,0,1,9.18,9.18Z"/><path class="cls-2" d="M38.07,106v53.61H40a3.6,3.6,0,0,0,3.6-3.6V109.59A3.6,3.6,0,0,0,40,106Z"/><path class="cls-2" d="M0,115.9v33.79a4.21,4.21,0,0,0,4.21,4.21h1V111.69h-1A4.21,4.21,0,0,0,0,115.9Z"/><path class="cls-2" d="M216.37,159.59V106h-1.92a3.6,3.6,0,0,0-3.6,3.6V156a3.6,3.6,0,0,0,3.6,3.6Z"/><path class="cls-2" d="M250.23,111.69h-1v42.21h1a4.21,4.21,0,0,0,4.21-4.21V115.9A4.21,4.21,0,0,0,250.23,111.69Z"/><path class="cls-2" d="M14.27,168.61v10.06a9.28,9.28,0,0,1,2.56-.4H29.64a9.16,9.16,0,0,1,1,.1V168.5a8.44,8.44,0,0,1-1.11.11Z"/><path class="cls-2" d="M29.64,222.69H23.24V262H38V217.51A9.38,9.38,0,0,1,29.64,222.69Z"/><path class="cls-2" d="M16.83,220.6H29.64A7.32,7.32,0,0,0,37,213.29V187.67a7.3,7.3,0,0,0-6.33-7.21,7.2,7.2,0,0,0-1-.1H16.83a7.39,7.39,0,0,0-7.31,7.31v25.61A7.32,7.32,0,0,0,16.83,220.6Z"/><path class="cls-2" d="M23.24,264.09H16.5a5.79,5.79,0,0,0,0,11.58H32.85V292a4.59,4.59,0,0,0,4.58,4.58h1.79A4.59,4.59,0,0,0,43.81,292V264.09H23.24Z"/><path class="cls-2" d="M239.08,178.27a9.27,9.27,0,0,1,2.56.4V168.51a8.37,8.37,0,0,1-.94.1H225.3v9.76a9.19,9.19,0,0,1,1-.1Z"/><path class="cls-2" d="M232.68,222.69h-6.41a9.38,9.38,0,0,1-8.36-5.18V262h14.76Z"/><path class="cls-2" d="M241.64,180.85a7.22,7.22,0,0,0-2.56-.49H226.27a7.14,7.14,0,0,0-1,.1,7.3,7.3,0,0,0-6.33,7.21v25.61a7.32,7.32,0,0,0,7.31,7.31h12.81a7.32,7.32,0,0,0,7.31-7.31V187.67A7.3,7.3,0,0,0,241.64,180.85Z"/><path class="cls-2" d="M239.42,264.09H212.11V292a4.59,4.59,0,0,0,4.58,4.58h1.79a4.59,4.59,0,0,0,4.58-4.58V275.67h16.36a5.76,5.76,0,0,0,2.23-.45,5.79,5.79,0,0,0-2.23-11.13Z"/><path class="cls-2" d="M14.27,166.51H29.51a6.59,6.59,0,0,0,6.34-5.21,6.49,6.49,0,0,0,.11-1.08c0-.06,0-.12,0-.18V105.53c0-.06,0-.12,0-.18a6.39,6.39,0,0,0-6.45-6.29H13.74a6.47,6.47,0,0,0-6.47,6.47V160a6.47,6.47,0,0,0,6.47,6.47Z"/><path class="cls-2" d="M240.7,99.07H224.93a6.39,6.39,0,0,0-6.45,6.29c0,.06,0,.12,0,.18V160c0,.06,0,.12,0,.18a6.39,6.39,0,0,0,6.45,6.29H240.7a6.67,6.67,0,0,0,6.47-6.47V105.53A6.47,6.47,0,0,0,240.7,99.07Z"/><path class="cls-2" d="M109.26,142.66H77.89a7.09,7.09,0,0,0-7.08,7.08v25.68a23.36,23.36,0,0,1,4.92-8c3.53-3.74,9.08-6.92,17.85-6.92s14.32,3.18,17.85,6.92a23.35,23.35,0,0,1,4.92,8V149.74A7.09,7.09,0,0,0,109.26,142.66Zm-23,11.23H76.91v-5.48h9.34Zm12,0H88.91v-5.48h9.34Zm12,0H100.9v-5.48h9.34Z"/><path class="cls-2" d="M176,142.66H144.62a7.09,7.09,0,0,0-7.08,7.08v25.68a23.35,23.35,0,0,1,4.92-8c3.53-3.74,9.08-6.92,17.85-6.92s14.32,3.18,17.85,6.92a23.36,23.36,0,0,1,4.92,8V149.74A7.09,7.09,0,0,0,176,142.66Zm-23,11.23h-9.34v-5.48H153Zm12,0h-9.34v-5.48H165Zm12,0h-9.34v-5.48H177Z"/><path class="cls-2" d="M76.91,82.79h.37A18,18,0,0,0,90,88h74.91a18.06,18.06,0,0,0,18.06-18.06V30.63a18.06,18.06,0,0,0-14.79-17.75,2.32,2.32,0,0,0,.12-.61V8.68a2.39,2.39,0,0,0-2.39-2.39H155.7V2.46A2.46,2.46,0,0,0,153.24,0h-3.46a2.46,2.46,0,0,0-2.46,2.46V6.29h-3.89A2.39,2.39,0,0,0,141,8.68v3.6a2.24,2.24,0,0,0,.06.3H113.74a2.28,2.28,0,0,0,.06-.3V8.68a2.39,2.39,0,0,0-2.39-2.39h-3.89V2.46A2.46,2.46,0,0,0,105.06,0H101.6a2.46,2.46,0,0,0-2.46,2.46V6.29H89a2.39,2.39,0,0,0-2.39,2.39v3.6a2.32,2.32,0,0,0,.12.61A18.06,18.06,0,0,0,71.9,30.63v39.3a18,18,0,0,0,5,12.46ZM138,73.42H116.4a2,2,0,0,1,0-4H138a2,2,0,0,1,0,4ZM92.65,30.88h69a12.63,12.63,0,0,1,0,25.25h-69a12.63,12.63,0,1,1,0-25.25Z"/><path class="cls-1" d="M92.65,52.13h69a8.63,8.63,0,0,0,0-17.25h-69a8.63,8.63,0,1,0,0,17.25Zm56.3-13H164.6V48H148.95ZM90,39.16h15.65V48H90Z"/><path class="cls-2" d="M93.58,39.9a2,2,0,0,0-2,2v3.26a2,2,0,0,0,4,0V41.9A2,2,0,0,0,93.58,39.9Z"/><path class="cls-2" d="M98.64,39.9a2,2,0,0,0-2,2v3.26a2,2,0,0,0,4,0V41.9A2,2,0,0,0,98.64,39.9Z"/><path class="cls-2" d="M152.56,39.9a2,2,0,0,0-2,2v3.26a2,2,0,0,0,4,0V41.9A2,2,0,0,0,152.56,39.9Z"/><path class="cls-2" d="M157.62,39.9a2,2,0,0,0-2,2v3.26a2,2,0,0,0,4,0V41.9A2,2,0,0,0,157.62,39.9Z"/></g></g></svg>