<svg width="360" height="33" viewBox="0 0 360 33" fill="none" xmlns="http://www.w3.org/2000/svg">
<path d="M212.86 26.28C211.815 26.28 210.909 26.2333 210.144 26.14C209.397 26.0653 208.669 25.9253 207.96 25.72V6.68C208.669 6.47467 209.397 6.33467 210.144 6.26C210.909 6.16667 211.815 6.12 212.86 6.12C214.409 6.12 215.707 6.43733 216.752 7.072C217.816 7.70667 218.619 8.76133 219.16 10.236C219.72 11.692 220 13.68 220 16.2C220 18.72 219.72 20.7173 219.16 22.192C218.619 23.6667 217.816 24.7213 216.752 25.356C215.707 25.972 214.409 26.28 212.86 26.28ZM211.32 24.18H212.86C213.607 24.18 214.26 23.956 214.82 23.508C215.399 23.0413 215.847 22.2293 216.164 21.072C216.481 19.9147 216.64 18.2907 216.64 16.2C216.64 14.0907 216.481 12.4667 216.164 11.328C215.847 10.1707 215.399 9.368 214.82 8.92C214.26 8.45333 213.607 8.22 212.86 8.22H211.32V24.18ZM226.718 26.28C225.934 26.28 225.206 26.1587 224.534 25.916C223.88 25.6733 223.358 25.2347 222.966 24.6C222.574 23.9467 222.378 23.0133 222.378 21.8C222.378 20.5867 222.574 19.6627 222.966 19.028C223.376 18.3747 223.927 17.9267 224.618 17.684C225.327 17.4413 226.12 17.32 226.998 17.32C227.427 17.32 227.838 17.348 228.23 17.404C228.64 17.46 229.023 17.5253 229.378 17.6V16.48C229.378 15.36 229.116 14.6133 228.594 14.24C228.071 13.8667 227.352 13.68 226.438 13.68H223.638V12.28C224.067 12.1307 224.59 12 225.206 11.888C225.84 11.776 226.438 11.72 226.998 11.72C228.267 11.72 229.322 11.8507 230.162 12.112C231.02 12.3547 231.664 12.8213 232.094 13.512C232.523 14.184 232.738 15.1733 232.738 16.48V26H230.358L229.938 25.16H229.798C229.499 25.44 229.098 25.7013 228.594 25.944C228.108 26.168 227.483 26.28 226.718 26.28ZM227.838 24.32C228.192 24.32 228.5 24.264 228.762 24.152C229.042 24.0213 229.247 23.8907 229.378 23.76V19.28H227.838C227.52 19.28 227.194 19.3547 226.858 19.504C226.54 19.6533 226.27 19.9147 226.046 20.288C225.84 20.6427 225.738 21.1467 225.738 21.8C225.738 22.4533 225.84 22.9667 226.046 23.34C226.27 23.6947 226.54 23.9467 226.858 24.096C227.194 24.2453 227.52 24.32 227.838 24.32ZM240.987 26.28C240.203 26.28 239.475 26.1587 238.803 25.916C238.15 25.6547 237.627 25.188 237.235 24.516C236.843 23.8253 236.647 22.8267 236.647 21.52V14.38H235.107V12.28H236.647V8.92H240.007V12.28H243.787V13.82C243.376 13.9507 242.844 14.0813 242.191 14.212C241.538 14.324 240.856 14.38 240.147 14.38H240.007V21.52C240.007 22.2667 240.1 22.8453 240.287 23.256C240.474 23.648 240.707 23.928 240.987 24.096C241.267 24.2453 241.547 24.32 241.827 24.32H244.347V25.72C244.123 25.8133 243.815 25.9067 243.423 26C243.031 26.0747 242.62 26.14 242.191 26.196C241.762 26.252 241.36 26.28 240.987 26.28ZM249.96 26.28C249.176 26.28 248.448 26.1587 247.776 25.916C247.123 25.6733 246.6 25.2347 246.208 24.6C245.816 23.9467 245.62 23.0133 245.62 21.8C245.62 20.5867 245.816 19.6627 246.208 19.028C246.619 18.3747 247.169 17.9267 247.86 17.684C248.569 17.4413 249.363 17.32 250.24 17.32C250.669 17.32 251.08 17.348 251.472 17.404C251.883 17.46 252.265 17.5253 252.62 17.6V16.48C252.62 15.36 252.359 14.6133 251.836 14.24C251.313 13.8667 250.595 13.68 249.68 13.68H246.88V12.28C247.309 12.1307 247.832 12 248.448 11.888C249.083 11.776 249.68 11.72 250.24 11.72C251.509 11.72 252.564 11.8507 253.404 12.112C254.263 12.3547 254.907 12.8213 255.336 13.512C255.765 14.184 255.98 15.1733 255.98 16.48V26H253.6L253.18 25.16H253.04C252.741 25.44 252.34 25.7013 251.836 25.944C251.351 26.168 250.725 26.28 249.96 26.28ZM251.08 24.32C251.435 24.32 251.743 24.264 252.004 24.152C252.284 24.0213 252.489 23.8907 252.62 23.76V19.28H251.08C250.763 19.28 250.436 19.3547 250.1 19.504C249.783 19.6533 249.512 19.9147 249.288 20.288C249.083 20.6427 248.98 21.1467 248.98 21.8C248.98 22.4533 249.083 22.9667 249.288 23.34C249.512 23.6947 249.783 23.9467 250.1 24.096C250.436 24.2453 250.763 24.32 251.08 24.32ZM264.369 26.28C263.398 26.28 262.558 26.2053 261.849 26.056C261.158 25.9253 260.458 25.72 259.749 25.44V6.4H263.109V12.42C263.408 12.2147 263.753 12.0467 264.145 11.916C264.556 11.7853 265.004 11.72 265.489 11.72C266.516 11.72 267.402 11.9627 268.149 12.448C268.914 12.9147 269.502 13.68 269.913 14.744C270.324 15.808 270.529 17.2267 270.529 19C270.529 20.7733 270.305 22.192 269.857 23.256C269.428 24.32 268.756 25.0947 267.841 25.58C266.926 26.0467 265.769 26.28 264.369 26.28ZM263.109 24.32H264.369C264.929 24.32 265.414 24.1707 265.825 23.872C266.254 23.5547 266.581 23.0133 266.805 22.248C267.048 21.4827 267.169 20.4 267.169 19C267.169 17.6 267.057 16.5173 266.833 15.752C266.609 14.968 266.301 14.4267 265.909 14.128C265.536 13.8293 265.116 13.68 264.649 13.68C264.294 13.68 263.986 13.736 263.725 13.848C263.464 13.96 263.258 14.0907 263.109 14.24V24.32ZM277.112 26.28C276.328 26.28 275.6 26.1587 274.928 25.916C274.275 25.6733 273.752 25.2347 273.36 24.6C272.968 23.9467 272.772 23.0133 272.772 21.8C272.772 20.5867 272.968 19.6627 273.36 19.028C273.771 18.3747 274.322 17.9267 275.012 17.684C275.722 17.4413 276.515 17.32 277.392 17.32C277.822 17.32 278.232 17.348 278.624 17.404C279.035 17.46 279.418 17.5253 279.772 17.6V16.48C279.772 15.36 279.511 14.6133 278.988 14.24C278.466 13.8667 277.747 13.68 276.832 13.68H274.032V12.28C274.462 12.1307 274.984 12 275.6 11.888C276.235 11.776 276.832 11.72 277.392 11.72C278.662 11.72 279.716 11.8507 280.556 12.112C281.415 12.3547 282.059 12.8213 282.488 13.512C282.918 14.184 283.132 15.1733 283.132 16.48V26H280.752L280.332 25.16H280.192C279.894 25.44 279.492 25.7013 278.988 25.944C278.503 26.168 277.878 26.28 277.112 26.28ZM278.232 24.32C278.587 24.32 278.895 24.264 279.156 24.152C279.436 24.0213 279.642 23.8907 279.772 23.76V19.28H278.232C277.915 19.28 277.588 19.3547 277.252 19.504C276.935 19.6533 276.664 19.9147 276.44 20.288C276.235 20.6427 276.132 21.1467 276.132 21.8C276.132 22.4533 276.235 22.9667 276.44 23.34C276.664 23.6947 276.935 23.9467 277.252 24.096C277.588 24.2453 277.915 24.32 278.232 24.32ZM289.701 26.28C289.011 26.28 288.339 26.2147 287.685 26.084C287.032 25.972 286.491 25.8507 286.061 25.72V24.32H289.141C290.187 24.32 290.98 24.1707 291.521 23.872C292.081 23.5547 292.361 23.0507 292.361 22.36C292.361 21.8747 292.203 21.4827 291.885 21.184C291.568 20.8667 291.157 20.596 290.653 20.372C290.168 20.148 289.636 19.924 289.057 19.7C288.497 19.4573 287.965 19.1773 287.461 18.86C286.976 18.524 286.575 18.104 286.257 17.6C285.94 17.0773 285.781 16.424 285.781 15.64C285.781 14.0907 286.248 13.0547 287.181 12.532C288.133 11.9907 289.487 11.72 291.241 11.72C291.951 11.72 292.632 11.776 293.285 11.888C293.939 12 294.471 12.1307 294.881 12.28V13.68H291.801C291.036 13.68 290.401 13.82 289.897 14.1C289.393 14.38 289.141 14.8 289.141 15.36C289.141 15.8453 289.3 16.2467 289.617 16.564C289.935 16.8627 290.336 17.124 290.821 17.348C291.325 17.572 291.857 17.8053 292.417 18.048C292.996 18.272 293.528 18.552 294.013 18.888C294.517 19.2053 294.928 19.616 295.245 20.12C295.563 20.624 295.721 21.2773 295.721 22.08C295.721 23.2 295.497 24.068 295.049 24.684C294.62 25.2813 293.957 25.7013 293.061 25.944C292.184 26.168 291.064 26.28 289.701 26.28ZM303.983 26.28C302.545 26.28 301.36 26.0467 300.427 25.58C299.493 25.0947 298.803 24.32 298.355 23.256C297.907 22.192 297.683 20.7733 297.683 19C297.683 17.2267 297.888 15.808 298.299 14.744C298.728 13.68 299.335 12.9147 300.119 12.448C300.921 11.9627 301.883 11.72 303.003 11.72C304.123 11.72 305.075 11.9627 305.859 12.448C306.661 12.9147 307.268 13.68 307.679 14.744C308.108 15.808 308.323 17.2267 308.323 19V19.98H301.043C301.043 21.5853 301.323 22.7147 301.883 23.368C302.461 24.0027 303.348 24.32 304.543 24.32H307.623V25.72C307.212 25.8507 306.68 25.972 306.027 26.084C305.373 26.2147 304.692 26.28 303.983 26.28ZM301.043 18.02H304.963C304.963 16.8067 304.879 15.8827 304.711 15.248C304.543 14.5947 304.309 14.1467 304.011 13.904C303.712 13.6613 303.376 13.54 303.003 13.54C302.629 13.54 302.293 13.6613 301.995 13.904C301.696 14.1467 301.463 14.5947 301.295 15.248C301.127 15.8827 301.043 16.8067 301.043 18.02ZM318.401 26V6.4H321.761V23.76H328.621V26H318.401ZM334.37 26.28C333.586 26.28 332.858 26.1587 332.186 25.916C331.533 25.6733 331.01 25.2347 330.618 24.6C330.226 23.9467 330.03 23.0133 330.03 21.8C330.03 20.5867 330.226 19.6627 330.618 19.028C331.029 18.3747 331.579 17.9267 332.27 17.684C332.979 17.4413 333.773 17.32 334.65 17.32C335.079 17.32 335.49 17.348 335.882 17.404C336.293 17.46 336.675 17.5253 337.03 17.6V16.48C337.03 15.36 336.769 14.6133 336.246 14.24C335.723 13.8667 335.005 13.68 334.09 13.68H331.29V12.28C331.719 12.1307 332.242 12 332.858 11.888C333.493 11.776 334.09 11.72 334.65 11.72C335.919 11.72 336.974 11.8507 337.814 12.112C338.673 12.3547 339.317 12.8213 339.746 13.512C340.175 14.184 340.39 15.1733 340.39 16.48V26H338.01L337.59 25.16H337.45C337.151 25.44 336.75 25.7013 336.246 25.944C335.761 26.168 335.135 26.28 334.37 26.28ZM335.49 24.32C335.845 24.32 336.153 24.264 336.414 24.152C336.694 24.0213 336.899 23.8907 337.03 23.76V19.28H335.49C335.173 19.28 334.846 19.3547 334.51 19.504C334.193 19.6533 333.922 19.9147 333.698 20.288C333.493 20.6427 333.39 21.1467 333.39 21.8C333.39 22.4533 333.493 22.9667 333.698 23.34C333.922 23.6947 334.193 23.9467 334.51 24.096C334.846 24.2453 335.173 24.32 335.49 24.32ZM348.779 26.28C347.809 26.28 346.969 26.2053 346.259 26.056C345.569 25.9253 344.869 25.72 344.159 25.44V6.4H347.519V12.42C347.818 12.2147 348.163 12.0467 348.555 11.916C348.966 11.7853 349.414 11.72 349.899 11.72C350.926 11.72 351.813 11.9627 352.559 12.448C353.325 12.9147 353.913 13.68 354.323 14.744C354.734 15.808 354.939 17.2267 354.939 19C354.939 20.7733 354.715 22.192 354.267 23.256C353.838 24.32 353.166 25.0947 352.251 25.58C351.337 26.0467 350.179 26.28 348.779 26.28ZM347.519 24.32H348.779C349.339 24.32 349.825 24.1707 350.235 23.872C350.665 23.5547 350.991 23.0133 351.215 22.248C351.458 21.4827 351.579 20.4 351.579 19C351.579 17.6 351.467 16.5173 351.243 15.752C351.019 14.968 350.711 14.4267 350.319 14.128C349.946 13.8293 349.526 13.68 349.059 13.68C348.705 13.68 348.397 13.736 348.135 13.848C347.874 13.96 347.669 14.0907 347.519 14.24V24.32Z" fill="#555555"/>
<path d="M1.96 25V5.68C2.66933 5.47467 3.39733 5.33467 4.144 5.26C4.90933 5.16667 5.81467 5.12 6.86 5.12C8.40933 5.12 9.66 5.35333 10.612 5.82C11.5827 6.28667 12.292 7.03333 12.74 8.06C13.2067 9.08667 13.44 10.44 13.44 12.12C13.44 13.8933 13.2253 15.312 12.796 16.376C12.3667 17.44 11.7227 18.2147 10.864 18.7C10.024 19.1667 8.96933 19.4 7.7 19.4C7.49467 19.4 7.13067 19.372 6.608 19.316C6.104 19.26 5.67467 19.1947 5.32 19.12V25H1.96ZM5.32 17.16H6.86C7.56933 17.16 8.15733 17.0107 8.624 16.712C9.10933 16.4133 9.47333 15.9 9.716 15.172C9.95867 14.444 10.08 13.4267 10.08 12.12C10.08 10.8507 9.95867 9.86133 9.716 9.152C9.47333 8.44267 9.10933 7.948 8.624 7.668C8.15733 7.36933 7.56933 7.22 6.86 7.22H5.32V17.16ZM21.1302 25.28C19.9168 25.28 18.8902 25.0467 18.0502 24.58C17.2288 24.0947 16.6035 23.32 16.1742 22.256C15.7448 21.192 15.5302 19.7733 15.5302 18C15.5302 16.2267 15.7448 14.808 16.1742 13.744C16.6035 12.68 17.2288 11.9147 18.0502 11.448C18.8902 10.9627 19.9168 10.72 21.1302 10.72C22.3435 10.72 23.3608 10.9627 24.1822 11.448C25.0222 11.9147 25.6568 12.68 26.0862 13.744C26.5155 14.808 26.7302 16.2267 26.7302 18C26.7302 19.7733 26.5155 21.192 26.0862 22.256C25.6568 23.32 25.0222 24.0947 24.1822 24.58C23.3608 25.0467 22.3435 25.28 21.1302 25.28ZM21.1302 23.46C21.5595 23.46 21.9422 23.3107 22.2782 23.012C22.6142 22.6947 22.8755 22.144 23.0622 21.36C23.2675 20.5573 23.3702 19.4373 23.3702 18C23.3702 16.544 23.2675 15.424 23.0622 14.64C22.8755 13.856 22.6142 13.3147 22.2782 13.016C21.9422 12.6987 21.5595 12.54 21.1302 12.54C20.7195 12.54 20.3368 12.6987 19.9822 13.016C19.6462 13.3147 19.3755 13.856 19.1702 14.64C18.9835 15.424 18.8902 16.544 18.8902 18C18.8902 19.4373 18.9835 20.5573 19.1702 21.36C19.3755 22.144 19.6462 22.6947 19.9822 23.012C20.3368 23.3107 20.7195 23.46 21.1302 23.46ZM31.0833 25L28.2833 11H31.6433L33.3513 20.8H33.4633L35.7033 13.8H38.2233L40.4633 20.8H40.5753L42.2833 11H45.6433L42.8433 25H39.2033L37.0193 18.14H36.9073L34.7233 25H31.0833ZM53.4942 25.28C52.0569 25.28 50.8716 25.0467 49.9382 24.58C49.0049 24.0947 48.3142 23.32 47.8662 22.256C47.4182 21.192 47.1942 19.7733 47.1942 18C47.1942 16.2267 47.3996 14.808 47.8102 13.744C48.2396 12.68 48.8462 11.9147 49.6302 11.448C50.4329 10.9627 51.3942 10.72 52.5142 10.72C53.6342 10.72 54.5862 10.9627 55.3702 11.448C56.1729 11.9147 56.7796 12.68 57.1902 13.744C57.6196 14.808 57.8342 16.2267 57.8342 18V18.98H50.5542C50.5542 20.5853 50.8342 21.7147 51.3942 22.368C51.9729 23.0027 52.8596 23.32 54.0542 23.32H57.1342V24.72C56.7236 24.8507 56.1916 24.972 55.5382 25.084C54.8849 25.2147 54.2036 25.28 53.4942 25.28ZM50.5542 17.02H54.4742C54.4742 15.8067 54.3902 14.8827 54.2222 14.248C54.0542 13.5947 53.8209 13.1467 53.5222 12.904C53.2236 12.6613 52.8876 12.54 52.5142 12.54C52.1409 12.54 51.8049 12.6613 51.5062 12.904C51.2076 13.1467 50.9742 13.5947 50.8062 14.248C50.6382 14.8827 50.5542 15.8067 50.5542 17.02ZM60.7731 25V11H63.1531L63.5731 12.12H63.7131C64.0118 11.84 64.4131 11.588 64.9171 11.364C65.4211 11.1213 66.0931 11 66.9331 11H68.7531V13.38H65.6731C65.3185 13.38 65.0105 13.436 64.7491 13.548C64.4878 13.66 64.2825 13.7907 64.1331 13.94V25H60.7731ZM76.1895 25.28C74.7522 25.28 73.5669 25.0467 72.6335 24.58C71.7002 24.0947 71.0095 23.32 70.5615 22.256C70.1135 21.192 69.8895 19.7733 69.8895 18C69.8895 16.2267 70.0949 14.808 70.5055 13.744C70.9349 12.68 71.5415 11.9147 72.3255 11.448C73.1282 10.9627 74.0895 10.72 75.2095 10.72C76.3295 10.72 77.2815 10.9627 78.0655 11.448C78.8682 11.9147 79.4749 12.68 79.8855 13.744C80.3149 14.808 80.5295 16.2267 80.5295 18V18.98H73.2495C73.2495 20.5853 73.5295 21.7147 74.0895 22.368C74.6682 23.0027 75.5549 23.32 76.7495 23.32H79.8295V24.72C79.4189 24.8507 78.8869 24.972 78.2335 25.084C77.5802 25.2147 76.8989 25.28 76.1895 25.28ZM73.2495 17.02H77.1695C77.1695 15.8067 77.0855 14.8827 76.9175 14.248C76.7495 13.5947 76.5162 13.1467 76.2175 12.904C75.9189 12.6613 75.5829 12.54 75.2095 12.54C74.8362 12.54 74.5002 12.6613 74.2015 12.904C73.9029 13.1467 73.6695 13.5947 73.5015 14.248C73.3335 14.8827 73.2495 15.8067 73.2495 17.02ZM87.5284 25.28C86.5951 25.28 85.7644 25.0467 85.0364 24.58C84.3271 24.0947 83.7671 23.32 83.3564 22.256C82.9644 21.192 82.7684 19.7733 82.7684 18C82.7684 16.2267 82.9738 14.808 83.3844 13.744C83.7951 12.68 84.3738 11.9147 85.1204 11.448C85.8858 10.9627 86.7818 10.72 87.8084 10.72C88.2938 10.72 88.7324 10.7853 89.1244 10.916C89.5351 11.0467 89.8898 11.2147 90.1884 11.42V5.4H93.5484V25H91.1684L90.7484 24.16H90.6084C90.3098 24.44 89.9084 24.7013 89.4044 24.944C88.9191 25.168 88.2938 25.28 87.5284 25.28ZM88.6484 23.32C89.0031 23.32 89.2924 23.264 89.5164 23.152C89.7591 23.0213 89.9831 22.8907 90.1884 22.76V13.24C90.0578 13.0907 89.8524 12.96 89.5724 12.848C89.3111 12.736 89.0031 12.68 88.6484 12.68C88.1818 12.68 87.7524 12.8293 87.3604 13.128C86.9871 13.4267 86.6884 13.968 86.4644 14.752C86.2404 15.5173 86.1284 16.6 86.1284 18C86.1284 19.4 86.2404 20.4827 86.4644 21.248C86.6884 22.0133 86.9871 22.5547 87.3604 22.872C87.7524 23.1707 88.1818 23.32 88.6484 23.32ZM109.092 25.28C108.121 25.28 107.281 25.2053 106.572 25.056C105.881 24.9253 105.181 24.72 104.472 24.44V5.4H107.832V11.42C108.13 11.2147 108.476 11.0467 108.868 10.916C109.278 10.7853 109.726 10.72 110.212 10.72C111.238 10.72 112.125 10.9627 112.872 11.448C113.637 11.9147 114.225 12.68 114.636 13.744C115.046 14.808 115.252 16.2267 115.252 18C115.252 19.7733 115.028 21.192 114.58 22.256C114.15 23.32 113.478 24.0947 112.564 24.58C111.649 25.0467 110.492 25.28 109.092 25.28ZM107.832 23.32H109.092C109.652 23.32 110.137 23.1707 110.548 22.872C110.977 22.5547 111.304 22.0133 111.528 21.248C111.77 20.4827 111.892 19.4 111.892 18C111.892 16.6 111.78 15.5173 111.556 14.752C111.332 13.968 111.024 13.4267 110.632 13.128C110.258 12.8293 109.838 12.68 109.372 12.68C109.017 12.68 108.709 12.736 108.448 12.848C108.186 12.96 107.981 13.0907 107.832 13.24V23.32ZM122.675 30.88C121.984 30.88 121.312 30.8147 120.659 30.684C120.006 30.572 119.464 30.4507 119.035 30.32V28.92H122.115C123.16 28.92 123.954 28.5933 124.495 27.94C125.055 27.2867 125.335 26.12 125.335 24.44C124.98 24.72 124.56 24.9253 124.075 25.056C123.608 25.2053 123.095 25.28 122.535 25.28C121.751 25.28 121.023 25.1587 120.351 24.916C119.698 24.6733 119.175 24.2347 118.783 23.6C118.391 22.9467 118.195 22.0133 118.195 20.8V11H121.555V20.8C121.555 21.7707 121.788 22.4333 122.255 22.788C122.722 23.1427 123.235 23.32 123.795 23.32C124.15 23.32 124.458 23.264 124.719 23.152C124.999 23.0213 125.204 22.8907 125.335 22.76V11H128.695V23.88C128.695 25.56 128.471 26.9133 128.023 27.94C127.594 28.9667 126.931 29.7133 126.035 30.18C125.158 30.6467 124.038 30.88 122.675 30.88Z" fill="#555555"/>
<g clip-path="url(#clip0_673_6)">
<path d="M173.647 7.39836C167.179 0.412711 149.587 4.29362 148.811 7.39836V27.0616C152.95 32.7536 171.319 31.46 173.647 27.0616V7.39836Z" fill="#FF6112"/>
<path d="M174.089 7.40354C173.49 5.18366 169.03 3 161.229 3C153.428 3 148.968 5.18366 148.369 7.40354C148.326 7.4796 148.294 7.56291 148.294 7.65709V7.91582V13.8665V14.1253V14.384V20.076V20.3347V20.5935V26.8029C148.294 26.8867 148.316 26.9659 148.354 27.0363C148.965 29.5692 154.432 31.46 161.229 31.46C168.01 31.46 173.468 29.577 174.1 27.0534C174.141 26.9794 174.164 26.894 174.164 26.8029V20.5935V20.3347V20.076V14.384V14.1253V13.8665V7.91582V7.65709C174.164 7.56291 174.132 7.4796 174.089 7.40354ZM173.089 20.5857C173.074 20.6483 173.054 20.7104 173.029 20.7735C173.008 20.8248 172.983 20.876 172.955 20.9272C172.92 20.9909 172.881 21.0545 172.835 21.1182C172.801 21.1663 172.762 21.2139 172.722 21.2615C172.664 21.3293 172.603 21.3971 172.534 21.4643C172.492 21.5052 172.446 21.5456 172.399 21.5864C172.315 21.6604 172.226 21.7339 172.127 21.8069C172.085 21.8385 172.039 21.869 171.994 21.9C171.877 21.9808 171.755 22.061 171.621 22.1396C171.586 22.1608 171.548 22.181 171.512 22.2017C171.357 22.2886 171.196 22.375 171.023 22.4589C171 22.4697 170.977 22.4801 170.954 22.4904C170.76 22.582 170.557 22.6721 170.341 22.759C170.334 22.7616 170.328 22.7637 170.322 22.7662C169.147 23.2356 167.644 23.6304 165.892 23.8891C165.884 23.8902 165.875 23.8912 165.866 23.8927C165.526 23.9429 165.176 23.9874 164.818 24.0268C164.759 24.033 164.698 24.0371 164.639 24.0433C164.326 24.0759 164.009 24.1059 163.683 24.1297C163.534 24.1406 163.378 24.1458 163.226 24.1551C162.981 24.1696 162.738 24.1856 162.487 24.1944C162.076 24.2074 161.657 24.2156 161.229 24.2156C160.801 24.2156 160.382 24.2074 159.971 24.1929C159.719 24.1841 159.476 24.1675 159.231 24.1535C159.08 24.1447 158.923 24.1391 158.774 24.1282C158.448 24.1044 158.132 24.0744 157.819 24.0418C157.76 24.0356 157.698 24.0314 157.64 24.0252C157.281 23.9859 156.932 23.9409 156.591 23.8912C156.583 23.8902 156.574 23.8891 156.565 23.8876C154.813 23.6288 153.31 23.234 152.135 22.7647C152.129 22.7626 152.123 22.76 152.117 22.7574C151.9 22.6705 151.697 22.5805 151.503 22.4889C151.481 22.478 151.457 22.4677 151.435 22.4573C151.261 22.3735 151.1 22.2876 150.946 22.2002C150.91 22.1795 150.871 22.1593 150.836 22.1381C150.702 22.0594 150.58 21.9792 150.463 21.8985C150.419 21.8674 150.372 21.8369 150.33 21.8053C150.231 21.7324 150.143 21.6589 150.058 21.5849C150.012 21.5445 149.965 21.5042 149.923 21.4628C149.854 21.3955 149.793 21.3282 149.736 21.2599C149.695 21.2123 149.656 21.1647 149.622 21.1166C149.577 21.053 149.538 20.9893 149.503 20.9257C149.475 20.8744 149.45 20.8232 149.429 20.772C149.403 20.7094 149.383 20.6468 149.369 20.5841C149.35 20.5019 149.328 20.418 149.328 20.3347C149.328 20.2763 149.335 20.2178 149.344 20.1598C149.357 20.0817 149.35 20.0036 149.328 19.9296V16.088C149.343 16.1014 149.361 16.1144 149.376 16.1278C149.489 16.2272 149.604 16.326 149.733 16.4212C151.682 17.8954 155.58 19.0411 161.229 19.0411C166.854 19.0411 170.742 17.9048 172.7 16.4393C172.856 16.3255 172.997 16.208 173.129 16.0885L173.13 19.9296C173.108 20.0036 173.101 20.0817 173.113 20.1598C173.123 20.2178 173.13 20.2763 173.13 20.3347C173.13 20.418 173.108 20.5019 173.089 20.5857ZM173.13 9.87852V13.7201C173.108 13.7941 173.101 13.8722 173.113 13.9504C173.123 14.0083 173.13 14.0668 173.13 14.1253C173.13 14.2086 173.108 14.2924 173.089 14.3762C173.074 14.4388 173.054 14.5009 173.029 14.5641C173.008 14.6153 172.983 14.6665 172.955 14.7178C172.92 14.7814 172.881 14.8451 172.835 14.9087C172.801 14.9568 172.762 15.0044 172.722 15.052C172.664 15.1198 172.603 15.1876 172.534 15.2549C172.492 15.2958 172.446 15.3361 172.399 15.377C172.315 15.451 172.226 15.5245 172.127 15.5974C172.085 15.629 172.039 15.6595 171.994 15.6906C171.877 15.7713 171.755 15.8515 171.621 15.9302C171.586 15.9514 171.548 15.9716 171.512 15.9922C171.357 16.0792 171.196 16.1656 171.023 16.2494C171 16.2603 170.977 16.2706 170.954 16.281C170.76 16.3726 170.557 16.4626 170.341 16.5495C170.334 16.5521 170.328 16.5542 170.322 16.5568C169.147 17.0261 167.644 17.4209 165.892 17.6797C165.884 17.6807 165.875 17.6817 165.866 17.6833C165.526 17.7335 165.176 17.778 164.818 17.8173C164.759 17.8235 164.698 17.8277 164.639 17.8339C164.326 17.8665 164.009 17.8965 163.683 17.9203C163.534 17.9312 163.378 17.9363 163.226 17.9456C162.981 17.9601 162.738 17.9762 162.487 17.985C162.076 17.9979 161.657 18.0062 161.229 18.0062C160.801 18.0062 160.382 17.9979 159.971 17.9834C159.719 17.9746 159.476 17.9581 159.231 17.9441C159.08 17.9353 158.923 17.9296 158.774 17.9187C158.448 17.8949 158.132 17.8649 157.819 17.8323C157.76 17.8261 157.698 17.822 157.64 17.8158C157.281 17.7764 156.932 17.7314 156.591 17.6817C156.583 17.6807 156.574 17.6797 156.565 17.6781C154.813 17.4194 153.31 17.0246 152.135 16.5552C152.129 16.5532 152.123 16.5506 152.117 16.548C151.9 16.4611 151.697 16.371 151.503 16.2794C151.481 16.2686 151.457 16.2582 151.435 16.2479C151.261 16.164 151.1 16.0781 150.946 15.9907C150.91 15.97 150.871 15.9498 150.836 15.9286C150.702 15.8499 150.58 15.7697 150.463 15.689C150.419 15.658 150.372 15.6274 150.33 15.5959C150.231 15.5229 150.143 15.4494 150.058 15.3754C150.012 15.3351 149.965 15.2947 149.923 15.2533C149.854 15.1861 149.793 15.1188 149.736 15.0505C149.695 15.0029 149.656 14.9553 149.622 14.9071C149.577 14.8435 149.538 14.7799 149.503 14.7162C149.475 14.665 149.45 14.6137 149.429 14.5625C149.403 14.4999 149.383 14.4373 149.369 14.3747C149.35 14.2924 149.328 14.2086 149.328 14.1253C149.328 14.0668 149.335 14.0083 149.344 13.9504C149.357 13.8722 149.35 13.7941 149.328 13.7201V9.87852C149.39 9.93493 149.461 9.99029 149.529 10.0462C149.566 10.0772 149.601 10.1083 149.64 10.1393C149.795 10.2614 149.963 10.382 150.144 10.4995C150.182 10.5238 150.225 10.5476 150.264 10.5719C150.416 10.6666 150.577 10.7592 150.746 10.8503C150.809 10.8839 150.871 10.9171 150.936 10.9502C151.125 11.0464 151.323 11.1401 151.532 11.2306C151.566 11.2456 151.597 11.2612 151.631 11.2757C151.874 11.3786 152.132 11.4769 152.4 11.5722C152.474 11.5985 152.551 11.6234 152.627 11.6493C152.841 11.7212 153.061 11.79 153.289 11.8568C153.371 11.8806 153.452 11.9054 153.537 11.9282C153.839 12.012 154.152 12.0917 154.48 12.1652C154.525 12.1755 154.573 12.1838 154.619 12.1936C154.908 12.2567 155.208 12.3152 155.517 12.3701C155.621 12.3887 155.727 12.4063 155.834 12.4239C156.127 12.472 156.429 12.516 156.739 12.5564C156.819 12.5667 156.895 12.5786 156.976 12.5884C157.361 12.635 157.759 12.6748 158.168 12.709C158.269 12.7173 158.374 12.7235 158.477 12.7307C158.804 12.7545 159.139 12.7742 159.482 12.7897C159.606 12.7954 159.73 12.8011 159.858 12.8058C160.304 12.8208 160.758 12.8316 161.229 12.8316C161.7 12.8316 162.154 12.8208 162.6 12.8058C162.727 12.8011 162.851 12.7954 162.976 12.7897C163.319 12.7742 163.654 12.7545 163.981 12.7307C164.084 12.723 164.188 12.7173 164.289 12.709C164.699 12.6754 165.097 12.635 165.482 12.5884C165.563 12.5786 165.639 12.5667 165.719 12.5564C166.028 12.516 166.33 12.472 166.624 12.4239C166.731 12.4063 166.837 12.3887 166.941 12.3701C167.25 12.3152 167.55 12.2567 167.839 12.1936C167.884 12.1838 167.933 12.175 167.978 12.1652C168.306 12.0917 168.619 12.0115 168.921 11.9282C169.006 11.9049 169.086 11.8806 169.169 11.8568C169.397 11.79 169.617 11.7212 169.83 11.6493C169.907 11.6234 169.984 11.5985 170.058 11.5722C170.326 11.4769 170.584 11.3786 170.826 11.2757C170.861 11.2612 170.892 11.2456 170.926 11.2306C171.135 11.1396 171.333 11.0464 171.522 10.9502C171.587 10.9171 171.65 10.8839 171.712 10.8503C171.881 10.7597 172.042 10.6671 172.194 10.5719C172.233 10.5476 172.276 10.5238 172.314 10.4995C172.495 10.382 172.663 10.262 172.818 10.1393C172.857 10.1083 172.892 10.0772 172.929 10.0462C172.997 9.99029 173.067 9.93493 173.13 9.87852ZM161.229 4.03491C168.243 4.03491 173.13 6.07989 173.13 7.91582C173.13 9.75175 168.243 11.7967 161.229 11.7967C154.215 11.7967 149.328 9.75175 149.328 7.91582C149.328 6.07989 154.215 4.03491 161.229 4.03491ZM173.13 26.6492C173.122 26.672 173.117 26.6953 173.113 26.7191C172.82 28.509 167.974 30.4251 161.229 30.4251C154.484 30.4251 149.638 28.509 149.345 26.7191C149.341 26.6958 149.335 26.673 149.328 26.6513V22.2974C149.343 22.3109 149.361 22.3238 149.376 22.3373C149.489 22.4366 149.604 22.5355 149.733 22.6307C151.682 24.1049 155.58 25.2505 161.229 25.2505C166.854 25.2505 170.742 24.1142 172.7 22.6488C172.856 22.5349 172.997 22.4175 173.129 22.2979L173.13 26.6492Z" fill="white"/>
</g>
<path fill-rule="evenodd" clip-rule="evenodd" d="M175.594 29.289C177.653 28.7278 179.318 27.6549 179.803 26.2267V8.10888C178.771 6.37284 177.26 5.36516 175.594 4.87536V29.289Z" fill="#FF6112"/>
<path fill-rule="evenodd" clip-rule="evenodd" d="M175.594 29.8969C178.051 29.2622 179.802 27.8937 180.071 26.2191C180.096 26.1509 180.11 26.0722 180.11 25.9883V20.2669V20.0285V19.7901V14.5455V14.3071V14.0687V8.58565V8.34726C180.11 8.26049 180.091 8.18372 180.065 8.11364C179.801 6.58956 178.268 5.08402 175.594 4.41556V5.40331C177.991 6.04431 179.497 7.36512 179.497 8.58565C179.497 9.80619 177.991 11.127 175.594 11.768V12.7528C175.611 12.7484 175.629 12.7439 175.647 12.7394C175.71 12.7232 175.773 12.707 175.835 12.6898C176.017 12.6393 176.195 12.5854 176.366 12.5272C176.379 12.5228 176.392 12.5187 176.406 12.5145C176.42 12.5101 176.435 12.5057 176.448 12.501C176.642 12.4333 176.827 12.3594 177.007 12.2826C177.041 12.268 177.074 12.2529 177.107 12.2378C177.122 12.2308 177.137 12.2238 177.153 12.2169C177.288 12.1553 177.418 12.0919 177.545 12.0257C177.561 12.0171 177.577 12.0086 177.593 12.0002C177.622 11.9852 177.651 11.9702 177.679 11.9546C177.838 11.8669 177.991 11.7763 178.134 11.6814C178.146 11.6737 178.157 11.6656 178.168 11.6575C178.177 11.6516 178.185 11.6457 178.193 11.6399C178.317 11.556 178.434 11.4702 178.546 11.3815C178.584 11.351 178.621 11.3205 178.658 11.2895C178.758 11.2061 178.853 11.1207 178.943 11.033C178.953 11.0236 178.963 11.0143 178.973 11.0051C178.987 10.9922 179.001 10.9793 179.014 10.9662C179.122 10.858 179.221 10.7474 179.313 10.6344C179.326 10.6181 179.338 10.6017 179.351 10.5854C179.36 10.5731 179.369 10.5608 179.379 10.5486C179.39 10.5333 179.402 10.518 179.415 10.5028C179.443 10.4667 179.471 10.4306 179.497 10.3941V13.9338C179.484 14.0019 179.48 14.0739 179.488 14.1459C179.493 14.1993 179.497 14.2532 179.497 14.3071C179.497 14.3786 179.486 14.4505 179.475 14.5225C179.475 14.5277 179.474 14.533 179.473 14.5383C179.464 14.596 179.452 14.6532 179.437 14.7114C179.425 14.7586 179.41 14.8058 179.394 14.853C179.373 14.9116 179.35 14.9703 179.323 15.0289C179.303 15.0733 179.28 15.1171 179.256 15.161C179.222 15.2235 179.186 15.2859 179.145 15.3479C179.12 15.385 179.093 15.4217 179.066 15.4588L179.065 15.4604C179.015 15.5286 178.962 15.5963 178.904 15.6635C178.884 15.6863 178.863 15.7086 178.843 15.7309C178.837 15.737 178.831 15.7432 178.825 15.7494C178.756 15.8237 178.684 15.8976 178.604 15.9701C178.59 15.9837 178.575 15.9968 178.56 16.0099C178.553 16.0157 178.546 16.0215 178.54 16.0273C178.448 16.1074 178.353 16.187 178.25 16.2643C178.239 16.2724 178.228 16.2802 178.217 16.2879C178.215 16.2897 178.212 16.2915 178.21 16.2934C178.095 16.3778 177.975 16.4607 177.847 16.5408C177.845 16.542 177.843 16.5431 177.841 16.5442C177.839 16.5452 177.837 16.5463 177.835 16.5475C177.227 16.9262 176.469 17.2522 175.594 17.4875V18.477C177.267 18.0585 178.494 17.3123 179.243 16.4393C179.335 16.3344 179.418 16.2261 179.497 16.116L179.497 19.6552C179.484 19.7234 179.48 19.7954 179.488 19.8674C179.493 19.9208 179.497 19.9746 179.497 20.0285C179.497 20.1 179.486 20.1719 179.475 20.2439C179.475 20.2492 179.474 20.2545 179.473 20.2597C179.464 20.3174 179.452 20.3747 179.437 20.4328C179.425 20.48 179.41 20.5272 179.394 20.5744C179.373 20.6331 179.35 20.6917 179.323 20.7504C179.303 20.7947 179.28 20.8386 179.256 20.8824C179.222 20.9449 179.186 21.0073 179.145 21.0693C179.12 21.1065 179.093 21.1431 179.066 21.1802L179.065 21.1818C179.015 21.25 178.962 21.3177 178.904 21.385C178.884 21.4078 178.863 21.43 178.843 21.4523C178.837 21.4584 178.831 21.4646 178.825 21.4708C178.756 21.5452 178.684 21.6191 178.604 21.6915C178.59 21.7051 178.575 21.7182 178.56 21.7313C178.553 21.7371 178.546 21.7429 178.54 21.7487C178.448 21.8288 178.353 21.9085 178.25 21.9857C178.24 21.9938 178.228 22.0016 178.218 22.0093C178.215 22.0111 178.212 22.013 178.21 22.0148C178.095 22.0992 177.975 22.1821 177.847 22.2622C177.845 22.2634 177.843 22.2645 177.841 22.2656C177.839 22.2667 177.837 22.2677 177.835 22.2689C177.227 22.6476 176.469 22.9736 175.594 23.2089V24.1984C177.267 23.7799 178.494 23.0337 179.243 22.1607C179.335 22.0558 179.418 21.9476 179.497 21.8374L179.497 25.8467C179.493 25.8677 179.49 25.8892 179.487 25.9111C179.364 27.084 177.878 28.3156 175.594 28.9293V29.8969Z" fill="white"/>
<path fill-rule="evenodd" clip-rule="evenodd" d="M181.539 29.2891C183.598 28.7279 185.263 27.655 185.749 26.2268V8.109C184.716 6.37295 183.205 5.36528 181.539 4.87548V29.2891Z" fill="#FF6112"/>
<path fill-rule="evenodd" clip-rule="evenodd" d="M181.539 29.897C183.997 29.2623 185.747 27.8938 186.016 26.2193C186.041 26.1511 186.055 26.0724 186.055 25.9885V20.2671V20.0287V19.7903V14.5456V14.3073V14.0689V8.58583V8.34744C186.055 8.26066 186.036 8.1839 186.01 8.11381C185.746 6.58976 184.213 5.08424 181.539 4.41577V5.40352C183.937 6.04454 185.442 7.36532 185.442 8.58583C185.442 9.80634 183.937 11.1271 181.539 11.7681V12.753C181.557 12.7485 181.574 12.7441 181.592 12.7396C181.655 12.7234 181.718 12.7072 181.78 12.69C181.962 12.6395 182.14 12.5856 182.311 12.5274C182.324 12.523 182.338 12.5189 182.351 12.5147C182.365 12.5103 182.38 12.5059 182.393 12.5012C182.588 12.4335 182.772 12.3596 182.952 12.2828C182.986 12.2682 183.019 12.2531 183.052 12.238C183.067 12.231 183.083 12.224 183.098 12.217C183.233 12.1555 183.364 12.0921 183.49 12.0258C183.506 12.0173 183.522 12.0088 183.539 12.0003C183.568 11.9853 183.596 11.9704 183.624 11.9548C183.783 11.8671 183.936 11.7765 184.079 11.6816C184.091 11.6738 184.102 11.6658 184.114 11.6576C184.122 11.6518 184.13 11.6459 184.138 11.6401C184.262 11.5562 184.379 11.4704 184.491 11.3817C184.529 11.3512 184.566 11.3207 184.603 11.2897C184.703 11.2062 184.799 11.1209 184.889 11.0332C184.898 11.0238 184.908 11.0145 184.918 11.0052C184.932 10.9923 184.946 10.9795 184.959 10.9664C185.067 10.8582 185.166 10.7476 185.258 10.6346C185.271 10.6182 185.283 10.6019 185.296 10.5855C185.305 10.5733 185.314 10.561 185.324 10.5488C185.336 10.5335 185.348 10.5182 185.36 10.5029C185.388 10.4669 185.416 10.4308 185.442 10.3943V13.9339C185.429 14.0021 185.425 14.0741 185.433 14.1461C185.439 14.1995 185.442 14.2534 185.442 14.3073C185.442 14.3788 185.431 14.4507 185.42 14.5226C185.42 14.5279 185.419 14.5332 185.418 14.5385C185.41 14.5962 185.398 14.6534 185.383 14.7116C185.37 14.7588 185.355 14.806 185.339 14.8532C185.318 14.9118 185.295 14.9705 185.268 15.0291C185.248 15.0735 185.225 15.1173 185.201 15.1612C185.167 15.2236 185.131 15.2861 185.09 15.3481C185.065 15.3852 185.039 15.4219 185.011 15.459L185.01 15.4606C184.96 15.5288 184.908 15.5965 184.849 15.6637C184.829 15.6865 184.809 15.7087 184.788 15.731C184.782 15.7372 184.776 15.7434 184.77 15.7495C184.701 15.8239 184.629 15.8978 184.55 15.9703C184.535 15.9838 184.52 15.997 184.505 16.0101C184.498 16.0159 184.491 16.0217 184.485 16.0275C184.393 16.1076 184.298 16.1872 184.195 16.2645C184.185 16.2726 184.174 16.2803 184.163 16.2881C184.16 16.2899 184.157 16.2917 184.155 16.2935C184.04 16.3779 183.92 16.4609 183.792 16.541C183.79 16.5422 183.788 16.5433 183.786 16.5443C183.784 16.5454 183.782 16.5465 183.781 16.5477C183.172 16.9263 182.414 17.2523 181.539 17.4876V18.4771C183.212 18.0586 184.439 17.3124 185.188 16.4394C185.28 16.3345 185.364 16.2263 185.442 16.1162L185.442 19.6554C185.429 19.7235 185.425 19.7955 185.433 19.8675C185.439 19.9209 185.442 19.9748 185.442 20.0287C185.442 20.1002 185.431 20.1721 185.42 20.2441C185.42 20.2493 185.419 20.2546 185.418 20.2599C185.41 20.3176 185.398 20.3748 185.383 20.433C185.37 20.4802 185.355 20.5274 185.339 20.5746C185.318 20.6332 185.295 20.6919 185.268 20.7505C185.248 20.7949 185.225 20.8387 185.201 20.8826C185.167 20.9451 185.131 21.0075 185.09 21.0695C185.065 21.1066 185.039 21.1433 185.011 21.1804L185.01 21.182C184.96 21.2502 184.908 21.3179 184.849 21.3851C184.829 21.4079 184.809 21.4301 184.788 21.4524C184.782 21.4586 184.776 21.4648 184.77 21.471C184.701 21.5453 184.629 21.6192 184.55 21.6917C184.535 21.7053 184.52 21.7184 184.505 21.7315C184.498 21.7373 184.491 21.7431 184.485 21.7489C184.393 21.829 184.298 21.9086 184.195 21.9859C184.185 21.994 184.174 22.0018 184.163 22.0095C184.16 22.0113 184.157 22.0131 184.155 22.015C184.04 22.0994 183.92 22.1823 183.792 22.2624C183.788 22.2648 183.784 22.2667 183.781 22.2691C183.172 22.6477 182.414 22.9738 181.539 23.209V24.1985C183.212 23.7801 184.439 23.0338 185.188 22.1609C185.28 22.056 185.364 21.9477 185.442 21.8376L185.442 25.8469C185.438 25.8679 185.435 25.8893 185.432 25.9113C185.309 27.0841 183.823 28.3158 181.539 28.9295V29.897Z" fill="white"/>
<path fill-rule="evenodd" clip-rule="evenodd" d="M187.484 29.2891C189.544 28.7279 191.208 27.655 191.694 26.2268V8.109C190.661 6.37298 189.15 5.3653 187.484 4.8755V29.2891Z" fill="#FF6112"/>
<path fill-rule="evenodd" clip-rule="evenodd" d="M187.484 29.8971C189.942 29.2623 191.693 27.8939 191.962 26.2193C191.986 26.1511 192 26.0724 192 25.9885V20.2671V20.0287V19.7903V14.5456V14.3073V14.0689V8.58583V8.34744C192 8.26066 191.981 8.1839 191.955 8.11381C191.691 6.58975 190.158 5.08422 187.484 4.41575V5.40351C189.882 6.04451 191.388 7.36531 191.388 8.58583C191.388 9.80635 189.882 11.1271 187.484 11.7682V12.753C187.502 12.7486 187.52 12.7441 187.537 12.7396C187.6 12.7234 187.663 12.7072 187.725 12.69C187.907 12.6395 188.085 12.5856 188.256 12.5274C188.269 12.523 188.283 12.5189 188.296 12.5147C188.311 12.5103 188.325 12.5059 188.339 12.5012C188.533 12.4335 188.718 12.3596 188.897 12.2828C188.931 12.2682 188.964 12.2531 188.997 12.238C189.012 12.231 189.028 12.224 189.043 12.217C189.178 12.1555 189.309 12.0921 189.435 12.0258C189.451 12.0173 189.467 12.0088 189.484 12.0003C189.513 11.9853 189.542 11.9704 189.57 11.9548C189.728 11.8671 189.881 11.7765 190.024 11.6816C190.036 11.6738 190.048 11.6658 190.059 11.6576C190.067 11.6518 190.075 11.6459 190.084 11.6401C190.207 11.5562 190.324 11.4704 190.436 11.3817C190.474 11.3512 190.512 11.3207 190.548 11.2897C190.649 11.2062 190.744 11.1209 190.834 11.0332C190.844 11.0238 190.854 11.0145 190.864 11.0052C190.878 10.9923 190.892 10.9795 190.905 10.9664C191.012 10.8582 191.111 10.7476 191.203 10.6346C191.216 10.6182 191.229 10.6019 191.241 10.5855C191.25 10.5733 191.259 10.561 191.269 10.5488C191.281 10.5335 191.293 10.5182 191.305 10.5029C191.333 10.4669 191.362 10.4308 191.388 10.3943V13.9339C191.375 14.0021 191.37 14.0741 191.378 14.1461C191.384 14.1995 191.388 14.2534 191.388 14.3073C191.388 14.3788 191.377 14.4507 191.366 14.5226C191.365 14.5279 191.364 14.5332 191.363 14.5385C191.355 14.5962 191.343 14.6534 191.328 14.7116C191.316 14.7588 191.301 14.806 191.284 14.8532C191.264 14.9118 191.241 14.9705 191.213 15.0291C191.193 15.0735 191.17 15.1173 191.146 15.1612C191.112 15.2236 191.076 15.2861 191.035 15.3481C191.011 15.3852 190.984 15.4219 190.957 15.459L190.955 15.4606C190.905 15.5288 190.853 15.5965 190.794 15.6637C190.775 15.6865 190.754 15.7087 190.733 15.731C190.727 15.7372 190.721 15.7434 190.716 15.7495C190.646 15.8239 190.574 15.8978 190.495 15.9703C190.48 15.9838 190.465 15.997 190.45 16.0101C190.443 16.0159 190.437 16.0217 190.43 16.0275C190.339 16.1076 190.243 16.1872 190.141 16.2645C190.13 16.2726 190.119 16.2803 190.108 16.2881C190.105 16.2899 190.103 16.2917 190.1 16.2935C189.985 16.3779 189.865 16.4609 189.737 16.541C189.735 16.5422 189.733 16.5433 189.731 16.5443C189.73 16.5454 189.728 16.5465 189.726 16.5477C189.117 16.9263 188.359 17.2523 187.484 17.4876V18.4771C189.157 18.0587 190.384 17.3124 191.133 16.4394C191.226 16.3345 191.309 16.2263 191.387 16.1162L191.388 19.6554C191.375 19.7235 191.37 19.7955 191.378 19.8675C191.384 19.9209 191.388 19.9748 191.388 20.0287C191.388 20.1002 191.377 20.1721 191.366 20.2441C191.365 20.2493 191.364 20.2546 191.363 20.2599C191.355 20.3176 191.343 20.3748 191.328 20.433C191.316 20.4802 191.301 20.5274 191.284 20.5746C191.264 20.6332 191.241 20.6919 191.213 20.7505C191.193 20.7949 191.17 20.8387 191.146 20.8826C191.112 20.9451 191.076 21.0075 191.035 21.0695C191.011 21.1066 190.984 21.1433 190.957 21.1804L190.955 21.182C190.905 21.2502 190.853 21.3179 190.794 21.3851C190.775 21.4079 190.754 21.4301 190.733 21.4524C190.727 21.4586 190.721 21.4648 190.716 21.471C190.646 21.5453 190.574 21.6192 190.495 21.6917C190.48 21.7053 190.465 21.7184 190.45 21.7315C190.443 21.7373 190.437 21.7431 190.43 21.7489C190.339 21.829 190.243 21.9086 190.141 21.9859C190.13 21.994 190.119 22.0018 190.108 22.0095C190.105 22.0113 190.103 22.0131 190.1 22.015C189.985 22.0994 189.865 22.1823 189.737 22.2624C189.733 22.2648 189.73 22.2667 189.726 22.2691C189.117 22.6478 188.359 22.9738 187.484 23.2091V24.1986C189.157 23.7801 190.384 23.0339 191.133 22.1609C191.226 22.056 191.309 21.9477 191.387 21.8376L191.388 25.8469C191.383 25.8679 191.38 25.8893 191.378 25.9113C191.254 27.0841 189.768 28.3158 187.484 28.9295V29.8971Z" fill="white"/>
<defs>
<clipPath id="clip0_673_6">
<rect width="28.4579" height="28.46" fill="white" transform="translate(147 3)"/>
</clipPath>
</defs>
</svg>
