<svg width="360" height="33" viewBox="0 0 360 33" fill="none" xmlns="http://www.w3.org/2000/svg">
<path d="M212.86 26.28C211.815 26.28 210.909 26.2333 210.144 26.14C209.397 26.0653 208.669 25.9253 207.96 25.72V6.68C208.669 6.47467 209.397 6.33467 210.144 6.26C210.909 6.16667 211.815 6.12 212.86 6.12C214.409 6.12 215.707 6.43733 216.752 7.072C217.816 7.70667 218.619 8.76133 219.16 10.236C219.72 11.692 220 13.68 220 16.2C220 18.72 219.72 20.7173 219.16 22.192C218.619 23.6667 217.816 24.7213 216.752 25.356C215.707 25.972 214.409 26.28 212.86 26.28ZM211.32 24.18H212.86C213.607 24.18 214.26 23.956 214.82 23.508C215.399 23.0413 215.847 22.2293 216.164 21.072C216.481 19.9147 216.64 18.2907 216.64 16.2C216.64 14.0907 216.481 12.4667 216.164 11.328C215.847 10.1707 215.399 9.368 214.82 8.92C214.26 8.45333 213.607 8.22 212.86 8.22H211.32V24.18ZM226.718 26.28C225.934 26.28 225.206 26.1587 224.534 25.916C223.88 25.6733 223.358 25.2347 222.966 24.6C222.574 23.9467 222.378 23.0133 222.378 21.8C222.378 20.5867 222.574 19.6627 222.966 19.028C223.376 18.3747 223.927 17.9267 224.618 17.684C225.327 17.4413 226.12 17.32 226.998 17.32C227.427 17.32 227.838 17.348 228.23 17.404C228.64 17.46 229.023 17.5253 229.378 17.6V16.48C229.378 15.36 229.116 14.6133 228.594 14.24C228.071 13.8667 227.352 13.68 226.438 13.68H223.638V12.28C224.067 12.1307 224.59 12 225.206 11.888C225.84 11.776 226.438 11.72 226.998 11.72C228.267 11.72 229.322 11.8507 230.162 12.112C231.02 12.3547 231.664 12.8213 232.094 13.512C232.523 14.184 232.738 15.1733 232.738 16.48V26H230.358L229.938 25.16H229.798C229.499 25.44 229.098 25.7013 228.594 25.944C228.108 26.168 227.483 26.28 226.718 26.28ZM227.838 24.32C228.192 24.32 228.5 24.264 228.762 24.152C229.042 24.0213 229.247 23.8907 229.378 23.76V19.28H227.838C227.52 19.28 227.194 19.3547 226.858 19.504C226.54 19.6533 226.27 19.9147 226.046 20.288C225.84 20.6427 225.738 21.1467 225.738 21.8C225.738 22.4533 225.84 22.9667 226.046 23.34C226.27 23.6947 226.54 23.9467 226.858 24.096C227.194 24.2453 227.52 24.32 227.838 24.32ZM240.987 26.28C240.203 26.28 239.475 26.1587 238.803 25.916C238.15 25.6547 237.627 25.188 237.235 24.516C236.843 23.8253 236.647 22.8267 236.647 21.52V14.38H235.107V12.28H236.647V8.92H240.007V12.28H243.787V13.82C243.376 13.9507 242.844 14.0813 242.191 14.212C241.538 14.324 240.856 14.38 240.147 14.38H240.007V21.52C240.007 22.2667 240.1 22.8453 240.287 23.256C240.474 23.648 240.707 23.928 240.987 24.096C241.267 24.2453 241.547 24.32 241.827 24.32H244.347V25.72C244.123 25.8133 243.815 25.9067 243.423 26C243.031 26.0747 242.62 26.14 242.191 26.196C241.762 26.252 241.36 26.28 240.987 26.28ZM249.96 26.28C249.176 26.28 248.448 26.1587 247.776 25.916C247.123 25.6733 246.6 25.2347 246.208 24.6C245.816 23.9467 245.62 23.0133 245.62 21.8C245.62 20.5867 245.816 19.6627 246.208 19.028C246.619 18.3747 247.169 17.9267 247.86 17.684C248.569 17.4413 249.363 17.32 250.24 17.32C250.669 17.32 251.08 17.348 251.472 17.404C251.883 17.46 252.265 17.5253 252.62 17.6V16.48C252.62 15.36 252.359 14.6133 251.836 14.24C251.313 13.8667 250.595 13.68 249.68 13.68H246.88V12.28C247.309 12.1307 247.832 12 248.448 11.888C249.083 11.776 249.68 11.72 250.24 11.72C251.509 11.72 252.564 11.8507 253.404 12.112C254.263 12.3547 254.907 12.8213 255.336 13.512C255.765 14.184 255.98 15.1733 255.98 16.48V26H253.6L253.18 25.16H253.04C252.741 25.44 252.34 25.7013 251.836 25.944C251.351 26.168 250.725 26.28 249.96 26.28ZM251.08 24.32C251.435 24.32 251.743 24.264 252.004 24.152C252.284 24.0213 252.489 23.8907 252.62 23.76V19.28H251.08C250.763 19.28 250.436 19.3547 250.1 19.504C249.783 19.6533 249.512 19.9147 249.288 20.288C249.083 20.6427 248.98 21.1467 248.98 21.8C248.98 22.4533 249.083 22.9667 249.288 23.34C249.512 23.6947 249.783 23.9467 250.1 24.096C250.436 24.2453 250.763 24.32 251.08 24.32ZM264.369 26.28C263.398 26.28 262.558 26.2053 261.849 26.056C261.158 25.9253 260.458 25.72 259.749 25.44V6.4H263.109V12.42C263.408 12.2147 263.753 12.0467 264.145 11.916C264.556 11.7853 265.004 11.72 265.489 11.72C266.516 11.72 267.402 11.9627 268.149 12.448C268.914 12.9147 269.502 13.68 269.913 14.744C270.324 15.808 270.529 17.2267 270.529 19C270.529 20.7733 270.305 22.192 269.857 23.256C269.428 24.32 268.756 25.0947 267.841 25.58C266.926 26.0467 265.769 26.28 264.369 26.28ZM263.109 24.32H264.369C264.929 24.32 265.414 24.1707 265.825 23.872C266.254 23.5547 266.581 23.0133 266.805 22.248C267.048 21.4827 267.169 20.4 267.169 19C267.169 17.6 267.057 16.5173 266.833 15.752C266.609 14.968 266.301 14.4267 265.909 14.128C265.536 13.8293 265.116 13.68 264.649 13.68C264.294 13.68 263.986 13.736 263.725 13.848C263.464 13.96 263.258 14.0907 263.109 14.24V24.32ZM277.112 26.28C276.328 26.28 275.6 26.1587 274.928 25.916C274.275 25.6733 273.752 25.2347 273.36 24.6C272.968 23.9467 272.772 23.0133 272.772 21.8C272.772 20.5867 272.968 19.6627 273.36 19.028C273.771 18.3747 274.322 17.9267 275.012 17.684C275.722 17.4413 276.515 17.32 277.392 17.32C277.822 17.32 278.232 17.348 278.624 17.404C279.035 17.46 279.418 17.5253 279.772 17.6V16.48C279.772 15.36 279.511 14.6133 278.988 14.24C278.466 13.8667 277.747 13.68 276.832 13.68H274.032V12.28C274.462 12.1307 274.984 12 275.6 11.888C276.235 11.776 276.832 11.72 277.392 11.72C278.662 11.72 279.716 11.8507 280.556 12.112C281.415 12.3547 282.059 12.8213 282.488 13.512C282.918 14.184 283.132 15.1733 283.132 16.48V26H280.752L280.332 25.16H280.192C279.894 25.44 279.492 25.7013 278.988 25.944C278.503 26.168 277.878 26.28 277.112 26.28ZM278.232 24.32C278.587 24.32 278.895 24.264 279.156 24.152C279.436 24.0213 279.642 23.8907 279.772 23.76V19.28H278.232C277.915 19.28 277.588 19.3547 277.252 19.504C276.935 19.6533 276.664 19.9147 276.44 20.288C276.235 20.6427 276.132 21.1467 276.132 21.8C276.132 22.4533 276.235 22.9667 276.44 23.34C276.664 23.6947 276.935 23.9467 277.252 24.096C277.588 24.2453 277.915 24.32 278.232 24.32ZM289.701 26.28C289.011 26.28 288.339 26.2147 287.685 26.084C287.032 25.972 286.491 25.8507 286.061 25.72V24.32H289.141C290.187 24.32 290.98 24.1707 291.521 23.872C292.081 23.5547 292.361 23.0507 292.361 22.36C292.361 21.8747 292.203 21.4827 291.885 21.184C291.568 20.8667 291.157 20.596 290.653 20.372C290.168 20.148 289.636 19.924 289.057 19.7C288.497 19.4573 287.965 19.1773 287.461 18.86C286.976 18.524 286.575 18.104 286.257 17.6C285.94 17.0773 285.781 16.424 285.781 15.64C285.781 14.0907 286.248 13.0547 287.181 12.532C288.133 11.9907 289.487 11.72 291.241 11.72C291.951 11.72 292.632 11.776 293.285 11.888C293.939 12 294.471 12.1307 294.881 12.28V13.68H291.801C291.036 13.68 290.401 13.82 289.897 14.1C289.393 14.38 289.141 14.8 289.141 15.36C289.141 15.8453 289.3 16.2467 289.617 16.564C289.935 16.8627 290.336 17.124 290.821 17.348C291.325 17.572 291.857 17.8053 292.417 18.048C292.996 18.272 293.528 18.552 294.013 18.888C294.517 19.2053 294.928 19.616 295.245 20.12C295.563 20.624 295.721 21.2773 295.721 22.08C295.721 23.2 295.497 24.068 295.049 24.684C294.62 25.2813 293.957 25.7013 293.061 25.944C292.184 26.168 291.064 26.28 289.701 26.28ZM303.983 26.28C302.545 26.28 301.36 26.0467 300.427 25.58C299.493 25.0947 298.803 24.32 298.355 23.256C297.907 22.192 297.683 20.7733 297.683 19C297.683 17.2267 297.888 15.808 298.299 14.744C298.728 13.68 299.335 12.9147 300.119 12.448C300.921 11.9627 301.883 11.72 303.003 11.72C304.123 11.72 305.075 11.9627 305.859 12.448C306.661 12.9147 307.268 13.68 307.679 14.744C308.108 15.808 308.323 17.2267 308.323 19V19.98H301.043C301.043 21.5853 301.323 22.7147 301.883 23.368C302.461 24.0027 303.348 24.32 304.543 24.32H307.623V25.72C307.212 25.8507 306.68 25.972 306.027 26.084C305.373 26.2147 304.692 26.28 303.983 26.28ZM301.043 18.02H304.963C304.963 16.8067 304.879 15.8827 304.711 15.248C304.543 14.5947 304.309 14.1467 304.011 13.904C303.712 13.6613 303.376 13.54 303.003 13.54C302.629 13.54 302.293 13.6613 301.995 13.904C301.696 14.1467 301.463 14.5947 301.295 15.248C301.127 15.8827 301.043 16.8067 301.043 18.02ZM318.401 26V6.4H321.761V23.76H328.621V26H318.401ZM334.37 26.28C333.586 26.28 332.858 26.1587 332.186 25.916C331.533 25.6733 331.01 25.2347 330.618 24.6C330.226 23.9467 330.03 23.0133 330.03 21.8C330.03 20.5867 330.226 19.6627 330.618 19.028C331.029 18.3747 331.579 17.9267 332.27 17.684C332.979 17.4413 333.773 17.32 334.65 17.32C335.079 17.32 335.49 17.348 335.882 17.404C336.293 17.46 336.675 17.5253 337.03 17.6V16.48C337.03 15.36 336.769 14.6133 336.246 14.24C335.723 13.8667 335.005 13.68 334.09 13.68H331.29V12.28C331.719 12.1307 332.242 12 332.858 11.888C333.493 11.776 334.09 11.72 334.65 11.72C335.919 11.72 336.974 11.8507 337.814 12.112C338.673 12.3547 339.317 12.8213 339.746 13.512C340.175 14.184 340.39 15.1733 340.39 16.48V26H338.01L337.59 25.16H337.45C337.151 25.44 336.75 25.7013 336.246 25.944C335.761 26.168 335.135 26.28 334.37 26.28ZM335.49 24.32C335.845 24.32 336.153 24.264 336.414 24.152C336.694 24.0213 336.899 23.8907 337.03 23.76V19.28H335.49C335.173 19.28 334.846 19.3547 334.51 19.504C334.193 19.6533 333.922 19.9147 333.698 20.288C333.493 20.6427 333.39 21.1467 333.39 21.8C333.39 22.4533 333.493 22.9667 333.698 23.34C333.922 23.6947 334.193 23.9467 334.51 24.096C334.846 24.2453 335.173 24.32 335.49 24.32ZM348.779 26.28C347.809 26.28 346.969 26.2053 346.259 26.056C345.569 25.9253 344.869 25.72 344.159 25.44V6.4H347.519V12.42C347.818 12.2147 348.163 12.0467 348.555 11.916C348.966 11.7853 349.414 11.72 349.899 11.72C350.926 11.72 351.813 11.9627 352.559 12.448C353.325 12.9147 353.913 13.68 354.323 14.744C354.734 15.808 354.939 17.2267 354.939 19C354.939 20.7733 354.715 22.192 354.267 23.256C353.838 24.32 353.166 25.0947 352.251 25.58C351.337 26.0467 350.179 26.28 348.779 26.28ZM347.519 24.32H348.779C349.339 24.32 349.825 24.1707 350.235 23.872C350.665 23.5547 350.991 23.0133 351.215 22.248C351.458 21.4827 351.579 20.4 351.579 19C351.579 17.6 351.467 16.5173 351.243 15.752C351.019 14.968 350.711 14.4267 350.319 14.128C349.946 13.8293 349.526 13.68 349.059 13.68C348.705 13.68 348.397 13.736 348.135 13.848C347.874 13.96 347.669 14.0907 347.519 14.24V24.32Z" fill="#CCCCCC"/>
<path d="M1.96 25V5.68C2.66933 5.47467 3.39733 5.33467 4.144 5.26C4.90933 5.16667 5.81467 5.12 6.86 5.12C8.40933 5.12 9.66 5.35333 10.612 5.82C11.5827 6.28667 12.292 7.03333 12.74 8.06C13.2067 9.08667 13.44 10.44 13.44 12.12C13.44 13.8933 13.2253 15.312 12.796 16.376C12.3667 17.44 11.7227 18.2147 10.864 18.7C10.024 19.1667 8.96933 19.4 7.7 19.4C7.49467 19.4 7.13067 19.372 6.608 19.316C6.104 19.26 5.67467 19.1947 5.32 19.12V25H1.96ZM5.32 17.16H6.86C7.56933 17.16 8.15733 17.0107 8.624 16.712C9.10933 16.4133 9.47333 15.9 9.716 15.172C9.95867 14.444 10.08 13.4267 10.08 12.12C10.08 10.8507 9.95867 9.86133 9.716 9.152C9.47333 8.44267 9.10933 7.948 8.624 7.668C8.15733 7.36933 7.56933 7.22 6.86 7.22H5.32V17.16ZM21.1302 25.28C19.9168 25.28 18.8902 25.0467 18.0502 24.58C17.2288 24.0947 16.6035 23.32 16.1742 22.256C15.7448 21.192 15.5302 19.7733 15.5302 18C15.5302 16.2267 15.7448 14.808 16.1742 13.744C16.6035 12.68 17.2288 11.9147 18.0502 11.448C18.8902 10.9627 19.9168 10.72 21.1302 10.72C22.3435 10.72 23.3608 10.9627 24.1822 11.448C25.0222 11.9147 25.6568 12.68 26.0862 13.744C26.5155 14.808 26.7302 16.2267 26.7302 18C26.7302 19.7733 26.5155 21.192 26.0862 22.256C25.6568 23.32 25.0222 24.0947 24.1822 24.58C23.3608 25.0467 22.3435 25.28 21.1302 25.28ZM21.1302 23.46C21.5595 23.46 21.9422 23.3107 22.2782 23.012C22.6142 22.6947 22.8755 22.144 23.0622 21.36C23.2675 20.5573 23.3702 19.4373 23.3702 18C23.3702 16.544 23.2675 15.424 23.0622 14.64C22.8755 13.856 22.6142 13.3147 22.2782 13.016C21.9422 12.6987 21.5595 12.54 21.1302 12.54C20.7195 12.54 20.3368 12.6987 19.9822 13.016C19.6462 13.3147 19.3755 13.856 19.1702 14.64C18.9835 15.424 18.8902 16.544 18.8902 18C18.8902 19.4373 18.9835 20.5573 19.1702 21.36C19.3755 22.144 19.6462 22.6947 19.9822 23.012C20.3368 23.3107 20.7195 23.46 21.1302 23.46ZM31.0833 25L28.2833 11H31.6433L33.3513 20.8H33.4633L35.7033 13.8H38.2233L40.4633 20.8H40.5753L42.2833 11H45.6433L42.8433 25H39.2033L37.0193 18.14H36.9073L34.7233 25H31.0833ZM53.4942 25.28C52.0569 25.28 50.8716 25.0467 49.9382 24.58C49.0049 24.0947 48.3142 23.32 47.8662 22.256C47.4182 21.192 47.1942 19.7733 47.1942 18C47.1942 16.2267 47.3996 14.808 47.8102 13.744C48.2396 12.68 48.8462 11.9147 49.6302 11.448C50.4329 10.9627 51.3942 10.72 52.5142 10.72C53.6342 10.72 54.5862 10.9627 55.3702 11.448C56.1729 11.9147 56.7796 12.68 57.1902 13.744C57.6196 14.808 57.8342 16.2267 57.8342 18V18.98H50.5542C50.5542 20.5853 50.8342 21.7147 51.3942 22.368C51.9729 23.0027 52.8596 23.32 54.0542 23.32H57.1342V24.72C56.7236 24.8507 56.1916 24.972 55.5382 25.084C54.8849 25.2147 54.2036 25.28 53.4942 25.28ZM50.5542 17.02H54.4742C54.4742 15.8067 54.3902 14.8827 54.2222 14.248C54.0542 13.5947 53.8209 13.1467 53.5222 12.904C53.2236 12.6613 52.8876 12.54 52.5142 12.54C52.1409 12.54 51.8049 12.6613 51.5062 12.904C51.2076 13.1467 50.9742 13.5947 50.8062 14.248C50.6382 14.8827 50.5542 15.8067 50.5542 17.02ZM60.7731 25V11H63.1531L63.5731 12.12H63.7131C64.0118 11.84 64.4131 11.588 64.9171 11.364C65.4211 11.1213 66.0931 11 66.9331 11H68.7531V13.38H65.6731C65.3185 13.38 65.0105 13.436 64.7491 13.548C64.4878 13.66 64.2825 13.7907 64.1331 13.94V25H60.7731ZM76.1895 25.28C74.7522 25.28 73.5669 25.0467 72.6335 24.58C71.7002 24.0947 71.0095 23.32 70.5615 22.256C70.1135 21.192 69.8895 19.7733 69.8895 18C69.8895 16.2267 70.0949 14.808 70.5055 13.744C70.9349 12.68 71.5415 11.9147 72.3255 11.448C73.1282 10.9627 74.0895 10.72 75.2095 10.72C76.3295 10.72 77.2815 10.9627 78.0655 11.448C78.8682 11.9147 79.4749 12.68 79.8855 13.744C80.3149 14.808 80.5295 16.2267 80.5295 18V18.98H73.2495C73.2495 20.5853 73.5295 21.7147 74.0895 22.368C74.6682 23.0027 75.5549 23.32 76.7495 23.32H79.8295V24.72C79.4189 24.8507 78.8869 24.972 78.2335 25.084C77.5802 25.2147 76.8989 25.28 76.1895 25.28ZM73.2495 17.02H77.1695C77.1695 15.8067 77.0855 14.8827 76.9175 14.248C76.7495 13.5947 76.5162 13.1467 76.2175 12.904C75.9189 12.6613 75.5829 12.54 75.2095 12.54C74.8362 12.54 74.5002 12.6613 74.2015 12.904C73.9029 13.1467 73.6695 13.5947 73.5015 14.248C73.3335 14.8827 73.2495 15.8067 73.2495 17.02ZM87.5284 25.28C86.5951 25.28 85.7644 25.0467 85.0364 24.58C84.3271 24.0947 83.7671 23.32 83.3564 22.256C82.9644 21.192 82.7684 19.7733 82.7684 18C82.7684 16.2267 82.9738 14.808 83.3844 13.744C83.7951 12.68 84.3738 11.9147 85.1204 11.448C85.8858 10.9627 86.7818 10.72 87.8084 10.72C88.2938 10.72 88.7324 10.7853 89.1244 10.916C89.5351 11.0467 89.8898 11.2147 90.1884 11.42V5.4H93.5484V25H91.1684L90.7484 24.16H90.6084C90.3098 24.44 89.9084 24.7013 89.4044 24.944C88.9191 25.168 88.2938 25.28 87.5284 25.28ZM88.6484 23.32C89.0031 23.32 89.2924 23.264 89.5164 23.152C89.7591 23.0213 89.9831 22.8907 90.1884 22.76V13.24C90.0578 13.0907 89.8524 12.96 89.5724 12.848C89.3111 12.736 89.0031 12.68 88.6484 12.68C88.1818 12.68 87.7524 12.8293 87.3604 13.128C86.9871 13.4267 86.6884 13.968 86.4644 14.752C86.2404 15.5173 86.1284 16.6 86.1284 18C86.1284 19.4 86.2404 20.4827 86.4644 21.248C86.6884 22.0133 86.9871 22.5547 87.3604 22.872C87.7524 23.1707 88.1818 23.32 88.6484 23.32ZM109.092 25.28C108.121 25.28 107.281 25.2053 106.572 25.056C105.881 24.9253 105.181 24.72 104.472 24.44V5.4H107.832V11.42C108.13 11.2147 108.476 11.0467 108.868 10.916C109.278 10.7853 109.726 10.72 110.212 10.72C111.238 10.72 112.125 10.9627 112.872 11.448C113.637 11.9147 114.225 12.68 114.636 13.744C115.046 14.808 115.252 16.2267 115.252 18C115.252 19.7733 115.028 21.192 114.58 22.256C114.15 23.32 113.478 24.0947 112.564 24.58C111.649 25.0467 110.492 25.28 109.092 25.28ZM107.832 23.32H109.092C109.652 23.32 110.137 23.1707 110.548 22.872C110.977 22.5547 111.304 22.0133 111.528 21.248C111.77 20.4827 111.892 19.4 111.892 18C111.892 16.6 111.78 15.5173 111.556 14.752C111.332 13.968 111.024 13.4267 110.632 13.128C110.258 12.8293 109.838 12.68 109.372 12.68C109.017 12.68 108.709 12.736 108.448 12.848C108.186 12.96 107.981 13.0907 107.832 13.24V23.32ZM122.675 30.88C121.984 30.88 121.312 30.8147 120.659 30.684C120.006 30.572 119.464 30.4507 119.035 30.32V28.92H122.115C123.16 28.92 123.954 28.5933 124.495 27.94C125.055 27.2867 125.335 26.12 125.335 24.44C124.98 24.72 124.56 24.9253 124.075 25.056C123.608 25.2053 123.095 25.28 122.535 25.28C121.751 25.28 121.023 25.1587 120.351 24.916C119.698 24.6733 119.175 24.2347 118.783 23.6C118.391 22.9467 118.195 22.0133 118.195 20.8V11H121.555V20.8C121.555 21.7707 121.788 22.4333 122.255 22.788C122.722 23.1427 123.235 23.32 123.795 23.32C124.15 23.32 124.458 23.264 124.719 23.152C124.999 23.0213 125.204 22.8907 125.335 22.76V11H128.695V23.88C128.695 25.56 128.471 26.9133 128.023 27.94C127.594 28.9667 126.931 29.7133 126.035 30.18C125.158 30.6467 124.038 30.88 122.675 30.88Z" fill="#CCCCCC"/>
<g clip-path="url(#clip0_674_40)">
<path d="M173.647 6.39801C167.179 -0.587126 149.587 3.2935 148.811 6.39801V26.0598C152.95 31.7514 171.319 30.4579 173.647 26.0598V6.39801Z" fill="#FF6112"/>
<path d="M174.089 6.40322C173.49 4.1835 169.03 2 161.229 2C153.428 2 148.968 4.1835 148.369 6.40322C148.326 6.47928 148.294 6.56258 148.294 6.65675V6.91546V12.8658V13.1245V13.3832V19.0748V19.3335V19.5922V25.8012C148.294 25.885 148.316 25.9642 148.354 26.0345C148.965 28.5673 154.432 30.4579 161.229 30.4579C168.01 30.4579 173.468 28.575 174.1 26.0516C174.141 25.9776 174.164 25.8922 174.164 25.8012V19.5922V19.3335V19.0748V13.3832V13.1245V12.8658V6.91546V6.65675C174.164 6.56258 174.132 6.47928 174.089 6.40322ZM173.089 19.5844C173.074 19.647 173.054 19.7091 173.029 19.7722C173.008 19.8235 172.983 19.8747 172.955 19.9259C172.92 19.9895 172.881 20.0532 172.835 20.1168C172.801 20.1649 172.762 20.2126 172.722 20.2602C172.664 20.3279 172.603 20.3957 172.534 20.463C172.492 20.5039 172.446 20.5442 172.399 20.5851C172.315 20.6591 172.226 20.7326 172.127 20.8055C172.085 20.8371 172.039 20.8676 171.994 20.8986C171.877 20.9794 171.755 21.0596 171.621 21.1382C171.586 21.1594 171.548 21.1796 171.512 21.2003C171.357 21.2872 171.196 21.3736 171.023 21.4575C171 21.4683 170.977 21.4787 170.954 21.489C170.76 21.5806 170.557 21.6706 170.341 21.7576C170.334 21.7601 170.328 21.7622 170.322 21.7648C169.147 22.2341 167.644 22.6289 165.892 22.8876C165.884 22.8886 165.875 22.8897 165.866 22.8912C165.526 22.9414 165.176 22.9859 164.818 23.0252C164.759 23.0314 164.698 23.0356 164.639 23.0418C164.326 23.0744 164.009 23.1044 163.683 23.1282C163.534 23.1391 163.378 23.1442 163.226 23.1535C162.981 23.168 162.738 23.1841 162.487 23.1929C162.076 23.2058 161.657 23.2141 161.229 23.2141C160.801 23.2141 160.382 23.2058 159.971 23.1913C159.719 23.1825 159.476 23.166 159.231 23.152C159.08 23.1432 158.923 23.1375 158.774 23.1266C158.448 23.1028 158.132 23.0728 157.819 23.0402C157.76 23.034 157.698 23.0299 157.64 23.0237C157.281 22.9844 156.932 22.9393 156.591 22.8897C156.583 22.8886 156.574 22.8876 156.565 22.886C154.813 22.6273 153.31 22.2325 152.135 21.7632C152.129 21.7612 152.123 21.7586 152.117 21.756C151.9 21.6691 151.697 21.579 151.503 21.4875C151.481 21.4766 151.457 21.4663 151.435 21.4559C151.261 21.3721 151.1 21.2862 150.946 21.1987C150.91 21.1781 150.871 21.1579 150.836 21.1367C150.702 21.058 150.58 20.9778 150.463 20.8971C150.419 20.866 150.372 20.8355 150.33 20.804C150.231 20.731 150.143 20.6575 150.058 20.5835C150.012 20.5432 149.965 20.5028 149.923 20.4614C149.854 20.3942 149.793 20.3269 149.736 20.2586C149.695 20.211 149.656 20.1634 149.622 20.1153C149.577 20.0516 149.538 19.988 149.503 19.9243C149.475 19.8731 149.45 19.8219 149.429 19.7707C149.403 19.7081 149.383 19.6455 149.369 19.5829C149.35 19.5006 149.328 19.4168 149.328 19.3335C149.328 19.275 149.335 19.2165 149.344 19.1586C149.357 19.0804 149.35 19.0023 149.328 18.9283V15.087C149.343 15.1005 149.361 15.1134 149.376 15.1269C149.489 15.2262 149.604 15.325 149.733 15.4202C151.682 16.8944 155.58 18.0399 161.229 18.0399C166.854 18.0399 170.742 16.9037 172.7 15.4383C172.856 15.3245 172.997 15.2071 173.129 15.0875L173.13 18.9283C173.108 19.0023 173.101 19.0804 173.113 19.1586C173.123 19.2165 173.13 19.275 173.13 19.3335C173.13 19.4168 173.108 19.5006 173.089 19.5844ZM173.13 8.87802V12.7193C173.108 12.7933 173.101 12.8714 173.113 12.9496C173.123 13.0075 173.13 13.066 173.13 13.1245C173.13 13.2078 173.108 13.2916 173.089 13.3754C173.074 13.438 173.054 13.5001 173.029 13.5632C173.008 13.6145 172.983 13.6657 172.955 13.7169C172.92 13.7805 172.881 13.8442 172.835 13.9078C172.801 13.9559 172.762 14.0036 172.722 14.0512C172.664 14.1189 172.603 14.1867 172.534 14.254C172.492 14.2949 172.446 14.3352 172.399 14.3761C172.315 14.4501 172.226 14.5236 172.127 14.5965C172.085 14.6281 172.039 14.6586 171.994 14.6896C171.877 14.7704 171.755 14.8506 171.621 14.9292C171.586 14.9504 171.548 14.9706 171.512 14.9913C171.357 15.0782 171.196 15.1646 171.023 15.2485C171 15.2593 170.977 15.2697 170.954 15.28C170.76 15.3716 170.557 15.4616 170.341 15.5486C170.334 15.5511 170.328 15.5532 170.322 15.5558C169.147 16.0251 167.644 16.4199 165.892 16.6786C165.884 16.6796 165.875 16.6807 165.866 16.6822C165.526 16.7324 165.176 16.7769 164.818 16.8162C164.759 16.8224 164.698 16.8266 164.639 16.8328C164.326 16.8654 164.009 16.8954 163.683 16.9192C163.534 16.9301 163.378 16.9352 163.226 16.9445C162.981 16.959 162.738 16.9751 162.487 16.9839C162.076 16.9968 161.657 17.0051 161.229 17.0051C160.801 17.0051 160.382 16.9968 159.971 16.9823C159.719 16.9735 159.476 16.957 159.231 16.943C159.08 16.9342 158.923 16.9285 158.774 16.9176C158.448 16.8938 158.132 16.8638 157.819 16.8312C157.76 16.825 157.698 16.8209 157.64 16.8147C157.281 16.7754 156.932 16.7303 156.591 16.6807C156.583 16.6796 156.574 16.6786 156.565 16.677C154.813 16.4183 153.31 16.0235 152.135 15.5542C152.129 15.5522 152.123 15.5496 152.117 15.547C151.9 15.4601 151.697 15.37 151.503 15.2785C151.481 15.2676 151.457 15.2573 151.435 15.2469C151.261 15.1631 151.1 15.0772 150.946 14.9897C150.91 14.9691 150.871 14.9489 150.836 14.9277C150.702 14.849 150.58 14.7688 150.463 14.6881C150.419 14.657 150.372 14.6265 150.33 14.595C150.231 14.522 150.143 14.4485 150.058 14.3745C150.012 14.3342 149.965 14.2938 149.923 14.2524C149.854 14.1852 149.793 14.1179 149.736 14.0496C149.695 14.002 149.656 13.9544 149.622 13.9063C149.577 13.8426 149.538 13.779 149.503 13.7153C149.475 13.6641 149.45 13.6129 149.429 13.5617C149.403 13.4991 149.383 13.4365 149.369 13.3739C149.35 13.2916 149.328 13.2078 149.328 13.1245C149.328 13.066 149.335 13.0075 149.344 12.9496C149.357 12.8714 149.35 12.7933 149.328 12.7193V8.87802C149.39 8.93442 149.461 8.98978 149.529 9.04566C149.566 9.07671 149.601 9.10775 149.64 9.1388C149.795 9.26091 149.963 9.38147 150.144 9.49892C150.182 9.52324 150.225 9.54704 150.264 9.57136C150.416 9.66605 150.577 9.75866 150.746 9.84973C150.809 9.88336 150.871 9.91648 150.936 9.94959C151.125 10.0458 151.323 10.1395 151.532 10.23C151.566 10.245 151.597 10.2606 151.631 10.275C151.874 10.378 152.132 10.4763 152.4 10.5715C152.474 10.5979 152.551 10.6228 152.627 10.6486C152.841 10.7205 153.061 10.7894 153.289 10.8561C153.371 10.8799 153.452 10.9047 153.537 10.9275C153.839 11.0113 154.152 11.091 154.48 11.1645C154.525 11.1748 154.573 11.1831 154.619 11.1929C154.908 11.2561 155.208 11.3145 155.517 11.3694C155.621 11.388 155.727 11.4056 155.834 11.4232C156.127 11.4713 156.429 11.5153 156.739 11.5557C156.819 11.566 156.895 11.5779 156.976 11.5877C157.361 11.6343 157.759 11.6741 158.168 11.7083C158.269 11.7166 158.374 11.7228 158.477 11.73C158.804 11.7538 159.139 11.7735 159.482 11.789C159.606 11.7947 159.73 11.8004 159.858 11.805C160.304 11.8201 160.758 11.8309 161.229 11.8309C161.7 11.8309 162.154 11.8201 162.6 11.805C162.727 11.8004 162.851 11.7947 162.976 11.789C163.319 11.7735 163.654 11.7538 163.981 11.73C164.084 11.7223 164.188 11.7166 164.289 11.7083C164.699 11.6747 165.097 11.6343 165.482 11.5877C165.563 11.5779 165.639 11.566 165.719 11.5557C166.028 11.5153 166.33 11.4713 166.624 11.4232C166.731 11.4056 166.837 11.388 166.941 11.3694C167.25 11.3145 167.55 11.2561 167.839 11.1929C167.884 11.1831 167.933 11.1743 167.978 11.1645C168.306 11.091 168.619 11.0108 168.921 10.9275C169.006 10.9042 169.086 10.8799 169.169 10.8561C169.397 10.7894 169.617 10.7205 169.83 10.6486C169.907 10.6228 169.984 10.5979 170.058 10.5715C170.326 10.4763 170.584 10.378 170.826 10.275C170.861 10.2606 170.892 10.245 170.926 10.23C171.135 10.139 171.333 10.0458 171.522 9.94959C171.587 9.91648 171.65 9.88336 171.712 9.84973C171.881 9.75918 172.042 9.66656 172.194 9.57136C172.233 9.54704 172.276 9.52324 172.314 9.49892C172.495 9.38147 172.663 9.26143 172.818 9.1388C172.857 9.10775 172.892 9.07671 172.929 9.04566C172.997 8.98978 173.067 8.93442 173.13 8.87802ZM161.229 3.03483C168.243 3.03483 173.13 5.07966 173.13 6.91546C173.13 8.75125 168.243 10.7961 161.229 10.7961C154.215 10.7961 149.328 8.75125 149.328 6.91546C149.328 5.07966 154.215 3.03483 161.229 3.03483ZM173.13 25.6475C173.122 25.6703 173.117 25.6936 173.113 25.7174C172.82 27.5071 167.974 29.4231 161.229 29.4231C154.484 29.4231 149.638 27.5071 149.345 25.7174C149.341 25.6941 149.335 25.6713 149.328 25.6496V21.296C149.343 21.3095 149.361 21.3224 149.376 21.3359C149.489 21.4352 149.604 21.534 149.733 21.6292C151.682 23.1034 155.58 24.2489 161.229 24.2489C166.854 24.2489 170.742 23.1127 172.7 21.6473C172.856 21.5335 172.997 21.4161 173.129 21.2965L173.13 25.6475Z" fill="white"/>
</g>
<path fill-rule="evenodd" clip-rule="evenodd" d="M175.594 28.2871C177.653 27.726 179.318 26.6532 179.803 25.2251V7.10855C178.771 5.37264 177.26 4.36503 175.594 3.87527V28.2871Z" fill="#FF6112"/>
<path fill-rule="evenodd" clip-rule="evenodd" d="M175.594 28.895C178.052 28.2603 179.802 26.892 180.071 25.2175C180.096 25.1493 180.11 25.0707 180.11 24.9868V19.2658V19.0274V18.789V13.5447V13.3064V13.068V7.58536V7.34699C180.11 7.26022 180.091 7.18346 180.065 7.11338C179.801 5.58942 178.268 4.08399 175.594 3.41558V4.40326C177.991 5.04422 179.497 6.36492 179.497 7.58536C179.497 8.8058 177.991 10.1265 175.594 10.7675V11.7522C175.611 11.7478 175.629 11.7433 175.647 11.7388C175.71 11.7226 175.773 11.7064 175.835 11.6892C176.017 11.6387 176.195 11.5848 176.366 11.5267C176.379 11.5223 176.392 11.5181 176.406 11.5139C176.42 11.5095 176.435 11.5051 176.448 11.5004C176.642 11.4327 176.827 11.3588 177.007 11.2821C177.041 11.2674 177.074 11.2523 177.107 11.2372C177.122 11.2302 177.137 11.2232 177.153 11.2163C177.288 11.1548 177.418 11.0914 177.545 11.0251C177.561 11.0165 177.577 11.0081 177.593 10.9996C177.622 10.9846 177.651 10.9696 177.679 10.9541C177.838 10.8664 177.991 10.7758 178.134 10.6809C178.146 10.6731 178.157 10.6651 178.168 10.6569C178.177 10.6511 178.185 10.6452 178.193 10.6394C178.317 10.5555 178.434 10.4697 178.546 10.381C178.584 10.3505 178.621 10.32 178.658 10.289C178.758 10.2056 178.853 10.1202 178.943 10.0325C178.953 10.0232 178.963 10.0139 178.973 10.0046C178.987 9.99169 179.001 9.97881 179.014 9.96578C179.122 9.85756 179.221 9.74695 179.313 9.63396C179.326 9.61761 179.338 9.60127 179.351 9.58492C179.36 9.57266 179.369 9.5604 179.379 9.54814C179.39 9.53284 179.402 9.51758 179.415 9.50232C179.443 9.46625 179.471 9.4302 179.497 9.39368V12.9331C179.484 13.0012 179.48 13.0732 179.488 13.1452C179.493 13.1986 179.497 13.2525 179.497 13.3064C179.497 13.3779 179.486 13.4498 179.475 13.5217C179.475 13.527 179.474 13.5323 179.473 13.5376C179.464 13.5953 179.452 13.6525 179.437 13.7107C179.425 13.7579 179.41 13.8051 179.394 13.8522C179.373 13.9109 179.35 13.9695 179.323 14.0282C179.303 14.0725 179.28 14.1164 179.256 14.1602C179.222 14.2227 179.186 14.2851 179.145 14.3471C179.12 14.3843 179.093 14.4209 179.066 14.4581L179.065 14.4596C179.015 14.5278 178.962 14.5955 178.904 14.6627C178.884 14.6855 178.863 14.7077 178.843 14.7301C178.837 14.7362 178.831 14.7424 178.825 14.7485C178.756 14.8229 178.684 14.8968 178.604 14.9693C178.59 14.9828 178.575 14.9959 178.56 15.009C178.553 15.0148 178.546 15.0206 178.54 15.0265C178.448 15.1066 178.353 15.1862 178.25 15.2634C178.24 15.2715 178.228 15.2793 178.218 15.287C178.215 15.2889 178.212 15.2907 178.21 15.2925C178.095 15.3769 177.975 15.4599 177.847 15.5399C177.845 15.5411 177.843 15.5422 177.841 15.5433C177.839 15.5444 177.837 15.5454 177.835 15.5466C177.227 15.9253 176.469 16.2513 175.594 16.4865V17.476C177.267 17.0575 178.494 16.3113 179.243 15.4384C179.335 15.3335 179.418 15.2253 179.497 15.1152L179.497 18.6541C179.484 18.7223 179.48 18.7942 179.488 18.8662C179.493 18.9196 179.497 18.9735 179.497 19.0274C179.497 19.0989 179.486 19.1708 179.475 19.2427C179.475 19.248 179.474 19.2533 179.473 19.2586C179.464 19.3163 179.452 19.3735 179.437 19.4317C179.425 19.4789 179.41 19.5261 179.394 19.5733C179.373 19.6319 179.35 19.6905 179.323 19.7492C179.303 19.7935 179.28 19.8374 179.256 19.8812C179.222 19.9437 179.186 20.0061 179.145 20.0681C179.12 20.1053 179.093 20.142 179.066 20.1791L179.065 20.1806C179.015 20.2488 178.962 20.3165 178.904 20.3837C178.884 20.4065 178.863 20.4287 178.843 20.4511C178.837 20.4572 178.831 20.4634 178.825 20.4695C178.756 20.5439 178.684 20.6178 178.604 20.6903C178.59 20.7038 178.575 20.7169 178.56 20.7301C178.553 20.7359 178.546 20.7417 178.54 20.7475C178.448 20.8276 178.353 20.9072 178.25 20.9844C178.24 20.9925 178.228 21.0003 178.218 21.008C178.215 21.0099 178.212 21.0117 178.21 21.0135C178.095 21.0979 177.975 21.1809 177.847 21.261C177.845 21.2621 177.843 21.2632 177.841 21.2643C177.839 21.2654 177.837 21.2664 177.835 21.2676C177.227 21.6463 176.469 21.9723 175.594 22.2075V23.197C177.267 22.7785 178.494 22.0323 179.243 21.1594C179.335 21.0545 179.418 20.9463 179.497 20.8362L179.497 24.8452C179.493 24.8661 179.49 24.8876 179.487 24.9095C179.364 26.0823 177.878 27.3139 175.594 27.9275V28.895Z" fill="white"/>
<path fill-rule="evenodd" clip-rule="evenodd" d="M181.539 28.2872C183.598 27.7261 185.263 26.6532 185.749 25.2252V7.10864C184.716 5.37274 183.205 4.36514 181.539 3.87537V28.2872Z" fill="#FF6112"/>
<path fill-rule="evenodd" clip-rule="evenodd" d="M181.539 28.8951C183.997 28.2604 185.747 26.892 186.016 25.2176C186.041 25.1494 186.055 25.0708 186.055 24.9868V19.2658V19.0275V18.7891V13.5448V13.3065V13.0681V7.58545V7.34708C186.055 7.26031 186.036 7.18355 186.01 7.11347C185.746 5.58953 184.213 4.08411 181.539 3.41569V4.40337C183.937 5.04434 185.442 6.36503 185.442 7.58545C185.442 8.80587 183.937 10.1266 181.539 10.7675V11.7523C181.557 11.7479 181.574 11.7434 181.592 11.7389C181.655 11.7227 181.718 11.7065 181.78 11.6893C181.962 11.6388 182.14 11.5849 182.311 11.5267C182.324 11.5224 182.338 11.5182 182.351 11.514C182.365 11.5096 182.38 11.5052 182.393 11.5005C182.587 11.4328 182.772 11.3589 182.952 11.2822C182.986 11.2675 183.019 11.2524 183.052 11.2373C183.067 11.2303 183.083 11.2233 183.098 11.2164C183.233 11.1549 183.363 11.0915 183.49 11.0252C183.506 11.0166 183.522 11.0082 183.539 10.9997C183.567 10.9847 183.596 10.9697 183.624 10.9542C183.783 10.8664 183.936 10.7759 184.079 10.681C184.091 10.6732 184.102 10.6652 184.114 10.657C184.122 10.6512 184.13 10.6453 184.138 10.6395C184.262 10.5556 184.379 10.4698 184.491 10.3811C184.529 10.3506 184.566 10.3201 184.603 10.2891C184.703 10.2057 184.799 10.1203 184.889 10.0326C184.898 10.0232 184.908 10.014 184.918 10.0047C184.932 9.99177 184.946 9.9789 184.959 9.96587C185.067 9.85764 185.166 9.74704 185.258 9.63405C185.271 9.6177 185.283 9.60136 185.296 9.58501C185.305 9.57275 185.314 9.56049 185.324 9.54823C185.336 9.53293 185.348 9.51767 185.36 9.50242C185.388 9.46634 185.416 9.43029 185.442 9.39377V12.9332C185.429 13.0013 185.425 13.0733 185.433 13.1453C185.439 13.1987 185.442 13.2526 185.442 13.3065C185.442 13.378 185.431 13.4499 185.42 13.5218C185.42 13.5271 185.419 13.5324 185.418 13.5377C185.409 13.5954 185.398 13.6526 185.383 13.7107C185.37 13.7579 185.355 13.8051 185.339 13.8523C185.318 13.911 185.295 13.9696 185.268 14.0283C185.248 14.0726 185.225 14.1165 185.201 14.1603C185.167 14.2228 185.131 14.2852 185.09 14.3472C185.065 14.3843 185.038 14.421 185.011 14.4581L185.01 14.4597C184.96 14.5279 184.908 14.5956 184.849 14.6628C184.829 14.6856 184.809 14.7078 184.788 14.7302C184.782 14.7363 184.776 14.7425 184.77 14.7486C184.701 14.823 184.629 14.8969 184.55 14.9694C184.535 14.9829 184.52 14.996 184.505 15.0091C184.498 15.0149 184.491 15.0207 184.485 15.0266C184.393 15.1067 184.298 15.1863 184.195 15.2635C184.185 15.2716 184.174 15.2794 184.163 15.2871C184.16 15.2889 184.157 15.2908 184.155 15.2926C184.04 15.377 183.92 15.4599 183.792 15.54C183.79 15.5412 183.788 15.5423 183.786 15.5434C183.784 15.5444 183.782 15.5455 183.781 15.5467C183.172 15.9253 182.414 16.2513 181.539 16.4866V17.476C183.212 17.0576 184.439 16.3114 185.188 15.4385C185.28 15.3336 185.364 15.2254 185.442 15.1152L185.442 18.6542C185.429 18.7223 185.425 18.7943 185.433 18.8663C185.439 18.9197 185.442 18.9736 185.442 19.0275C185.442 19.099 185.431 19.1709 185.42 19.2428C185.42 19.2481 185.419 19.2534 185.418 19.2587C185.409 19.3164 185.398 19.3736 185.383 19.4317C185.37 19.4789 185.355 19.5261 185.339 19.5733C185.318 19.632 185.295 19.6906 185.268 19.7493C185.248 19.7936 185.225 19.8375 185.201 19.8813C185.167 19.9438 185.131 20.0062 185.09 20.0682C185.065 20.1054 185.038 20.142 185.011 20.1792L185.01 20.1807C184.96 20.2489 184.908 20.3166 184.849 20.3838C184.829 20.4066 184.809 20.4288 184.788 20.4512C184.782 20.4573 184.776 20.4635 184.77 20.4696C184.701 20.544 184.629 20.6179 184.55 20.6904C184.535 20.7039 184.52 20.717 184.505 20.7302C184.498 20.7359 184.491 20.7417 184.485 20.7476C184.393 20.8277 184.298 20.9073 184.195 20.9845C184.185 20.9926 184.174 21.0004 184.163 21.0081C184.16 21.0099 184.157 21.0118 184.155 21.0136C184.04 21.098 183.92 21.1809 183.792 21.261C183.79 21.2622 183.788 21.2633 183.786 21.2644C183.784 21.2655 183.782 21.2665 183.781 21.2677C183.172 21.6463 182.414 21.9723 181.539 22.2076V23.197C183.212 22.7786 184.439 22.0324 185.188 21.1595C185.28 21.0546 185.364 20.9464 185.442 20.8363L185.442 24.8453C185.438 24.8662 185.435 24.8877 185.432 24.9096C185.309 26.0824 183.823 27.314 181.539 27.9276V28.8951Z" fill="white"/>
<path fill-rule="evenodd" clip-rule="evenodd" d="M187.484 28.2872C189.544 27.726 191.208 26.6532 191.694 25.2252V7.10864C190.661 5.37276 189.15 4.36516 187.484 3.87539V28.2872Z" fill="#FF6112"/>
<path fill-rule="evenodd" clip-rule="evenodd" d="M187.484 28.8951C189.942 28.2604 191.693 26.8921 191.962 25.2176C191.986 25.1494 192 25.0708 192 24.9868V19.2658V19.0275V18.7891V13.5448V13.3065V13.0681V7.58545V7.34708C192 7.26031 191.981 7.18355 191.955 7.11347C191.691 5.58952 190.158 4.08409 187.484 3.41568V4.40336C189.882 5.04432 191.388 6.36502 191.388 7.58545C191.388 8.80588 189.882 10.1266 187.484 10.7675V11.7523C187.502 11.7479 187.52 11.7434 187.537 11.7389C187.6 11.7227 187.663 11.7065 187.725 11.6893C187.907 11.6388 188.085 11.5849 188.256 11.5267C188.269 11.5224 188.283 11.5182 188.296 11.514C188.311 11.5096 188.325 11.5052 188.339 11.5005C188.533 11.4328 188.718 11.3589 188.897 11.2822C188.931 11.2675 188.964 11.2524 188.997 11.2373C189.013 11.2303 189.028 11.2233 189.043 11.2164C189.178 11.1549 189.309 11.0915 189.435 11.0252C189.451 11.0166 189.468 11.0082 189.484 10.9997C189.513 10.9847 189.542 10.9697 189.57 10.9542C189.728 10.8664 189.881 10.7759 190.024 10.681C190.036 10.6732 190.048 10.6652 190.059 10.657C190.067 10.6512 190.075 10.6453 190.084 10.6395C190.207 10.5556 190.324 10.4698 190.436 10.3811C190.474 10.3506 190.512 10.3201 190.548 10.2891C190.649 10.2057 190.744 10.1203 190.834 10.0326C190.844 10.0232 190.854 10.014 190.864 10.0047C190.878 9.99177 190.892 9.9789 190.905 9.96587C191.012 9.85764 191.111 9.74704 191.203 9.63405C191.216 9.6177 191.229 9.60136 191.241 9.58501C191.25 9.57275 191.259 9.56049 191.269 9.54823C191.281 9.53293 191.293 9.51767 191.305 9.50242C191.333 9.46634 191.362 9.43029 191.388 9.39377V12.9332C191.375 13.0013 191.37 13.0733 191.378 13.1453C191.384 13.1987 191.388 13.2526 191.388 13.3065C191.388 13.378 191.377 13.4499 191.366 13.5218C191.365 13.5271 191.364 13.5324 191.363 13.5377C191.355 13.5954 191.343 13.6526 191.328 13.7107C191.316 13.7579 191.301 13.8051 191.284 13.8523C191.264 13.911 191.241 13.9696 191.213 14.0283C191.193 14.0726 191.17 14.1165 191.146 14.1603C191.112 14.2228 191.076 14.2852 191.035 14.3472C191.011 14.3843 190.984 14.421 190.957 14.4581L190.955 14.4597C190.905 14.5279 190.853 14.5956 190.794 14.6628C190.775 14.6856 190.754 14.7078 190.733 14.7302C190.727 14.7363 190.721 14.7425 190.716 14.7486C190.646 14.823 190.574 14.8969 190.495 14.9694C190.48 14.9829 190.465 14.996 190.45 15.0091C190.443 15.0149 190.437 15.0207 190.43 15.0266C190.339 15.1067 190.243 15.1863 190.141 15.2635C190.13 15.2716 190.119 15.2794 190.108 15.2871C190.105 15.2889 190.103 15.2908 190.1 15.2926C189.985 15.377 189.865 15.4599 189.737 15.54C189.735 15.5412 189.733 15.5423 189.731 15.5434C189.73 15.5444 189.728 15.5455 189.726 15.5467C189.117 15.9253 188.359 16.2513 187.484 16.4866V17.476C189.157 17.0576 190.384 16.3114 191.133 15.4385C191.226 15.3336 191.309 15.2254 191.387 15.1152L191.388 18.6542C191.375 18.7223 191.37 18.7943 191.378 18.8663C191.384 18.9197 191.388 18.9736 191.388 19.0275C191.388 19.099 191.377 19.1709 191.366 19.2428C191.365 19.2481 191.364 19.2534 191.363 19.2587C191.355 19.3164 191.343 19.3736 191.328 19.4317C191.316 19.4789 191.301 19.5261 191.284 19.5733C191.264 19.632 191.241 19.6906 191.213 19.7493C191.193 19.7936 191.17 19.8375 191.146 19.8813C191.112 19.9438 191.076 20.0062 191.035 20.0682C191.011 20.1054 190.984 20.142 190.957 20.1792L190.955 20.1807C190.905 20.2489 190.853 20.3166 190.794 20.3838C190.775 20.4066 190.754 20.4288 190.733 20.4512C190.727 20.4573 190.721 20.4635 190.716 20.4696C190.646 20.544 190.574 20.6179 190.495 20.6904C190.48 20.7039 190.465 20.717 190.45 20.7302C190.443 20.7359 190.437 20.7417 190.43 20.7476C190.339 20.8277 190.243 20.9073 190.141 20.9845C190.127 20.9945 190.114 21.0041 190.1 21.0136C189.985 21.098 189.865 21.1809 189.737 21.261C189.735 21.2622 189.733 21.2633 189.731 21.2644C189.73 21.2655 189.728 21.2665 189.726 21.2677C189.117 21.6463 188.359 21.9723 187.484 22.2076V23.197C189.157 22.7786 190.384 22.0324 191.133 21.1595C191.226 21.0546 191.309 20.9464 191.387 20.8363L191.388 24.8453C191.383 24.8662 191.38 24.8877 191.378 24.9096C191.254 26.0824 189.768 27.314 187.484 27.9276V28.8951Z" fill="white"/>
<defs>
<clipPath id="clip0_674_40">
<rect width="28.4579" height="28.4579" fill="white" transform="translate(147 2)"/>
</clipPath>
</defs>
</svg>
