<svg width="406" height="51" viewBox="0 0 406 51" fill="none" xmlns="http://www.w3.org/2000/svg">
<g filter="url(#filter0_d_674_38)">
<rect width="404" height="49" rx="4" fill="white"/>
<path d="M233.86 35.28C232.815 35.28 231.909 35.2333 231.144 35.14C230.397 35.0653 229.669 34.9253 228.96 34.72V15.68C229.669 15.4747 230.397 15.3347 231.144 15.26C231.909 15.1667 232.815 15.12 233.86 15.12C235.409 15.12 236.707 15.4373 237.752 16.072C238.816 16.7067 239.619 17.7613 240.16 19.236C240.72 20.692 241 22.68 241 25.2C241 27.72 240.72 29.7173 240.16 31.192C239.619 32.6667 238.816 33.7213 237.752 34.356C236.707 34.972 235.409 35.28 233.86 35.28ZM232.32 33.18H233.86C234.607 33.18 235.26 32.956 235.82 32.508C236.399 32.0413 236.847 31.2293 237.164 30.072C237.481 28.9147 237.64 27.2907 237.64 25.2C237.64 23.0907 237.481 21.4667 237.164 20.328C236.847 19.1707 236.399 18.368 235.82 17.92C235.26 17.4533 234.607 17.22 233.86 17.22H232.32V33.18ZM247.718 35.28C246.934 35.28 246.206 35.1587 245.534 34.916C244.88 34.6733 244.358 34.2347 243.966 33.6C243.574 32.9467 243.378 32.0133 243.378 30.8C243.378 29.5867 243.574 28.6627 243.966 28.028C244.376 27.3747 244.927 26.9267 245.618 26.684C246.327 26.4413 247.12 26.32 247.998 26.32C248.427 26.32 248.838 26.348 249.23 26.404C249.64 26.46 250.023 26.5253 250.378 26.6V25.48C250.378 24.36 250.116 23.6133 249.594 23.24C249.071 22.8667 248.352 22.68 247.438 22.68H244.638V21.28C245.067 21.1307 245.59 21 246.206 20.888C246.84 20.776 247.438 20.72 247.998 20.72C249.267 20.72 250.322 20.8507 251.162 21.112C252.02 21.3547 252.664 21.8213 253.094 22.512C253.523 23.184 253.738 24.1733 253.738 25.48V35H251.358L250.938 34.16H250.798C250.499 34.44 250.098 34.7013 249.594 34.944C249.108 35.168 248.483 35.28 247.718 35.28ZM248.838 33.32C249.192 33.32 249.5 33.264 249.762 33.152C250.042 33.0213 250.247 32.8907 250.378 32.76V28.28H248.838C248.52 28.28 248.194 28.3547 247.858 28.504C247.54 28.6533 247.27 28.9147 247.046 29.288C246.84 29.6427 246.738 30.1467 246.738 30.8C246.738 31.4533 246.84 31.9667 247.046 32.34C247.27 32.6947 247.54 32.9467 247.858 33.096C248.194 33.2453 248.52 33.32 248.838 33.32ZM261.987 35.28C261.203 35.28 260.475 35.1587 259.803 34.916C259.15 34.6547 258.627 34.188 258.235 33.516C257.843 32.8253 257.647 31.8267 257.647 30.52V23.38H256.107V21.28H257.647V17.92H261.007V21.28H264.787V22.82C264.376 22.9507 263.844 23.0813 263.191 23.212C262.538 23.324 261.856 23.38 261.147 23.38H261.007V30.52C261.007 31.2667 261.1 31.8453 261.287 32.256C261.474 32.648 261.707 32.928 261.987 33.096C262.267 33.2453 262.547 33.32 262.827 33.32H265.347V34.72C265.123 34.8133 264.815 34.9067 264.423 35C264.031 35.0747 263.62 35.14 263.191 35.196C262.762 35.252 262.36 35.28 261.987 35.28ZM270.96 35.28C270.176 35.28 269.448 35.1587 268.776 34.916C268.123 34.6733 267.6 34.2347 267.208 33.6C266.816 32.9467 266.62 32.0133 266.62 30.8C266.62 29.5867 266.816 28.6627 267.208 28.028C267.619 27.3747 268.169 26.9267 268.86 26.684C269.569 26.4413 270.363 26.32 271.24 26.32C271.669 26.32 272.08 26.348 272.472 26.404C272.883 26.46 273.265 26.5253 273.62 26.6V25.48C273.62 24.36 273.359 23.6133 272.836 23.24C272.313 22.8667 271.595 22.68 270.68 22.68H267.88V21.28C268.309 21.1307 268.832 21 269.448 20.888C270.083 20.776 270.68 20.72 271.24 20.72C272.509 20.72 273.564 20.8507 274.404 21.112C275.263 21.3547 275.907 21.8213 276.336 22.512C276.765 23.184 276.98 24.1733 276.98 25.48V35H274.6L274.18 34.16H274.04C273.741 34.44 273.34 34.7013 272.836 34.944C272.351 35.168 271.725 35.28 270.96 35.28ZM272.08 33.32C272.435 33.32 272.743 33.264 273.004 33.152C273.284 33.0213 273.489 32.8907 273.62 32.76V28.28H272.08C271.763 28.28 271.436 28.3547 271.1 28.504C270.783 28.6533 270.512 28.9147 270.288 29.288C270.083 29.6427 269.98 30.1467 269.98 30.8C269.98 31.4533 270.083 31.9667 270.288 32.34C270.512 32.6947 270.783 32.9467 271.1 33.096C271.436 33.2453 271.763 33.32 272.08 33.32ZM285.369 35.28C284.398 35.28 283.558 35.2053 282.849 35.056C282.158 34.9253 281.458 34.72 280.749 34.44V15.4H284.109V21.42C284.408 21.2147 284.753 21.0467 285.145 20.916C285.556 20.7853 286.004 20.72 286.489 20.72C287.516 20.72 288.402 20.9627 289.149 21.448C289.914 21.9147 290.502 22.68 290.913 23.744C291.324 24.808 291.529 26.2267 291.529 28C291.529 29.7733 291.305 31.192 290.857 32.256C290.428 33.32 289.756 34.0947 288.841 34.58C287.926 35.0467 286.769 35.28 285.369 35.28ZM284.109 33.32H285.369C285.929 33.32 286.414 33.1707 286.825 32.872C287.254 32.5547 287.581 32.0133 287.805 31.248C288.048 30.4827 288.169 29.4 288.169 28C288.169 26.6 288.057 25.5173 287.833 24.752C287.609 23.968 287.301 23.4267 286.909 23.128C286.536 22.8293 286.116 22.68 285.649 22.68C285.294 22.68 284.986 22.736 284.725 22.848C284.464 22.96 284.258 23.0907 284.109 23.24V33.32ZM298.112 35.28C297.328 35.28 296.6 35.1587 295.928 34.916C295.275 34.6733 294.752 34.2347 294.36 33.6C293.968 32.9467 293.772 32.0133 293.772 30.8C293.772 29.5867 293.968 28.6627 294.36 28.028C294.771 27.3747 295.322 26.9267 296.012 26.684C296.722 26.4413 297.515 26.32 298.392 26.32C298.822 26.32 299.232 26.348 299.624 26.404C300.035 26.46 300.418 26.5253 300.772 26.6V25.48C300.772 24.36 300.511 23.6133 299.988 23.24C299.466 22.8667 298.747 22.68 297.832 22.68H295.032V21.28C295.462 21.1307 295.984 21 296.6 20.888C297.235 20.776 297.832 20.72 298.392 20.72C299.662 20.72 300.716 20.8507 301.556 21.112C302.415 21.3547 303.059 21.8213 303.488 22.512C303.918 23.184 304.132 24.1733 304.132 25.48V35H301.752L301.332 34.16H301.192C300.894 34.44 300.492 34.7013 299.988 34.944C299.503 35.168 298.878 35.28 298.112 35.28ZM299.232 33.32C299.587 33.32 299.895 33.264 300.156 33.152C300.436 33.0213 300.642 32.8907 300.772 32.76V28.28H299.232C298.915 28.28 298.588 28.3547 298.252 28.504C297.935 28.6533 297.664 28.9147 297.44 29.288C297.235 29.6427 297.132 30.1467 297.132 30.8C297.132 31.4533 297.235 31.9667 297.44 32.34C297.664 32.6947 297.935 32.9467 298.252 33.096C298.588 33.2453 298.915 33.32 299.232 33.32ZM310.701 35.28C310.011 35.28 309.339 35.2147 308.685 35.084C308.032 34.972 307.491 34.8507 307.061 34.72V33.32H310.141C311.187 33.32 311.98 33.1707 312.521 32.872C313.081 32.5547 313.361 32.0507 313.361 31.36C313.361 30.8747 313.203 30.4827 312.885 30.184C312.568 29.8667 312.157 29.596 311.653 29.372C311.168 29.148 310.636 28.924 310.057 28.7C309.497 28.4573 308.965 28.1773 308.461 27.86C307.976 27.524 307.575 27.104 307.257 26.6C306.94 26.0773 306.781 25.424 306.781 24.64C306.781 23.0907 307.248 22.0547 308.181 21.532C309.133 20.9907 310.487 20.72 312.241 20.72C312.951 20.72 313.632 20.776 314.285 20.888C314.939 21 315.471 21.1307 315.881 21.28V22.68H312.801C312.036 22.68 311.401 22.82 310.897 23.1C310.393 23.38 310.141 23.8 310.141 24.36C310.141 24.8453 310.3 25.2467 310.617 25.564C310.935 25.8627 311.336 26.124 311.821 26.348C312.325 26.572 312.857 26.8053 313.417 27.048C313.996 27.272 314.528 27.552 315.013 27.888C315.517 28.2053 315.928 28.616 316.245 29.12C316.563 29.624 316.721 30.2773 316.721 31.08C316.721 32.2 316.497 33.068 316.049 33.684C315.62 34.2813 314.957 34.7013 314.061 34.944C313.184 35.168 312.064 35.28 310.701 35.28ZM324.983 35.28C323.545 35.28 322.36 35.0467 321.427 34.58C320.493 34.0947 319.803 33.32 319.355 32.256C318.907 31.192 318.683 29.7733 318.683 28C318.683 26.2267 318.888 24.808 319.299 23.744C319.728 22.68 320.335 21.9147 321.119 21.448C321.921 20.9627 322.883 20.72 324.003 20.72C325.123 20.72 326.075 20.9627 326.859 21.448C327.661 21.9147 328.268 22.68 328.679 23.744C329.108 24.808 329.323 26.2267 329.323 28V28.98H322.043C322.043 30.5853 322.323 31.7147 322.883 32.368C323.461 33.0027 324.348 33.32 325.543 33.32H328.623V34.72C328.212 34.8507 327.68 34.972 327.027 35.084C326.373 35.2147 325.692 35.28 324.983 35.28ZM322.043 27.02H325.963C325.963 25.8067 325.879 24.8827 325.711 24.248C325.543 23.5947 325.309 23.1467 325.011 22.904C324.712 22.6613 324.376 22.54 324.003 22.54C323.629 22.54 323.293 22.6613 322.995 22.904C322.696 23.1467 322.463 23.5947 322.295 24.248C322.127 24.8827 322.043 25.8067 322.043 27.02ZM339.401 35V15.4H342.761V32.76H349.621V35H339.401ZM355.37 35.28C354.586 35.28 353.858 35.1587 353.186 34.916C352.533 34.6733 352.01 34.2347 351.618 33.6C351.226 32.9467 351.03 32.0133 351.03 30.8C351.03 29.5867 351.226 28.6627 351.618 28.028C352.029 27.3747 352.579 26.9267 353.27 26.684C353.979 26.4413 354.773 26.32 355.65 26.32C356.079 26.32 356.49 26.348 356.882 26.404C357.293 26.46 357.675 26.5253 358.03 26.6V25.48C358.03 24.36 357.769 23.6133 357.246 23.24C356.723 22.8667 356.005 22.68 355.09 22.68H352.29V21.28C352.719 21.1307 353.242 21 353.858 20.888C354.493 20.776 355.09 20.72 355.65 20.72C356.919 20.72 357.974 20.8507 358.814 21.112C359.673 21.3547 360.317 21.8213 360.746 22.512C361.175 23.184 361.39 24.1733 361.39 25.48V35H359.01L358.59 34.16H358.45C358.151 34.44 357.75 34.7013 357.246 34.944C356.761 35.168 356.135 35.28 355.37 35.28ZM356.49 33.32C356.845 33.32 357.153 33.264 357.414 33.152C357.694 33.0213 357.899 32.8907 358.03 32.76V28.28H356.49C356.173 28.28 355.846 28.3547 355.51 28.504C355.193 28.6533 354.922 28.9147 354.698 29.288C354.493 29.6427 354.39 30.1467 354.39 30.8C354.39 31.4533 354.493 31.9667 354.698 32.34C354.922 32.6947 355.193 32.9467 355.51 33.096C355.846 33.2453 356.173 33.32 356.49 33.32ZM369.779 35.28C368.809 35.28 367.969 35.2053 367.259 35.056C366.569 34.9253 365.869 34.72 365.159 34.44V15.4H368.519V21.42C368.818 21.2147 369.163 21.0467 369.555 20.916C369.966 20.7853 370.414 20.72 370.899 20.72C371.926 20.72 372.813 20.9627 373.559 21.448C374.325 21.9147 374.913 22.68 375.323 23.744C375.734 24.808 375.939 26.2267 375.939 28C375.939 29.7733 375.715 31.192 375.267 32.256C374.838 33.32 374.166 34.0947 373.251 34.58C372.337 35.0467 371.179 35.28 369.779 35.28ZM368.519 33.32H369.779C370.339 33.32 370.825 33.1707 371.235 32.872C371.665 32.5547 371.991 32.0133 372.215 31.248C372.458 30.4827 372.579 29.4 372.579 28C372.579 26.6 372.467 25.5173 372.243 24.752C372.019 23.968 371.711 23.4267 371.319 23.128C370.946 22.8293 370.526 22.68 370.059 22.68C369.705 22.68 369.397 22.736 369.135 22.848C368.874 22.96 368.669 23.0907 368.519 23.24V33.32Z" fill="#CCCCCC"/>
<path d="M22.96 34V14.68C23.6693 14.4747 24.3973 14.3347 25.144 14.26C25.9093 14.1667 26.8147 14.12 27.86 14.12C29.4093 14.12 30.66 14.3533 31.612 14.82C32.5827 15.2867 33.292 16.0333 33.74 17.06C34.2067 18.0867 34.44 19.44 34.44 21.12C34.44 22.8933 34.2253 24.312 33.796 25.376C33.3667 26.44 32.7227 27.2147 31.864 27.7C31.024 28.1667 29.9693 28.4 28.7 28.4C28.4947 28.4 28.1307 28.372 27.608 28.316C27.104 28.26 26.6747 28.1947 26.32 28.12V34H22.96ZM26.32 26.16H27.86C28.5693 26.16 29.1573 26.0107 29.624 25.712C30.1093 25.4133 30.4733 24.9 30.716 24.172C30.9587 23.444 31.08 22.4267 31.08 21.12C31.08 19.8507 30.9587 18.8613 30.716 18.152C30.4733 17.4427 30.1093 16.948 29.624 16.668C29.1573 16.3693 28.5693 16.22 27.86 16.22H26.32V26.16ZM42.1302 34.28C40.9168 34.28 39.8902 34.0467 39.0502 33.58C38.2288 33.0947 37.6035 32.32 37.1742 31.256C36.7448 30.192 36.5302 28.7733 36.5302 27C36.5302 25.2267 36.7448 23.808 37.1742 22.744C37.6035 21.68 38.2288 20.9147 39.0502 20.448C39.8902 19.9627 40.9168 19.72 42.1302 19.72C43.3435 19.72 44.3608 19.9627 45.1822 20.448C46.0222 20.9147 46.6568 21.68 47.0862 22.744C47.5155 23.808 47.7302 25.2267 47.7302 27C47.7302 28.7733 47.5155 30.192 47.0862 31.256C46.6568 32.32 46.0222 33.0947 45.1822 33.58C44.3608 34.0467 43.3435 34.28 42.1302 34.28ZM42.1302 32.46C42.5595 32.46 42.9422 32.3107 43.2782 32.012C43.6142 31.6947 43.8755 31.144 44.0622 30.36C44.2675 29.5573 44.3702 28.4373 44.3702 27C44.3702 25.544 44.2675 24.424 44.0622 23.64C43.8755 22.856 43.6142 22.3147 43.2782 22.016C42.9422 21.6987 42.5595 21.54 42.1302 21.54C41.7195 21.54 41.3368 21.6987 40.9822 22.016C40.6462 22.3147 40.3755 22.856 40.1702 23.64C39.9835 24.424 39.8902 25.544 39.8902 27C39.8902 28.4373 39.9835 29.5573 40.1702 30.36C40.3755 31.144 40.6462 31.6947 40.9822 32.012C41.3368 32.3107 41.7195 32.46 42.1302 32.46ZM52.0833 34L49.2833 20H52.6433L54.3513 29.8H54.4633L56.7033 22.8H59.2233L61.4633 29.8H61.5753L63.2833 20H66.6433L63.8433 34H60.2033L58.0193 27.14H57.9073L55.7233 34H52.0833ZM74.4942 34.28C73.0569 34.28 71.8716 34.0467 70.9382 33.58C70.0049 33.0947 69.3142 32.32 68.8662 31.256C68.4182 30.192 68.1942 28.7733 68.1942 27C68.1942 25.2267 68.3996 23.808 68.8102 22.744C69.2396 21.68 69.8462 20.9147 70.6302 20.448C71.4329 19.9627 72.3942 19.72 73.5142 19.72C74.6342 19.72 75.5862 19.9627 76.3702 20.448C77.1729 20.9147 77.7796 21.68 78.1902 22.744C78.6196 23.808 78.8342 25.2267 78.8342 27V27.98H71.5542C71.5542 29.5853 71.8342 30.7147 72.3942 31.368C72.9729 32.0027 73.8596 32.32 75.0542 32.32H78.1342V33.72C77.7236 33.8507 77.1916 33.972 76.5382 34.084C75.8849 34.2147 75.2036 34.28 74.4942 34.28ZM71.5542 26.02H75.4742C75.4742 24.8067 75.3902 23.8827 75.2222 23.248C75.0542 22.5947 74.8209 22.1467 74.5222 21.904C74.2236 21.6613 73.8876 21.54 73.5142 21.54C73.1409 21.54 72.8049 21.6613 72.5062 21.904C72.2076 22.1467 71.9742 22.5947 71.8062 23.248C71.6382 23.8827 71.5542 24.8067 71.5542 26.02ZM81.7731 34V20H84.1531L84.5731 21.12H84.7131C85.0118 20.84 85.4131 20.588 85.9171 20.364C86.4211 20.1213 87.0931 20 87.9331 20H89.7531V22.38H86.6731C86.3185 22.38 86.0105 22.436 85.7491 22.548C85.4878 22.66 85.2825 22.7907 85.1331 22.94V34H81.7731ZM97.1895 34.28C95.7522 34.28 94.5669 34.0467 93.6335 33.58C92.7002 33.0947 92.0095 32.32 91.5615 31.256C91.1135 30.192 90.8895 28.7733 90.8895 27C90.8895 25.2267 91.0949 23.808 91.5055 22.744C91.9349 21.68 92.5415 20.9147 93.3255 20.448C94.1282 19.9627 95.0895 19.72 96.2095 19.72C97.3295 19.72 98.2815 19.9627 99.0655 20.448C99.8682 20.9147 100.475 21.68 100.886 22.744C101.315 23.808 101.53 25.2267 101.53 27V27.98H94.2495C94.2495 29.5853 94.5295 30.7147 95.0895 31.368C95.6682 32.0027 96.5549 32.32 97.7495 32.32H100.83V33.72C100.419 33.8507 99.8869 33.972 99.2335 34.084C98.5802 34.2147 97.8989 34.28 97.1895 34.28ZM94.2495 26.02H98.1695C98.1695 24.8067 98.0855 23.8827 97.9175 23.248C97.7495 22.5947 97.5162 22.1467 97.2175 21.904C96.9189 21.6613 96.5829 21.54 96.2095 21.54C95.8362 21.54 95.5002 21.6613 95.2015 21.904C94.9029 22.1467 94.6695 22.5947 94.5015 23.248C94.3335 23.8827 94.2495 24.8067 94.2495 26.02ZM108.528 34.28C107.595 34.28 106.764 34.0467 106.036 33.58C105.327 33.0947 104.767 32.32 104.356 31.256C103.964 30.192 103.768 28.7733 103.768 27C103.768 25.2267 103.974 23.808 104.384 22.744C104.795 21.68 105.374 20.9147 106.12 20.448C106.886 19.9627 107.782 19.72 108.808 19.72C109.294 19.72 109.732 19.7853 110.124 19.916C110.535 20.0467 110.89 20.2147 111.188 20.42V14.4H114.548V34H112.168L111.748 33.16H111.608C111.31 33.44 110.908 33.7013 110.404 33.944C109.919 34.168 109.294 34.28 108.528 34.28ZM109.648 32.32C110.003 32.32 110.292 32.264 110.516 32.152C110.759 32.0213 110.983 31.8907 111.188 31.76V22.24C111.058 22.0907 110.852 21.96 110.572 21.848C110.311 21.736 110.003 21.68 109.648 21.68C109.182 21.68 108.752 21.8293 108.36 22.128C107.987 22.4267 107.688 22.968 107.464 23.752C107.24 24.5173 107.128 25.6 107.128 27C107.128 28.4 107.24 29.4827 107.464 30.248C107.688 31.0133 107.987 31.5547 108.36 31.872C108.752 32.1707 109.182 32.32 109.648 32.32ZM130.092 34.28C129.121 34.28 128.281 34.2053 127.572 34.056C126.881 33.9253 126.181 33.72 125.472 33.44V14.4H128.832V20.42C129.13 20.2147 129.476 20.0467 129.868 19.916C130.278 19.7853 130.726 19.72 131.212 19.72C132.238 19.72 133.125 19.9627 133.872 20.448C134.637 20.9147 135.225 21.68 135.636 22.744C136.046 23.808 136.252 25.2267 136.252 27C136.252 28.7733 136.028 30.192 135.58 31.256C135.15 32.32 134.478 33.0947 133.564 33.58C132.649 34.0467 131.492 34.28 130.092 34.28ZM128.832 32.32H130.092C130.652 32.32 131.137 32.1707 131.548 31.872C131.977 31.5547 132.304 31.0133 132.528 30.248C132.77 29.4827 132.892 28.4 132.892 27C132.892 25.6 132.78 24.5173 132.556 23.752C132.332 22.968 132.024 22.4267 131.632 22.128C131.258 21.8293 130.838 21.68 130.372 21.68C130.017 21.68 129.709 21.736 129.448 21.848C129.186 21.96 128.981 22.0907 128.832 22.24V32.32ZM143.675 39.88C142.984 39.88 142.312 39.8147 141.659 39.684C141.006 39.572 140.464 39.4507 140.035 39.32V37.92H143.115C144.16 37.92 144.954 37.5933 145.495 36.94C146.055 36.2867 146.335 35.12 146.335 33.44C145.98 33.72 145.56 33.9253 145.075 34.056C144.608 34.2053 144.095 34.28 143.535 34.28C142.751 34.28 142.023 34.1587 141.351 33.916C140.698 33.6733 140.175 33.2347 139.783 32.6C139.391 31.9467 139.195 31.0133 139.195 29.8V20H142.555V29.8C142.555 30.7707 142.788 31.4333 143.255 31.788C143.722 32.1427 144.235 32.32 144.795 32.32C145.15 32.32 145.458 32.264 145.719 32.152C145.999 32.0213 146.204 31.8907 146.335 31.76V20H149.695V32.88C149.695 34.56 149.471 35.9133 149.023 36.94C148.594 37.9667 147.931 38.7133 147.035 39.18C146.158 39.6467 145.038 39.88 143.675 39.88Z" fill="#CCCCCC"/>
<g clip-path="url(#clip0_674_38)">
<path d="M194.647 15.398C188.179 8.41287 170.587 12.2935 169.811 15.398V35.0598C173.95 40.7514 192.319 39.4579 194.647 35.0598V15.398Z" fill="#FF6112"/>
<path d="M195.089 15.4032C194.49 13.1835 190.03 11 182.229 11C174.428 11 169.968 13.1835 169.369 15.4032C169.326 15.4793 169.294 15.5626 169.294 15.6568V15.9155V21.8658V22.1245V22.3832V28.0748V28.3335V28.5922V34.8012C169.294 34.885 169.316 34.9642 169.354 35.0345C169.965 37.5673 175.432 39.4579 182.229 39.4579C189.01 39.4579 194.468 37.575 195.1 35.0516C195.141 34.9776 195.164 34.8922 195.164 34.8012V28.5922V28.3335V28.0748V22.3832V22.1245V21.8658V15.9155V15.6568C195.164 15.5626 195.132 15.4793 195.089 15.4032ZM194.089 28.5844C194.074 28.647 194.054 28.7091 194.029 28.7722C194.008 28.8235 193.983 28.8747 193.955 28.9259C193.92 28.9895 193.881 29.0532 193.835 29.1168C193.801 29.1649 193.762 29.2126 193.722 29.2602C193.664 29.3279 193.603 29.3957 193.534 29.463C193.492 29.5039 193.446 29.5442 193.399 29.5851C193.315 29.6591 193.226 29.7326 193.127 29.8055C193.085 29.8371 193.039 29.8676 192.994 29.8986C192.877 29.9794 192.755 30.0596 192.621 30.1382C192.586 30.1594 192.548 30.1796 192.512 30.2003C192.357 30.2872 192.196 30.3736 192.023 30.4575C192 30.4683 191.977 30.4787 191.954 30.489C191.76 30.5806 191.557 30.6706 191.341 30.7576C191.334 30.7601 191.328 30.7622 191.322 30.7648C190.147 31.2341 188.644 31.6289 186.892 31.8876C186.884 31.8886 186.875 31.8897 186.866 31.8912C186.526 31.9414 186.176 31.9859 185.818 32.0252C185.759 32.0314 185.698 32.0356 185.639 32.0418C185.326 32.0744 185.009 32.1044 184.683 32.1282C184.534 32.1391 184.378 32.1442 184.226 32.1535C183.981 32.168 183.738 32.1841 183.487 32.1929C183.076 32.2058 182.657 32.2141 182.229 32.2141C181.801 32.2141 181.382 32.2058 180.971 32.1913C180.719 32.1825 180.476 32.166 180.231 32.152C180.08 32.1432 179.923 32.1375 179.774 32.1266C179.448 32.1028 179.132 32.0728 178.819 32.0402C178.76 32.034 178.698 32.0299 178.64 32.0237C178.281 31.9844 177.932 31.9393 177.591 31.8897C177.583 31.8886 177.574 31.8876 177.565 31.886C175.813 31.6273 174.31 31.2325 173.135 30.7632C173.129 30.7612 173.123 30.7586 173.117 30.756C172.9 30.6691 172.697 30.579 172.503 30.4875C172.481 30.4766 172.457 30.4663 172.435 30.4559C172.261 30.3721 172.1 30.2862 171.946 30.1987C171.91 30.1781 171.871 30.1579 171.836 30.1367C171.702 30.058 171.58 29.9778 171.463 29.8971C171.419 29.866 171.372 29.8355 171.33 29.804C171.231 29.731 171.143 29.6575 171.058 29.5835C171.012 29.5432 170.965 29.5028 170.923 29.4614C170.854 29.3942 170.793 29.3269 170.736 29.2586C170.695 29.211 170.656 29.1634 170.622 29.1153C170.577 29.0516 170.538 28.988 170.503 28.9243C170.475 28.8731 170.45 28.8219 170.429 28.7707C170.403 28.7081 170.383 28.6455 170.369 28.5829C170.35 28.5006 170.328 28.4168 170.328 28.3335C170.328 28.275 170.335 28.2165 170.344 28.1586C170.357 28.0804 170.35 28.0023 170.328 27.9283V24.087C170.343 24.1005 170.361 24.1134 170.376 24.1269C170.489 24.2262 170.604 24.325 170.733 24.4202C172.682 25.8944 176.58 27.0399 182.229 27.0399C187.854 27.0399 191.742 25.9037 193.7 24.4383C193.856 24.3245 193.997 24.2071 194.129 24.0875L194.13 27.9283C194.108 28.0023 194.101 28.0804 194.113 28.1586C194.123 28.2165 194.13 28.275 194.13 28.3335C194.13 28.4168 194.108 28.5006 194.089 28.5844ZM194.13 17.878V21.7193C194.108 21.7933 194.101 21.8714 194.113 21.9496C194.123 22.0075 194.13 22.066 194.13 22.1245C194.13 22.2078 194.108 22.2916 194.089 22.3754C194.074 22.438 194.054 22.5001 194.029 22.5632C194.008 22.6145 193.983 22.6657 193.955 22.7169C193.92 22.7805 193.881 22.8442 193.835 22.9078C193.801 22.9559 193.762 23.0036 193.722 23.0512C193.664 23.1189 193.603 23.1867 193.534 23.254C193.492 23.2949 193.446 23.3352 193.399 23.3761C193.315 23.4501 193.226 23.5236 193.127 23.5965C193.085 23.6281 193.039 23.6586 192.994 23.6896C192.877 23.7704 192.755 23.8506 192.621 23.9292C192.586 23.9504 192.548 23.9706 192.512 23.9913C192.357 24.0782 192.196 24.1646 192.023 24.2485C192 24.2593 191.977 24.2697 191.954 24.28C191.76 24.3716 191.557 24.4616 191.341 24.5486C191.334 24.5511 191.328 24.5532 191.322 24.5558C190.147 25.0251 188.644 25.4199 186.892 25.6786C186.884 25.6796 186.875 25.6807 186.866 25.6822C186.526 25.7324 186.176 25.7769 185.818 25.8162C185.759 25.8224 185.698 25.8266 185.639 25.8328C185.326 25.8654 185.009 25.8954 184.683 25.9192C184.534 25.9301 184.378 25.9352 184.226 25.9445C183.981 25.959 183.738 25.9751 183.487 25.9839C183.076 25.9968 182.657 26.0051 182.229 26.0051C181.801 26.0051 181.382 25.9968 180.971 25.9823C180.719 25.9735 180.476 25.957 180.231 25.943C180.08 25.9342 179.923 25.9285 179.774 25.9176C179.448 25.8938 179.132 25.8638 178.819 25.8312C178.76 25.825 178.698 25.8209 178.64 25.8147C178.281 25.7754 177.932 25.7303 177.591 25.6807C177.583 25.6796 177.574 25.6786 177.565 25.677C175.813 25.4183 174.31 25.0235 173.135 24.5542C173.129 24.5522 173.123 24.5496 173.117 24.547C172.9 24.4601 172.697 24.37 172.503 24.2785C172.481 24.2676 172.457 24.2573 172.435 24.2469C172.261 24.1631 172.1 24.0772 171.946 23.9897C171.91 23.9691 171.871 23.9489 171.836 23.9277C171.702 23.849 171.58 23.7688 171.463 23.6881C171.419 23.657 171.372 23.6265 171.33 23.595C171.231 23.522 171.143 23.4485 171.058 23.3745C171.012 23.3342 170.965 23.2938 170.923 23.2524C170.854 23.1852 170.793 23.1179 170.736 23.0496C170.695 23.002 170.656 22.9544 170.622 22.9063C170.577 22.8426 170.538 22.779 170.503 22.7153C170.475 22.6641 170.45 22.6129 170.429 22.5617C170.403 22.4991 170.383 22.4365 170.369 22.3739C170.35 22.2916 170.328 22.2078 170.328 22.1245C170.328 22.066 170.335 22.0075 170.344 21.9496C170.357 21.8714 170.35 21.7933 170.328 21.7193V17.878C170.39 17.9344 170.461 17.9898 170.529 18.0457C170.566 18.0767 170.601 18.1078 170.64 18.1388C170.795 18.2609 170.963 18.3815 171.144 18.4989C171.182 18.5232 171.225 18.547 171.264 18.5714C171.416 18.666 171.577 18.7587 171.746 18.8497C171.809 18.8834 171.871 18.9165 171.936 18.9496C172.125 19.0458 172.323 19.1395 172.532 19.23C172.566 19.245 172.597 19.2606 172.631 19.275C172.874 19.378 173.132 19.4763 173.4 19.5715C173.474 19.5979 173.551 19.6228 173.627 19.6486C173.841 19.7205 174.061 19.7894 174.289 19.8561C174.371 19.8799 174.452 19.9047 174.537 19.9275C174.839 20.0113 175.152 20.091 175.48 20.1645C175.525 20.1748 175.573 20.1831 175.619 20.1929C175.908 20.2561 176.208 20.3145 176.517 20.3694C176.621 20.388 176.727 20.4056 176.834 20.4232C177.127 20.4713 177.429 20.5153 177.739 20.5557C177.819 20.566 177.895 20.5779 177.976 20.5877C178.361 20.6343 178.759 20.6741 179.168 20.7083C179.269 20.7166 179.374 20.7228 179.477 20.73C179.804 20.7538 180.139 20.7735 180.482 20.789C180.606 20.7947 180.73 20.8004 180.858 20.805C181.304 20.8201 181.758 20.8309 182.229 20.8309C182.7 20.8309 183.154 20.8201 183.6 20.805C183.727 20.8004 183.851 20.7947 183.976 20.789C184.319 20.7735 184.654 20.7538 184.981 20.73C185.084 20.7223 185.188 20.7166 185.289 20.7083C185.699 20.6747 186.097 20.6343 186.482 20.5877C186.563 20.5779 186.639 20.566 186.719 20.5557C187.028 20.5153 187.33 20.4713 187.624 20.4232C187.731 20.4056 187.837 20.388 187.941 20.3694C188.25 20.3145 188.55 20.2561 188.839 20.1929C188.884 20.1831 188.933 20.1743 188.978 20.1645C189.306 20.091 189.619 20.0108 189.921 19.9275C190.006 19.9042 190.086 19.8799 190.169 19.8561C190.397 19.7894 190.617 19.7205 190.83 19.6486C190.907 19.6228 190.984 19.5979 191.058 19.5715C191.326 19.4763 191.584 19.378 191.826 19.275C191.861 19.2606 191.892 19.245 191.926 19.23C192.135 19.139 192.333 19.0458 192.522 18.9496C192.587 18.9165 192.65 18.8834 192.712 18.8497C192.881 18.7592 193.042 18.6666 193.194 18.5714C193.233 18.547 193.276 18.5232 193.314 18.4989C193.495 18.3815 193.663 18.2614 193.818 18.1388C193.857 18.1078 193.892 18.0767 193.929 18.0457C193.997 17.9898 194.067 17.9344 194.13 17.878ZM182.229 12.0348C189.243 12.0348 194.13 14.0797 194.13 15.9155C194.13 17.7513 189.243 19.7961 182.229 19.7961C175.215 19.7961 170.328 17.7513 170.328 15.9155C170.328 14.0797 175.215 12.0348 182.229 12.0348ZM194.13 34.6475C194.122 34.6703 194.117 34.6936 194.113 34.7174C193.82 36.5071 188.974 38.4231 182.229 38.4231C175.484 38.4231 170.638 36.5071 170.345 34.7174C170.341 34.6941 170.335 34.6713 170.328 34.6496V30.296C170.343 30.3095 170.361 30.3224 170.376 30.3359C170.489 30.4352 170.604 30.534 170.733 30.6292C172.682 32.1034 176.58 33.2489 182.229 33.2489C187.854 33.2489 191.742 32.1127 193.7 30.6473C193.856 30.5335 193.997 30.4161 194.129 30.2965L194.13 34.6475Z" fill="white"/>
</g>
<path fill-rule="evenodd" clip-rule="evenodd" d="M196.594 37.2871C198.653 36.726 200.318 35.6531 200.803 34.225V16.1085C199.771 14.3726 198.26 13.365 196.594 12.8752V37.2871Z" fill="#FF6112"/>
<path fill-rule="evenodd" clip-rule="evenodd" d="M196.594 37.895C199.051 37.2603 200.802 35.8919 201.071 34.2175C201.096 34.1493 201.11 34.0706 201.11 33.9867V28.2657V28.0273V27.789V22.5447V22.3063V22.0679V16.5853V16.3469C201.11 16.2602 201.091 16.1834 201.065 16.1133C200.801 14.5894 199.268 13.0839 196.594 12.4155V13.4032C198.991 14.0442 200.497 15.3649 200.497 16.5853C200.497 17.8058 198.991 19.1265 196.594 19.7674V20.7522C196.611 20.7477 196.629 20.7433 196.647 20.7388C196.71 20.7226 196.773 20.7063 196.834 20.6892C197.017 20.6386 197.195 20.5848 197.366 20.5266C197.379 20.5222 197.392 20.518 197.406 20.5139C197.42 20.5095 197.434 20.5051 197.448 20.5004C197.642 20.4327 197.827 20.3588 198.006 20.282C198.041 20.2674 198.074 20.2523 198.107 20.2372C198.122 20.2302 198.137 20.2232 198.153 20.2162C198.288 20.1547 198.418 20.0913 198.545 20.0251C198.561 20.0165 198.577 20.008 198.593 19.9996C198.622 19.9846 198.651 19.9696 198.679 19.954C198.838 19.8663 198.991 19.7757 199.134 19.6809C199.146 19.6731 199.157 19.665 199.168 19.6569C199.177 19.651 199.185 19.6452 199.193 19.6394C199.317 19.5555 199.434 19.4697 199.546 19.381C199.584 19.3505 199.621 19.32 199.658 19.289C199.758 19.2055 199.853 19.1202 199.943 19.0325C199.953 19.0231 199.963 19.0138 199.973 19.0045C199.987 18.9916 200.001 18.9788 200.014 18.9657C200.122 18.8575 200.221 18.7469 200.313 18.6339C200.326 18.6176 200.338 18.6012 200.351 18.5849C200.36 18.5726 200.369 18.5604 200.379 18.5481C200.39 18.5328 200.402 18.5175 200.414 18.5023C200.443 18.4662 200.471 18.4301 200.497 18.3936V21.933C200.484 22.0012 200.48 22.0732 200.488 22.1452C200.493 22.1986 200.497 22.2524 200.497 22.3063C200.497 22.3778 200.486 22.4497 200.475 22.5217C200.474 22.527 200.474 22.5323 200.473 22.5375C200.464 22.5952 200.452 22.6524 200.437 22.7106C200.425 22.7578 200.41 22.805 200.394 22.8522C200.373 22.9108 200.35 22.9695 200.323 23.0281C200.303 23.0725 200.28 23.1163 200.256 23.1602C200.222 23.2226 200.186 23.2851 200.145 23.3471C200.12 23.3842 200.093 23.4209 200.066 23.458L200.065 23.4596C200.015 23.5278 199.962 23.5955 199.904 23.6627C199.884 23.6855 199.863 23.7077 199.842 23.73C199.837 23.7362 199.831 23.7423 199.825 23.7485C199.756 23.8229 199.684 23.8968 199.604 23.9692C199.59 23.9828 199.575 23.9959 199.56 24.009C199.553 24.0148 199.546 24.0206 199.539 24.0264C199.448 24.1065 199.353 24.1861 199.25 24.2634C199.239 24.2715 199.228 24.2792 199.217 24.287C199.215 24.2888 199.212 24.2906 199.21 24.2925C199.095 24.3768 198.975 24.4598 198.846 24.5399C198.845 24.5411 198.843 24.5422 198.841 24.5432C198.839 24.5443 198.837 24.5454 198.835 24.5466C198.226 24.9252 197.469 25.2512 196.594 25.4865V26.4759C198.267 26.0575 199.494 25.3113 200.243 24.4383C200.335 24.3335 200.418 24.2252 200.497 24.1151L200.497 27.654C200.484 27.7222 200.48 27.7942 200.488 27.8662C200.493 27.9196 200.497 27.9735 200.497 28.0273C200.497 28.0988 200.486 28.1707 200.475 28.2427C200.474 28.248 200.474 28.2533 200.473 28.2586C200.464 28.3162 200.452 28.3734 200.437 28.4316C200.425 28.4788 200.41 28.526 200.394 28.5732C200.373 28.6318 200.35 28.6905 200.323 28.7491C200.303 28.7935 200.28 28.8373 200.256 28.8812C200.222 28.9436 200.186 29.0061 200.145 29.0681C200.12 29.1052 200.093 29.1419 200.066 29.179L200.065 29.1806C200.015 29.2488 199.962 29.3165 199.904 29.3837C199.884 29.4065 199.863 29.4287 199.842 29.451C199.837 29.4572 199.831 29.4633 199.825 29.4695C199.756 29.5439 199.684 29.6178 199.604 29.6902C199.59 29.7038 199.575 29.7169 199.56 29.73C199.553 29.7358 199.546 29.7416 199.539 29.7474C199.448 29.8275 199.353 29.9072 199.25 29.9844C199.239 29.9925 199.228 30.0003 199.217 30.008C199.215 30.0098 199.212 30.0116 199.21 30.0135C199.095 30.0979 198.975 30.1808 198.846 30.2609C198.845 30.2621 198.843 30.2632 198.841 30.2642C198.839 30.2653 198.837 30.2664 198.835 30.2676C198.226 30.6462 197.469 30.9722 196.594 31.2075V32.1969C198.267 31.7785 199.494 31.0323 200.243 30.1594C200.335 30.0545 200.418 29.9462 200.497 29.8361L200.497 33.8451C200.493 33.8661 200.49 33.8875 200.487 33.9095C200.364 35.0823 198.878 36.3139 196.594 36.9275V37.895Z" fill="white"/>
<path fill-rule="evenodd" clip-rule="evenodd" d="M202.539 37.2872C204.598 36.7261 206.263 35.6532 206.749 34.2252V16.1086C205.716 14.3727 204.205 13.3651 202.539 12.8754V37.2872Z" fill="#FF6112"/>
<path fill-rule="evenodd" clip-rule="evenodd" d="M202.539 37.8951C204.997 37.2604 206.747 35.892 207.016 34.2176C207.041 34.1494 207.055 34.0707 207.055 33.9868V28.2658V28.0274V27.7891V22.5448V22.3064V22.068V16.5854V16.347C207.055 16.2603 207.036 16.1835 207.01 16.1134C206.746 14.5895 205.213 13.0841 202.539 12.4156V13.4033C204.937 14.0443 206.442 15.365 206.442 16.5854C206.442 17.8058 204.937 19.1265 202.539 19.7675V20.7522C202.557 20.7478 202.574 20.7434 202.592 20.7389C202.655 20.7227 202.718 20.7064 202.78 20.6893C202.962 20.6387 203.14 20.5849 203.311 20.5267C203.324 20.5223 203.338 20.5181 203.351 20.514C203.365 20.5096 203.38 20.5052 203.393 20.5005C203.587 20.4328 203.772 20.3589 203.952 20.2821C203.986 20.2675 204.019 20.2524 204.052 20.2373C204.067 20.2303 204.083 20.2233 204.098 20.2163C204.233 20.1548 204.363 20.0914 204.49 20.0252C204.506 20.0166 204.522 20.0081 204.538 19.9997C204.567 19.9847 204.596 19.9697 204.624 19.9541C204.783 19.8664 204.936 19.7758 205.079 19.681C205.091 19.6732 205.102 19.6651 205.114 19.657C205.122 19.6511 205.13 19.6453 205.138 19.6395C205.262 19.5556 205.379 19.4698 205.491 19.3811C205.529 19.3506 205.566 19.3201 205.603 19.2891C205.703 19.2056 205.799 19.1203 205.889 19.0326C205.898 19.0232 205.908 19.0139 205.918 19.0046C205.932 18.9917 205.946 18.9789 205.959 18.9658C206.067 18.8576 206.166 18.747 206.258 18.634C206.271 18.6177 206.283 18.6013 206.296 18.585C206.305 18.5727 206.314 18.5605 206.324 18.5482C206.336 18.5329 206.348 18.5176 206.36 18.5024C206.388 18.4663 206.416 18.4302 206.442 18.3937V21.9331C206.429 22.0013 206.425 22.0733 206.433 22.1453C206.439 22.1987 206.442 22.2525 206.442 22.3064C206.442 22.3779 206.431 22.4498 206.42 22.5218C206.42 22.5271 206.419 22.5324 206.418 22.5376C206.409 22.5953 206.398 22.6525 206.383 22.7107C206.37 22.7579 206.355 22.8051 206.339 22.8523C206.318 22.9109 206.295 22.9696 206.268 23.0282C206.248 23.0726 206.225 23.1164 206.201 23.1603C206.167 23.2227 206.131 23.2852 206.09 23.3472C206.065 23.3843 206.038 23.421 206.011 23.4581L206.01 23.4597C205.96 23.5279 205.908 23.5956 205.849 23.6628C205.829 23.6856 205.809 23.7078 205.788 23.7301C205.782 23.7363 205.776 23.7424 205.77 23.7486C205.701 23.823 205.629 23.8969 205.55 23.9693C205.535 23.9829 205.52 23.996 205.505 24.0091C205.498 24.0149 205.491 24.0207 205.485 24.0265C205.393 24.1066 205.298 24.1862 205.195 24.2635C205.185 24.2716 205.174 24.2793 205.163 24.287C205.16 24.2889 205.157 24.2907 205.155 24.2926C205.04 24.3769 204.92 24.4599 204.792 24.54C204.79 24.5412 204.788 24.5423 204.786 24.5433C204.784 24.5444 204.782 24.5455 204.781 24.5467C204.172 24.9253 203.414 25.2513 202.539 25.4865V26.476C204.212 26.0575 205.439 25.3114 206.188 24.4384C206.28 24.3336 206.364 24.2253 206.442 24.1152L206.442 27.6541C206.429 27.7223 206.425 27.7943 206.433 27.8663C206.439 27.9197 206.442 27.9736 206.442 28.0274C206.442 28.0989 206.431 28.1708 206.42 28.2428C206.42 28.2481 206.419 28.2534 206.418 28.2587C206.409 28.3163 206.398 28.3735 206.383 28.4317C206.37 28.4789 206.355 28.5261 206.339 28.5733C206.318 28.6319 206.295 28.6906 206.268 28.7492C206.248 28.7936 206.225 28.8374 206.201 28.8813C206.167 28.9437 206.131 29.0062 206.09 29.0682C206.065 29.1053 206.038 29.142 206.011 29.1791L206.01 29.1807C205.96 29.2489 205.908 29.3166 205.849 29.3838C205.829 29.4066 205.809 29.4288 205.788 29.4511C205.782 29.4573 205.776 29.4634 205.77 29.4696C205.701 29.544 205.629 29.6179 205.55 29.6903C205.535 29.7039 205.52 29.717 205.505 29.7301C205.498 29.7359 205.491 29.7417 205.485 29.7475C205.393 29.8276 205.298 29.9073 205.195 29.9845C205.185 29.9926 205.174 30.0003 205.163 30.008C205.16 30.0099 205.157 30.0117 205.155 30.0136C205.04 30.098 204.92 30.1809 204.792 30.261C204.79 30.2622 204.788 30.2633 204.786 30.2643C204.784 30.2654 204.782 30.2665 204.781 30.2677C204.172 30.6463 203.414 30.9723 202.539 31.2076V32.197C204.212 31.7785 205.439 31.0324 206.188 30.1595C206.28 30.0546 206.364 29.9463 206.442 29.8362L206.442 33.8452C206.438 33.8662 206.435 33.8876 206.432 33.9096C206.309 35.0823 204.823 36.3139 202.539 36.9276V37.8951Z" fill="white"/>
<path fill-rule="evenodd" clip-rule="evenodd" d="M208.484 37.2871C210.544 36.726 212.208 35.6532 212.694 34.2251V16.1086C211.661 14.3727 210.15 13.3651 208.484 12.8754V37.2871Z" fill="#FF6112"/>
<path fill-rule="evenodd" clip-rule="evenodd" d="M208.484 37.8951C210.942 37.2604 212.693 35.892 212.962 34.2176C212.986 34.1494 213 34.0707 213 33.9868V28.2658V28.0274V27.7891V22.5448V22.3064V22.0681V16.5854V16.347C213 16.2603 212.981 16.1835 212.955 16.1134C212.691 14.5895 211.158 13.0841 208.484 12.4156V13.4033C210.882 14.0443 212.388 15.365 212.388 16.5854C212.388 17.8059 210.882 19.1266 208.484 19.7675V20.7523C208.502 20.7478 208.52 20.7434 208.537 20.7389C208.6 20.7227 208.663 20.7065 208.725 20.6893C208.907 20.6388 209.085 20.5849 209.256 20.5267C209.269 20.5223 209.283 20.5182 209.296 20.514C209.311 20.5096 209.325 20.5052 209.339 20.5005C209.533 20.4328 209.718 20.3589 209.897 20.2821C209.931 20.2675 209.964 20.2524 209.997 20.2373C210.013 20.2303 210.028 20.2233 210.043 20.2164C210.178 20.1549 210.309 20.0914 210.435 20.0252C210.451 20.0166 210.468 20.0081 210.484 19.9997C210.513 19.9847 210.542 19.9697 210.57 19.9541C210.728 19.8664 210.881 19.7758 211.024 19.681C211.036 19.6732 211.048 19.6651 211.059 19.657C211.067 19.6512 211.075 19.6453 211.084 19.6395C211.207 19.5556 211.324 19.4698 211.436 19.3811C211.474 19.3506 211.512 19.3201 211.548 19.2891C211.649 19.2056 211.744 19.1203 211.834 19.0326C211.844 19.0232 211.854 19.0139 211.864 19.0046C211.878 18.9917 211.892 18.9789 211.905 18.9658C212.012 18.8576 212.111 18.747 212.203 18.634C212.216 18.6177 212.229 18.6013 212.241 18.585C212.25 18.5727 212.259 18.5605 212.269 18.5482C212.281 18.5329 212.293 18.5176 212.305 18.5024C212.333 18.4663 212.362 18.4303 212.388 18.3937V21.9331C212.375 22.0013 212.37 22.0733 212.378 22.1453C212.384 22.1987 212.388 22.2526 212.388 22.3064C212.388 22.3779 212.377 22.4498 212.366 22.5218C212.365 22.5271 212.364 22.5324 212.363 22.5377C212.355 22.5953 212.343 22.6526 212.328 22.7107C212.316 22.7579 212.301 22.8051 212.284 22.8523C212.264 22.9109 212.241 22.9696 212.213 23.0282C212.193 23.0726 212.17 23.1164 212.146 23.1603C212.112 23.2227 212.076 23.2852 212.035 23.3472C212.011 23.3843 211.984 23.421 211.957 23.4581L211.955 23.4597C211.905 23.5279 211.853 23.5956 211.794 23.6628C211.775 23.6856 211.754 23.7078 211.733 23.7301C211.727 23.7363 211.721 23.7424 211.716 23.7486C211.646 23.823 211.574 23.8969 211.495 23.9693C211.48 23.9829 211.465 23.996 211.45 24.0091C211.443 24.0149 211.437 24.0207 211.43 24.0265C211.339 24.1066 211.243 24.1863 211.141 24.2635C211.13 24.2716 211.119 24.2793 211.108 24.2871C211.105 24.2889 211.103 24.2907 211.1 24.2926C210.985 24.377 210.865 24.4599 210.737 24.54C210.735 24.5412 210.733 24.5423 210.731 24.5433C210.73 24.5444 210.728 24.5455 210.726 24.5467C210.117 24.9253 209.359 25.2513 208.484 25.4866V26.476C210.157 26.0576 211.384 25.3114 212.133 24.4385C212.226 24.3336 212.309 24.2254 212.387 24.1152L212.388 27.6541C212.375 27.7223 212.37 27.7943 212.378 27.8663C212.384 27.9197 212.388 27.9736 212.388 28.0274C212.388 28.0989 212.377 28.1709 212.366 28.2428C212.365 28.2481 212.364 28.2534 212.363 28.2587C212.355 28.3163 212.343 28.3736 212.328 28.4317C212.316 28.4789 212.301 28.5261 212.284 28.5733C212.264 28.632 212.241 28.6906 212.213 28.7492C212.193 28.7936 212.17 28.8374 212.146 28.8813C212.112 28.9438 212.076 29.0062 212.035 29.0682C212.011 29.1053 211.984 29.142 211.957 29.1792L211.955 29.1807C211.905 29.2489 211.853 29.3166 211.794 29.3838C211.775 29.4066 211.754 29.4288 211.733 29.4511C211.727 29.4573 211.721 29.4634 211.716 29.4696C211.646 29.544 211.574 29.6179 211.495 29.6903C211.48 29.7039 211.465 29.717 211.45 29.7301C211.443 29.7359 211.437 29.7417 211.43 29.7476C211.339 29.8276 211.243 29.9073 211.141 29.9845C211.127 29.9945 211.114 30.004 211.1 30.0136C210.985 30.098 210.865 30.1809 210.737 30.261C210.735 30.2622 210.733 30.2633 210.731 30.2644C210.73 30.2654 210.728 30.2665 210.726 30.2677C210.117 30.6463 209.359 30.9723 208.484 31.2076V32.197C210.157 31.7786 211.384 31.0324 212.133 30.1595C212.226 30.0546 212.309 29.9464 212.387 29.8362L212.388 33.8452C212.383 33.8662 212.38 33.8877 212.378 33.9096C212.254 35.0824 210.768 36.314 208.484 36.9276V37.8951Z" fill="white"/>
</g>
<defs>
<filter id="filter0_d_674_38" x="0" y="0" width="406" height="51" filterUnits="userSpaceOnUse" color-interpolation-filters="sRGB">
<feFlood flood-opacity="0" result="BackgroundImageFix"/>
<feColorMatrix in="SourceAlpha" type="matrix" values="0 0 0 0 0 0 0 0 0 0 0 0 0 0 0 0 0 0 127 0" result="hardAlpha"/>
<feOffset dx="1" dy="1"/>
<feGaussianBlur stdDeviation="0.5"/>
<feColorMatrix type="matrix" values="0 0 0 0 0 0 0 0 0 0 0 0 0 0 0 0 0 0 0.25 0"/>
<feBlend mode="normal" in2="BackgroundImageFix" result="effect1_dropShadow_674_38"/>
<feBlend mode="normal" in="SourceGraphic" in2="effect1_dropShadow_674_38" result="shape"/>
</filter>
<clipPath id="clip0_674_38">
<rect width="28.4579" height="28.4579" fill="white" transform="translate(168 11)"/>
</clipPath>
</defs>
</svg>
