<svg width="406" height="51" viewBox="0 0 406 51" fill="none" xmlns="http://www.w3.org/2000/svg">
<g filter="url(#filter0_d_673_4)">
<rect width="404" height="49" rx="4" fill="white"/>
<path d="M233.86 35.28C232.815 35.28 231.909 35.2333 231.144 35.14C230.397 35.0653 229.669 34.9253 228.96 34.72V15.68C229.669 15.4747 230.397 15.3347 231.144 15.26C231.909 15.1667 232.815 15.12 233.86 15.12C235.409 15.12 236.707 15.4373 237.752 16.072C238.816 16.7067 239.619 17.7613 240.16 19.236C240.72 20.692 241 22.68 241 25.2C241 27.72 240.72 29.7173 240.16 31.192C239.619 32.6667 238.816 33.7213 237.752 34.356C236.707 34.972 235.409 35.28 233.86 35.28ZM232.32 33.18H233.86C234.607 33.18 235.26 32.956 235.82 32.508C236.399 32.0413 236.847 31.2293 237.164 30.072C237.481 28.9147 237.64 27.2907 237.64 25.2C237.64 23.0907 237.481 21.4667 237.164 20.328C236.847 19.1707 236.399 18.368 235.82 17.92C235.26 17.4533 234.607 17.22 233.86 17.22H232.32V33.18ZM247.718 35.28C246.934 35.28 246.206 35.1587 245.534 34.916C244.88 34.6733 244.358 34.2347 243.966 33.6C243.574 32.9467 243.378 32.0133 243.378 30.8C243.378 29.5867 243.574 28.6627 243.966 28.028C244.376 27.3747 244.927 26.9267 245.618 26.684C246.327 26.4413 247.12 26.32 247.998 26.32C248.427 26.32 248.838 26.348 249.23 26.404C249.64 26.46 250.023 26.5253 250.378 26.6V25.48C250.378 24.36 250.116 23.6133 249.594 23.24C249.071 22.8667 248.352 22.68 247.438 22.68H244.638V21.28C245.067 21.1307 245.59 21 246.206 20.888C246.84 20.776 247.438 20.72 247.998 20.72C249.267 20.72 250.322 20.8507 251.162 21.112C252.02 21.3547 252.664 21.8213 253.094 22.512C253.523 23.184 253.738 24.1733 253.738 25.48V35H251.358L250.938 34.16H250.798C250.499 34.44 250.098 34.7013 249.594 34.944C249.108 35.168 248.483 35.28 247.718 35.28ZM248.838 33.32C249.192 33.32 249.5 33.264 249.762 33.152C250.042 33.0213 250.247 32.8907 250.378 32.76V28.28H248.838C248.52 28.28 248.194 28.3547 247.858 28.504C247.54 28.6533 247.27 28.9147 247.046 29.288C246.84 29.6427 246.738 30.1467 246.738 30.8C246.738 31.4533 246.84 31.9667 247.046 32.34C247.27 32.6947 247.54 32.9467 247.858 33.096C248.194 33.2453 248.52 33.32 248.838 33.32ZM261.987 35.28C261.203 35.28 260.475 35.1587 259.803 34.916C259.15 34.6547 258.627 34.188 258.235 33.516C257.843 32.8253 257.647 31.8267 257.647 30.52V23.38H256.107V21.28H257.647V17.92H261.007V21.28H264.787V22.82C264.376 22.9507 263.844 23.0813 263.191 23.212C262.538 23.324 261.856 23.38 261.147 23.38H261.007V30.52C261.007 31.2667 261.1 31.8453 261.287 32.256C261.474 32.648 261.707 32.928 261.987 33.096C262.267 33.2453 262.547 33.32 262.827 33.32H265.347V34.72C265.123 34.8133 264.815 34.9067 264.423 35C264.031 35.0747 263.62 35.14 263.191 35.196C262.762 35.252 262.36 35.28 261.987 35.28ZM270.96 35.28C270.176 35.28 269.448 35.1587 268.776 34.916C268.123 34.6733 267.6 34.2347 267.208 33.6C266.816 32.9467 266.62 32.0133 266.62 30.8C266.62 29.5867 266.816 28.6627 267.208 28.028C267.619 27.3747 268.169 26.9267 268.86 26.684C269.569 26.4413 270.363 26.32 271.24 26.32C271.669 26.32 272.08 26.348 272.472 26.404C272.883 26.46 273.265 26.5253 273.62 26.6V25.48C273.62 24.36 273.359 23.6133 272.836 23.24C272.313 22.8667 271.595 22.68 270.68 22.68H267.88V21.28C268.309 21.1307 268.832 21 269.448 20.888C270.083 20.776 270.68 20.72 271.24 20.72C272.509 20.72 273.564 20.8507 274.404 21.112C275.263 21.3547 275.907 21.8213 276.336 22.512C276.765 23.184 276.98 24.1733 276.98 25.48V35H274.6L274.18 34.16H274.04C273.741 34.44 273.34 34.7013 272.836 34.944C272.351 35.168 271.725 35.28 270.96 35.28ZM272.08 33.32C272.435 33.32 272.743 33.264 273.004 33.152C273.284 33.0213 273.489 32.8907 273.62 32.76V28.28H272.08C271.763 28.28 271.436 28.3547 271.1 28.504C270.783 28.6533 270.512 28.9147 270.288 29.288C270.083 29.6427 269.98 30.1467 269.98 30.8C269.98 31.4533 270.083 31.9667 270.288 32.34C270.512 32.6947 270.783 32.9467 271.1 33.096C271.436 33.2453 271.763 33.32 272.08 33.32ZM285.369 35.28C284.398 35.28 283.558 35.2053 282.849 35.056C282.158 34.9253 281.458 34.72 280.749 34.44V15.4H284.109V21.42C284.408 21.2147 284.753 21.0467 285.145 20.916C285.556 20.7853 286.004 20.72 286.489 20.72C287.516 20.72 288.402 20.9627 289.149 21.448C289.914 21.9147 290.502 22.68 290.913 23.744C291.324 24.808 291.529 26.2267 291.529 28C291.529 29.7733 291.305 31.192 290.857 32.256C290.428 33.32 289.756 34.0947 288.841 34.58C287.926 35.0467 286.769 35.28 285.369 35.28ZM284.109 33.32H285.369C285.929 33.32 286.414 33.1707 286.825 32.872C287.254 32.5547 287.581 32.0133 287.805 31.248C288.048 30.4827 288.169 29.4 288.169 28C288.169 26.6 288.057 25.5173 287.833 24.752C287.609 23.968 287.301 23.4267 286.909 23.128C286.536 22.8293 286.116 22.68 285.649 22.68C285.294 22.68 284.986 22.736 284.725 22.848C284.464 22.96 284.258 23.0907 284.109 23.24V33.32ZM298.112 35.28C297.328 35.28 296.6 35.1587 295.928 34.916C295.275 34.6733 294.752 34.2347 294.36 33.6C293.968 32.9467 293.772 32.0133 293.772 30.8C293.772 29.5867 293.968 28.6627 294.36 28.028C294.771 27.3747 295.322 26.9267 296.012 26.684C296.722 26.4413 297.515 26.32 298.392 26.32C298.822 26.32 299.232 26.348 299.624 26.404C300.035 26.46 300.418 26.5253 300.772 26.6V25.48C300.772 24.36 300.511 23.6133 299.988 23.24C299.466 22.8667 298.747 22.68 297.832 22.68H295.032V21.28C295.462 21.1307 295.984 21 296.6 20.888C297.235 20.776 297.832 20.72 298.392 20.72C299.662 20.72 300.716 20.8507 301.556 21.112C302.415 21.3547 303.059 21.8213 303.488 22.512C303.918 23.184 304.132 24.1733 304.132 25.48V35H301.752L301.332 34.16H301.192C300.894 34.44 300.492 34.7013 299.988 34.944C299.503 35.168 298.878 35.28 298.112 35.28ZM299.232 33.32C299.587 33.32 299.895 33.264 300.156 33.152C300.436 33.0213 300.642 32.8907 300.772 32.76V28.28H299.232C298.915 28.28 298.588 28.3547 298.252 28.504C297.935 28.6533 297.664 28.9147 297.44 29.288C297.235 29.6427 297.132 30.1467 297.132 30.8C297.132 31.4533 297.235 31.9667 297.44 32.34C297.664 32.6947 297.935 32.9467 298.252 33.096C298.588 33.2453 298.915 33.32 299.232 33.32ZM310.701 35.28C310.011 35.28 309.339 35.2147 308.685 35.084C308.032 34.972 307.491 34.8507 307.061 34.72V33.32H310.141C311.187 33.32 311.98 33.1707 312.521 32.872C313.081 32.5547 313.361 32.0507 313.361 31.36C313.361 30.8747 313.203 30.4827 312.885 30.184C312.568 29.8667 312.157 29.596 311.653 29.372C311.168 29.148 310.636 28.924 310.057 28.7C309.497 28.4573 308.965 28.1773 308.461 27.86C307.976 27.524 307.575 27.104 307.257 26.6C306.94 26.0773 306.781 25.424 306.781 24.64C306.781 23.0907 307.248 22.0547 308.181 21.532C309.133 20.9907 310.487 20.72 312.241 20.72C312.951 20.72 313.632 20.776 314.285 20.888C314.939 21 315.471 21.1307 315.881 21.28V22.68H312.801C312.036 22.68 311.401 22.82 310.897 23.1C310.393 23.38 310.141 23.8 310.141 24.36C310.141 24.8453 310.3 25.2467 310.617 25.564C310.935 25.8627 311.336 26.124 311.821 26.348C312.325 26.572 312.857 26.8053 313.417 27.048C313.996 27.272 314.528 27.552 315.013 27.888C315.517 28.2053 315.928 28.616 316.245 29.12C316.563 29.624 316.721 30.2773 316.721 31.08C316.721 32.2 316.497 33.068 316.049 33.684C315.62 34.2813 314.957 34.7013 314.061 34.944C313.184 35.168 312.064 35.28 310.701 35.28ZM324.983 35.28C323.545 35.28 322.36 35.0467 321.427 34.58C320.493 34.0947 319.803 33.32 319.355 32.256C318.907 31.192 318.683 29.7733 318.683 28C318.683 26.2267 318.888 24.808 319.299 23.744C319.728 22.68 320.335 21.9147 321.119 21.448C321.921 20.9627 322.883 20.72 324.003 20.72C325.123 20.72 326.075 20.9627 326.859 21.448C327.661 21.9147 328.268 22.68 328.679 23.744C329.108 24.808 329.323 26.2267 329.323 28V28.98H322.043C322.043 30.5853 322.323 31.7147 322.883 32.368C323.461 33.0027 324.348 33.32 325.543 33.32H328.623V34.72C328.212 34.8507 327.68 34.972 327.027 35.084C326.373 35.2147 325.692 35.28 324.983 35.28ZM322.043 27.02H325.963C325.963 25.8067 325.879 24.8827 325.711 24.248C325.543 23.5947 325.309 23.1467 325.011 22.904C324.712 22.6613 324.376 22.54 324.003 22.54C323.629 22.54 323.293 22.6613 322.995 22.904C322.696 23.1467 322.463 23.5947 322.295 24.248C322.127 24.8827 322.043 25.8067 322.043 27.02ZM339.401 35V15.4H342.761V32.76H349.621V35H339.401ZM355.37 35.28C354.586 35.28 353.858 35.1587 353.186 34.916C352.533 34.6733 352.01 34.2347 351.618 33.6C351.226 32.9467 351.03 32.0133 351.03 30.8C351.03 29.5867 351.226 28.6627 351.618 28.028C352.029 27.3747 352.579 26.9267 353.27 26.684C353.979 26.4413 354.773 26.32 355.65 26.32C356.079 26.32 356.49 26.348 356.882 26.404C357.293 26.46 357.675 26.5253 358.03 26.6V25.48C358.03 24.36 357.769 23.6133 357.246 23.24C356.723 22.8667 356.005 22.68 355.09 22.68H352.29V21.28C352.719 21.1307 353.242 21 353.858 20.888C354.493 20.776 355.09 20.72 355.65 20.72C356.919 20.72 357.974 20.8507 358.814 21.112C359.673 21.3547 360.317 21.8213 360.746 22.512C361.175 23.184 361.39 24.1733 361.39 25.48V35H359.01L358.59 34.16H358.45C358.151 34.44 357.75 34.7013 357.246 34.944C356.761 35.168 356.135 35.28 355.37 35.28ZM356.49 33.32C356.845 33.32 357.153 33.264 357.414 33.152C357.694 33.0213 357.899 32.8907 358.03 32.76V28.28H356.49C356.173 28.28 355.846 28.3547 355.51 28.504C355.193 28.6533 354.922 28.9147 354.698 29.288C354.493 29.6427 354.39 30.1467 354.39 30.8C354.39 31.4533 354.493 31.9667 354.698 32.34C354.922 32.6947 355.193 32.9467 355.51 33.096C355.846 33.2453 356.173 33.32 356.49 33.32ZM369.779 35.28C368.809 35.28 367.969 35.2053 367.259 35.056C366.569 34.9253 365.869 34.72 365.159 34.44V15.4H368.519V21.42C368.818 21.2147 369.163 21.0467 369.555 20.916C369.966 20.7853 370.414 20.72 370.899 20.72C371.926 20.72 372.813 20.9627 373.559 21.448C374.325 21.9147 374.913 22.68 375.323 23.744C375.734 24.808 375.939 26.2267 375.939 28C375.939 29.7733 375.715 31.192 375.267 32.256C374.838 33.32 374.166 34.0947 373.251 34.58C372.337 35.0467 371.179 35.28 369.779 35.28ZM368.519 33.32H369.779C370.339 33.32 370.825 33.1707 371.235 32.872C371.665 32.5547 371.991 32.0133 372.215 31.248C372.458 30.4827 372.579 29.4 372.579 28C372.579 26.6 372.467 25.5173 372.243 24.752C372.019 23.968 371.711 23.4267 371.319 23.128C370.946 22.8293 370.526 22.68 370.059 22.68C369.705 22.68 369.397 22.736 369.135 22.848C368.874 22.96 368.669 23.0907 368.519 23.24V33.32Z" fill="#555555"/>
<path d="M22.96 34V14.68C23.6693 14.4747 24.3973 14.3347 25.144 14.26C25.9093 14.1667 26.8147 14.12 27.86 14.12C29.4093 14.12 30.66 14.3533 31.612 14.82C32.5827 15.2867 33.292 16.0333 33.74 17.06C34.2067 18.0867 34.44 19.44 34.44 21.12C34.44 22.8933 34.2253 24.312 33.796 25.376C33.3667 26.44 32.7227 27.2147 31.864 27.7C31.024 28.1667 29.9693 28.4 28.7 28.4C28.4947 28.4 28.1307 28.372 27.608 28.316C27.104 28.26 26.6747 28.1947 26.32 28.12V34H22.96ZM26.32 26.16H27.86C28.5693 26.16 29.1573 26.0107 29.624 25.712C30.1093 25.4133 30.4733 24.9 30.716 24.172C30.9587 23.444 31.08 22.4267 31.08 21.12C31.08 19.8507 30.9587 18.8613 30.716 18.152C30.4733 17.4427 30.1093 16.948 29.624 16.668C29.1573 16.3693 28.5693 16.22 27.86 16.22H26.32V26.16ZM42.1302 34.28C40.9168 34.28 39.8902 34.0467 39.0502 33.58C38.2288 33.0947 37.6035 32.32 37.1742 31.256C36.7448 30.192 36.5302 28.7733 36.5302 27C36.5302 25.2267 36.7448 23.808 37.1742 22.744C37.6035 21.68 38.2288 20.9147 39.0502 20.448C39.8902 19.9627 40.9168 19.72 42.1302 19.72C43.3435 19.72 44.3608 19.9627 45.1822 20.448C46.0222 20.9147 46.6568 21.68 47.0862 22.744C47.5155 23.808 47.7302 25.2267 47.7302 27C47.7302 28.7733 47.5155 30.192 47.0862 31.256C46.6568 32.32 46.0222 33.0947 45.1822 33.58C44.3608 34.0467 43.3435 34.28 42.1302 34.28ZM42.1302 32.46C42.5595 32.46 42.9422 32.3107 43.2782 32.012C43.6142 31.6947 43.8755 31.144 44.0622 30.36C44.2675 29.5573 44.3702 28.4373 44.3702 27C44.3702 25.544 44.2675 24.424 44.0622 23.64C43.8755 22.856 43.6142 22.3147 43.2782 22.016C42.9422 21.6987 42.5595 21.54 42.1302 21.54C41.7195 21.54 41.3368 21.6987 40.9822 22.016C40.6462 22.3147 40.3755 22.856 40.1702 23.64C39.9835 24.424 39.8902 25.544 39.8902 27C39.8902 28.4373 39.9835 29.5573 40.1702 30.36C40.3755 31.144 40.6462 31.6947 40.9822 32.012C41.3368 32.3107 41.7195 32.46 42.1302 32.46ZM52.0833 34L49.2833 20H52.6433L54.3513 29.8H54.4633L56.7033 22.8H59.2233L61.4633 29.8H61.5753L63.2833 20H66.6433L63.8433 34H60.2033L58.0193 27.14H57.9073L55.7233 34H52.0833ZM74.4942 34.28C73.0569 34.28 71.8716 34.0467 70.9382 33.58C70.0049 33.0947 69.3142 32.32 68.8662 31.256C68.4182 30.192 68.1942 28.7733 68.1942 27C68.1942 25.2267 68.3996 23.808 68.8102 22.744C69.2396 21.68 69.8462 20.9147 70.6302 20.448C71.4329 19.9627 72.3942 19.72 73.5142 19.72C74.6342 19.72 75.5862 19.9627 76.3702 20.448C77.1729 20.9147 77.7796 21.68 78.1902 22.744C78.6196 23.808 78.8342 25.2267 78.8342 27V27.98H71.5542C71.5542 29.5853 71.8342 30.7147 72.3942 31.368C72.9729 32.0027 73.8596 32.32 75.0542 32.32H78.1342V33.72C77.7236 33.8507 77.1916 33.972 76.5382 34.084C75.8849 34.2147 75.2036 34.28 74.4942 34.28ZM71.5542 26.02H75.4742C75.4742 24.8067 75.3902 23.8827 75.2222 23.248C75.0542 22.5947 74.8209 22.1467 74.5222 21.904C74.2236 21.6613 73.8876 21.54 73.5142 21.54C73.1409 21.54 72.8049 21.6613 72.5062 21.904C72.2076 22.1467 71.9742 22.5947 71.8062 23.248C71.6382 23.8827 71.5542 24.8067 71.5542 26.02ZM81.7731 34V20H84.1531L84.5731 21.12H84.7131C85.0118 20.84 85.4131 20.588 85.9171 20.364C86.4211 20.1213 87.0931 20 87.9331 20H89.7531V22.38H86.6731C86.3185 22.38 86.0105 22.436 85.7491 22.548C85.4878 22.66 85.2825 22.7907 85.1331 22.94V34H81.7731ZM97.1895 34.28C95.7522 34.28 94.5669 34.0467 93.6335 33.58C92.7002 33.0947 92.0095 32.32 91.5615 31.256C91.1135 30.192 90.8895 28.7733 90.8895 27C90.8895 25.2267 91.0949 23.808 91.5055 22.744C91.9349 21.68 92.5415 20.9147 93.3255 20.448C94.1282 19.9627 95.0895 19.72 96.2095 19.72C97.3295 19.72 98.2815 19.9627 99.0655 20.448C99.8682 20.9147 100.475 21.68 100.886 22.744C101.315 23.808 101.53 25.2267 101.53 27V27.98H94.2495C94.2495 29.5853 94.5295 30.7147 95.0895 31.368C95.6682 32.0027 96.5549 32.32 97.7495 32.32H100.83V33.72C100.419 33.8507 99.8869 33.972 99.2335 34.084C98.5802 34.2147 97.8989 34.28 97.1895 34.28ZM94.2495 26.02H98.1695C98.1695 24.8067 98.0855 23.8827 97.9175 23.248C97.7495 22.5947 97.5162 22.1467 97.2175 21.904C96.9189 21.6613 96.5829 21.54 96.2095 21.54C95.8362 21.54 95.5002 21.6613 95.2015 21.904C94.9029 22.1467 94.6695 22.5947 94.5015 23.248C94.3335 23.8827 94.2495 24.8067 94.2495 26.02ZM108.528 34.28C107.595 34.28 106.764 34.0467 106.036 33.58C105.327 33.0947 104.767 32.32 104.356 31.256C103.964 30.192 103.768 28.7733 103.768 27C103.768 25.2267 103.974 23.808 104.384 22.744C104.795 21.68 105.374 20.9147 106.12 20.448C106.886 19.9627 107.782 19.72 108.808 19.72C109.294 19.72 109.732 19.7853 110.124 19.916C110.535 20.0467 110.89 20.2147 111.188 20.42V14.4H114.548V34H112.168L111.748 33.16H111.608C111.31 33.44 110.908 33.7013 110.404 33.944C109.919 34.168 109.294 34.28 108.528 34.28ZM109.648 32.32C110.003 32.32 110.292 32.264 110.516 32.152C110.759 32.0213 110.983 31.8907 111.188 31.76V22.24C111.058 22.0907 110.852 21.96 110.572 21.848C110.311 21.736 110.003 21.68 109.648 21.68C109.182 21.68 108.752 21.8293 108.36 22.128C107.987 22.4267 107.688 22.968 107.464 23.752C107.24 24.5173 107.128 25.6 107.128 27C107.128 28.4 107.24 29.4827 107.464 30.248C107.688 31.0133 107.987 31.5547 108.36 31.872C108.752 32.1707 109.182 32.32 109.648 32.32ZM130.092 34.28C129.121 34.28 128.281 34.2053 127.572 34.056C126.881 33.9253 126.181 33.72 125.472 33.44V14.4H128.832V20.42C129.13 20.2147 129.476 20.0467 129.868 19.916C130.278 19.7853 130.726 19.72 131.212 19.72C132.238 19.72 133.125 19.9627 133.872 20.448C134.637 20.9147 135.225 21.68 135.636 22.744C136.046 23.808 136.252 25.2267 136.252 27C136.252 28.7733 136.028 30.192 135.58 31.256C135.15 32.32 134.478 33.0947 133.564 33.58C132.649 34.0467 131.492 34.28 130.092 34.28ZM128.832 32.32H130.092C130.652 32.32 131.137 32.1707 131.548 31.872C131.977 31.5547 132.304 31.0133 132.528 30.248C132.77 29.4827 132.892 28.4 132.892 27C132.892 25.6 132.78 24.5173 132.556 23.752C132.332 22.968 132.024 22.4267 131.632 22.128C131.258 21.8293 130.838 21.68 130.372 21.68C130.017 21.68 129.709 21.736 129.448 21.848C129.186 21.96 128.981 22.0907 128.832 22.24V32.32ZM143.675 39.88C142.984 39.88 142.312 39.8147 141.659 39.684C141.006 39.572 140.464 39.4507 140.035 39.32V37.92H143.115C144.16 37.92 144.954 37.5933 145.495 36.94C146.055 36.2867 146.335 35.12 146.335 33.44C145.98 33.72 145.56 33.9253 145.075 34.056C144.608 34.2053 144.095 34.28 143.535 34.28C142.751 34.28 142.023 34.1587 141.351 33.916C140.698 33.6733 140.175 33.2347 139.783 32.6C139.391 31.9467 139.195 31.0133 139.195 29.8V20H142.555V29.8C142.555 30.7707 142.788 31.4333 143.255 31.788C143.722 32.1427 144.235 32.32 144.795 32.32C145.15 32.32 145.458 32.264 145.719 32.152C145.999 32.0213 146.204 31.8907 146.335 31.76V20H149.695V32.88C149.695 34.56 149.471 35.9133 149.023 36.94C148.594 37.9667 147.931 38.7133 147.035 39.18C146.158 39.6467 145.038 39.88 143.675 39.88Z" fill="#555555"/>
<g clip-path="url(#clip0_673_4)">
<path d="M194.647 16.3984C188.179 9.41271 170.587 13.2936 169.811 16.3984V36.0616C173.95 41.7536 192.319 40.46 194.647 36.0616V16.3984Z" fill="#FF6112"/>
<path d="M195.089 16.4035C194.49 14.1837 190.03 12 182.229 12C174.428 12 169.968 14.1837 169.369 16.4035C169.326 16.4796 169.294 16.5629 169.294 16.6571V16.9158V22.8665V23.1253V23.384V29.076V29.3347V29.5935V35.8029C169.294 35.8867 169.316 35.9659 169.354 36.0363C169.965 38.5692 175.432 40.46 182.229 40.46C189.01 40.46 194.468 38.577 195.1 36.0534C195.141 35.9794 195.164 35.894 195.164 35.8029V29.5935V29.3347V29.076V23.384V23.1253V22.8665V16.9158V16.6571C195.164 16.5629 195.132 16.4796 195.089 16.4035ZM194.089 29.5857C194.074 29.6483 194.054 29.7104 194.029 29.7735C194.008 29.8248 193.983 29.876 193.955 29.9272C193.92 29.9909 193.881 30.0545 193.835 30.1182C193.801 30.1663 193.762 30.2139 193.722 30.2615C193.664 30.3293 193.603 30.3971 193.534 30.4643C193.492 30.5052 193.446 30.5456 193.399 30.5864C193.315 30.6604 193.226 30.7339 193.127 30.8069C193.085 30.8385 193.039 30.869 192.994 30.9C192.877 30.9808 192.755 31.061 192.621 31.1396C192.586 31.1608 192.548 31.181 192.512 31.2017C192.357 31.2886 192.196 31.375 192.023 31.4589C192 31.4697 191.977 31.4801 191.954 31.4904C191.76 31.582 191.557 31.6721 191.341 31.759C191.334 31.7616 191.328 31.7637 191.322 31.7662C190.147 32.2356 188.644 32.6304 186.892 32.8891C186.884 32.8902 186.875 32.8912 186.866 32.8927C186.526 32.9429 186.176 32.9874 185.818 33.0268C185.759 33.033 185.698 33.0371 185.639 33.0433C185.326 33.0759 185.009 33.1059 184.683 33.1297C184.534 33.1406 184.378 33.1458 184.226 33.1551C183.981 33.1696 183.738 33.1856 183.487 33.1944C183.076 33.2074 182.657 33.2156 182.229 33.2156C181.801 33.2156 181.382 33.2074 180.971 33.1929C180.719 33.1841 180.476 33.1675 180.231 33.1535C180.08 33.1447 179.923 33.1391 179.774 33.1282C179.448 33.1044 179.132 33.0744 178.819 33.0418C178.76 33.0356 178.698 33.0314 178.64 33.0252C178.281 32.9859 177.932 32.9409 177.591 32.8912C177.583 32.8902 177.574 32.8891 177.565 32.8876C175.813 32.6288 174.31 32.234 173.135 31.7647C173.129 31.7626 173.123 31.76 173.117 31.7574C172.9 31.6705 172.697 31.5805 172.503 31.4889C172.481 31.478 172.457 31.4677 172.435 31.4573C172.261 31.3735 172.1 31.2876 171.946 31.2002C171.91 31.1795 171.871 31.1593 171.836 31.1381C171.702 31.0594 171.58 30.9792 171.463 30.8985C171.419 30.8674 171.372 30.8369 171.33 30.8053C171.231 30.7324 171.143 30.6589 171.058 30.5849C171.012 30.5445 170.965 30.5042 170.923 30.4628C170.854 30.3955 170.793 30.3282 170.736 30.2599C170.695 30.2123 170.656 30.1647 170.622 30.1166C170.577 30.053 170.538 29.9893 170.503 29.9257C170.475 29.8744 170.45 29.8232 170.429 29.772C170.403 29.7094 170.383 29.6468 170.369 29.5841C170.35 29.5019 170.328 29.418 170.328 29.3347C170.328 29.2763 170.335 29.2178 170.344 29.1598C170.357 29.0817 170.35 29.0036 170.328 28.9296V25.088C170.343 25.1014 170.361 25.1144 170.376 25.1278C170.489 25.2272 170.604 25.326 170.733 25.4212C172.682 26.8954 176.58 28.0411 182.229 28.0411C187.854 28.0411 191.742 26.9048 193.7 25.4393C193.856 25.3255 193.997 25.208 194.129 25.0885L194.13 28.9296C194.108 29.0036 194.101 29.0817 194.113 29.1598C194.123 29.2178 194.13 29.2763 194.13 29.3347C194.13 29.418 194.108 29.5019 194.089 29.5857ZM194.13 18.8785V22.7201C194.108 22.7941 194.101 22.8722 194.113 22.9504C194.123 23.0083 194.13 23.0668 194.13 23.1253C194.13 23.2086 194.108 23.2924 194.089 23.3762C194.074 23.4388 194.054 23.5009 194.029 23.5641C194.008 23.6153 193.983 23.6665 193.955 23.7178C193.92 23.7814 193.881 23.8451 193.835 23.9087C193.801 23.9568 193.762 24.0044 193.722 24.052C193.664 24.1198 193.603 24.1876 193.534 24.2549C193.492 24.2958 193.446 24.3361 193.399 24.377C193.315 24.451 193.226 24.5245 193.127 24.5974C193.085 24.629 193.039 24.6595 192.994 24.6906C192.877 24.7713 192.755 24.8515 192.621 24.9302C192.586 24.9514 192.548 24.9716 192.512 24.9922C192.357 25.0792 192.196 25.1656 192.023 25.2494C192 25.2603 191.977 25.2706 191.954 25.281C191.76 25.3726 191.557 25.4626 191.341 25.5495C191.334 25.5521 191.328 25.5542 191.322 25.5568C190.147 26.0261 188.644 26.4209 186.892 26.6797C186.884 26.6807 186.875 26.6817 186.866 26.6833C186.526 26.7335 186.176 26.778 185.818 26.8173C185.759 26.8235 185.698 26.8277 185.639 26.8339C185.326 26.8665 185.009 26.8965 184.683 26.9203C184.534 26.9312 184.378 26.9363 184.226 26.9456C183.981 26.9601 183.738 26.9762 183.487 26.985C183.076 26.9979 182.657 27.0062 182.229 27.0062C181.801 27.0062 181.382 26.9979 180.971 26.9834C180.719 26.9746 180.476 26.9581 180.231 26.9441C180.08 26.9353 179.923 26.9296 179.774 26.9187C179.448 26.8949 179.132 26.8649 178.819 26.8323C178.76 26.8261 178.698 26.822 178.64 26.8158C178.281 26.7764 177.932 26.7314 177.591 26.6817C177.583 26.6807 177.574 26.6797 177.565 26.6781C175.813 26.4194 174.31 26.0246 173.135 25.5552C173.129 25.5532 173.123 25.5506 173.117 25.548C172.9 25.4611 172.697 25.371 172.503 25.2794C172.481 25.2686 172.457 25.2582 172.435 25.2479C172.261 25.164 172.1 25.0781 171.946 24.9907C171.91 24.97 171.871 24.9498 171.836 24.9286C171.702 24.8499 171.58 24.7697 171.463 24.689C171.419 24.658 171.372 24.6274 171.33 24.5959C171.231 24.5229 171.143 24.4494 171.058 24.3754C171.012 24.3351 170.965 24.2947 170.923 24.2533C170.854 24.1861 170.793 24.1188 170.736 24.0505C170.695 24.0029 170.656 23.9553 170.622 23.9071C170.577 23.8435 170.538 23.7799 170.503 23.7162C170.475 23.665 170.45 23.6137 170.429 23.5625C170.403 23.4999 170.383 23.4373 170.369 23.3747C170.35 23.2924 170.328 23.2086 170.328 23.1253C170.328 23.0668 170.335 23.0083 170.344 22.9504C170.357 22.8722 170.35 22.7941 170.328 22.7201V18.8785C170.39 18.9349 170.461 18.9903 170.529 19.0462C170.566 19.0772 170.601 19.1083 170.64 19.1393C170.795 19.2614 170.963 19.382 171.144 19.4995C171.182 19.5238 171.225 19.5476 171.264 19.5719C171.416 19.6666 171.577 19.7592 171.746 19.8503C171.809 19.8839 171.871 19.9171 171.936 19.9502C172.125 20.0464 172.323 20.1401 172.532 20.2306C172.566 20.2456 172.597 20.2612 172.631 20.2757C172.874 20.3786 173.132 20.4769 173.4 20.5722C173.474 20.5985 173.551 20.6234 173.627 20.6493C173.841 20.7212 174.061 20.79 174.289 20.8568C174.371 20.8806 174.452 20.9054 174.537 20.9282C174.839 21.012 175.152 21.0917 175.48 21.1652C175.525 21.1755 175.573 21.1838 175.619 21.1936C175.908 21.2567 176.208 21.3152 176.517 21.3701C176.621 21.3887 176.727 21.4063 176.834 21.4239C177.127 21.472 177.429 21.516 177.739 21.5564C177.819 21.5667 177.895 21.5786 177.976 21.5884C178.361 21.635 178.759 21.6748 179.168 21.709C179.269 21.7173 179.374 21.7235 179.477 21.7307C179.804 21.7545 180.139 21.7742 180.482 21.7897C180.606 21.7954 180.73 21.8011 180.858 21.8058C181.304 21.8208 181.758 21.8316 182.229 21.8316C182.7 21.8316 183.154 21.8208 183.6 21.8058C183.727 21.8011 183.851 21.7954 183.976 21.7897C184.319 21.7742 184.654 21.7545 184.981 21.7307C185.084 21.723 185.188 21.7173 185.289 21.709C185.699 21.6754 186.097 21.635 186.482 21.5884C186.563 21.5786 186.639 21.5667 186.719 21.5564C187.028 21.516 187.33 21.472 187.624 21.4239C187.731 21.4063 187.837 21.3887 187.941 21.3701C188.25 21.3152 188.55 21.2567 188.839 21.1936C188.884 21.1838 188.933 21.175 188.978 21.1652C189.306 21.0917 189.619 21.0115 189.921 20.9282C190.006 20.9049 190.086 20.8806 190.169 20.8568C190.397 20.79 190.617 20.7212 190.83 20.6493C190.907 20.6234 190.984 20.5985 191.058 20.5722C191.326 20.4769 191.584 20.3786 191.826 20.2757C191.861 20.2612 191.892 20.2456 191.926 20.2306C192.135 20.1396 192.333 20.0464 192.522 19.9502C192.587 19.9171 192.65 19.8839 192.712 19.8503C192.881 19.7597 193.042 19.6671 193.194 19.5719C193.233 19.5476 193.276 19.5238 193.314 19.4995C193.495 19.382 193.663 19.262 193.818 19.1393C193.857 19.1083 193.892 19.0772 193.929 19.0462C193.997 18.9903 194.067 18.9349 194.13 18.8785ZM182.229 13.0349C189.243 13.0349 194.13 15.0799 194.13 16.9158C194.13 18.7517 189.243 20.7967 182.229 20.7967C175.215 20.7967 170.328 18.7517 170.328 16.9158C170.328 15.0799 175.215 13.0349 182.229 13.0349ZM194.13 35.6492C194.122 35.672 194.117 35.6953 194.113 35.7191C193.82 37.509 188.974 39.4251 182.229 39.4251C175.484 39.4251 170.638 37.509 170.345 35.7191C170.341 35.6958 170.335 35.673 170.328 35.6513V31.2974C170.343 31.3109 170.361 31.3238 170.376 31.3373C170.489 31.4366 170.604 31.5355 170.733 31.6307C172.682 33.1049 176.58 34.2505 182.229 34.2505C187.854 34.2505 191.742 33.1142 193.7 31.6488C193.856 31.5349 193.997 31.4175 194.129 31.2979L194.13 35.6492Z" fill="white"/>
</g>
<path fill-rule="evenodd" clip-rule="evenodd" d="M196.594 38.289C198.653 37.7278 200.318 36.6549 200.803 35.2267V17.1089C199.771 15.3728 198.259 14.3652 196.594 13.8754V38.289Z" fill="#FF6112"/>
<path fill-rule="evenodd" clip-rule="evenodd" d="M196.594 38.8969C199.051 38.2621 200.802 36.8937 201.071 35.2191C201.096 35.1509 201.11 35.0722 201.11 34.9883V29.2669V29.0285V28.7901V23.5454V23.307V23.0687V17.5856V17.3472C201.11 17.2605 201.091 17.1837 201.065 17.1136C200.801 15.5895 199.268 14.084 196.594 13.4155V14.4033C198.991 15.0443 200.497 16.3651 200.497 17.5856C200.497 18.8062 198.991 20.127 196.594 20.768V21.7528C196.611 21.7484 196.629 21.7439 196.647 21.7394C196.71 21.7232 196.773 21.707 196.834 21.6898C197.017 21.6393 197.195 21.5854 197.366 21.5272C197.379 21.5228 197.392 21.5186 197.406 21.5145C197.42 21.5101 197.434 21.5057 197.448 21.501C197.642 21.4333 197.827 21.3594 198.006 21.2826C198.041 21.268 198.074 21.2529 198.107 21.2378C198.122 21.2308 198.137 21.2238 198.153 21.2168C198.288 21.1553 198.418 21.0919 198.545 21.0256C198.561 21.017 198.577 21.0086 198.593 21.0001C198.622 20.9851 198.651 20.9701 198.679 20.9546C198.838 20.8669 198.991 20.7763 199.134 20.6814C199.146 20.6736 199.157 20.6656 199.168 20.6574C199.177 20.6516 199.185 20.6457 199.193 20.6399C199.317 20.556 199.434 20.4702 199.546 20.3815C199.584 20.351 199.621 20.3205 199.658 20.2895C199.758 20.206 199.853 20.1207 199.943 20.033C199.953 20.0236 199.963 20.0143 199.973 20.005C199.987 19.9921 200.001 19.9792 200.014 19.9662C200.122 19.858 200.221 19.7474 200.313 19.6344C200.326 19.618 200.338 19.6017 200.351 19.5853C200.36 19.5731 200.369 19.5608 200.379 19.5485C200.39 19.5332 200.402 19.518 200.414 19.5027C200.443 19.4666 200.471 19.4306 200.497 19.3941V22.9337C200.484 23.0019 200.48 23.0739 200.488 23.1459C200.493 23.1993 200.497 23.2532 200.497 23.307C200.497 23.3786 200.486 23.4505 200.475 23.5224C200.475 23.5277 200.474 23.533 200.473 23.5383C200.464 23.596 200.452 23.6532 200.437 23.7114C200.425 23.7586 200.41 23.8058 200.394 23.853C200.373 23.9116 200.35 23.9703 200.323 24.0289C200.303 24.0732 200.28 24.1171 200.256 24.161C200.222 24.2234 200.186 24.2859 200.145 24.3479C200.12 24.385 200.093 24.4217 200.066 24.4588L200.065 24.4604C200.015 24.5286 199.962 24.5963 199.904 24.6635C199.884 24.6863 199.863 24.7085 199.843 24.7308C199.837 24.737 199.831 24.7431 199.825 24.7493C199.756 24.8237 199.684 24.8976 199.604 24.9701C199.59 24.9836 199.575 24.9967 199.56 25.0099C199.553 25.0157 199.546 25.0215 199.54 25.0273C199.448 25.1074 199.353 25.187 199.25 25.2643C199.239 25.2724 199.228 25.2801 199.217 25.2879C199.215 25.2897 199.212 25.2915 199.21 25.2933C199.095 25.3777 198.975 25.4607 198.846 25.5408C198.845 25.542 198.843 25.5431 198.841 25.5441C198.839 25.5452 198.837 25.5463 198.835 25.5475C198.226 25.9261 197.469 26.2522 196.594 26.4874V27.4769C198.267 27.0585 199.494 26.3122 200.243 25.4392C200.335 25.3343 200.418 25.2261 200.497 25.116L200.497 28.6552C200.484 28.7233 200.48 28.7953 200.488 28.8673C200.493 28.9207 200.497 28.9746 200.497 29.0285C200.497 29.1 200.486 29.1719 200.475 29.2438C200.475 29.2491 200.474 29.2544 200.473 29.2597C200.464 29.3174 200.452 29.3746 200.437 29.4328C200.425 29.48 200.41 29.5272 200.394 29.5744C200.373 29.633 200.35 29.6917 200.323 29.7503C200.303 29.7947 200.28 29.8385 200.256 29.8824C200.222 29.9449 200.186 30.0073 200.145 30.0693C200.12 30.1064 200.093 30.1431 200.066 30.1802L200.065 30.1818C200.015 30.25 199.962 30.3177 199.904 30.3849C199.884 30.4077 199.863 30.4299 199.843 30.4523C199.837 30.4584 199.831 30.4646 199.825 30.4707C199.756 30.5451 199.684 30.619 199.604 30.6915C199.59 30.7051 199.575 30.7182 199.56 30.7313C199.553 30.7371 199.546 30.7429 199.54 30.7487C199.448 30.8288 199.353 30.9084 199.25 30.9857C199.239 30.9938 199.228 31.0015 199.217 31.0092C199.215 31.0111 199.212 31.0129 199.21 31.0148C199.095 31.0992 198.975 31.1821 198.846 31.2622C198.845 31.2634 198.843 31.2645 198.841 31.2655C198.839 31.2666 198.837 31.2677 198.835 31.2689C198.226 31.6476 197.469 31.9736 196.594 32.2089V33.1984C198.267 32.7799 199.494 32.0337 200.243 31.1607C200.335 31.0558 200.418 30.9475 200.497 30.8374L200.497 34.8467C200.493 34.8677 200.49 34.8891 200.487 34.9111C200.364 36.0839 198.878 37.3156 196.594 37.9293V38.8969Z" fill="white"/>
<path fill-rule="evenodd" clip-rule="evenodd" d="M202.539 38.2891C204.598 37.7279 206.263 36.655 206.749 35.2269V17.109C205.716 15.373 204.205 14.3653 202.539 13.8755V38.2891Z" fill="#FF6112"/>
<path fill-rule="evenodd" clip-rule="evenodd" d="M202.539 38.897C204.997 38.2623 206.747 36.8938 207.016 35.2193C207.041 35.1511 207.055 35.0724 207.055 34.9885V29.2671V29.0287V28.7903V23.5457V23.3073V23.0689V17.5858V17.3474C207.055 17.2607 207.036 17.1839 207.01 17.1138C206.746 15.5898 205.213 14.0842 202.539 13.4158V14.4035C204.937 15.0445 206.442 16.3653 206.442 17.5858C206.442 18.8063 204.937 20.1271 202.539 20.7681V21.753C202.557 21.7485 202.574 21.7441 202.592 21.7396C202.655 21.7234 202.718 21.7072 202.78 21.69C202.962 21.6395 203.14 21.5856 203.311 21.5274C203.324 21.523 203.338 21.5189 203.351 21.5147C203.365 21.5103 203.38 21.5059 203.393 21.5012C203.587 21.4335 203.772 21.3596 203.952 21.2828C203.986 21.2682 204.019 21.2531 204.052 21.238C204.067 21.231 204.083 21.224 204.098 21.217C204.233 21.1555 204.363 21.0921 204.49 21.0258C204.506 21.0173 204.522 21.0088 204.538 21.0004C204.567 20.9853 204.596 20.9704 204.624 20.9548C204.783 20.8671 204.936 20.7765 205.079 20.6816C205.091 20.6738 205.102 20.6658 205.114 20.6576C205.122 20.6518 205.13 20.6459 205.138 20.6401C205.262 20.5562 205.379 20.4704 205.491 20.3817C205.529 20.3512 205.566 20.3207 205.603 20.2897C205.703 20.2062 205.799 20.1209 205.889 20.0332C205.898 20.0238 205.908 20.0145 205.918 20.0052C205.932 19.9923 205.946 19.9795 205.959 19.9664C206.067 19.8582 206.166 19.7476 206.258 19.6346C206.271 19.6182 206.283 19.6019 206.296 19.5855C206.305 19.5733 206.314 19.561 206.324 19.5488C206.336 19.5335 206.348 19.5182 206.36 19.5029C206.388 19.4669 206.416 19.4308 206.442 19.3943V22.9339C206.429 23.0021 206.425 23.0741 206.433 23.1461C206.439 23.1995 206.442 23.2534 206.442 23.3073C206.442 23.3788 206.431 23.4507 206.42 23.5226C206.42 23.5279 206.419 23.5332 206.418 23.5385C206.409 23.5962 206.398 23.6534 206.383 23.7116C206.37 23.7588 206.355 23.806 206.339 23.8532C206.318 23.9118 206.295 23.9705 206.268 24.0291C206.248 24.0735 206.225 24.1173 206.201 24.1612C206.167 24.2236 206.131 24.2861 206.09 24.3481C206.065 24.3852 206.038 24.4219 206.011 24.459L206.01 24.4606C205.96 24.5288 205.908 24.5965 205.849 24.6637C205.829 24.6865 205.809 24.7087 205.788 24.731C205.782 24.7372 205.776 24.7434 205.77 24.7495C205.701 24.8239 205.629 24.8978 205.55 24.9703C205.535 24.9839 205.52 24.997 205.505 25.0101C205.498 25.0159 205.491 25.0217 205.485 25.0275C205.393 25.1076 205.298 25.1872 205.195 25.2645C205.185 25.2726 205.174 25.2804 205.163 25.2881C205.16 25.2899 205.157 25.2917 205.155 25.2935C205.04 25.3779 204.92 25.4609 204.792 25.541C204.79 25.5422 204.788 25.5433 204.786 25.5443C204.784 25.5454 204.782 25.5465 204.781 25.5477C204.172 25.9263 203.414 26.2523 202.539 26.4876V27.4771C204.212 27.0587 205.439 26.3124 206.188 25.4394C206.28 25.3346 206.364 25.2263 206.442 25.1162L206.442 28.6554C206.429 28.7235 206.425 28.7955 206.433 28.8675C206.439 28.9209 206.442 28.9748 206.442 29.0287C206.442 29.1002 206.431 29.1721 206.42 29.2441C206.42 29.2493 206.419 29.2546 206.418 29.2599C206.409 29.3176 206.398 29.3748 206.383 29.433C206.37 29.4802 206.355 29.5274 206.339 29.5746C206.318 29.6333 206.295 29.6919 206.268 29.7505C206.248 29.7949 206.225 29.8387 206.201 29.8826C206.167 29.9451 206.131 30.0075 206.09 30.0695C206.065 30.1066 206.038 30.1433 206.011 30.1804L206.01 30.182C205.96 30.2502 205.908 30.3179 205.849 30.3851C205.829 30.4079 205.809 30.4301 205.788 30.4524C205.782 30.4586 205.776 30.4648 205.77 30.471C205.701 30.5453 205.629 30.6192 205.55 30.6917C205.535 30.7053 205.52 30.7184 205.505 30.7315C205.498 30.7373 205.491 30.7431 205.485 30.7489C205.393 30.829 205.298 30.9087 205.195 30.9859C205.185 30.994 205.174 31.0018 205.163 31.0095C205.16 31.0113 205.157 31.0132 205.155 31.015C205.04 31.0994 204.92 31.1823 204.792 31.2624C204.788 31.2648 204.784 31.2667 204.781 31.2691C204.172 31.6478 203.414 31.9738 202.539 32.209V33.1985C204.212 32.7801 205.439 32.0339 206.188 31.1609C206.28 31.056 206.364 30.9477 206.442 30.8376L206.442 34.8469C206.438 34.8679 206.435 34.8893 206.432 34.9113C206.309 36.0841 204.823 37.3158 202.539 37.9295V38.897Z" fill="white"/>
<path fill-rule="evenodd" clip-rule="evenodd" d="M208.484 38.2891C210.544 37.7279 212.208 36.655 212.694 35.2268V17.109C211.661 15.373 210.15 14.3653 208.484 13.8755V38.2891Z" fill="#FF6112"/>
<path fill-rule="evenodd" clip-rule="evenodd" d="M208.484 38.897C210.942 38.2623 212.693 36.8938 212.962 35.2192C212.986 35.151 213 35.0724 213 34.9885V29.267V29.0286V28.7902V23.5456V23.3072V23.0688V17.5858V17.3474C213 17.2606 212.981 17.1839 212.955 17.1138C212.691 15.5897 211.158 14.0842 208.484 13.4157V14.4035C210.882 15.0445 212.388 16.3653 212.388 17.5858C212.388 18.8063 210.882 20.1271 208.484 20.7681V21.7529C208.502 21.7485 208.52 21.744 208.537 21.7395C208.6 21.7233 208.663 21.7071 208.725 21.69C208.907 21.6394 209.085 21.5855 209.256 21.5274C209.269 21.523 209.283 21.5188 209.296 21.5147C209.311 21.5102 209.325 21.5058 209.339 21.5012C209.533 21.4334 209.718 21.3595 209.897 21.2828C209.931 21.2681 209.964 21.253 209.997 21.2379C210.013 21.2309 210.028 21.2239 210.043 21.217C210.178 21.1555 210.309 21.0921 210.435 21.0258C210.451 21.0172 210.468 21.0088 210.484 21.0003C210.513 20.9853 210.542 20.9703 210.57 20.9548C210.728 20.867 210.881 20.7764 211.024 20.6816C211.036 20.6738 211.048 20.6657 211.059 20.6576C211.067 20.6517 211.075 20.6459 211.084 20.6401C211.207 20.5562 211.324 20.4703 211.436 20.3817C211.474 20.3511 211.512 20.3206 211.548 20.2896C211.649 20.2062 211.744 20.1209 211.834 20.0331C211.844 20.0238 211.854 20.0145 211.864 20.0052C211.878 19.9923 211.892 19.9794 211.905 19.9664C212.012 19.8581 212.111 19.7475 212.203 19.6345C212.216 19.6182 212.229 19.6018 212.241 19.5855C212.25 19.5732 212.259 19.561 212.269 19.5487C212.281 19.5334 212.293 19.5182 212.305 19.5029C212.333 19.4668 212.362 19.4308 212.388 19.3942V22.9339C212.375 23.0021 212.37 23.0741 212.378 23.1461C212.384 23.1995 212.388 23.2533 212.388 23.3072C212.388 23.3787 212.377 23.4506 212.366 23.5226C212.365 23.5279 212.364 23.5332 212.363 23.5385C212.355 23.5961 212.343 23.6534 212.328 23.7115C212.316 23.7587 212.301 23.8059 212.284 23.8531C212.264 23.9118 212.241 23.9704 212.213 24.0291C212.193 24.0734 212.17 24.1173 212.146 24.1611C212.112 24.2236 212.076 24.2861 212.035 24.348C212.011 24.3852 211.984 24.4218 211.957 24.459L211.955 24.4606C211.905 24.5287 211.853 24.5964 211.794 24.6637C211.775 24.6865 211.754 24.7087 211.733 24.731C211.727 24.7371 211.721 24.7433 211.716 24.7495C211.646 24.8239 211.574 24.8978 211.495 24.9702C211.48 24.9838 211.465 24.9969 211.45 25.01C211.443 25.0158 211.437 25.0216 211.43 25.0275C211.339 25.1076 211.243 25.1872 211.141 25.2644C211.13 25.2725 211.119 25.2803 211.108 25.288C211.105 25.2899 211.103 25.2917 211.1 25.2935C210.985 25.3779 210.865 25.4609 210.737 25.541C210.735 25.5421 210.733 25.5432 210.731 25.5443C210.73 25.5454 210.728 25.5464 210.726 25.5476C210.117 25.9263 209.359 26.2523 208.484 26.4876V27.4771C210.157 27.0586 211.384 26.3124 212.133 25.4394C212.226 25.3345 212.309 25.2263 212.387 25.1161L212.388 28.6553C212.375 28.7235 212.37 28.7955 212.378 28.8675C212.384 28.9209 212.388 28.9748 212.388 29.0286C212.388 29.1001 212.377 29.1721 212.366 29.244C212.365 29.2493 212.364 29.2546 212.363 29.2599C212.355 29.3176 212.343 29.3748 212.328 29.433C212.316 29.4802 212.301 29.5274 212.284 29.5746C212.264 29.6332 212.241 29.6919 212.213 29.7505C212.193 29.7948 212.17 29.8387 212.146 29.8826C212.112 29.945 212.076 30.0075 212.035 30.0695C212.011 30.1066 211.984 30.1433 211.957 30.1804L211.955 30.182C211.905 30.2502 211.853 30.3179 211.794 30.3851C211.775 30.4079 211.754 30.4301 211.733 30.4524C211.727 30.4585 211.721 30.4647 211.716 30.4709C211.646 30.5453 211.574 30.6192 211.495 30.6917C211.48 30.7052 211.465 30.7183 211.45 30.7315C211.443 30.7372 211.437 30.743 211.43 30.7489C211.339 30.829 211.243 30.9086 211.141 30.9858C211.13 30.9939 211.119 31.0017 211.108 31.0095C211.105 31.0113 211.103 31.0131 211.1 31.0149C210.985 31.0993 210.865 31.1823 210.737 31.2624C210.733 31.2648 210.73 31.2667 210.726 31.2691C210.117 31.6477 209.359 31.9737 208.484 32.209V33.1985C210.157 32.7801 211.384 32.0338 212.133 31.1608C212.226 31.0559 212.309 30.9477 212.387 30.8376L212.388 34.8469C212.383 34.8678 212.38 34.8893 212.378 34.9112C212.254 36.0841 210.768 37.3158 208.484 37.9294V38.897Z" fill="white"/>
</g>
<defs>
<filter id="filter0_d_673_4" x="0" y="0" width="406" height="51" filterUnits="userSpaceOnUse" color-interpolation-filters="sRGB">
<feFlood flood-opacity="0" result="BackgroundImageFix"/>
<feColorMatrix in="SourceAlpha" type="matrix" values="0 0 0 0 0 0 0 0 0 0 0 0 0 0 0 0 0 0 127 0" result="hardAlpha"/>
<feOffset dx="1" dy="1"/>
<feGaussianBlur stdDeviation="0.5"/>
<feColorMatrix type="matrix" values="0 0 0 0 0 0 0 0 0 0 0 0 0 0 0 0 0 0 0.25 0"/>
<feBlend mode="normal" in2="BackgroundImageFix" result="effect1_dropShadow_673_4"/>
<feBlend mode="normal" in="SourceGraphic" in2="effect1_dropShadow_673_4" result="shape"/>
</filter>
<clipPath id="clip0_673_4">
<rect width="28.4579" height="28.46" fill="white" transform="translate(168 12)"/>
</clipPath>
</defs>
</svg>
