<?xml version="1.0" encoding="utf-8"?>
<!-- Generator: Adobe Illustrator 23.0.4, SVG Export Plug-In . SVG Version: 6.00 Build 0)  -->
<svg version="1.1" id="Layer_1" xmlns="http://www.w3.org/2000/svg" xmlns:xlink="http://www.w3.org/1999/xlink" x="0px" y="0px"
	 viewBox="0 0 176 176" enable-background="new 0 0 176 176" xml:space="preserve">
<g>
	<circle fill="#FF6112" cx="87.957" cy="87.957" r="87.957"/>
	<g>
		<defs>
			<circle id="SVGID_1_" cx="87.957" cy="87.957" r="87.957"/>
		</defs>
		<clipPath id="SVGID_2_">
			<use xlink:href="#SVGID_1_"  overflow="visible"/>
		</clipPath>
		<g clip-path="url(#SVGID_2_)">
			<rect x="116.036" y="235.518" fill="#FFFFFF" width="6.361" height="35.422"/>
			<path fill="#FFFFFF" d="M146.421,235.518h-1.873v35.531h1.873c1.008,0,1.827-0.82,1.827-1.828v-31.877
				C148.248,236.338,147.429,235.518,146.421,235.518z"/>
			<rect x="99.215" y="235.518" fill="#FFFFFF" width="9.265" height="35.531"/>
			<path fill="#FFFFFF" d="M57.658,175.951l-6.147,6.771c-0.276,0.304-0.654,0.458-1.035,0.458c-0.335,0-0.671-0.12-0.939-0.363
				c-0.571-0.519-0.614-1.402-0.095-1.974l6.147-6.771c0.519-0.571,1.401-0.614,1.974-0.095
				C58.135,174.495,58.178,175.379,57.658,175.951z"/>
			<rect x="40.475" y="282.371" fill="#FFFFFF" width="20.003" height="17.144"/>
			<path fill="#FFFFFF" d="M69.611,300.913h-9.132H40.475h-9.132c-4.591,0-8.326,3.734-8.326,8.325v1.664h54.919v-1.664
				C77.936,304.648,74.202,300.913,69.611,300.913z"/>
			<rect x="23.017" y="312.3" fill="#FFFFFF" width="54.919" height="4.757"/>
			<rect x="112.764" y="282.371" fill="#FFFFFF" width="20.003" height="17.144"/>
			<rect x="95.306" y="312.3" fill="#FFFFFF" width="54.92" height="4.757"/>
			<path fill="#FFFFFF" d="M141.9,300.913h-9.133h-20.003h-9.132c-4.591,0-8.326,3.734-8.326,8.325v1.664h54.92v-1.664
				C150.225,304.648,146.49,300.913,141.9,300.913z"/>
			<path fill="#FFFFFF" d="M-17.189,244.557v12.836c0,2.342,1.775,4.257,4.047,4.524v-21.883
				C-15.413,240.3-17.189,242.215-17.189,244.557z"/>
			<path fill="#FFFFFF" d="M-11.743,230.831c0,0.006-0.002,0.011-0.002,0.017v7.822v0.699v0.699v21.815v0.699v0.698v2.552
				c0,2.431,1.978,4.409,4.409,4.409s4.409-1.978,4.409-4.409v-34.932h-8.123C-11.287,230.901-11.512,230.857-11.743,230.831z"/>
			<path fill="#FFFFFF" d="M-13.236,146.274v-24.108c-2.239,0.38-3.953,2.321-3.953,4.666v14.776
				C-17.189,143.953-15.475,145.894-13.236,146.274z"/>
			<path fill="#FFFFFF" d="M1.67,153.125c0.06,0,0.115,0.016,0.174,0.018v-3.197c-2.843-1.596-4.771-4.636-4.771-8.122v-25.679
				c0-0.775,0.106-1.525,0.285-2.245h-6.675c-1.39,0-2.522,1.132-2.522,2.522v4.328v0.699v0.699v24.146v0.699v0.699v5.514
				c0.261-0.034,0.518-0.08,0.788-0.08H1.67z"/>
			<path fill="#FFFFFF" d="M25.488,108.23H6.386c-3.052,0-5.701,1.739-7.021,4.276c-0.118,0.226-0.224,0.457-0.32,0.695
				c-0.092,0.228-0.174,0.461-0.245,0.699c-0.211,0.713-0.329,1.465-0.329,2.245v25.679c0,2.674,1.336,5.038,3.373,6.472
				c0.225,0.159,0.457,0.307,0.698,0.442c0.226,0.126,0.46,0.242,0.699,0.347c0.965,0.42,2.027,0.655,3.145,0.655h11.226v-27.814
				C17.612,116.089,20.785,110.992,25.488,108.23z"/>
			<path fill="#FFFFFF" d="M3.072,154.756c-0.221-0.068-0.445-0.125-0.678-0.161c-0.232-0.036-0.465-0.071-0.706-0.072
				c-0.006,0-0.011-0.002-0.018-0.002h-12.72c-0.21,0-0.41,0.036-0.613,0.062c-0.235,0.031-0.463,0.077-0.686,0.14
				c-0.225,0.064-0.447,0.132-0.657,0.226c-1.666,0.751-2.832,2.419-2.832,4.361v67.345c0,2,1.236,3.714,2.982,4.429
				c0.213,0.087,0.436,0.15,0.663,0.206c0.226,0.056,0.459,0.086,0.695,0.108c0.15,0.014,0.295,0.045,0.448,0.045h7.891h0.729h0.727
				H1.67c2.641,0,4.789-2.149,4.789-4.789v-67.345C6.459,157.162,5.026,155.36,3.072,154.756z"/>
			<path fill="#FFFFFF" d="M188.743,240.034v21.883c2.272-0.267,4.047-2.182,4.047-4.524v-12.836
				C192.79,242.215,191.015,240.3,188.743,240.034z"/>
			<path fill="#FFFFFF" d="M186.652,230.901h-8.123v34.932c0,2.431,1.978,4.409,4.409,4.409c2.431,0,4.409-1.978,4.409-4.409v-2.552
				v-0.698v-0.699v-21.815v-0.699v-0.699v-7.822c0-0.006-0.002-0.011-0.002-0.017C187.113,230.857,186.888,230.901,186.652,230.901z
				"/>
			<path fill="#FFFFFF" d="M188.837,122.166v24.108c2.239-0.38,3.953-2.321,3.953-4.666v-14.776
				C192.79,124.487,191.076,122.547,188.837,122.166z"/>
			<path fill="#FFFFFF" d="M178.528,141.824c0,3.485-1.928,6.526-4.77,8.122v3.197c0.059-0.002,0.113-0.018,0.173-0.018h12.721
				c0.27,0,0.527,0.046,0.788,0.08v-5.514v-0.698v-0.699v-24.146v-0.699v-0.699v-4.328c0-1.39-1.131-2.522-2.522-2.522h-6.675
				c0.179,0.721,0.285,1.47,0.285,2.245V141.824z"/>
			<path fill="#FFFFFF" d="M169.215,149.739c1.117,0,2.18-0.236,3.145-0.655c0.239-0.104,0.473-0.22,0.699-0.347
				c0.241-0.135,0.474-0.283,0.699-0.442c2.036-1.434,3.372-3.798,3.372-6.472v-25.679c0-0.78-0.118-1.533-0.329-2.245
				c-0.071-0.238-0.153-0.471-0.245-0.699c-0.096-0.237-0.202-0.469-0.32-0.695c-1.32-2.537-3.97-4.276-7.022-4.276h-20.29
				c4.703,2.761,7.876,7.859,7.876,13.695v27.814H169.215z"/>
			<path fill="#FFFFFF" d="M191.44,226.656v-67.345c0-1.942-1.167-3.61-2.832-4.361c-0.21-0.094-0.433-0.162-0.657-0.226
				c-0.223-0.064-0.451-0.109-0.686-0.14c-0.203-0.026-0.404-0.062-0.613-0.062h-12.721c-0.006,0-0.011,0.002-0.017,0.002
				c-0.242,0.001-0.475,0.036-0.707,0.071c-0.233,0.036-0.457,0.093-0.678,0.161c-1.954,0.604-3.387,2.406-3.387,4.555v67.345
				c0,2.64,2.148,4.789,4.789,4.789h3.373h0.727h0.729h7.892c0.153,0,0.298-0.031,0.448-0.045c0.237-0.022,0.47-0.052,0.695-0.108
				c0.227-0.056,0.451-0.12,0.663-0.207C190.204,230.37,191.44,228.656,191.44,226.656z"/>
			<path fill="#FFFFFF" d="M128.02,93.935c-0.751,0.215-1.541,0.337-2.36,0.337H49.752c-0.815,0-1.6-0.121-2.348-0.334v3.211h80.616
				V93.935z"/>
			<path fill="#FFFFFF" d="M46.706,99.681h-0.699h-1.68c-0.976,0-1.77,0.794-1.77,1.77v3.215h90.31v-3.215
				c0-0.976-0.794-1.77-1.77-1.77h-1.68h-0.698h-0.699H47.405H46.706z"/>
			<path fill="#FFFFFF" d="M12.269,73.017h5.654c-0.002-0.068-0.02-0.131-0.02-0.2v-6.634h-5.634c-1.044,0-1.893,0.849-1.893,1.893
				v3.048C10.376,72.168,11.225,73.017,12.269,73.017z"/>
			<path fill="#FFFFFF" d="M20.242,73.716c0.048,0.242,0.125,0.472,0.209,0.699c0.656,1.783,2.355,3.065,4.363,3.065h3.861
				c-0.037-0.238-0.073-0.476-0.073-0.723V55.95h-3.788c-2.571,0-4.662,2.092-4.662,4.662v4.173v0.698v0.699v6.634
				c0,0.069,0.017,0.132,0.02,0.2C20.181,73.254,20.197,73.489,20.242,73.716z"/>
			<path fill="#FFFFFF" d="M31.179,78.178c0.121,0.254,0.274,0.485,0.452,0.699c0.613,0.738,1.525,1.218,2.557,1.218h0.66
				c-0.001-0.036-0.011-0.07-0.011-0.107v-1.922v-0.789v-0.896V57.049v-0.897v-0.789v-4.49h-0.649c-1.841,0-3.339,1.498-3.339,3.339
				v0.341v0.699v0.699v20.806c0,0.249,0.032,0.49,0.084,0.723C30.987,77.725,31.073,77.956,31.179,78.178z"/>
			<path fill="#FFFFFF" d="M37.234,80.794c0.092,0.257,0.225,0.491,0.393,0.699c0.443,0.551,1.114,0.91,1.874,0.91h0.803v-1.247
				v-0.763v-0.793V51.367v-0.793v-0.762v-3.586c0-0.146,0.015-0.287,0.022-0.431H39.5c-1.332,0-2.415,1.084-2.415,2.415v1.265v0.699
				v0.699v5.56v1.089v1.51v15.367v1.51v1.089v2.991c0,0.037,0.009,0.071,0.011,0.107C37.107,80.34,37.155,80.574,37.234,80.794z"/>
			<path fill="#FFFFFF" d="M165.652,71.124v-3.048c0-1.044-0.849-1.893-1.893-1.893h-5.633v6.634c0,0.069-0.018,0.132-0.02,0.2
				h5.654C164.803,73.017,165.652,72.168,165.652,71.124z"/>
			<path fill="#FFFFFF" d="M155.577,74.415c0.084-0.227,0.162-0.457,0.209-0.699c0.045-0.227,0.06-0.462,0.071-0.699
				c0.003-0.068,0.02-0.131,0.02-0.2v-6.634v-0.699v-0.698v-4.173c0-2.571-2.091-4.662-4.662-4.662h-3.788v20.806
				c0,0.248-0.036,0.486-0.073,0.723h3.861C153.223,77.48,154.922,76.197,155.577,74.415z"/>
			<path fill="#FFFFFF" d="M144.397,78.877c0.178-0.214,0.332-0.445,0.452-0.699c0.105-0.222,0.191-0.453,0.246-0.698
				c0.052-0.234,0.084-0.475,0.084-0.723V55.95v-0.699v-0.699v-0.341c0-1.841-1.498-3.339-3.339-3.339h-0.649v4.49v0.789v0.897
				v19.332v0.897v0.789v1.922c0,0.037-0.01,0.071-0.011,0.107h0.66C142.872,80.095,143.784,79.615,144.397,78.877z"/>
			<path fill="#FFFFFF" d="M135.109,50.118v0.813v0.904v27.299v0.904v0.813v1.553h1.419c0.76,0,1.43-0.36,1.874-0.91
				c0.168-0.208,0.301-0.442,0.393-0.699c0.079-0.221,0.127-0.454,0.138-0.699c0.002-0.036,0.011-0.07,0.011-0.107v-2.991v-1.088
				v-1.511V59.031V57.52v-1.088v-5.56v-0.699v-0.699V48.21c0-1.331-1.084-2.415-2.415-2.415h-1.441
				c0.007,0.143,0.022,0.285,0.022,0.431V50.118z"/>
			<path fill="#FFFFFF" d="M65.207,24.676c1.106,0.65,2.389,1.029,3.762,1.029c1.487,0,2.87-0.442,4.035-1.195
				c2.057-1.33,3.424-3.639,3.424-6.265c0-4.114-3.347-7.46-7.46-7.46c-4.114,0-7.46,3.347-7.46,7.46
				C61.509,20.986,62.999,23.38,65.207,24.676z"/>
			<path fill="#FFFFFF" d="M102.473,24.658c1.103,0.648,2.382,1.026,3.751,1.026c1.483,0,2.862-0.441,4.024-1.192
				c2.051-1.326,3.415-3.628,3.415-6.247c0-4.102-3.337-7.439-7.439-7.439c-4.101,0-7.439,3.337-7.439,7.439
				C98.786,20.978,100.272,23.365,102.473,24.658z"/>
			<path fill="#FFFFFF" d="M143.951,108.295c-0.46-0.165-0.93-0.306-1.41-0.424c-0.438-0.108-0.884-0.194-1.337-0.261
				c-0.692-0.102-1.395-0.172-2.114-0.172h-4.823h-0.699h-0.698h-90.31h-0.699H41.16h-5.818c-0.405,0-0.804,0.028-1.201,0.061
				c-0.556,0.046-1.106,0.116-1.643,0.223c-0.631,0.126-1.242,0.303-1.841,0.508c-5.694,1.954-9.803,7.348-9.803,13.695v27.814
				v0.699v0.698v117.291c0,7.988,6.499,14.487,14.488,14.487h5.133h20.003h52.285h20.003h6.322c7.988,0,14.487-6.499,14.487-14.487
				V151.137v-0.698v-0.699v-27.814C153.576,115.644,149.551,110.3,143.951,108.295z M134.558,136.365h2.873h0.699h0.699h0.333v7.719
				v1.829v1.298v2.297h-4.604V136.365z M125.102,120.689h7.983v7.983h-7.983V120.689z M122.218,136.365h4.603v13.144h-4.603V136.365
				z M113.342,120.689h7.983v7.983h-7.983V120.689z M109.877,136.365h4.604v13.144h-4.604V136.365z M101.581,120.689h7.983v7.983
				h-7.983V120.689z M102.14,136.365v13.144h-4.603v-13.144H102.14z M89.821,120.689h7.983v7.983h-7.983V120.689z M78.061,120.689
				h7.983v7.983h-7.983V120.689z M66.301,120.689h7.984v7.983h-7.984V120.689z M77.459,136.365v13.144h-4.603v-13.144H77.459z
				 M54.54,120.689h7.983v7.983H54.54V120.689z M65.119,136.365v13.144h-4.603v-13.144H65.119z M48.175,136.365h4.604v13.144h-4.604
				V136.365z M35.835,147.97v-1.11v-1.308v-9.188h0.937h0.699h0.699h2.268v13.144h-4.603V147.97z M23.494,136.365h4.604v13.144
				h-4.604V136.365z M54.424,272.881c-9.752,0-17.657-7.905-17.657-17.657s7.905-17.657,17.657-17.657s17.657,7.905,17.657,17.657
				S64.175,272.881,54.424,272.881z M78.557,227.727c0,2.821-2.295,5.116-5.116,5.116H31.19c-2.821,0-5.116-2.295-5.116-5.116
				v-18.401c0-2.821,2.295-5.116,5.116-5.116h42.251c2.821,0,5.116,2.295,5.116,5.116V227.727z M78.557,194.695
				c0,2.709-2.204,4.912-4.912,4.912H30.986c-2.708,0-4.912-2.204-4.912-4.912v-28.391c0-2.708,2.204-4.912,4.912-4.912h42.659
				c2.709,0,4.912,2.204,4.912,4.912V194.695z M85.197,136.365H89.8v13.144h-4.603V136.365z M149.646,271.163
				c0,1.778-1.447,3.225-3.225,3.225h-13.654h-20.003H89.732c-1.778,0-3.225-1.447-3.225-3.225v-31.877
				c0-1.778,1.447-3.225,3.225-3.225h56.689c1.778,0,3.225,1.447,3.225,3.225V271.163z M149.646,228.207
				c0,2.556-2.08,4.636-4.636,4.636H91.144c-2.556,0-4.636-2.079-4.636-4.636v-62.178c0-2.556,2.08-4.636,4.636-4.636h53.866
				c2.556,0,4.636,2.08,4.636,4.636V228.207z M151.502,149.509h-4.603v-13.144h4.603V149.509z"/>
			<path fill="#FFFFFF" d="M73.441,203.667H31.19c-2.05,0-3.718,1.668-3.718,3.718v18.401c0,2.05,1.668,3.718,3.718,3.718h42.251
				c2.051,0,3.719-1.668,3.719-3.718v-18.401C77.16,205.335,75.492,203.667,73.441,203.667z M73.177,223.094
				c0,1.462-1.185,2.647-2.647,2.647H34.498c-1.462,0-2.647-1.185-2.647-2.647v-0.124c0.261-0.078,0.508-0.208,0.691-0.435
				l8.078-9.988l8.341,11.176c0.246,0.33,0.626,0.535,1.037,0.559c0.028,0.002,0.056,0.003,0.083,0.003
				c0.381,0,0.748-0.156,1.013-0.434l5.239-5.509l5.187,4.382c0.496,0.419,1.214,0.439,1.735,0.055l5.865-4.35l3.187,3.279
				c0.24,0.247,0.552,0.369,0.871,0.4V223.094z M73.177,218.593l-2.907-2.99c-0.487-0.502-1.271-0.565-1.834-0.148l-5.958,4.419
				l-5.348-4.518c-0.566-0.476-1.406-0.43-1.915,0.105l-5.006,5.262l-8.426-11.29c-0.258-0.346-0.661-0.553-1.093-0.562
				c-0.433-0.009-0.842,0.184-1.114,0.519l-7.727,9.554v-8.405c0-1.462,1.185-2.647,2.647-2.647H70.53
				c1.462,0,2.647,1.185,2.647,2.647V218.593z"/>
			<rect x="94.252" y="235.518" fill="#FFFFFF" width="3.565" height="35.531"/>
			<path fill="#FFFFFF" d="M87.905,237.345v31.877c0,1.008,0.82,1.827,1.827,1.827h3.123v-35.531h-3.123
				C88.725,235.518,87.905,236.338,87.905,237.345z"/>
			<polygon fill="#FFFFFF" points="109.877,271.049 112.764,271.049 114.639,271.049 114.639,270.94 114.639,235.518 
				109.877,235.518 			"/>
			<polygon fill="#FFFFFF" points="123.795,270.94 123.795,271.049 132.767,271.049 136.161,271.049 136.161,235.518 
				123.795,235.518 			"/>
			<rect x="137.559" y="235.518" fill="#FFFFFF" width="5.592" height="35.531"/>
			<rect x="116.036" y="270.94" fill="#FFFFFF" width="6.361" height="0.109"/>
			<path fill="#FFFFFF" d="M54.424,244.346c-0.772,0-1.398,0.626-1.398,1.398v4.826l-8.361-5.964
				c-0.629-0.451-1.503-0.303-1.949,0.326c-0.448,0.628-0.302,1.501,0.326,1.949l10.57,7.54c0.241,0.173,0.525,0.26,0.811,0.26
				c0.219,0,0.438-0.051,0.64-0.155c0.465-0.239,0.758-0.719,0.758-1.243v-7.54C55.822,244.972,55.196,244.346,54.424,244.346z"/>
			<path fill="#FFFFFF" d="M62.97,67.671h9.11v-9.304h-9.11V67.671z M64.089,63.799v-4.203h3.173v3.551h3.173v3.173H66.61h-2.521
				V63.799z"/>
			<path fill="#FFFFFF" d="M103.366,67.671h9.284v-9.304h-9.284V67.671z M104.647,63.799v-4.203h3.173v3.551h3.173v3.173h-3.825
				h-2.521V63.799z"/>
			<path fill="#FFFFFF" d="M132.817,45.795c-0.014-0.236-0.034-0.47-0.07-0.699c-0.038-0.239-0.089-0.469-0.15-0.699
				c-0.815-3.082-3.601-5.372-6.936-5.372H110.61v-0.699v-0.699V26.91c-1.358,0.715-2.901,1.124-4.539,1.124
				c-1.517,0-2.949-0.357-4.231-0.975v10.568v0.699v0.699H73.355v-0.699v-0.699V26.91c-1.358,0.714-2.901,1.124-4.539,1.124
				c-1.518,0-2.949-0.357-4.232-0.976v10.568v0.699v0.699H49.752c-3.335,0-6.121,2.29-6.936,5.372
				c-0.061,0.23-0.112,0.461-0.15,0.699c-0.036,0.229-0.056,0.463-0.07,0.699c-0.009,0.145-0.043,0.283-0.043,0.431v4.451v1.002
				v1.379v24.851v1.379v1.002v2.113v0.698v0.699v0.172c0,2.594,1.392,4.853,3.455,6.12c0.226,0.139,0.458,0.267,0.699,0.38
				c0.227,0.106,0.46,0.192,0.699,0.275c0.74,0.257,1.521,0.426,2.348,0.426h75.908c0.831,0,1.617-0.17,2.36-0.43
				c0.238-0.083,0.473-0.17,0.699-0.278c0.241-0.114,0.474-0.241,0.698-0.379c2.058-1.269,3.443-3.524,3.443-6.114v-0.172v-0.699
				v-0.698v-2.771v-1.357V52.692v-1.357v-5.109C132.861,46.078,132.826,45.94,132.817,45.795z M59.489,54.733h16.074v16.075H59.489
				V54.733z M104.108,82.282c-0.563,0-1.066-0.225-1.451-0.577H72.485c-0.386,0.352-0.888,0.577-1.452,0.577
				c-1.208,0-2.188-0.979-2.188-2.187s0.979-2.187,2.188-2.187c0.666,0,1.257,0.3,1.657,0.77h29.76c0.4-0.47,0.992-0.77,1.657-0.77
				c1.208,0,2.188,0.979,2.188,2.187S105.316,82.282,104.108,82.282z M116.02,70.808H99.944V54.733h16.076V70.808z"/>
		</g>
	</g>
</g>
</svg>
