<svg width="56" height="56" viewBox="0 0 56 56" fill="none" xmlns="http://www.w3.org/2000/svg">
<path d="M48.4882 30.731C48.4882 31.2288 48.2919 31.7063 47.9426 32.0583C47.5933 32.4103 47.1195 32.6081 46.6256 32.6081C46.1316 32.6081 45.6579 32.4103 45.3086 32.0583C44.9593 31.7063 44.763 31.2288 44.763 30.731V13.9617C44.763 13.4639 44.9593 12.9864 45.3086 12.6344C45.6579 12.2824 46.1316 12.0846 46.6256 12.0846C47.1195 12.0846 47.5933 12.2824 47.9426 12.6344C48.2919 12.9864 48.4882 13.4639 48.4882 13.9617V30.731ZM47.8416 42.3501C47.5954 42.5983 40.6685 48.4156 27.9692 48.4156C15.2699 48.4156 8.38929 42.6294 8.09678 42.3811C7.91245 42.2245 7.76068 42.0328 7.65006 41.8169C7.53943 41.601 7.47216 41.3653 7.45217 41.1232C7.43209 40.881 7.45975 40.6373 7.53338 40.4059C7.607 40.1746 7.72521 39.9602 7.88127 39.7749C8.20274 39.4001 8.65827 39.1686 9.14844 39.1308C9.63868 39.093 10.1238 39.2521 10.4981 39.5733C10.6058 39.6509 16.7938 44.708 27.9538 44.708C39.1138 44.708 45.348 39.6199 45.4096 39.5733C45.788 39.255 46.2747 39.0979 46.7663 39.1356C47.2578 39.1733 47.7154 39.4026 48.0417 39.7749C48.3558 40.1442 48.5125 40.6235 48.478 41.1085C48.4433 41.5937 48.2202 42.0454 47.857 42.3656L47.8416 42.3501ZM7.43485 13.9617C7.46274 13.4623 7.68561 12.9943 8.0548 12.66C8.424 12.3257 8.90949 12.1523 9.40517 12.1777C9.86469 12.204 10.2983 12.4009 10.6224 12.7302C10.9464 13.0597 11.1379 13.4983 11.16 13.9617V30.7C11.16 31.1978 10.9638 31.6753 10.6145 32.0273C10.2651 32.3792 9.79145 32.5771 9.29745 32.5771C8.80346 32.5771 8.32969 32.3792 7.98041 32.0273C7.63113 31.6753 7.43485 31.1978 7.43485 30.7V13.9617ZM16.7785 10.2386C16.8063 9.7392 17.0292 9.27118 17.3984 8.93692C17.7676 8.60266 18.2531 8.42921 18.7487 8.45464C19.2083 8.48092 19.6419 8.67774 19.966 9.00717C20.29 9.33661 20.4815 9.77529 20.5036 10.2386V35.0591C20.5036 35.5569 20.3073 36.0343 19.9581 36.3864C19.6087 36.7383 19.135 36.9362 18.641 36.9362C18.147 36.9362 17.6733 36.7383 17.324 36.3864C16.9747 36.0343 16.7785 35.5569 16.7785 35.0591V10.2386ZM26.1682 9.3078C26.1682 8.80997 26.3645 8.3326 26.7138 7.98057C27.063 7.62853 27.5368 7.43079 28.0308 7.43079C28.5248 7.43079 28.9985 7.62853 29.3478 7.98057C29.6971 8.3326 29.8933 8.80997 29.8933 9.3078V36.3001C29.8933 36.7979 29.6971 37.2754 29.3478 37.6273C28.9985 37.9794 28.5248 38.1772 28.0308 38.1772C27.5368 38.1772 27.063 37.9794 26.7138 37.6273C26.3645 37.2754 26.1682 36.7979 26.1682 36.3001V9.3078ZM35.4041 10.2386C35.4041 9.74074 35.6003 9.26336 35.9496 8.91133C36.2989 8.5593 36.7727 8.36156 37.2667 8.36156C37.7606 8.36156 38.2343 8.5593 38.5836 8.91133C38.933 9.26336 39.1292 9.74074 39.1292 10.2386V35.0591C39.1292 35.5569 38.933 36.0343 38.5836 36.3864C38.2343 36.7383 37.7606 36.9362 37.2667 36.9362C36.7727 36.9362 36.2989 36.7383 35.9496 36.3864C35.6003 36.0343 35.4041 35.5569 35.4041 35.0591V10.2386ZM48.9961 0.000154886H7.00391C6.08893 -0.00597411 5.18168 0.169852 4.33419 0.517519C3.48678 0.865186 2.71568 1.37795 2.06509 2.0264C1.41449 2.67477 0.897207 3.44618 0.542875 4.29635C0.188542 5.14652 0.00406046 6.05882 0 6.98092V48.8655C0.00406046 49.7876 0.188542 50.6999 0.542875 51.55C0.897207 52.4002 1.41449 53.1716 2.06509 53.82C2.71568 54.4684 3.48678 54.9812 4.33419 55.3289C5.18168 55.6765 6.08893 55.8524 7.00391 55.8462H48.9961C49.9099 55.8524 50.8158 55.6771 51.6623 55.3303C52.5087 54.9837 53.2791 54.4723 53.9295 53.8255C54.5799 53.1787 55.0974 52.4092 55.4527 51.5608C55.8079 50.7124 55.9939 49.8018 56 48.881V6.98092C55.9959 6.06012 55.812 5.14912 55.4586 4.29995C55.1052 3.45078 54.5893 2.68013 53.9404 2.03192C53.2914 1.38362 52.5222 0.870626 51.6765 0.521963C50.8307 0.173376 49.9252 -0.00398218 49.0115 0.000154886" fill="white"/>
</svg>
