<svg width="56" height="56" viewBox="0 0 56 56" fill="none" xmlns="http://www.w3.org/2000/svg">
<path d="M11.7655 35.3876C11.7655 38.6254 9.12052 41.2704 5.88274 41.2704C2.64495 41.2704 0 38.6254 0 35.3876C0 32.1498 2.64495 29.5049 5.88274 29.5049H11.7655V35.3876Z" fill="white"/>
<path d="M14.7296 35.3876C14.7296 32.1498 17.3746 29.5049 20.6124 29.5049C23.8502 29.5049 26.4951 32.1498 26.4951 35.3876V50.1173C26.4951 53.3551 23.8502 56 20.6124 56C17.3746 56 14.7296 53.3551 14.7296 50.1173V35.3876Z" fill="white"/>
<path d="M20.6124 11.7655C17.3746 11.7655 14.7296 9.12052 14.7296 5.88274C14.7296 2.64495 17.3746 0 20.6124 0C23.8502 0 26.4951 2.64495 26.4951 5.88274V11.7655H20.6124Z" fill="white"/>
<path d="M20.6124 14.7296C23.8502 14.7296 26.4951 17.3746 26.4951 20.6124C26.4951 23.8502 23.8502 26.4951 20.6124 26.4951H5.88274C2.64495 26.4951 0 23.8502 0 20.6124C0 17.3746 2.64495 14.7296 5.88274 14.7296H20.6124Z" fill="white"/>
<path d="M44.2345 20.6124C44.2345 17.3746 46.8795 14.7296 50.1173 14.7296C53.3551 14.7296 56 17.3746 56 20.6124C56 23.8502 53.3551 26.4951 50.1173 26.4951H44.2345V20.6124Z" fill="white"/>
<path d="M41.2704 20.6124C41.2704 23.8502 38.6254 26.4951 35.3876 26.4951C32.1498 26.4951 29.5049 23.8502 29.5049 20.6124V5.88274C29.5049 2.64495 32.1498 0 35.3876 0C38.6254 0 41.2704 2.64495 41.2704 5.88274V20.6124Z" fill="white"/>
<path d="M35.3876 44.2345C38.6254 44.2345 41.2704 46.8795 41.2704 50.1173C41.2704 53.3551 38.6254 56 35.3876 56C32.1498 56 29.5049 53.3551 29.5049 50.1173V44.2345H35.3876Z" fill="white"/>
<path d="M35.3876 41.2704C32.1498 41.2704 29.5049 38.6254 29.5049 35.3876C29.5049 32.1498 32.1498 29.5049 35.3876 29.5049H50.1173C53.3551 29.5049 56 32.1498 56 35.3876C56 38.6254 53.3551 41.2704 50.1173 41.2704H35.3876Z" fill="white"/>
</svg>
