<svg width="78" height="24" viewBox="0 0 78 24" fill="none" xmlns="http://www.w3.org/2000/svg">
<path d="M25.8773 13.4437L24.4953 9.1875C24.4959 9.18942 24.4962 9.19141 24.4968 9.19332C24.4961 9.1911 24.4957 9.18888 24.4951 9.18666C24.495 9.18651 24.495 9.18643 24.495 9.18628C24.495 9.1862 24.495 9.18613 24.495 9.18613L21.7515 0.73989C21.6015 0.294921 21.1885 -0.00371716 20.7151 3.49551e-05C20.2404 0.00248531 19.8387 0.295303 19.6919 0.746399L17.0877 8.76351H8.87099L6.26205 0.745939C6.11533 0.295303 5.71371 0.00248531 5.23895 3.49551e-05C5.23703 3.49551e-05 5.2352 3.49551e-05 5.23321 3.49551e-05C4.76572 3.49551e-05 4.352 0.296835 4.2003 0.746782L1.4644 9.18544L1.46402 9.18651C1.46402 9.18658 1.46402 9.18666 1.46402 9.18674C1.46333 9.18888 1.46302 9.19103 1.46233 9.19317C1.46294 9.19126 1.46318 9.18926 1.46379 9.18735L0.0767308 13.4439C-0.131933 14.0864 0.0944954 14.7847 0.640313 15.1817L12.6167 23.8835C12.6185 23.8848 12.6205 23.8855 12.6223 23.8868C12.6274 23.8905 12.6324 23.8943 12.6376 23.8977C12.6327 23.8944 12.6281 23.8908 12.6233 23.8874C12.6233 23.8874 12.6233 23.8874 12.6232 23.8874C12.6239 23.888 12.6249 23.8884 12.6257 23.8889C12.6264 23.8894 12.6271 23.8897 12.6278 23.8901C12.6279 23.8902 12.6279 23.8903 12.6281 23.8903C12.6466 23.9032 12.6658 23.915 12.6857 23.9258C12.6885 23.9273 12.691 23.9292 12.6937 23.9307C12.6938 23.9307 12.6938 23.9308 12.6939 23.9308C12.6955 23.9316 12.6971 23.9327 12.6988 23.9335C12.7001 23.9341 12.7014 23.9345 12.7027 23.9351C12.7036 23.9356 12.7046 23.9359 12.7055 23.9363C12.7077 23.9374 12.7102 23.9381 12.7124 23.9392C12.7228 23.9442 12.7338 23.9482 12.7445 23.9526C12.7545 23.9567 12.7642 23.9616 12.7745 23.9652C12.775 23.9653 12.7753 23.9655 12.7758 23.9657C12.7775 23.9663 12.779 23.9671 12.7808 23.9678C12.7829 23.9685 12.785 23.9694 12.7871 23.9701C12.788 23.9703 12.7888 23.9704 12.7897 23.9707C12.7923 23.9715 12.7952 23.9719 12.7979 23.9727C12.7989 23.973 12.8001 23.9731 12.8011 23.9734C12.8155 23.9778 12.8305 23.9809 12.8453 23.9842C12.8511 23.9855 12.8567 23.9874 12.8626 23.9884C12.8635 23.9886 12.8642 23.9889 12.8652 23.989C12.8671 23.9894 12.8688 23.9901 12.8708 23.9904C12.874 23.991 12.877 23.992 12.8802 23.9924C12.8828 23.9928 12.8854 23.9926 12.8879 23.993C12.8884 23.9931 12.8887 23.993 12.8892 23.9931C12.8894 23.9931 12.8894 23.9931 12.8896 23.9931C12.9178 23.9972 12.9465 24 12.9757 24C12.9758 24 12.976 24 12.9762 24C12.9763 24 12.9763 24 12.9763 24H12.9764C12.9765 24 12.9766 24 12.9766 24C13.0059 24 13.0345 23.9972 13.0629 23.9931C13.0629 23.9931 13.0631 23.9931 13.0632 23.9931C13.0636 23.993 13.0641 23.9931 13.0646 23.993C13.0671 23.9926 13.0698 23.9928 13.0723 23.9924C13.0755 23.9919 13.0786 23.991 13.0818 23.9904C13.0837 23.9901 13.0855 23.9894 13.0874 23.989C13.0882 23.9889 13.089 23.9886 13.0898 23.9884C13.0958 23.9873 13.1015 23.9855 13.1075 23.9841C13.1221 23.9809 13.1368 23.9778 13.1512 23.9735C13.1522 23.9732 13.1531 23.9731 13.1541 23.9728C13.157 23.972 13.1599 23.9716 13.1627 23.9707C13.1636 23.9704 13.1645 23.9704 13.1653 23.9701C13.1675 23.9694 13.1697 23.9685 13.1718 23.9678C13.1735 23.9671 13.175 23.9663 13.1767 23.9657C13.1772 23.9655 13.1776 23.9653 13.178 23.9652C13.1889 23.9613 13.1992 23.9563 13.2098 23.9519C13.2197 23.9478 13.2298 23.9441 13.2394 23.9395C13.2418 23.9384 13.2443 23.9377 13.2466 23.9365C13.2476 23.9361 13.2486 23.9358 13.2496 23.9353C13.2509 23.9347 13.2522 23.9343 13.2535 23.9336C13.2553 23.9327 13.257 23.9316 13.2587 23.9308C13.2587 23.9308 13.2587 23.9308 13.2587 23.9307C13.2616 23.9292 13.2641 23.9272 13.2669 23.9256C13.2867 23.9149 13.3058 23.9032 13.3243 23.8904C13.3257 23.8894 13.3274 23.8887 13.329 23.8876C13.3293 23.8873 13.3298 23.8871 13.3302 23.8868C13.3319 23.8855 13.334 23.8847 13.3358 23.8834L25.3139 15.1814C25.8595 14.7846 26.0858 14.0863 25.8773 13.4437ZM20.7226 1.5312L23.0717 8.76351H18.3736L20.7226 1.5312ZM22.6604 9.98647L21.7018 11.2146L14.6319 20.2732L17.9762 9.9864H22.6604V9.98647ZM12.3947 23.5777C12.3947 23.5776 12.3947 23.5776 12.3947 23.5777C12.3953 23.5795 12.3963 23.5812 12.3969 23.5831C12.3963 23.5812 12.3953 23.5795 12.3947 23.5777ZM11.3221 20.2738L3.29811 9.98647H7.98258L11.3221 20.2738ZM5.23152 1.53113L7.58494 8.76351H2.88668L5.23152 1.53113ZM1.35934 14.1924C1.24325 14.1079 1.19517 13.9588 1.23966 13.822L2.27072 10.6578L9.82571 20.3438L1.35934 14.1924ZM12.5957 23.8673C12.5933 23.8654 12.591 23.8633 12.5887 23.8613C12.5883 23.8609 12.5878 23.8604 12.5873 23.86C12.5827 23.8562 12.5782 23.8523 12.5737 23.8483C12.565 23.8407 12.5564 23.833 12.5482 23.8249C12.5489 23.8255 12.5497 23.826 12.5504 23.8266C12.5513 23.8275 12.5523 23.8282 12.5532 23.829C12.5707 23.8458 12.5892 23.8616 12.6085 23.8761C12.6087 23.8763 12.6089 23.8765 12.6091 23.8766C12.61 23.8773 12.6108 23.8782 12.6117 23.8789C12.6063 23.8751 12.6008 23.8714 12.5957 23.8673ZM12.9766 21.4096L11.0115 15.3562L9.26826 9.98647H16.6902L12.9766 21.4096ZM13.3787 23.8482C13.3741 23.8522 13.3697 23.8562 13.365 23.86C13.3645 23.8605 13.364 23.861 13.3634 23.8615C13.361 23.8634 13.3588 23.8655 13.3565 23.8674C13.3515 23.8714 13.346 23.8751 13.3407 23.879C13.3416 23.8783 13.3424 23.8774 13.3434 23.8768C13.3435 23.8766 13.3437 23.8765 13.3438 23.8763C13.3631 23.8618 13.3815 23.8462 13.3989 23.8294C13.3996 23.8287 13.4004 23.8282 13.4011 23.8276C13.402 23.8267 13.403 23.826 13.4039 23.8252C13.3957 23.8331 13.3873 23.8407 13.3787 23.8482ZM24.5949 14.1922L16.1297 20.3419L23.6872 10.6586L24.7141 13.8214C24.7587 13.9588 24.7107 14.108 24.5949 14.1922Z" fill="#231F20"/>
<path d="M54.8371 5.83032H53.1678L53.1754 18.2736H59.9369V16.7344H54.8447L54.8371 5.83032Z" fill="#231F20"/>
<path d="M66.3712 16.09C65.95 16.5265 65.2532 16.9629 64.3037 16.9629C63.0326 16.9629 62.5195 16.335 62.5195 15.5157C62.5195 14.2829 63.3772 13.6932 65.1996 13.6932C65.5442 13.6932 66.0955 13.7315 66.3789 13.7851V16.09H66.3712ZM64.6406 8.54749C63.2929 8.54749 62.0524 9.02224 61.0876 9.82627L61.6772 10.8524C62.3587 10.4542 63.1934 10.056 64.3956 10.056C65.7663 10.056 66.3712 10.7605 66.3712 11.9397V12.5446C66.1032 12.491 65.5519 12.4527 65.2149 12.4527C62.2898 12.4527 60.8043 13.4788 60.8043 15.6229C60.8043 17.5449 61.9835 18.5097 63.7677 18.5097C64.9699 18.5097 66.1262 17.9584 66.5243 17.0625L66.8306 18.28H68.0099V11.9091C68.0022 9.89518 67.1293 8.54749 64.6406 8.54749Z" fill="#231F20"/>
<path d="M73.396 17.0199C72.7681 17.0199 72.2168 16.9434 71.8033 16.7519V11.5985V11.0012C72.3699 10.5265 73.0744 10.1819 73.9703 10.1819C75.586 10.1819 76.2063 11.3229 76.2063 13.1683C76.2063 15.7871 75.2032 17.0199 73.396 17.0199ZM74.1005 8.55089C72.6073 8.55089 71.8033 9.56932 71.8033 9.56932V7.96127L71.7956 5.83252H71.0452H70.1646L70.1723 17.9695C70.9916 18.314 72.1096 18.4978 73.3271 18.4978C76.4437 18.4978 77.9445 16.5069 77.9445 13.0687C77.9368 10.3504 76.5509 8.55089 74.1005 8.55089Z" fill="#231F20"/>
<path d="M36.6617 7.18045C38.1395 7.18045 39.0967 7.67052 39.717 8.16825L40.4368 6.9201C39.4643 6.06247 38.1472 5.60303 36.7382 5.60303C33.1852 5.60303 30.6966 7.77006 30.6966 12.1424C30.6966 16.7215 33.3843 18.5057 36.4549 18.5057C37.9941 18.5057 39.3035 18.1458 40.1611 17.7859L40.1228 12.8928V12.3185V11.3537H35.5667V12.8928H38.4765L38.5148 16.6067C38.1319 16.7981 37.4734 16.9513 36.5774 16.9513C34.1118 16.9513 32.4578 15.3968 32.4578 12.1271C32.4501 8.79615 34.1577 7.18045 36.6617 7.18045Z" fill="#231F20"/>
<path d="M48.4179 5.82861H46.7868L46.7945 7.91908V8.7767V9.27443V10.1474V15.1247V15.14C46.7945 17.1539 47.6674 18.5016 50.1561 18.5016C50.5007 18.5016 50.8376 18.4709 51.1592 18.4097V16.9471C50.9218 16.9854 50.6691 17.0007 50.4011 17.0007C49.0304 17.0007 48.4255 16.2962 48.4255 15.117V10.1397H51.1592V8.7767H48.4255L48.4179 5.82861Z" fill="#231F20"/>
<path d="M42.6389 18.2736H44.2699V8.77844H42.6389V18.2736Z" fill="#231F20"/>
<path d="M42.6389 7.46903H44.2699V5.83801H42.6389V7.46903Z" fill="#231F20"/>
</svg>
