<svg width="66" height="24" viewBox="0 0 66 24" fill="none" xmlns="http://www.w3.org/2000/svg">
<path d="M43.5575 5.07616V16.2703C43.5575 16.4477 43.4245 16.5807 43.2471 16.5807H40.964C40.7866 16.5807 40.6536 16.4477 40.6536 16.2703V5.07616C40.6536 4.89883 40.7866 4.76583 40.964 4.76583H43.2471C43.4245 4.788 43.5575 4.921 43.5575 5.07616ZM61.3795 4.788H58.8303C58.6973 4.788 58.5865 4.87667 58.5421 5.00967L56.525 11.6375L54.3083 5.00967C54.264 4.87667 54.1531 4.81017 54.0201 4.81017H52.2246C52.0916 4.81017 51.9808 4.89883 51.9365 5.00967L49.7198 11.6375L47.7026 5.00967C47.6583 4.87667 47.5475 4.788 47.4145 4.788H44.8653C44.7766 4.788 44.6658 4.83233 44.6215 4.921C44.555 5.00967 44.555 5.09833 44.5771 5.187L48.3455 16.4033C48.3898 16.5363 48.5006 16.6028 48.6336 16.6028H50.673C50.806 16.6028 50.9168 16.5142 50.9611 16.4033L53.1556 9.86416L55.3501 16.4033C55.3945 16.5363 55.5053 16.6028 55.6383 16.6028H57.6776C57.8106 16.6028 57.9215 16.5142 57.9658 16.4033L61.7341 5.187C61.7563 5.09833 61.7563 4.9875 61.6898 4.921C61.579 4.83233 61.4903 4.788 61.3795 4.788ZM65.2365 4.788H62.9533C62.776 4.788 62.643 4.921 62.643 5.09833V16.2925C62.643 16.4698 62.776 16.6028 62.9533 16.6028H65.2365C65.4138 16.6028 65.5468 16.4698 65.5468 16.2925V5.09833C65.5468 4.921 65.3916 4.788 65.2365 4.788ZM39.3458 16.2038C39.4788 16.359 39.368 16.5807 39.1685 16.5807H36.3755C36.2647 16.5807 36.1538 16.5363 36.0873 16.4477L35.6218 15.8713C34.6465 16.492 33.4938 16.8688 32.2747 16.8688C28.861 16.8688 26.0902 14.098 26.0902 10.6843C26.0902 7.27067 28.861 4.49983 32.2747 4.49983C35.6883 4.49983 38.4591 7.27067 38.4591 10.6843C38.4591 11.9035 38.1045 13.0562 37.4838 14.0315L39.3458 16.2038ZM33.782 13.7212L32.5628 12.236C32.4298 12.0808 32.5406 11.837 32.7401 11.837H35.3115C35.4445 11.4823 35.511 11.0833 35.511 10.6843C35.511 8.8445 34.1367 7.2485 32.2525 7.2485C30.3683 7.2485 28.994 8.8445 28.994 10.6843C28.994 12.5242 30.3683 14.098 32.2525 14.098C32.8067 14.1202 33.3165 13.965 33.782 13.7212ZM19.019 16.1595C19.0855 16.625 18.9303 16.8245 18.7973 16.8245C18.6422 16.8245 18.4427 16.625 18.1988 16.2703C17.955 15.8935 17.8663 15.4723 17.9993 15.2728C18.0658 15.1398 18.2432 15.0733 18.4427 15.1398C18.8195 15.2728 18.9747 15.8713 19.019 16.1595ZM16.8245 17.157C17.29 17.556 17.4452 18.0437 17.2013 18.3762C17.0683 18.5535 16.8467 18.6643 16.5585 18.6643C16.2925 18.6643 16.0265 18.5757 15.827 18.3983C15.4058 18.0215 15.2728 17.4008 15.561 17.0683C15.6718 16.9353 15.8492 16.8688 16.0708 16.8688C16.3147 16.8688 16.5807 16.9797 16.8245 17.157ZM16.0265 21.0362C18.0658 21.0362 20.2825 21.7455 22.743 23.9178C22.9868 24.1395 23.3193 23.8735 23.0977 23.5853C20.6815 20.5485 18.4648 19.9722 16.2482 19.4845C13.5217 18.886 12.1252 17.3565 11.1498 15.6718C10.9503 15.3393 10.8617 15.4058 10.8617 15.827C10.8395 16.359 10.8838 17.0462 10.9947 17.7333C10.8838 17.7333 10.773 17.7333 10.6622 17.7333C6.783 17.7333 3.61316 14.5857 3.61316 10.6843C3.61316 6.80517 6.76083 3.63533 10.6622 3.63533C14.5635 3.63533 17.7112 6.783 17.7112 10.6843C17.7112 10.9503 17.689 11.2385 17.6668 11.5045C17.157 11.4158 16.1373 11.3937 15.428 11.4602C15.162 11.4823 15.2063 11.6153 15.4058 11.6375C17.7333 12.0587 19.3293 13.4995 19.7062 16.1152C19.7062 16.1817 19.7948 16.2038 19.817 16.1373C20.7702 14.5413 21.3243 12.6793 21.3243 10.6622C21.3243 4.788 16.5585 0 10.6622 0C4.76583 0 0 4.76583 0 10.6622C0 16.5363 4.76583 21.3243 10.6622 21.3243C12.2138 21.3465 13.7655 21.0362 16.0265 21.0362Z" fill="black"/>
</svg>
