<svg width="73" height="20" viewBox="0 0 73 20" fill="none" xmlns="http://www.w3.org/2000/svg">
<path d="M11.0562 15.1691H7.94054C3.02371 15.1691 6.57746 4.83092 10.7154 4.83092H15.6809C16.4598 4.83092 17.8716 4.97585 18.5531 3.04348L19.6241 0H12.8087C9.15758 0 6.28537 1.30435 4.19207 3.42995C0.638314 7.10145 -0.578725 12.8986 0.248861 15.6522C1.07645 18.2126 3.26712 19.9034 6.77219 19.9034H9.44967H12.76L13.5876 17.4879C14.2205 15.7971 12.8574 15.1691 11.0562 15.1691ZM49.2225 10.8696L50.2448 7.58454H39.3401C37.5389 7.58454 36.7113 8.06763 36.3706 9.13043L35.3483 12.4155H46.3016C48.1028 12.4155 48.9304 11.9324 49.2225 10.8696ZM33.7418 16.6667L32.7194 19.9517H43.6728C45.474 19.9517 46.3016 19.4686 46.6424 18.4058L47.6647 15.1208H36.6627C34.8614 15.1691 34.0339 15.6522 33.7418 16.6667ZM51.8026 3.33333L52.8249 0.0483092H41.8716C40.0704 0.0483092 39.2428 0.531401 38.902 1.5942L37.8797 4.83092H48.833C50.6343 4.83092 51.4618 4.34783 51.8026 3.33333ZM35.2509 3.96135C34.8128 0.917874 33.1576 0 29.1657 0H21.8635L17.5795 12.3671H20.257C21.8635 12.3671 22.6911 12.3671 23.5186 10.0966L25.3199 4.83092H28.046C30.3827 4.83092 29.8472 7.72947 28.6789 10.5314C27.6566 12.9952 25.8067 15.1691 23.616 15.1691H19.0886C17.2874 15.1691 16.4111 15.6522 16.119 16.715L14.9994 20H18.3097H21.5714C24.4436 20 26.829 19.7585 29.5552 17.2947C32.476 14.6377 35.8351 7.8744 35.2509 3.96135ZM72.0055 0H65.6769L59.7377 6.28019C59.0562 7.00483 58.3259 7.72947 57.6444 8.59903H57.5957L60.5653 0H55.4051L48.3949 20H53.5552L55.7945 13.7198L58.0825 11.7874L59.8838 17.4879C60.4679 19.2754 61.0521 20 62.2691 20H66.2124L62.1718 8.84058L72.0055 0Z" fill="black"/>
</svg>
